%TF.GenerationSoftware,KiCad,Pcbnew,(5.1.7)-1*%
%TF.CreationDate,2021-01-04T12:01:46+01:00*%
%TF.ProjectId,EZ-PY32,455a2d50-5933-4322-9e6b-696361645f70,rev?*%
%TF.SameCoordinates,Original*%
%TF.FileFunction,Legend,Bot*%
%TF.FilePolarity,Positive*%
%FSLAX46Y46*%
G04 Gerber Fmt 4.6, Leading zero omitted, Abs format (unit mm)*
G04 Created by KiCad (PCBNEW (5.1.7)-1) date 2021-01-04 12:01:46*
%MOMM*%
%LPD*%
G01*
G04 APERTURE LIST*
%ADD10C,0.300000*%
%ADD11C,0.127000*%
%ADD12C,0.010000*%
%ADD13C,0.120000*%
%ADD14C,0.150000*%
G04 APERTURE END LIST*
D10*
X133105217Y-98094022D02*
X132890931Y-98165451D01*
X132533788Y-98165451D01*
X132390931Y-98094022D01*
X132319502Y-98022594D01*
X132248074Y-97879737D01*
X132248074Y-97736880D01*
X132319502Y-97594022D01*
X132390931Y-97522594D01*
X132533788Y-97451165D01*
X132819502Y-97379737D01*
X132962360Y-97308308D01*
X133033788Y-97236880D01*
X133105217Y-97094022D01*
X133105217Y-96951165D01*
X133033788Y-96808308D01*
X132962360Y-96736880D01*
X132819502Y-96665451D01*
X132462360Y-96665451D01*
X132248074Y-96736880D01*
X131605217Y-98022594D02*
X131533788Y-98094022D01*
X131605217Y-98165451D01*
X131676645Y-98094022D01*
X131605217Y-98022594D01*
X131605217Y-98165451D01*
X129748074Y-98165451D02*
X129748074Y-96665451D01*
X129390931Y-96665451D01*
X129176645Y-96736880D01*
X129033788Y-96879737D01*
X128962360Y-97022594D01*
X128890931Y-97308308D01*
X128890931Y-97522594D01*
X128962360Y-97808308D01*
X129033788Y-97951165D01*
X129176645Y-98094022D01*
X129390931Y-98165451D01*
X129748074Y-98165451D01*
X127676645Y-98094022D02*
X127819502Y-98165451D01*
X128105217Y-98165451D01*
X128248074Y-98094022D01*
X128319502Y-97951165D01*
X128319502Y-97379737D01*
X128248074Y-97236880D01*
X128105217Y-97165451D01*
X127819502Y-97165451D01*
X127676645Y-97236880D01*
X127605217Y-97379737D01*
X127605217Y-97522594D01*
X128319502Y-97665451D01*
X126962360Y-97165451D02*
X126962360Y-98165451D01*
X126962360Y-97308308D02*
X126890931Y-97236880D01*
X126748074Y-97165451D01*
X126533788Y-97165451D01*
X126390931Y-97236880D01*
X126319502Y-97379737D01*
X126319502Y-98165451D01*
X124962360Y-98165451D02*
X124962360Y-96665451D01*
X124962360Y-98094022D02*
X125105217Y-98165451D01*
X125390931Y-98165451D01*
X125533788Y-98094022D01*
X125605217Y-98022594D01*
X125676645Y-97879737D01*
X125676645Y-97451165D01*
X125605217Y-97308308D01*
X125533788Y-97236880D01*
X125390931Y-97165451D01*
X125105217Y-97165451D01*
X124962360Y-97236880D01*
X124033788Y-98165451D02*
X124176645Y-98094022D01*
X124248074Y-98022594D01*
X124319502Y-97879737D01*
X124319502Y-97451165D01*
X124248074Y-97308308D01*
X124176645Y-97236880D01*
X124033788Y-97165451D01*
X123819502Y-97165451D01*
X123676645Y-97236880D01*
X123605217Y-97308308D01*
X123533788Y-97451165D01*
X123533788Y-97879737D01*
X123605217Y-98022594D01*
X123676645Y-98094022D01*
X123819502Y-98165451D01*
X124033788Y-98165451D01*
X122890931Y-98165451D02*
X122890931Y-97165451D01*
X122890931Y-97451165D02*
X122819502Y-97308308D01*
X122748074Y-97236880D01*
X122605217Y-97165451D01*
X122462360Y-97165451D01*
X122176645Y-97165451D02*
X121605217Y-97165451D01*
X121962360Y-98165451D02*
X121962360Y-96879737D01*
X121890931Y-96736880D01*
X121748074Y-96665451D01*
X121605217Y-96665451D01*
X120533788Y-98094022D02*
X120676645Y-98165451D01*
X120962360Y-98165451D01*
X121105217Y-98094022D01*
X121176645Y-97951165D01*
X121176645Y-97379737D01*
X121105217Y-97236880D01*
X120962360Y-97165451D01*
X120676645Y-97165451D01*
X120533788Y-97236880D01*
X120462360Y-97379737D01*
X120462360Y-97522594D01*
X121176645Y-97665451D01*
X119819502Y-98165451D02*
X119819502Y-97165451D01*
X119819502Y-97451165D02*
X119748074Y-97308308D01*
X119676645Y-97236880D01*
X119533788Y-97165451D01*
X119390931Y-97165451D01*
X116533788Y-98165451D02*
X116605217Y-98165451D01*
X116748074Y-98094022D01*
X116962360Y-97879737D01*
X117319502Y-97451165D01*
X117462360Y-97236880D01*
X117533788Y-97022594D01*
X117533788Y-96879737D01*
X117462360Y-96736880D01*
X117319502Y-96665451D01*
X117248074Y-96665451D01*
X117105217Y-96736880D01*
X117033788Y-96879737D01*
X117033788Y-96951165D01*
X117105217Y-97094022D01*
X117176645Y-97165451D01*
X117605217Y-97451165D01*
X117676645Y-97522594D01*
X117748074Y-97665451D01*
X117748074Y-97879737D01*
X117676645Y-98022594D01*
X117605217Y-98094022D01*
X117462360Y-98165451D01*
X117248074Y-98165451D01*
X117105217Y-98094022D01*
X117033788Y-98022594D01*
X116819502Y-97736880D01*
X116748074Y-97522594D01*
X116748074Y-97379737D01*
X114748074Y-98165451D02*
X114748074Y-96665451D01*
X114248074Y-97736880D01*
X113748074Y-96665451D01*
X113748074Y-98165451D01*
X113033788Y-98022594D02*
X112962359Y-98094022D01*
X113033788Y-98165451D01*
X113105217Y-98094022D01*
X113033788Y-98022594D01*
X113033788Y-98165451D01*
X111176645Y-98165451D02*
X111176645Y-96665451D01*
X110319502Y-98165451D02*
X110962360Y-97308308D01*
X110319502Y-96665451D02*
X111176645Y-97522594D01*
X109462360Y-98165451D02*
X109605217Y-98094022D01*
X109676645Y-98022594D01*
X109748074Y-97879737D01*
X109748074Y-97451165D01*
X109676645Y-97308308D01*
X109605217Y-97236880D01*
X109462360Y-97165451D01*
X109248074Y-97165451D01*
X109105217Y-97236880D01*
X109033788Y-97308308D01*
X108962360Y-97451165D01*
X108962360Y-97879737D01*
X109033788Y-98022594D01*
X109105217Y-98094022D01*
X109248074Y-98165451D01*
X109462360Y-98165451D01*
X108105217Y-98165451D02*
X108248074Y-98094022D01*
X108319502Y-97951165D01*
X108319502Y-96665451D01*
X107533788Y-98165451D02*
X107533788Y-96665451D01*
X107533788Y-97236880D02*
X107390931Y-97165451D01*
X107105217Y-97165451D01*
X106962360Y-97236880D01*
X106890931Y-97308308D01*
X106819502Y-97451165D01*
X106819502Y-97879737D01*
X106890931Y-98022594D01*
X106962360Y-98094022D01*
X107105217Y-98165451D01*
X107390931Y-98165451D01*
X107533788Y-98094022D01*
X104033788Y-97165451D02*
X103676645Y-98165451D01*
X103319502Y-97165451D01*
X101962360Y-98165451D02*
X102819502Y-98165451D01*
X102390931Y-98165451D02*
X102390931Y-96665451D01*
X102533788Y-96879737D01*
X102676645Y-97022594D01*
X102819502Y-97094022D01*
X101319502Y-98022594D02*
X101248074Y-98094022D01*
X101319502Y-98165451D01*
X101390931Y-98094022D01*
X101319502Y-98022594D01*
X101319502Y-98165451D01*
X100319502Y-96665451D02*
X100176645Y-96665451D01*
X100033788Y-96736880D01*
X99962360Y-96808308D01*
X99890931Y-96951165D01*
X99819502Y-97236880D01*
X99819502Y-97594022D01*
X99890931Y-97879737D01*
X99962360Y-98022594D01*
X100033788Y-98094022D01*
X100176645Y-98165451D01*
X100319502Y-98165451D01*
X100462360Y-98094022D01*
X100533788Y-98022594D01*
X100605217Y-97879737D01*
X100676645Y-97594022D01*
X100676645Y-97236880D01*
X100605217Y-96951165D01*
X100533788Y-96808308D01*
X100462360Y-96736880D01*
X100319502Y-96665451D01*
D11*
X70379502Y-98097689D02*
X70379502Y-97589689D01*
X70089217Y-98097689D01*
X70089217Y-97589689D01*
X69557026Y-98049308D02*
X69581217Y-98073499D01*
X69653788Y-98097689D01*
X69702169Y-98097689D01*
X69774740Y-98073499D01*
X69823121Y-98025118D01*
X69847312Y-97976737D01*
X69871502Y-97879975D01*
X69871502Y-97807403D01*
X69847312Y-97710641D01*
X69823121Y-97662260D01*
X69774740Y-97613880D01*
X69702169Y-97589689D01*
X69653788Y-97589689D01*
X69581217Y-97613880D01*
X69557026Y-97638070D01*
X70721461Y-90123519D02*
X70648890Y-90147709D01*
X70527938Y-90147709D01*
X70479557Y-90123519D01*
X70455366Y-90099328D01*
X70431176Y-90050947D01*
X70431176Y-90002566D01*
X70455366Y-89954185D01*
X70479557Y-89929995D01*
X70527938Y-89905804D01*
X70624700Y-89881614D01*
X70673080Y-89857423D01*
X70697271Y-89833233D01*
X70721461Y-89784852D01*
X70721461Y-89736471D01*
X70697271Y-89688090D01*
X70673080Y-89663900D01*
X70624700Y-89639709D01*
X70503747Y-89639709D01*
X70431176Y-89663900D01*
X69923176Y-90099328D02*
X69947366Y-90123519D01*
X70019938Y-90147709D01*
X70068319Y-90147709D01*
X70140890Y-90123519D01*
X70189271Y-90075138D01*
X70213461Y-90026757D01*
X70237652Y-89929995D01*
X70237652Y-89857423D01*
X70213461Y-89760661D01*
X70189271Y-89712280D01*
X70140890Y-89663900D01*
X70068319Y-89639709D01*
X70019938Y-89639709D01*
X69947366Y-89663900D01*
X69923176Y-89688090D01*
X69463557Y-90147709D02*
X69705461Y-90147709D01*
X69705461Y-89639709D01*
X66013121Y-95684689D02*
X66255026Y-95684689D01*
X66279217Y-95926594D01*
X66255026Y-95902403D01*
X66206645Y-95878213D01*
X66085693Y-95878213D01*
X66037312Y-95902403D01*
X66013121Y-95926594D01*
X65988931Y-95974975D01*
X65988931Y-96095927D01*
X66013121Y-96144308D01*
X66037312Y-96168499D01*
X66085693Y-96192689D01*
X66206645Y-96192689D01*
X66255026Y-96168499D01*
X66279217Y-96144308D01*
X65843788Y-95684689D02*
X65674455Y-96192689D01*
X65505121Y-95684689D01*
X71510071Y-74070719D02*
X71437500Y-74094909D01*
X71316547Y-74094909D01*
X71268166Y-74070719D01*
X71243976Y-74046528D01*
X71219785Y-73998147D01*
X71219785Y-73949766D01*
X71243976Y-73901385D01*
X71268166Y-73877195D01*
X71316547Y-73853004D01*
X71413309Y-73828814D01*
X71461690Y-73804623D01*
X71485880Y-73780433D01*
X71510071Y-73732052D01*
X71510071Y-73683671D01*
X71485880Y-73635290D01*
X71461690Y-73611100D01*
X71413309Y-73586909D01*
X71292357Y-73586909D01*
X71219785Y-73611100D01*
X71002071Y-74094909D02*
X71002071Y-73586909D01*
X70881119Y-73586909D01*
X70808547Y-73611100D01*
X70760166Y-73659480D01*
X70735976Y-73707861D01*
X70711785Y-73804623D01*
X70711785Y-73877195D01*
X70735976Y-73973957D01*
X70760166Y-74022338D01*
X70808547Y-74070719D01*
X70881119Y-74094909D01*
X71002071Y-74094909D01*
X70615023Y-74143290D02*
X70227976Y-74143290D01*
X70107023Y-74094909D02*
X70107023Y-73586909D01*
X69986071Y-73586909D01*
X69913500Y-73611100D01*
X69865119Y-73659480D01*
X69840928Y-73707861D01*
X69816738Y-73804623D01*
X69816738Y-73877195D01*
X69840928Y-73973957D01*
X69865119Y-74022338D01*
X69913500Y-74070719D01*
X69986071Y-74094909D01*
X70107023Y-74094909D01*
X69502261Y-73586909D02*
X69453880Y-73586909D01*
X69405500Y-73611100D01*
X69381309Y-73635290D01*
X69357119Y-73683671D01*
X69332928Y-73780433D01*
X69332928Y-73901385D01*
X69357119Y-73998147D01*
X69381309Y-74046528D01*
X69405500Y-74070719D01*
X69453880Y-74094909D01*
X69502261Y-74094909D01*
X69550642Y-74070719D01*
X69574833Y-74046528D01*
X69599023Y-73998147D01*
X69623214Y-73901385D01*
X69623214Y-73780433D01*
X69599023Y-73683671D01*
X69574833Y-73635290D01*
X69550642Y-73611100D01*
X69502261Y-73586909D01*
X71751976Y-68990499D02*
X71679404Y-69014689D01*
X71558452Y-69014689D01*
X71510071Y-68990499D01*
X71485880Y-68966308D01*
X71461690Y-68917927D01*
X71461690Y-68869546D01*
X71485880Y-68821165D01*
X71510071Y-68796975D01*
X71558452Y-68772784D01*
X71655214Y-68748594D01*
X71703595Y-68724403D01*
X71727785Y-68700213D01*
X71751976Y-68651832D01*
X71751976Y-68603451D01*
X71727785Y-68555070D01*
X71703595Y-68530880D01*
X71655214Y-68506689D01*
X71534261Y-68506689D01*
X71461690Y-68530880D01*
X71243976Y-69014689D02*
X71243976Y-68506689D01*
X71123023Y-68506689D01*
X71050452Y-68530880D01*
X71002071Y-68579260D01*
X70977880Y-68627641D01*
X70953690Y-68724403D01*
X70953690Y-68796975D01*
X70977880Y-68893737D01*
X71002071Y-68942118D01*
X71050452Y-68990499D01*
X71123023Y-69014689D01*
X71243976Y-69014689D01*
X70856928Y-69063070D02*
X70469880Y-69063070D01*
X70373119Y-68990499D02*
X70300547Y-69014689D01*
X70179595Y-69014689D01*
X70131214Y-68990499D01*
X70107023Y-68966308D01*
X70082833Y-68917927D01*
X70082833Y-68869546D01*
X70107023Y-68821165D01*
X70131214Y-68796975D01*
X70179595Y-68772784D01*
X70276357Y-68748594D01*
X70324738Y-68724403D01*
X70348928Y-68700213D01*
X70373119Y-68651832D01*
X70373119Y-68603451D01*
X70348928Y-68555070D01*
X70324738Y-68530880D01*
X70276357Y-68506689D01*
X70155404Y-68506689D01*
X70082833Y-68530880D01*
X69889309Y-68990499D02*
X69816738Y-69014689D01*
X69695785Y-69014689D01*
X69647404Y-68990499D01*
X69623214Y-68966308D01*
X69599023Y-68917927D01*
X69599023Y-68869546D01*
X69623214Y-68821165D01*
X69647404Y-68796975D01*
X69695785Y-68772784D01*
X69792547Y-68748594D01*
X69840928Y-68724403D01*
X69865119Y-68700213D01*
X69889309Y-68651832D01*
X69889309Y-68603451D01*
X69865119Y-68555070D01*
X69840928Y-68530880D01*
X69792547Y-68506689D01*
X69671595Y-68506689D01*
X69599023Y-68530880D01*
X70416661Y-85524909D02*
X70126376Y-85524909D01*
X70271519Y-86032909D02*
X70271519Y-85524909D01*
X70005423Y-86032909D02*
X69739328Y-85694242D01*
X70005423Y-85694242D02*
X69739328Y-86032909D01*
X73505785Y-94085919D02*
X73433214Y-94110109D01*
X73312261Y-94110109D01*
X73263880Y-94085919D01*
X73239690Y-94061728D01*
X73215500Y-94013347D01*
X73215500Y-93964966D01*
X73239690Y-93916585D01*
X73263880Y-93892395D01*
X73312261Y-93868204D01*
X73409023Y-93844014D01*
X73457404Y-93819823D01*
X73481595Y-93795633D01*
X73505785Y-93747252D01*
X73505785Y-93698871D01*
X73481595Y-93650490D01*
X73457404Y-93626300D01*
X73409023Y-93602109D01*
X73288071Y-93602109D01*
X73215500Y-93626300D01*
X72997785Y-93844014D02*
X72828452Y-93844014D01*
X72755880Y-94110109D02*
X72997785Y-94110109D01*
X72997785Y-93602109D01*
X72755880Y-93602109D01*
X72538166Y-94110109D02*
X72538166Y-93602109D01*
X72247880Y-94110109D01*
X72247880Y-93602109D01*
X72030166Y-94085919D02*
X71957595Y-94110109D01*
X71836642Y-94110109D01*
X71788261Y-94085919D01*
X71764071Y-94061728D01*
X71739880Y-94013347D01*
X71739880Y-93964966D01*
X71764071Y-93916585D01*
X71788261Y-93892395D01*
X71836642Y-93868204D01*
X71933404Y-93844014D01*
X71981785Y-93819823D01*
X72005976Y-93795633D01*
X72030166Y-93747252D01*
X72030166Y-93698871D01*
X72005976Y-93650490D01*
X71981785Y-93626300D01*
X71933404Y-93602109D01*
X71812452Y-93602109D01*
X71739880Y-93626300D01*
X71425404Y-93602109D02*
X71328642Y-93602109D01*
X71280261Y-93626300D01*
X71231880Y-93674680D01*
X71207690Y-93771442D01*
X71207690Y-93940776D01*
X71231880Y-94037538D01*
X71280261Y-94085919D01*
X71328642Y-94110109D01*
X71425404Y-94110109D01*
X71473785Y-94085919D01*
X71522166Y-94037538D01*
X71546357Y-93940776D01*
X71546357Y-93771442D01*
X71522166Y-93674680D01*
X71473785Y-93626300D01*
X71425404Y-93602109D01*
X70699690Y-94110109D02*
X70869023Y-93868204D01*
X70989976Y-94110109D02*
X70989976Y-93602109D01*
X70796452Y-93602109D01*
X70748071Y-93626300D01*
X70723880Y-93650490D01*
X70699690Y-93698871D01*
X70699690Y-93771442D01*
X70723880Y-93819823D01*
X70748071Y-93844014D01*
X70796452Y-93868204D01*
X70989976Y-93868204D01*
X70602928Y-94158490D02*
X70215880Y-94158490D01*
X70167500Y-93602109D02*
X69998166Y-94110109D01*
X69828833Y-93602109D01*
X69659500Y-94110109D02*
X69659500Y-93602109D01*
X69465976Y-93602109D01*
X69417595Y-93626300D01*
X69393404Y-93650490D01*
X69369214Y-93698871D01*
X69369214Y-93771442D01*
X69393404Y-93819823D01*
X69417595Y-93844014D01*
X69465976Y-93868204D01*
X69659500Y-93868204D01*
X65818052Y-79530509D02*
X65503576Y-79530509D01*
X65672909Y-79724033D01*
X65600338Y-79724033D01*
X65551957Y-79748223D01*
X65527766Y-79772414D01*
X65503576Y-79820795D01*
X65503576Y-79941747D01*
X65527766Y-79990128D01*
X65551957Y-80014319D01*
X65600338Y-80038509D01*
X65745480Y-80038509D01*
X65793861Y-80014319D01*
X65818052Y-79990128D01*
X65358433Y-79530509D02*
X65189100Y-80038509D01*
X65019766Y-79530509D01*
X64898814Y-79530509D02*
X64584338Y-79530509D01*
X64753671Y-79724033D01*
X64681100Y-79724033D01*
X64632719Y-79748223D01*
X64608528Y-79772414D01*
X64584338Y-79820795D01*
X64584338Y-79941747D01*
X64608528Y-79990128D01*
X64632719Y-80014319D01*
X64681100Y-80038509D01*
X64826242Y-80038509D01*
X64874623Y-80014319D01*
X64898814Y-79990128D01*
X70240407Y-77547880D02*
X70288788Y-77523689D01*
X70361360Y-77523689D01*
X70433931Y-77547880D01*
X70482312Y-77596260D01*
X70506502Y-77644641D01*
X70530693Y-77741403D01*
X70530693Y-77813975D01*
X70506502Y-77910737D01*
X70482312Y-77959118D01*
X70433931Y-78007499D01*
X70361360Y-78031689D01*
X70312979Y-78031689D01*
X70240407Y-78007499D01*
X70216217Y-77983308D01*
X70216217Y-77813975D01*
X70312979Y-77813975D01*
X69998502Y-78031689D02*
X69998502Y-77523689D01*
X69708217Y-78031689D01*
X69708217Y-77523689D01*
X69466312Y-78031689D02*
X69466312Y-77523689D01*
X69345360Y-77523689D01*
X69272788Y-77547880D01*
X69224407Y-77596260D01*
X69200217Y-77644641D01*
X69176026Y-77741403D01*
X69176026Y-77813975D01*
X69200217Y-77910737D01*
X69224407Y-77959118D01*
X69272788Y-78007499D01*
X69345360Y-78031689D01*
X69466312Y-78031689D01*
X70125502Y-82095689D02*
X70125502Y-81587689D01*
X69835217Y-82095689D01*
X69835217Y-81587689D01*
X69303026Y-82047308D02*
X69327217Y-82071499D01*
X69399788Y-82095689D01*
X69448169Y-82095689D01*
X69520740Y-82071499D01*
X69569121Y-82023118D01*
X69593312Y-81974737D01*
X69617502Y-81877975D01*
X69617502Y-81805403D01*
X69593312Y-81708641D01*
X69569121Y-81660260D01*
X69520740Y-81611880D01*
X69448169Y-81587689D01*
X69399788Y-81587689D01*
X69327217Y-81611880D01*
X69303026Y-81636070D01*
X66218740Y-91850499D02*
X66146169Y-91874689D01*
X66025217Y-91874689D01*
X65976836Y-91850499D01*
X65952645Y-91826308D01*
X65928455Y-91777927D01*
X65928455Y-91729546D01*
X65952645Y-91681165D01*
X65976836Y-91656975D01*
X66025217Y-91632784D01*
X66121979Y-91608594D01*
X66170360Y-91584403D01*
X66194550Y-91560213D01*
X66218740Y-91511832D01*
X66218740Y-91463451D01*
X66194550Y-91415070D01*
X66170360Y-91390880D01*
X66121979Y-91366689D01*
X66001026Y-91366689D01*
X65928455Y-91390880D01*
X65710740Y-91608594D02*
X65541407Y-91608594D01*
X65468836Y-91874689D02*
X65710740Y-91874689D01*
X65710740Y-91366689D01*
X65468836Y-91366689D01*
X65251121Y-91874689D02*
X65251121Y-91366689D01*
X64960836Y-91874689D01*
X64960836Y-91366689D01*
X64743121Y-91850499D02*
X64670550Y-91874689D01*
X64549598Y-91874689D01*
X64501217Y-91850499D01*
X64477026Y-91826308D01*
X64452836Y-91777927D01*
X64452836Y-91729546D01*
X64477026Y-91681165D01*
X64501217Y-91656975D01*
X64549598Y-91632784D01*
X64646360Y-91608594D01*
X64694740Y-91584403D01*
X64718931Y-91560213D01*
X64743121Y-91511832D01*
X64743121Y-91463451D01*
X64718931Y-91415070D01*
X64694740Y-91390880D01*
X64646360Y-91366689D01*
X64525407Y-91366689D01*
X64452836Y-91390880D01*
X64138360Y-91366689D02*
X64041598Y-91366689D01*
X63993217Y-91390880D01*
X63944836Y-91439260D01*
X63920645Y-91536022D01*
X63920645Y-91705356D01*
X63944836Y-91802118D01*
X63993217Y-91850499D01*
X64041598Y-91874689D01*
X64138360Y-91874689D01*
X64186740Y-91850499D01*
X64235121Y-91802118D01*
X64259312Y-91705356D01*
X64259312Y-91536022D01*
X64235121Y-91439260D01*
X64186740Y-91390880D01*
X64138360Y-91366689D01*
X63412645Y-91874689D02*
X63581979Y-91632784D01*
X63702931Y-91874689D02*
X63702931Y-91366689D01*
X63509407Y-91366689D01*
X63461026Y-91390880D01*
X63436836Y-91415070D01*
X63412645Y-91463451D01*
X63412645Y-91536022D01*
X63436836Y-91584403D01*
X63461026Y-91608594D01*
X63509407Y-91632784D01*
X63702931Y-91632784D01*
X63315883Y-91923070D02*
X62928836Y-91923070D01*
X62880455Y-91366689D02*
X62711121Y-91874689D01*
X62541788Y-91366689D01*
X62372455Y-91874689D02*
X62372455Y-91366689D01*
X62082169Y-91874689D01*
X62082169Y-91366689D01*
X66212357Y-87989919D02*
X66139785Y-88014109D01*
X66018833Y-88014109D01*
X65970452Y-87989919D01*
X65946261Y-87965728D01*
X65922071Y-87917347D01*
X65922071Y-87868966D01*
X65946261Y-87820585D01*
X65970452Y-87796395D01*
X66018833Y-87772204D01*
X66115595Y-87748014D01*
X66163976Y-87723823D01*
X66188166Y-87699633D01*
X66212357Y-87651252D01*
X66212357Y-87602871D01*
X66188166Y-87554490D01*
X66163976Y-87530300D01*
X66115595Y-87506109D01*
X65994642Y-87506109D01*
X65922071Y-87530300D01*
X65704357Y-88014109D02*
X65704357Y-87506109D01*
X65583404Y-87506109D01*
X65510833Y-87530300D01*
X65462452Y-87578680D01*
X65438261Y-87627061D01*
X65414071Y-87723823D01*
X65414071Y-87796395D01*
X65438261Y-87893157D01*
X65462452Y-87941538D01*
X65510833Y-87989919D01*
X65583404Y-88014109D01*
X65704357Y-88014109D01*
X65220547Y-87868966D02*
X64978642Y-87868966D01*
X65268928Y-88014109D02*
X65099595Y-87506109D01*
X64930261Y-88014109D01*
X65796280Y-83848509D02*
X65965614Y-83606604D01*
X66086566Y-83848509D02*
X66086566Y-83340509D01*
X65893042Y-83340509D01*
X65844661Y-83364700D01*
X65820471Y-83388890D01*
X65796280Y-83437271D01*
X65796280Y-83509842D01*
X65820471Y-83558223D01*
X65844661Y-83582414D01*
X65893042Y-83606604D01*
X66086566Y-83606604D01*
X65626947Y-83848509D02*
X65360852Y-83509842D01*
X65626947Y-83509842D02*
X65360852Y-83848509D01*
X66105919Y-72089519D02*
X66033347Y-72113709D01*
X65912395Y-72113709D01*
X65864014Y-72089519D01*
X65839823Y-72065328D01*
X65815633Y-72016947D01*
X65815633Y-71968566D01*
X65839823Y-71920185D01*
X65864014Y-71895995D01*
X65912395Y-71871804D01*
X66009157Y-71847614D01*
X66057538Y-71823423D01*
X66081728Y-71799233D01*
X66105919Y-71750852D01*
X66105919Y-71702471D01*
X66081728Y-71654090D01*
X66057538Y-71629900D01*
X66009157Y-71605709D01*
X65888204Y-71605709D01*
X65815633Y-71629900D01*
X65597919Y-72113709D02*
X65597919Y-71605709D01*
X65476966Y-71605709D01*
X65404395Y-71629900D01*
X65356014Y-71678280D01*
X65331823Y-71726661D01*
X65307633Y-71823423D01*
X65307633Y-71895995D01*
X65331823Y-71992757D01*
X65356014Y-72041138D01*
X65404395Y-72089519D01*
X65476966Y-72113709D01*
X65597919Y-72113709D01*
X65210871Y-72162090D02*
X64823823Y-72162090D01*
X64702871Y-72113709D02*
X64702871Y-71605709D01*
X64581919Y-71605709D01*
X64509347Y-71629900D01*
X64460966Y-71678280D01*
X64436776Y-71726661D01*
X64412585Y-71823423D01*
X64412585Y-71895995D01*
X64436776Y-71992757D01*
X64460966Y-72041138D01*
X64509347Y-72089519D01*
X64581919Y-72113709D01*
X64702871Y-72113709D01*
X64194871Y-72113709D02*
X64194871Y-71605709D01*
X66328471Y-76001119D02*
X66255900Y-76025309D01*
X66134947Y-76025309D01*
X66086566Y-76001119D01*
X66062376Y-75976928D01*
X66038185Y-75928547D01*
X66038185Y-75880166D01*
X66062376Y-75831785D01*
X66086566Y-75807595D01*
X66134947Y-75783404D01*
X66231709Y-75759214D01*
X66280090Y-75735023D01*
X66304280Y-75710833D01*
X66328471Y-75662452D01*
X66328471Y-75614071D01*
X66304280Y-75565690D01*
X66280090Y-75541500D01*
X66231709Y-75517309D01*
X66110757Y-75517309D01*
X66038185Y-75541500D01*
X65820471Y-76025309D02*
X65820471Y-75517309D01*
X65699519Y-75517309D01*
X65626947Y-75541500D01*
X65578566Y-75589880D01*
X65554376Y-75638261D01*
X65530185Y-75735023D01*
X65530185Y-75807595D01*
X65554376Y-75904357D01*
X65578566Y-75952738D01*
X65626947Y-76001119D01*
X65699519Y-76025309D01*
X65820471Y-76025309D01*
X65433423Y-76073690D02*
X65046376Y-76073690D01*
X64949614Y-76001119D02*
X64877042Y-76025309D01*
X64756090Y-76025309D01*
X64707709Y-76001119D01*
X64683519Y-75976928D01*
X64659328Y-75928547D01*
X64659328Y-75880166D01*
X64683519Y-75831785D01*
X64707709Y-75807595D01*
X64756090Y-75783404D01*
X64852852Y-75759214D01*
X64901233Y-75735023D01*
X64925423Y-75710833D01*
X64949614Y-75662452D01*
X64949614Y-75614071D01*
X64925423Y-75565690D01*
X64901233Y-75541500D01*
X64852852Y-75517309D01*
X64731900Y-75517309D01*
X64659328Y-75541500D01*
X64151328Y-75976928D02*
X64175519Y-76001119D01*
X64248090Y-76025309D01*
X64296471Y-76025309D01*
X64369042Y-76001119D01*
X64417423Y-75952738D01*
X64441614Y-75904357D01*
X64465804Y-75807595D01*
X64465804Y-75735023D01*
X64441614Y-75638261D01*
X64417423Y-75589880D01*
X64369042Y-75541500D01*
X64296471Y-75517309D01*
X64248090Y-75517309D01*
X64175519Y-75541500D01*
X64151328Y-75565690D01*
X63933614Y-76025309D02*
X63933614Y-75517309D01*
X63643328Y-76025309D02*
X63861042Y-75735023D01*
X63643328Y-75517309D02*
X63933614Y-75807595D01*
X65859176Y-99850509D02*
X66149461Y-99850509D01*
X66004319Y-99850509D02*
X66004319Y-99342509D01*
X66052700Y-99415080D01*
X66101080Y-99463461D01*
X66149461Y-99487652D01*
X65665652Y-99390890D02*
X65641461Y-99366700D01*
X65593080Y-99342509D01*
X65472128Y-99342509D01*
X65423747Y-99366700D01*
X65399557Y-99390890D01*
X65375366Y-99439271D01*
X65375366Y-99487652D01*
X65399557Y-99560223D01*
X65689842Y-99850509D01*
X65375366Y-99850509D01*
X65230223Y-99342509D02*
X65060890Y-99850509D01*
X64891557Y-99342509D01*
D10*
X97309860Y-125597451D02*
X98167002Y-125597451D01*
X97738431Y-125597451D02*
X97550931Y-124097451D01*
X97720574Y-124311737D01*
X97881288Y-124454594D01*
X98033074Y-124526022D01*
X96568788Y-124240308D02*
X96488431Y-124168880D01*
X96336645Y-124097451D01*
X95979502Y-124097451D01*
X95845574Y-124168880D01*
X95783074Y-124240308D01*
X95729502Y-124383165D01*
X95747360Y-124526022D01*
X95845574Y-124740308D01*
X96809860Y-125597451D01*
X95881288Y-125597451D01*
X95265217Y-124097451D02*
X94952717Y-125597451D01*
X94265217Y-124097451D01*
X92809860Y-125597451D02*
X92622360Y-124097451D01*
X92050931Y-124097451D01*
X91917002Y-124168880D01*
X91854502Y-124240308D01*
X91800931Y-124383165D01*
X91827717Y-124597451D01*
X91917002Y-124740308D01*
X91997360Y-124811737D01*
X92149145Y-124883165D01*
X92720574Y-124883165D01*
X91095574Y-125597451D02*
X91229502Y-125526022D01*
X91292002Y-125454594D01*
X91345574Y-125311737D01*
X91292002Y-124883165D01*
X91202717Y-124740308D01*
X91122360Y-124668880D01*
X90970574Y-124597451D01*
X90756288Y-124597451D01*
X90622360Y-124668880D01*
X90559860Y-124740308D01*
X90506288Y-124883165D01*
X90559860Y-125311737D01*
X90649145Y-125454594D01*
X90729502Y-125526022D01*
X90881288Y-125597451D01*
X91095574Y-125597451D01*
X89970574Y-124597451D02*
X89809860Y-125597451D01*
X89434860Y-124883165D01*
X89238431Y-125597451D01*
X88827717Y-124597451D01*
X87800931Y-125526022D02*
X87952717Y-125597451D01*
X88238431Y-125597451D01*
X88372360Y-125526022D01*
X88425931Y-125383165D01*
X88354502Y-124811737D01*
X88265217Y-124668880D01*
X88113431Y-124597451D01*
X87827717Y-124597451D01*
X87693788Y-124668880D01*
X87640217Y-124811737D01*
X87658074Y-124954594D01*
X88390217Y-125097451D01*
X87095574Y-125597451D02*
X86970574Y-124597451D01*
X87006288Y-124883165D02*
X86917002Y-124740308D01*
X86836645Y-124668880D01*
X86684860Y-124597451D01*
X86542002Y-124597451D01*
D12*
%TO.C,G\u002A\u002A\u002A*%
G36*
X110248885Y-90072352D02*
G01*
X110139181Y-90074195D01*
X110051999Y-90076370D01*
X109984463Y-90079316D01*
X109933694Y-90083474D01*
X109896817Y-90089285D01*
X109870952Y-90097190D01*
X109853225Y-90107629D01*
X109840756Y-90121043D01*
X109831515Y-90136281D01*
X109826477Y-90158512D01*
X109822406Y-90201503D01*
X109819311Y-90260629D01*
X109817204Y-90331268D01*
X109816093Y-90408798D01*
X109815988Y-90488594D01*
X109816900Y-90566034D01*
X109818838Y-90636496D01*
X109821812Y-90695355D01*
X109825832Y-90737989D01*
X109830186Y-90758282D01*
X109839035Y-90776969D01*
X109850136Y-90791865D01*
X109866292Y-90803439D01*
X109890307Y-90812163D01*
X109924986Y-90818505D01*
X109973132Y-90822935D01*
X110037550Y-90825924D01*
X110121042Y-90827940D01*
X110226415Y-90829453D01*
X110257188Y-90829816D01*
X110611566Y-90833903D01*
X110603339Y-90728216D01*
X110600836Y-90682925D01*
X110598632Y-90617966D01*
X110596852Y-90539070D01*
X110595619Y-90451971D01*
X110595057Y-90362398D01*
X110595037Y-90344850D01*
X110594960Y-90067171D01*
X110248885Y-90072352D01*
G37*
X110248885Y-90072352D02*
X110139181Y-90074195D01*
X110051999Y-90076370D01*
X109984463Y-90079316D01*
X109933694Y-90083474D01*
X109896817Y-90089285D01*
X109870952Y-90097190D01*
X109853225Y-90107629D01*
X109840756Y-90121043D01*
X109831515Y-90136281D01*
X109826477Y-90158512D01*
X109822406Y-90201503D01*
X109819311Y-90260629D01*
X109817204Y-90331268D01*
X109816093Y-90408798D01*
X109815988Y-90488594D01*
X109816900Y-90566034D01*
X109818838Y-90636496D01*
X109821812Y-90695355D01*
X109825832Y-90737989D01*
X109830186Y-90758282D01*
X109839035Y-90776969D01*
X109850136Y-90791865D01*
X109866292Y-90803439D01*
X109890307Y-90812163D01*
X109924986Y-90818505D01*
X109973132Y-90822935D01*
X110037550Y-90825924D01*
X110121042Y-90827940D01*
X110226415Y-90829453D01*
X110257188Y-90829816D01*
X110611566Y-90833903D01*
X110603339Y-90728216D01*
X110600836Y-90682925D01*
X110598632Y-90617966D01*
X110596852Y-90539070D01*
X110595619Y-90451971D01*
X110595057Y-90362398D01*
X110595037Y-90344850D01*
X110594960Y-90067171D01*
X110248885Y-90072352D01*
G36*
X100727060Y-88787380D02*
G01*
X117668860Y-93003809D01*
X100904860Y-93003839D01*
X105194804Y-93003922D01*
X105561163Y-93004056D01*
X105946470Y-93004239D01*
X106348577Y-93004470D01*
X106765332Y-93004744D01*
X107194585Y-93005062D01*
X107634186Y-93005420D01*
X108081985Y-93005816D01*
X108535831Y-93006248D01*
X108993574Y-93006715D01*
X109453063Y-93007213D01*
X109912150Y-93007741D01*
X110368682Y-93008297D01*
X110820510Y-93008878D01*
X111265484Y-93009483D01*
X111701453Y-93010109D01*
X112126268Y-93010754D01*
X112537776Y-93011415D01*
X112933830Y-93012092D01*
X113030185Y-93012263D01*
X117732360Y-93020688D01*
X117732360Y-89803380D01*
X116703660Y-89803380D01*
X116703660Y-91898880D01*
X116128985Y-91898769D01*
X116008089Y-91898578D01*
X115893016Y-91898077D01*
X115786678Y-91897301D01*
X115691991Y-91896285D01*
X115611867Y-91895065D01*
X115549220Y-91893676D01*
X115506964Y-91892155D01*
X115490810Y-91890997D01*
X115445080Y-91881675D01*
X115415265Y-91864550D01*
X115401983Y-91849833D01*
X115385181Y-91812698D01*
X114773260Y-91812698D01*
X114771688Y-91852835D01*
X114767648Y-91882016D01*
X114764045Y-91891162D01*
X114749886Y-91892909D01*
X114712804Y-91894390D01*
X114655277Y-91895585D01*
X114579780Y-91896474D01*
X114488789Y-91897036D01*
X114384782Y-91897249D01*
X114270233Y-91897093D01*
X114147621Y-91896548D01*
X114132220Y-91896454D01*
X113990241Y-91895524D01*
X113871449Y-91894613D01*
X113773629Y-91893624D01*
X113694567Y-91892456D01*
X113632050Y-91891012D01*
X113583865Y-91889193D01*
X113547796Y-91886899D01*
X113521632Y-91884032D01*
X113503157Y-91880494D01*
X113490158Y-91876186D01*
X113480422Y-91871008D01*
X113474794Y-91867130D01*
X113439585Y-91828843D01*
X113421685Y-91782383D01*
X113420844Y-91734163D01*
X113436812Y-91690598D01*
X113469338Y-91658103D01*
X113483223Y-91651082D01*
X113506424Y-91645810D01*
X113549767Y-91641044D01*
X113614294Y-91636725D01*
X113701050Y-91632798D01*
X113811079Y-91629206D01*
X113945424Y-91625893D01*
X113950935Y-91625774D01*
X114052393Y-91623386D01*
X114145280Y-91620811D01*
X114226672Y-91618160D01*
X114293643Y-91615545D01*
X114343265Y-91613077D01*
X114372614Y-91610868D01*
X114379560Y-91609447D01*
X114373422Y-91596723D01*
X114356396Y-91565826D01*
X114330562Y-91520422D01*
X114298005Y-91464177D01*
X114266782Y-91410892D01*
X114230865Y-91349894D01*
X114184894Y-91271790D01*
X114131689Y-91181370D01*
X114074066Y-91083423D01*
X114014845Y-90982740D01*
X113956844Y-90884112D01*
X113944918Y-90863830D01*
X113937389Y-90851130D01*
X112626960Y-90851130D01*
X112621490Y-90896528D01*
X112607440Y-90941970D01*
X112588351Y-90977969D01*
X112574281Y-90992228D01*
X112554174Y-91000628D01*
X112521903Y-91007260D01*
X112475277Y-91012243D01*
X112412109Y-91015694D01*
X112330207Y-91017733D01*
X112227382Y-91018477D01*
X112101445Y-91018045D01*
X112096650Y-91018010D01*
X111763190Y-91015570D01*
X111724234Y-90976614D01*
X111688973Y-90924434D01*
X111676280Y-90862446D01*
X111686557Y-90793245D01*
X111692930Y-90774681D01*
X111710673Y-90737983D01*
X111730326Y-90711202D01*
X111738231Y-90704935D01*
X111757521Y-90701360D01*
X111798323Y-90698384D01*
X111856758Y-90696007D01*
X111928944Y-90694229D01*
X112011002Y-90693049D01*
X112099050Y-90692467D01*
X112189210Y-90692483D01*
X112277599Y-90693096D01*
X112360339Y-90694307D01*
X112433548Y-90696114D01*
X112493346Y-90698518D01*
X112535853Y-90701518D01*
X112556898Y-90704999D01*
X112587911Y-90729082D01*
X112611836Y-90771169D01*
X112625255Y-90824129D01*
X112626960Y-90851130D01*
X113937389Y-90851130D01*
X113884954Y-90762686D01*
X113820517Y-90655464D01*
X113754979Y-90547674D01*
X113691710Y-90444827D01*
X113634082Y-90352433D01*
X113585467Y-90276000D01*
X113581447Y-90269780D01*
X113427060Y-90031330D01*
X113427060Y-89819999D01*
X113588985Y-89811741D01*
X113651699Y-89809263D01*
X113730407Y-89807287D01*
X113821635Y-89805799D01*
X113921910Y-89804790D01*
X114027757Y-89804249D01*
X114135703Y-89804164D01*
X114242272Y-89804524D01*
X114343992Y-89805317D01*
X114437387Y-89806534D01*
X114518984Y-89808163D01*
X114585308Y-89810192D01*
X114632886Y-89812611D01*
X114657029Y-89815155D01*
X114706880Y-89830106D01*
X114737131Y-89855061D01*
X114752943Y-89895748D01*
X114757307Y-89926390D01*
X114758443Y-89970646D01*
X114749883Y-90001243D01*
X114738125Y-90018772D01*
X114727679Y-90030310D01*
X114715159Y-90038797D01*
X114696487Y-90044934D01*
X114667586Y-90049423D01*
X114624381Y-90052966D01*
X114562794Y-90056262D01*
X114505026Y-90058866D01*
X114419440Y-90062033D01*
X114318206Y-90064857D01*
X114211074Y-90067121D01*
X114107796Y-90068604D01*
X114051177Y-90069031D01*
X113966429Y-90069536D01*
X113903905Y-90070429D01*
X113860432Y-90072024D01*
X113832833Y-90074630D01*
X113817934Y-90078560D01*
X113812559Y-90084125D01*
X113813534Y-90091635D01*
X113813782Y-90092305D01*
X113821420Y-90106645D01*
X113840864Y-90141143D01*
X113871094Y-90194034D01*
X113911087Y-90263554D01*
X113959824Y-90347936D01*
X114016284Y-90445417D01*
X114079444Y-90554231D01*
X114148286Y-90672613D01*
X114221787Y-90798798D01*
X114297741Y-90928990D01*
X114387113Y-91082102D01*
X114464525Y-91214883D01*
X114530834Y-91328929D01*
X114586900Y-91425838D01*
X114633581Y-91507206D01*
X114671738Y-91574628D01*
X114702228Y-91629702D01*
X114725911Y-91674023D01*
X114743647Y-91709189D01*
X114756293Y-91736795D01*
X114764709Y-91758439D01*
X114769754Y-91775716D01*
X114772287Y-91790223D01*
X114773168Y-91803556D01*
X114773260Y-91812698D01*
X115385181Y-91812698D01*
X115379942Y-91801121D01*
X115377944Y-91745831D01*
X115395680Y-91692584D01*
X115408260Y-91673752D01*
X115440010Y-91633790D01*
X116430610Y-91625830D01*
X116434004Y-91305155D01*
X116437397Y-90984480D01*
X116262554Y-90983722D01*
X116158859Y-90982197D01*
X116077685Y-90977902D01*
X116016209Y-90969750D01*
X115971608Y-90956655D01*
X115941059Y-90937531D01*
X115921738Y-90911292D01*
X115910823Y-90876853D01*
X115906623Y-90846787D01*
X115904615Y-90806022D01*
X115910429Y-90779582D01*
X115926991Y-90756869D01*
X115933208Y-90750477D01*
X115965906Y-90717779D01*
X116201433Y-90717780D01*
X116436960Y-90717780D01*
X116436960Y-90070080D01*
X115995635Y-90069322D01*
X115861058Y-90068885D01*
X115749529Y-90067943D01*
X115658698Y-90066298D01*
X115586216Y-90063753D01*
X115529732Y-90060108D01*
X115486897Y-90055166D01*
X115455362Y-90048727D01*
X115432775Y-90040594D01*
X115416787Y-90030568D01*
X115405909Y-90019529D01*
X115386717Y-89978537D01*
X115381558Y-89927576D01*
X115389976Y-89877010D01*
X115411516Y-89837203D01*
X115414033Y-89834552D01*
X115445206Y-89803380D01*
X110875232Y-89803380D01*
X110871621Y-90809855D01*
X110870946Y-90997591D01*
X110870290Y-91161576D01*
X110869554Y-91303455D01*
X110868640Y-91424876D01*
X110867447Y-91527486D01*
X110865878Y-91612932D01*
X110863832Y-91682862D01*
X110861211Y-91738922D01*
X110857915Y-91782761D01*
X110853846Y-91816024D01*
X110848904Y-91840360D01*
X110842990Y-91857416D01*
X110836005Y-91868838D01*
X110827851Y-91876275D01*
X110818426Y-91881372D01*
X110807634Y-91885778D01*
X110806855Y-91886091D01*
X110745282Y-91899001D01*
X110744585Y-91898880D01*
X103101960Y-91898880D01*
X102495535Y-91898809D01*
X102342895Y-91898503D01*
X102207949Y-91897639D01*
X102091961Y-91896243D01*
X101996193Y-91894341D01*
X101921910Y-91891959D01*
X101870374Y-91889122D01*
X101842850Y-91885856D01*
X101841506Y-91885517D01*
X101797923Y-91861655D01*
X101768689Y-91822311D01*
X101755511Y-91774032D01*
X101760096Y-91723365D01*
X101784151Y-91676860D01*
X101786407Y-91674163D01*
X101817053Y-91638530D01*
X102030882Y-91630228D01*
X102111876Y-91627582D01*
X102210149Y-91625156D01*
X102317577Y-91623103D01*
X102426041Y-91621576D01*
X102527417Y-91620731D01*
X102533635Y-91620703D01*
X102822560Y-91619480D01*
X102822560Y-91308330D01*
X102822437Y-91222365D01*
X102822088Y-91145396D01*
X102821551Y-91080879D01*
X102820859Y-91032267D01*
X102820049Y-91003015D01*
X102819385Y-90995859D01*
X102806405Y-90995287D01*
X102770974Y-90994261D01*
X102716035Y-90992852D01*
X102644533Y-90991132D01*
X102559411Y-90989171D01*
X102463613Y-90987042D01*
X102384410Y-90985332D01*
X102259302Y-90982564D01*
X102156881Y-90979777D01*
X102074440Y-90976457D01*
X102009272Y-90972092D01*
X101958667Y-90966168D01*
X101919920Y-90958173D01*
X101890322Y-90947593D01*
X101867165Y-90933916D01*
X101847743Y-90916628D01*
X101829346Y-90895218D01*
X101815697Y-90877590D01*
X101795294Y-90849474D01*
X101781742Y-90824679D01*
X101773114Y-90796395D01*
X101767484Y-90757811D01*
X101762925Y-90702115D01*
X101761911Y-90687433D01*
X101759413Y-90634117D01*
X101757637Y-90561591D01*
X101756650Y-90476037D01*
X101756515Y-90383636D01*
X101757297Y-90290572D01*
X101757580Y-90271756D01*
X101759286Y-90178181D01*
X101761184Y-90106411D01*
X101763601Y-90052851D01*
X101766868Y-90013905D01*
X101771314Y-89985979D01*
X101777267Y-89965477D01*
X101785058Y-89948806D01*
X101787559Y-89944426D01*
X101828806Y-89892019D01*
X101882682Y-89848003D01*
X101940138Y-89819379D01*
X101954272Y-89815386D01*
X101977610Y-89812868D01*
X102023304Y-89810527D01*
X102088312Y-89808428D01*
X102169590Y-89806634D01*
X102264095Y-89805210D01*
X102368785Y-89804218D01*
X102480616Y-89803723D01*
X102512209Y-89803682D01*
X103021008Y-89803380D01*
X103055134Y-89838999D01*
X103083065Y-89885155D01*
X103091034Y-89939377D01*
X103078991Y-89993965D01*
X103056382Y-90031005D01*
X103023503Y-90070079D01*
X102529332Y-90070080D01*
X102035160Y-90070080D01*
X102035160Y-90716280D01*
X102476485Y-90720205D01*
X102601262Y-90721365D01*
X102703335Y-90722756D01*
X102785401Y-90724897D01*
X102850155Y-90728306D01*
X102900292Y-90733502D01*
X102938509Y-90741005D01*
X102967499Y-90751334D01*
X102989960Y-90765008D01*
X103008585Y-90782546D01*
X103026072Y-90804466D01*
X103043832Y-90829466D01*
X103060986Y-90856118D01*
X103072671Y-90882307D01*
X103080507Y-90914589D01*
X103086119Y-90959518D01*
X103090830Y-91019357D01*
X103093374Y-91068664D01*
X103095721Y-91138485D01*
X103097772Y-91223934D01*
X103099427Y-91320125D01*
X103100587Y-91422172D01*
X103101152Y-91525188D01*
X103101157Y-91527405D01*
X103101960Y-91898880D01*
X110744585Y-91898880D01*
X110686867Y-91888873D01*
X110642786Y-91861839D01*
X110601310Y-91824798D01*
X110597580Y-91470185D01*
X110593849Y-91115571D01*
X110203880Y-91103584D01*
X110093153Y-91100080D01*
X110004799Y-91096946D01*
X109935800Y-91093913D01*
X109883137Y-91090710D01*
X109843791Y-91087071D01*
X109814744Y-91082724D01*
X109792977Y-91077401D01*
X109775471Y-91070833D01*
X109761881Y-91064173D01*
X109717957Y-91034363D01*
X109670752Y-90991786D01*
X109626135Y-90942952D01*
X109589973Y-90894372D01*
X109568136Y-90852556D01*
X109566503Y-90847424D01*
X109552240Y-90779217D01*
X109541626Y-90691678D01*
X109534757Y-90590628D01*
X109531730Y-90481884D01*
X109532641Y-90371266D01*
X109537585Y-90264594D01*
X109546658Y-90167686D01*
X109554403Y-90115045D01*
X109574053Y-90040097D01*
X109592528Y-90005873D01*
X108925050Y-90005873D01*
X108922683Y-90099978D01*
X108922516Y-90102903D01*
X108915091Y-90230976D01*
X108657432Y-90565769D01*
X108399773Y-90900563D01*
X108395642Y-91358446D01*
X108394395Y-91484839D01*
X108392957Y-91588276D01*
X108391024Y-91671203D01*
X108388294Y-91736065D01*
X108384465Y-91785304D01*
X108379234Y-91821368D01*
X108372299Y-91846699D01*
X108363357Y-91863743D01*
X108352105Y-91874944D01*
X108338242Y-91882747D01*
X108330355Y-91886091D01*
X108280507Y-91896753D01*
X108224612Y-91895324D01*
X108190696Y-91887086D01*
X108175743Y-91879763D01*
X108163385Y-91868648D01*
X108153323Y-91851377D01*
X108145262Y-91825584D01*
X108138902Y-91788905D01*
X108136857Y-91768292D01*
X105038138Y-91768292D01*
X105032037Y-91804610D01*
X105012408Y-91845872D01*
X104982668Y-91871008D01*
X104935920Y-91885404D01*
X104926486Y-91887057D01*
X104888545Y-91890811D01*
X104828920Y-91893618D01*
X104751311Y-91895480D01*
X104659417Y-91896402D01*
X104556937Y-91896384D01*
X104447569Y-91895432D01*
X104335013Y-91893546D01*
X104222968Y-91890731D01*
X104115133Y-91886989D01*
X104101232Y-91886418D01*
X104002625Y-91882543D01*
X103921561Y-91878403D01*
X103856327Y-91871673D01*
X103805210Y-91860024D01*
X103766497Y-91841132D01*
X103738475Y-91812670D01*
X103719430Y-91772310D01*
X103707649Y-91717728D01*
X103701420Y-91646595D01*
X103699028Y-91556587D01*
X103698762Y-91445375D01*
X103698928Y-91340080D01*
X103699032Y-91227844D01*
X103699430Y-91138136D01*
X103700280Y-91068082D01*
X103701737Y-91014810D01*
X103703957Y-90975447D01*
X103707097Y-90947121D01*
X103711312Y-90926959D01*
X103716759Y-90912088D01*
X103722806Y-90900917D01*
X103751069Y-90868734D01*
X103786076Y-90845482D01*
X103786779Y-90845186D01*
X103826901Y-90828567D01*
X103780156Y-90800356D01*
X103758178Y-90786633D01*
X103740621Y-90772953D01*
X103726988Y-90756449D01*
X103716781Y-90734255D01*
X103709501Y-90703504D01*
X103704651Y-90661332D01*
X103701732Y-90604871D01*
X103700246Y-90531256D01*
X103699696Y-90437619D01*
X103699589Y-90336780D01*
X103699665Y-90227807D01*
X103700117Y-90141142D01*
X103701115Y-90073693D01*
X103702830Y-90022369D01*
X103705431Y-89984079D01*
X103709090Y-89955730D01*
X103713976Y-89934232D01*
X103720259Y-89916493D01*
X103723099Y-89909985D01*
X103737796Y-89883119D01*
X103756858Y-89860356D01*
X103782254Y-89841436D01*
X103815953Y-89826101D01*
X103859925Y-89814091D01*
X103916139Y-89805147D01*
X103986564Y-89799011D01*
X104073170Y-89795424D01*
X104177926Y-89794125D01*
X104302800Y-89794858D01*
X104449764Y-89797362D01*
X104560435Y-89799874D01*
X104971159Y-89809845D01*
X105001760Y-89845421D01*
X105023565Y-89880314D01*
X105031784Y-89923484D01*
X105032166Y-89940613D01*
X105031822Y-89969588D01*
X105029494Y-89993463D01*
X105022928Y-90012763D01*
X105009871Y-90028013D01*
X104988070Y-90039738D01*
X104955271Y-90048462D01*
X104909220Y-90054712D01*
X104847664Y-90059011D01*
X104768349Y-90061884D01*
X104669023Y-90063857D01*
X104547431Y-90065455D01*
X104493513Y-90066089D01*
X104386935Y-90067501D01*
X104287481Y-90069124D01*
X104198233Y-90070884D01*
X104122276Y-90072708D01*
X104062692Y-90074522D01*
X104022564Y-90076254D01*
X104005427Y-90077721D01*
X103975444Y-90083970D01*
X103980128Y-90353962D01*
X103982303Y-90454069D01*
X103985421Y-90531796D01*
X103990214Y-90590162D01*
X103997411Y-90632187D01*
X104007746Y-90660890D01*
X104021948Y-90679291D01*
X104040751Y-90690408D01*
X104063211Y-90696901D01*
X104086046Y-90699496D01*
X104130070Y-90702425D01*
X104191078Y-90705485D01*
X104264866Y-90708478D01*
X104347229Y-90711201D01*
X104384660Y-90712251D01*
X104469431Y-90715042D01*
X104547442Y-90718635D01*
X104614491Y-90722755D01*
X104666377Y-90727127D01*
X104698897Y-90731475D01*
X104705934Y-90733290D01*
X104743439Y-90759864D01*
X104768068Y-90801490D01*
X104777527Y-90850125D01*
X104769521Y-90897730D01*
X104758659Y-90918055D01*
X104744855Y-90935793D01*
X104729108Y-90949691D01*
X104708216Y-90960311D01*
X104678981Y-90968216D01*
X104638201Y-90973965D01*
X104582676Y-90978121D01*
X104509206Y-90981244D01*
X104414590Y-90983895D01*
X104378310Y-90984760D01*
X104274374Y-90987447D01*
X104192823Y-90990496D01*
X104130642Y-90994493D01*
X104084819Y-91000024D01*
X104052338Y-91007677D01*
X104030187Y-91018040D01*
X104015350Y-91031698D01*
X104004815Y-91049238D01*
X104000791Y-91058277D01*
X103995735Y-91082571D01*
X103990983Y-91128646D01*
X103986773Y-91192887D01*
X103983349Y-91271673D01*
X103981098Y-91353897D01*
X103975759Y-91615365D01*
X104461930Y-91624191D01*
X104603195Y-91627061D01*
X104720235Y-91630123D01*
X104814222Y-91633433D01*
X104886330Y-91637047D01*
X104937734Y-91641019D01*
X104969606Y-91645405D01*
X104980706Y-91648645D01*
X105011623Y-91676183D01*
X105031738Y-91719015D01*
X105038138Y-91768292D01*
X108136857Y-91768292D01*
X108133946Y-91738974D01*
X108130097Y-91673425D01*
X108127058Y-91589895D01*
X108124530Y-91486017D01*
X108122216Y-91359427D01*
X108121900Y-91340294D01*
X108114546Y-90889659D01*
X107855221Y-90555768D01*
X107595897Y-90221878D01*
X107600004Y-90036877D01*
X107601812Y-89964530D01*
X107603971Y-89913208D01*
X107607190Y-89878540D01*
X107612183Y-89856151D01*
X107619663Y-89841672D01*
X107630340Y-89830729D01*
X107634092Y-89827628D01*
X107676480Y-89807773D01*
X107728975Y-89802927D01*
X107781394Y-89812819D01*
X107818168Y-89832520D01*
X107834433Y-89846957D01*
X107845458Y-89862904D01*
X107852796Y-89885891D01*
X107857999Y-89921446D01*
X107862618Y-89975100D01*
X107864189Y-89996477D01*
X107873952Y-90131420D01*
X108048264Y-90354239D01*
X108099808Y-90419779D01*
X108146924Y-90479034D01*
X108187100Y-90528898D01*
X108217824Y-90566262D01*
X108236581Y-90588018D01*
X108240369Y-90591824D01*
X108248894Y-90597634D01*
X108258021Y-90598944D01*
X108269732Y-90593698D01*
X108286008Y-90579840D01*
X108308831Y-90555313D01*
X108340184Y-90518061D01*
X108382047Y-90466028D01*
X108436403Y-90397157D01*
X108473262Y-90350184D01*
X108648055Y-90127230D01*
X108655334Y-90002661D01*
X108661672Y-89928932D01*
X108671890Y-89876633D01*
X108687827Y-89841879D01*
X108711323Y-89820781D01*
X108744218Y-89809455D01*
X108747014Y-89808910D01*
X108798147Y-89805307D01*
X108846703Y-89811924D01*
X108883656Y-89827087D01*
X108894000Y-89836141D01*
X108910434Y-89871390D01*
X108920876Y-89928822D01*
X108925050Y-90005873D01*
X109592528Y-90005873D01*
X109606312Y-89980339D01*
X109655131Y-89930799D01*
X109724459Y-89886505D01*
X109744060Y-89876366D01*
X109781718Y-89858893D01*
X109820343Y-89844411D01*
X109862679Y-89832649D01*
X109911473Y-89823334D01*
X109969467Y-89816194D01*
X110039406Y-89810956D01*
X110124035Y-89807350D01*
X110226098Y-89805102D01*
X110348339Y-89803941D01*
X110477921Y-89803600D01*
X110875232Y-89803380D01*
X115445206Y-89803380D01*
X116703660Y-89803380D01*
X117732360Y-89803380D01*
X117732360Y-88685780D01*
X100727060Y-88685780D01*
X100727060Y-93003780D01*
X100727060Y-88787380D01*
G37*
X100727060Y-88787380D02*
X117668860Y-93003809D01*
X100904860Y-93003839D01*
X105194804Y-93003922D01*
X105561163Y-93004056D01*
X105946470Y-93004239D01*
X106348577Y-93004470D01*
X106765332Y-93004744D01*
X107194585Y-93005062D01*
X107634186Y-93005420D01*
X108081985Y-93005816D01*
X108535831Y-93006248D01*
X108993574Y-93006715D01*
X109453063Y-93007213D01*
X109912150Y-93007741D01*
X110368682Y-93008297D01*
X110820510Y-93008878D01*
X111265484Y-93009483D01*
X111701453Y-93010109D01*
X112126268Y-93010754D01*
X112537776Y-93011415D01*
X112933830Y-93012092D01*
X113030185Y-93012263D01*
X117732360Y-93020688D01*
X117732360Y-89803380D01*
X116703660Y-89803380D01*
X116703660Y-91898880D01*
X116128985Y-91898769D01*
X116008089Y-91898578D01*
X115893016Y-91898077D01*
X115786678Y-91897301D01*
X115691991Y-91896285D01*
X115611867Y-91895065D01*
X115549220Y-91893676D01*
X115506964Y-91892155D01*
X115490810Y-91890997D01*
X115445080Y-91881675D01*
X115415265Y-91864550D01*
X115401983Y-91849833D01*
X115385181Y-91812698D01*
X114773260Y-91812698D01*
X114771688Y-91852835D01*
X114767648Y-91882016D01*
X114764045Y-91891162D01*
X114749886Y-91892909D01*
X114712804Y-91894390D01*
X114655277Y-91895585D01*
X114579780Y-91896474D01*
X114488789Y-91897036D01*
X114384782Y-91897249D01*
X114270233Y-91897093D01*
X114147621Y-91896548D01*
X114132220Y-91896454D01*
X113990241Y-91895524D01*
X113871449Y-91894613D01*
X113773629Y-91893624D01*
X113694567Y-91892456D01*
X113632050Y-91891012D01*
X113583865Y-91889193D01*
X113547796Y-91886899D01*
X113521632Y-91884032D01*
X113503157Y-91880494D01*
X113490158Y-91876186D01*
X113480422Y-91871008D01*
X113474794Y-91867130D01*
X113439585Y-91828843D01*
X113421685Y-91782383D01*
X113420844Y-91734163D01*
X113436812Y-91690598D01*
X113469338Y-91658103D01*
X113483223Y-91651082D01*
X113506424Y-91645810D01*
X113549767Y-91641044D01*
X113614294Y-91636725D01*
X113701050Y-91632798D01*
X113811079Y-91629206D01*
X113945424Y-91625893D01*
X113950935Y-91625774D01*
X114052393Y-91623386D01*
X114145280Y-91620811D01*
X114226672Y-91618160D01*
X114293643Y-91615545D01*
X114343265Y-91613077D01*
X114372614Y-91610868D01*
X114379560Y-91609447D01*
X114373422Y-91596723D01*
X114356396Y-91565826D01*
X114330562Y-91520422D01*
X114298005Y-91464177D01*
X114266782Y-91410892D01*
X114230865Y-91349894D01*
X114184894Y-91271790D01*
X114131689Y-91181370D01*
X114074066Y-91083423D01*
X114014845Y-90982740D01*
X113956844Y-90884112D01*
X113944918Y-90863830D01*
X113937389Y-90851130D01*
X112626960Y-90851130D01*
X112621490Y-90896528D01*
X112607440Y-90941970D01*
X112588351Y-90977969D01*
X112574281Y-90992228D01*
X112554174Y-91000628D01*
X112521903Y-91007260D01*
X112475277Y-91012243D01*
X112412109Y-91015694D01*
X112330207Y-91017733D01*
X112227382Y-91018477D01*
X112101445Y-91018045D01*
X112096650Y-91018010D01*
X111763190Y-91015570D01*
X111724234Y-90976614D01*
X111688973Y-90924434D01*
X111676280Y-90862446D01*
X111686557Y-90793245D01*
X111692930Y-90774681D01*
X111710673Y-90737983D01*
X111730326Y-90711202D01*
X111738231Y-90704935D01*
X111757521Y-90701360D01*
X111798323Y-90698384D01*
X111856758Y-90696007D01*
X111928944Y-90694229D01*
X112011002Y-90693049D01*
X112099050Y-90692467D01*
X112189210Y-90692483D01*
X112277599Y-90693096D01*
X112360339Y-90694307D01*
X112433548Y-90696114D01*
X112493346Y-90698518D01*
X112535853Y-90701518D01*
X112556898Y-90704999D01*
X112587911Y-90729082D01*
X112611836Y-90771169D01*
X112625255Y-90824129D01*
X112626960Y-90851130D01*
X113937389Y-90851130D01*
X113884954Y-90762686D01*
X113820517Y-90655464D01*
X113754979Y-90547674D01*
X113691710Y-90444827D01*
X113634082Y-90352433D01*
X113585467Y-90276000D01*
X113581447Y-90269780D01*
X113427060Y-90031330D01*
X113427060Y-89819999D01*
X113588985Y-89811741D01*
X113651699Y-89809263D01*
X113730407Y-89807287D01*
X113821635Y-89805799D01*
X113921910Y-89804790D01*
X114027757Y-89804249D01*
X114135703Y-89804164D01*
X114242272Y-89804524D01*
X114343992Y-89805317D01*
X114437387Y-89806534D01*
X114518984Y-89808163D01*
X114585308Y-89810192D01*
X114632886Y-89812611D01*
X114657029Y-89815155D01*
X114706880Y-89830106D01*
X114737131Y-89855061D01*
X114752943Y-89895748D01*
X114757307Y-89926390D01*
X114758443Y-89970646D01*
X114749883Y-90001243D01*
X114738125Y-90018772D01*
X114727679Y-90030310D01*
X114715159Y-90038797D01*
X114696487Y-90044934D01*
X114667586Y-90049423D01*
X114624381Y-90052966D01*
X114562794Y-90056262D01*
X114505026Y-90058866D01*
X114419440Y-90062033D01*
X114318206Y-90064857D01*
X114211074Y-90067121D01*
X114107796Y-90068604D01*
X114051177Y-90069031D01*
X113966429Y-90069536D01*
X113903905Y-90070429D01*
X113860432Y-90072024D01*
X113832833Y-90074630D01*
X113817934Y-90078560D01*
X113812559Y-90084125D01*
X113813534Y-90091635D01*
X113813782Y-90092305D01*
X113821420Y-90106645D01*
X113840864Y-90141143D01*
X113871094Y-90194034D01*
X113911087Y-90263554D01*
X113959824Y-90347936D01*
X114016284Y-90445417D01*
X114079444Y-90554231D01*
X114148286Y-90672613D01*
X114221787Y-90798798D01*
X114297741Y-90928990D01*
X114387113Y-91082102D01*
X114464525Y-91214883D01*
X114530834Y-91328929D01*
X114586900Y-91425838D01*
X114633581Y-91507206D01*
X114671738Y-91574628D01*
X114702228Y-91629702D01*
X114725911Y-91674023D01*
X114743647Y-91709189D01*
X114756293Y-91736795D01*
X114764709Y-91758439D01*
X114769754Y-91775716D01*
X114772287Y-91790223D01*
X114773168Y-91803556D01*
X114773260Y-91812698D01*
X115385181Y-91812698D01*
X115379942Y-91801121D01*
X115377944Y-91745831D01*
X115395680Y-91692584D01*
X115408260Y-91673752D01*
X115440010Y-91633790D01*
X116430610Y-91625830D01*
X116434004Y-91305155D01*
X116437397Y-90984480D01*
X116262554Y-90983722D01*
X116158859Y-90982197D01*
X116077685Y-90977902D01*
X116016209Y-90969750D01*
X115971608Y-90956655D01*
X115941059Y-90937531D01*
X115921738Y-90911292D01*
X115910823Y-90876853D01*
X115906623Y-90846787D01*
X115904615Y-90806022D01*
X115910429Y-90779582D01*
X115926991Y-90756869D01*
X115933208Y-90750477D01*
X115965906Y-90717779D01*
X116201433Y-90717780D01*
X116436960Y-90717780D01*
X116436960Y-90070080D01*
X115995635Y-90069322D01*
X115861058Y-90068885D01*
X115749529Y-90067943D01*
X115658698Y-90066298D01*
X115586216Y-90063753D01*
X115529732Y-90060108D01*
X115486897Y-90055166D01*
X115455362Y-90048727D01*
X115432775Y-90040594D01*
X115416787Y-90030568D01*
X115405909Y-90019529D01*
X115386717Y-89978537D01*
X115381558Y-89927576D01*
X115389976Y-89877010D01*
X115411516Y-89837203D01*
X115414033Y-89834552D01*
X115445206Y-89803380D01*
X110875232Y-89803380D01*
X110871621Y-90809855D01*
X110870946Y-90997591D01*
X110870290Y-91161576D01*
X110869554Y-91303455D01*
X110868640Y-91424876D01*
X110867447Y-91527486D01*
X110865878Y-91612932D01*
X110863832Y-91682862D01*
X110861211Y-91738922D01*
X110857915Y-91782761D01*
X110853846Y-91816024D01*
X110848904Y-91840360D01*
X110842990Y-91857416D01*
X110836005Y-91868838D01*
X110827851Y-91876275D01*
X110818426Y-91881372D01*
X110807634Y-91885778D01*
X110806855Y-91886091D01*
X110745282Y-91899001D01*
X110744585Y-91898880D01*
X103101960Y-91898880D01*
X102495535Y-91898809D01*
X102342895Y-91898503D01*
X102207949Y-91897639D01*
X102091961Y-91896243D01*
X101996193Y-91894341D01*
X101921910Y-91891959D01*
X101870374Y-91889122D01*
X101842850Y-91885856D01*
X101841506Y-91885517D01*
X101797923Y-91861655D01*
X101768689Y-91822311D01*
X101755511Y-91774032D01*
X101760096Y-91723365D01*
X101784151Y-91676860D01*
X101786407Y-91674163D01*
X101817053Y-91638530D01*
X102030882Y-91630228D01*
X102111876Y-91627582D01*
X102210149Y-91625156D01*
X102317577Y-91623103D01*
X102426041Y-91621576D01*
X102527417Y-91620731D01*
X102533635Y-91620703D01*
X102822560Y-91619480D01*
X102822560Y-91308330D01*
X102822437Y-91222365D01*
X102822088Y-91145396D01*
X102821551Y-91080879D01*
X102820859Y-91032267D01*
X102820049Y-91003015D01*
X102819385Y-90995859D01*
X102806405Y-90995287D01*
X102770974Y-90994261D01*
X102716035Y-90992852D01*
X102644533Y-90991132D01*
X102559411Y-90989171D01*
X102463613Y-90987042D01*
X102384410Y-90985332D01*
X102259302Y-90982564D01*
X102156881Y-90979777D01*
X102074440Y-90976457D01*
X102009272Y-90972092D01*
X101958667Y-90966168D01*
X101919920Y-90958173D01*
X101890322Y-90947593D01*
X101867165Y-90933916D01*
X101847743Y-90916628D01*
X101829346Y-90895218D01*
X101815697Y-90877590D01*
X101795294Y-90849474D01*
X101781742Y-90824679D01*
X101773114Y-90796395D01*
X101767484Y-90757811D01*
X101762925Y-90702115D01*
X101761911Y-90687433D01*
X101759413Y-90634117D01*
X101757637Y-90561591D01*
X101756650Y-90476037D01*
X101756515Y-90383636D01*
X101757297Y-90290572D01*
X101757580Y-90271756D01*
X101759286Y-90178181D01*
X101761184Y-90106411D01*
X101763601Y-90052851D01*
X101766868Y-90013905D01*
X101771314Y-89985979D01*
X101777267Y-89965477D01*
X101785058Y-89948806D01*
X101787559Y-89944426D01*
X101828806Y-89892019D01*
X101882682Y-89848003D01*
X101940138Y-89819379D01*
X101954272Y-89815386D01*
X101977610Y-89812868D01*
X102023304Y-89810527D01*
X102088312Y-89808428D01*
X102169590Y-89806634D01*
X102264095Y-89805210D01*
X102368785Y-89804218D01*
X102480616Y-89803723D01*
X102512209Y-89803682D01*
X103021008Y-89803380D01*
X103055134Y-89838999D01*
X103083065Y-89885155D01*
X103091034Y-89939377D01*
X103078991Y-89993965D01*
X103056382Y-90031005D01*
X103023503Y-90070079D01*
X102529332Y-90070080D01*
X102035160Y-90070080D01*
X102035160Y-90716280D01*
X102476485Y-90720205D01*
X102601262Y-90721365D01*
X102703335Y-90722756D01*
X102785401Y-90724897D01*
X102850155Y-90728306D01*
X102900292Y-90733502D01*
X102938509Y-90741005D01*
X102967499Y-90751334D01*
X102989960Y-90765008D01*
X103008585Y-90782546D01*
X103026072Y-90804466D01*
X103043832Y-90829466D01*
X103060986Y-90856118D01*
X103072671Y-90882307D01*
X103080507Y-90914589D01*
X103086119Y-90959518D01*
X103090830Y-91019357D01*
X103093374Y-91068664D01*
X103095721Y-91138485D01*
X103097772Y-91223934D01*
X103099427Y-91320125D01*
X103100587Y-91422172D01*
X103101152Y-91525188D01*
X103101157Y-91527405D01*
X103101960Y-91898880D01*
X110744585Y-91898880D01*
X110686867Y-91888873D01*
X110642786Y-91861839D01*
X110601310Y-91824798D01*
X110597580Y-91470185D01*
X110593849Y-91115571D01*
X110203880Y-91103584D01*
X110093153Y-91100080D01*
X110004799Y-91096946D01*
X109935800Y-91093913D01*
X109883137Y-91090710D01*
X109843791Y-91087071D01*
X109814744Y-91082724D01*
X109792977Y-91077401D01*
X109775471Y-91070833D01*
X109761881Y-91064173D01*
X109717957Y-91034363D01*
X109670752Y-90991786D01*
X109626135Y-90942952D01*
X109589973Y-90894372D01*
X109568136Y-90852556D01*
X109566503Y-90847424D01*
X109552240Y-90779217D01*
X109541626Y-90691678D01*
X109534757Y-90590628D01*
X109531730Y-90481884D01*
X109532641Y-90371266D01*
X109537585Y-90264594D01*
X109546658Y-90167686D01*
X109554403Y-90115045D01*
X109574053Y-90040097D01*
X109592528Y-90005873D01*
X108925050Y-90005873D01*
X108922683Y-90099978D01*
X108922516Y-90102903D01*
X108915091Y-90230976D01*
X108657432Y-90565769D01*
X108399773Y-90900563D01*
X108395642Y-91358446D01*
X108394395Y-91484839D01*
X108392957Y-91588276D01*
X108391024Y-91671203D01*
X108388294Y-91736065D01*
X108384465Y-91785304D01*
X108379234Y-91821368D01*
X108372299Y-91846699D01*
X108363357Y-91863743D01*
X108352105Y-91874944D01*
X108338242Y-91882747D01*
X108330355Y-91886091D01*
X108280507Y-91896753D01*
X108224612Y-91895324D01*
X108190696Y-91887086D01*
X108175743Y-91879763D01*
X108163385Y-91868648D01*
X108153323Y-91851377D01*
X108145262Y-91825584D01*
X108138902Y-91788905D01*
X108136857Y-91768292D01*
X105038138Y-91768292D01*
X105032037Y-91804610D01*
X105012408Y-91845872D01*
X104982668Y-91871008D01*
X104935920Y-91885404D01*
X104926486Y-91887057D01*
X104888545Y-91890811D01*
X104828920Y-91893618D01*
X104751311Y-91895480D01*
X104659417Y-91896402D01*
X104556937Y-91896384D01*
X104447569Y-91895432D01*
X104335013Y-91893546D01*
X104222968Y-91890731D01*
X104115133Y-91886989D01*
X104101232Y-91886418D01*
X104002625Y-91882543D01*
X103921561Y-91878403D01*
X103856327Y-91871673D01*
X103805210Y-91860024D01*
X103766497Y-91841132D01*
X103738475Y-91812670D01*
X103719430Y-91772310D01*
X103707649Y-91717728D01*
X103701420Y-91646595D01*
X103699028Y-91556587D01*
X103698762Y-91445375D01*
X103698928Y-91340080D01*
X103699032Y-91227844D01*
X103699430Y-91138136D01*
X103700280Y-91068082D01*
X103701737Y-91014810D01*
X103703957Y-90975447D01*
X103707097Y-90947121D01*
X103711312Y-90926959D01*
X103716759Y-90912088D01*
X103722806Y-90900917D01*
X103751069Y-90868734D01*
X103786076Y-90845482D01*
X103786779Y-90845186D01*
X103826901Y-90828567D01*
X103780156Y-90800356D01*
X103758178Y-90786633D01*
X103740621Y-90772953D01*
X103726988Y-90756449D01*
X103716781Y-90734255D01*
X103709501Y-90703504D01*
X103704651Y-90661332D01*
X103701732Y-90604871D01*
X103700246Y-90531256D01*
X103699696Y-90437619D01*
X103699589Y-90336780D01*
X103699665Y-90227807D01*
X103700117Y-90141142D01*
X103701115Y-90073693D01*
X103702830Y-90022369D01*
X103705431Y-89984079D01*
X103709090Y-89955730D01*
X103713976Y-89934232D01*
X103720259Y-89916493D01*
X103723099Y-89909985D01*
X103737796Y-89883119D01*
X103756858Y-89860356D01*
X103782254Y-89841436D01*
X103815953Y-89826101D01*
X103859925Y-89814091D01*
X103916139Y-89805147D01*
X103986564Y-89799011D01*
X104073170Y-89795424D01*
X104177926Y-89794125D01*
X104302800Y-89794858D01*
X104449764Y-89797362D01*
X104560435Y-89799874D01*
X104971159Y-89809845D01*
X105001760Y-89845421D01*
X105023565Y-89880314D01*
X105031784Y-89923484D01*
X105032166Y-89940613D01*
X105031822Y-89969588D01*
X105029494Y-89993463D01*
X105022928Y-90012763D01*
X105009871Y-90028013D01*
X104988070Y-90039738D01*
X104955271Y-90048462D01*
X104909220Y-90054712D01*
X104847664Y-90059011D01*
X104768349Y-90061884D01*
X104669023Y-90063857D01*
X104547431Y-90065455D01*
X104493513Y-90066089D01*
X104386935Y-90067501D01*
X104287481Y-90069124D01*
X104198233Y-90070884D01*
X104122276Y-90072708D01*
X104062692Y-90074522D01*
X104022564Y-90076254D01*
X104005427Y-90077721D01*
X103975444Y-90083970D01*
X103980128Y-90353962D01*
X103982303Y-90454069D01*
X103985421Y-90531796D01*
X103990214Y-90590162D01*
X103997411Y-90632187D01*
X104007746Y-90660890D01*
X104021948Y-90679291D01*
X104040751Y-90690408D01*
X104063211Y-90696901D01*
X104086046Y-90699496D01*
X104130070Y-90702425D01*
X104191078Y-90705485D01*
X104264866Y-90708478D01*
X104347229Y-90711201D01*
X104384660Y-90712251D01*
X104469431Y-90715042D01*
X104547442Y-90718635D01*
X104614491Y-90722755D01*
X104666377Y-90727127D01*
X104698897Y-90731475D01*
X104705934Y-90733290D01*
X104743439Y-90759864D01*
X104768068Y-90801490D01*
X104777527Y-90850125D01*
X104769521Y-90897730D01*
X104758659Y-90918055D01*
X104744855Y-90935793D01*
X104729108Y-90949691D01*
X104708216Y-90960311D01*
X104678981Y-90968216D01*
X104638201Y-90973965D01*
X104582676Y-90978121D01*
X104509206Y-90981244D01*
X104414590Y-90983895D01*
X104378310Y-90984760D01*
X104274374Y-90987447D01*
X104192823Y-90990496D01*
X104130642Y-90994493D01*
X104084819Y-91000024D01*
X104052338Y-91007677D01*
X104030187Y-91018040D01*
X104015350Y-91031698D01*
X104004815Y-91049238D01*
X104000791Y-91058277D01*
X103995735Y-91082571D01*
X103990983Y-91128646D01*
X103986773Y-91192887D01*
X103983349Y-91271673D01*
X103981098Y-91353897D01*
X103975759Y-91615365D01*
X104461930Y-91624191D01*
X104603195Y-91627061D01*
X104720235Y-91630123D01*
X104814222Y-91633433D01*
X104886330Y-91637047D01*
X104937734Y-91641019D01*
X104969606Y-91645405D01*
X104980706Y-91648645D01*
X105011623Y-91676183D01*
X105031738Y-91719015D01*
X105038138Y-91768292D01*
X108136857Y-91768292D01*
X108133946Y-91738974D01*
X108130097Y-91673425D01*
X108127058Y-91589895D01*
X108124530Y-91486017D01*
X108122216Y-91359427D01*
X108121900Y-91340294D01*
X108114546Y-90889659D01*
X107855221Y-90555768D01*
X107595897Y-90221878D01*
X107600004Y-90036877D01*
X107601812Y-89964530D01*
X107603971Y-89913208D01*
X107607190Y-89878540D01*
X107612183Y-89856151D01*
X107619663Y-89841672D01*
X107630340Y-89830729D01*
X107634092Y-89827628D01*
X107676480Y-89807773D01*
X107728975Y-89802927D01*
X107781394Y-89812819D01*
X107818168Y-89832520D01*
X107834433Y-89846957D01*
X107845458Y-89862904D01*
X107852796Y-89885891D01*
X107857999Y-89921446D01*
X107862618Y-89975100D01*
X107864189Y-89996477D01*
X107873952Y-90131420D01*
X108048264Y-90354239D01*
X108099808Y-90419779D01*
X108146924Y-90479034D01*
X108187100Y-90528898D01*
X108217824Y-90566262D01*
X108236581Y-90588018D01*
X108240369Y-90591824D01*
X108248894Y-90597634D01*
X108258021Y-90598944D01*
X108269732Y-90593698D01*
X108286008Y-90579840D01*
X108308831Y-90555313D01*
X108340184Y-90518061D01*
X108382047Y-90466028D01*
X108436403Y-90397157D01*
X108473262Y-90350184D01*
X108648055Y-90127230D01*
X108655334Y-90002661D01*
X108661672Y-89928932D01*
X108671890Y-89876633D01*
X108687827Y-89841879D01*
X108711323Y-89820781D01*
X108744218Y-89809455D01*
X108747014Y-89808910D01*
X108798147Y-89805307D01*
X108846703Y-89811924D01*
X108883656Y-89827087D01*
X108894000Y-89836141D01*
X108910434Y-89871390D01*
X108920876Y-89928822D01*
X108925050Y-90005873D01*
X109592528Y-90005873D01*
X109606312Y-89980339D01*
X109655131Y-89930799D01*
X109724459Y-89886505D01*
X109744060Y-89876366D01*
X109781718Y-89858893D01*
X109820343Y-89844411D01*
X109862679Y-89832649D01*
X109911473Y-89823334D01*
X109969467Y-89816194D01*
X110039406Y-89810956D01*
X110124035Y-89807350D01*
X110226098Y-89805102D01*
X110348339Y-89803941D01*
X110477921Y-89803600D01*
X110875232Y-89803380D01*
X115445206Y-89803380D01*
X116703660Y-89803380D01*
X117732360Y-89803380D01*
X117732360Y-88685780D01*
X100727060Y-88685780D01*
X100727060Y-93003780D01*
X100727060Y-88787380D01*
G36*
X118951560Y-93058813D02*
G01*
X132261159Y-93058813D01*
X132261159Y-91309899D01*
X130186715Y-91309899D01*
X130163487Y-91329171D01*
X130147310Y-91341592D01*
X130120892Y-91360790D01*
X130088016Y-91384053D01*
X130055593Y-91406526D01*
X130020031Y-91430650D01*
X129988789Y-91451037D01*
X129957898Y-91470069D01*
X129923392Y-91490126D01*
X129881302Y-91513588D01*
X129835459Y-91538606D01*
X129780200Y-91566071D01*
X129713945Y-91594962D01*
X129640911Y-91623773D01*
X129565315Y-91650996D01*
X129491375Y-91675124D01*
X129423308Y-91694649D01*
X129365330Y-91708066D01*
X129357093Y-91709576D01*
X129335479Y-91713889D01*
X129323226Y-91716875D01*
X129306415Y-91720622D01*
X129282747Y-91724859D01*
X129280893Y-91725155D01*
X129253821Y-91729582D01*
X129230187Y-91733675D01*
X129230093Y-91733692D01*
X129210071Y-91736701D01*
X129180726Y-91740401D01*
X129158126Y-91742941D01*
X129130762Y-91746226D01*
X129111146Y-91749294D01*
X129104301Y-91751138D01*
X129095060Y-91752057D01*
X129071727Y-91752527D01*
X129037139Y-91752599D01*
X128994131Y-91752322D01*
X128945536Y-91751744D01*
X128894192Y-91750916D01*
X128842932Y-91749887D01*
X128794592Y-91748706D01*
X128752007Y-91747423D01*
X128718013Y-91746086D01*
X128695444Y-91744746D01*
X128688226Y-91743893D01*
X128669525Y-91740379D01*
X128640169Y-91735391D01*
X128606250Y-91729959D01*
X128603560Y-91729542D01*
X128546599Y-91719234D01*
X128482688Y-91705157D01*
X128415554Y-91688361D01*
X128348924Y-91669897D01*
X128286527Y-91650814D01*
X128232090Y-91632163D01*
X128189340Y-91614994D01*
X128178110Y-91609670D01*
X128158682Y-91600635D01*
X128147459Y-91596800D01*
X128146360Y-91597133D01*
X128139409Y-91595917D01*
X128120374Y-91587889D01*
X128091980Y-91574449D01*
X128056952Y-91556995D01*
X128018015Y-91536927D01*
X127977895Y-91515644D01*
X127939315Y-91494545D01*
X127905002Y-91475030D01*
X127883718Y-91462281D01*
X127730555Y-91358428D01*
X127590405Y-91244261D01*
X127462917Y-91119347D01*
X127347736Y-90983254D01*
X127244510Y-90835550D01*
X127152886Y-90675802D01*
X127072510Y-90503577D01*
X127044603Y-90434146D01*
X127037128Y-90413837D01*
X127033170Y-90401331D01*
X127032993Y-90400280D01*
X127030150Y-90390192D01*
X127023539Y-90371597D01*
X127023180Y-90370646D01*
X127009438Y-90329322D01*
X126994560Y-90276176D01*
X126979721Y-90216162D01*
X126966097Y-90154233D01*
X126954861Y-90095343D01*
X126948879Y-90057380D01*
X126945088Y-90030265D01*
X126940157Y-89995207D01*
X126936383Y-89968480D01*
X126934359Y-89944924D01*
X126932848Y-89908606D01*
X126931834Y-89862569D01*
X126931300Y-89809853D01*
X126931229Y-89753501D01*
X126931603Y-89696554D01*
X126932405Y-89642054D01*
X126933618Y-89593043D01*
X126935225Y-89552562D01*
X126937209Y-89523653D01*
X126938961Y-89511280D01*
X126943257Y-89489450D01*
X126947742Y-89460826D01*
X126948924Y-89452013D01*
X126953961Y-89420717D01*
X126962228Y-89378033D01*
X126972620Y-89328941D01*
X126984028Y-89278422D01*
X126995348Y-89231455D01*
X127005473Y-89193022D01*
X127009481Y-89179397D01*
X127017368Y-89153977D01*
X127022981Y-89135860D01*
X127024702Y-89130280D01*
X127029321Y-89117196D01*
X127039090Y-89091622D01*
X127054509Y-89052265D01*
X127063832Y-89028680D01*
X127075864Y-88997926D01*
X127085340Y-88973001D01*
X127090599Y-88958294D01*
X127091064Y-88956713D01*
X127099697Y-88933311D01*
X127116269Y-88898538D01*
X127139206Y-88855028D01*
X127166934Y-88805416D01*
X127197877Y-88752339D01*
X127230460Y-88698432D01*
X127263108Y-88646330D01*
X127294247Y-88598668D01*
X127322302Y-88558083D01*
X127345698Y-88527209D01*
X127352585Y-88519082D01*
X127372738Y-88496317D01*
X127473854Y-88596036D01*
X127574969Y-88695756D01*
X127509602Y-88792368D01*
X127427133Y-88927388D01*
X127356654Y-89070129D01*
X127299271Y-89217722D01*
X127256092Y-89367302D01*
X127228224Y-89515999D01*
X127227172Y-89523980D01*
X127218975Y-89605823D01*
X127214323Y-89693425D01*
X127213200Y-89782149D01*
X127215590Y-89867359D01*
X127221475Y-89944419D01*
X127228869Y-89998113D01*
X127233364Y-90024593D01*
X127236584Y-90044680D01*
X127241100Y-90070873D01*
X127244260Y-90087013D01*
X127287916Y-90255397D01*
X127346646Y-90416482D01*
X127420032Y-90569606D01*
X127507660Y-90714108D01*
X127609115Y-90849325D01*
X127723983Y-90974596D01*
X127851846Y-91089258D01*
X127893407Y-91122048D01*
X127928516Y-91147566D01*
X127970616Y-91176070D01*
X128016293Y-91205463D01*
X128062131Y-91233651D01*
X128104715Y-91258537D01*
X128140631Y-91278028D01*
X128166464Y-91290027D01*
X128168260Y-91290698D01*
X128187219Y-91299224D01*
X128196855Y-91306824D01*
X128197160Y-91307914D01*
X128203923Y-91314137D01*
X128208269Y-91314680D01*
X128222132Y-91318167D01*
X128244347Y-91326982D01*
X128255463Y-91332114D01*
X128276982Y-91341275D01*
X128309867Y-91353835D01*
X128350028Y-91368382D01*
X128393372Y-91383504D01*
X128435808Y-91397790D01*
X128473245Y-91409829D01*
X128501591Y-91418208D01*
X128513194Y-91421023D01*
X128530327Y-91424306D01*
X128558348Y-91429682D01*
X128591517Y-91436049D01*
X128595093Y-91436735D01*
X128687061Y-91452672D01*
X128770097Y-91463038D01*
X128851002Y-91468524D01*
X128921060Y-91469867D01*
X128958125Y-91469236D01*
X129002275Y-91467495D01*
X129049029Y-91464934D01*
X129093908Y-91461840D01*
X129132434Y-91458501D01*
X129160127Y-91455204D01*
X129166593Y-91454081D01*
X129186022Y-91450690D01*
X129212226Y-91446739D01*
X129217393Y-91446021D01*
X129249960Y-91440259D01*
X129293567Y-91430724D01*
X129343089Y-91418679D01*
X129393398Y-91405385D01*
X129439366Y-91392104D01*
X129450226Y-91388729D01*
X129562520Y-91347704D01*
X129678463Y-91295255D01*
X129792486Y-91234161D01*
X129899019Y-91167203D01*
X129911435Y-91158626D01*
X129940816Y-91138471D01*
X129964924Y-91122616D01*
X129980481Y-91113179D01*
X129984352Y-91111480D01*
X129991827Y-91117192D01*
X130009065Y-91132998D01*
X130033974Y-91156898D01*
X130064462Y-91186896D01*
X130088238Y-91210690D01*
X130186715Y-91309899D01*
X132261159Y-91309899D01*
X132261159Y-89784108D01*
X130926701Y-89784108D01*
X130925813Y-89845772D01*
X130924023Y-89900694D01*
X130921340Y-89944274D01*
X130920664Y-89951546D01*
X130897231Y-90113633D01*
X130860075Y-90275723D01*
X130810306Y-90434294D01*
X130749035Y-90585825D01*
X130677369Y-90726794D01*
X130675266Y-90730480D01*
X130656624Y-90762187D01*
X130634384Y-90798678D01*
X130610470Y-90836954D01*
X130586807Y-90874014D01*
X130565321Y-90906858D01*
X130547935Y-90932485D01*
X130536574Y-90947896D01*
X130534047Y-90950613D01*
X130526276Y-90959741D01*
X130513390Y-90977124D01*
X130509692Y-90982363D01*
X130496144Y-90999826D01*
X130486159Y-91009311D01*
X130484567Y-91009880D01*
X130476915Y-91004177D01*
X130459485Y-90988392D01*
X130434375Y-90964514D01*
X130403686Y-90934528D01*
X130379186Y-90910145D01*
X130279711Y-90810410D01*
X130317996Y-90757795D01*
X130408444Y-90619241D01*
X130485372Y-90471184D01*
X130548233Y-90315004D01*
X130596480Y-90152080D01*
X130629567Y-89983791D01*
X130632363Y-89964246D01*
X130636053Y-89925284D01*
X130638423Y-89874364D01*
X130639538Y-89815117D01*
X130639463Y-89751170D01*
X130638264Y-89686153D01*
X130636007Y-89623695D01*
X130632757Y-89567423D01*
X130628581Y-89520967D01*
X130623780Y-89489069D01*
X130619700Y-89467884D01*
X130615239Y-89442503D01*
X130610536Y-89416488D01*
X130606079Y-89394863D01*
X130600983Y-89372592D01*
X130598347Y-89360964D01*
X130585996Y-89312273D01*
X130569518Y-89255748D01*
X130550977Y-89197902D01*
X130532437Y-89145248D01*
X130519885Y-89113347D01*
X130496742Y-89060284D01*
X130473037Y-89010304D01*
X130446864Y-88959852D01*
X130416319Y-88905370D01*
X130379495Y-88843302D01*
X130345346Y-88787590D01*
X130329845Y-88765223D01*
X130305843Y-88733710D01*
X130276170Y-88696490D01*
X130243655Y-88657002D01*
X130211129Y-88618684D01*
X130181422Y-88584973D01*
X130157953Y-88559907D01*
X130046683Y-88457081D01*
X125513226Y-88457081D01*
X125513226Y-91755356D01*
X125371410Y-91753035D01*
X125229593Y-91750713D01*
X125229109Y-90103669D01*
X125228625Y-88456624D01*
X125370926Y-88456853D01*
X125513226Y-88457081D01*
X130046683Y-88457081D01*
X130029660Y-88441350D01*
X129893178Y-88337607D01*
X129748410Y-88248619D01*
X129595260Y-88174326D01*
X129446819Y-88118884D01*
X129412626Y-88108107D01*
X129382135Y-88099024D01*
X129360895Y-88093274D01*
X129357919Y-88092600D01*
X129338184Y-88088278D01*
X129327459Y-88085692D01*
X129294713Y-88078019D01*
X129250103Y-88069266D01*
X129198578Y-88060341D01*
X129145092Y-88052149D01*
X129141193Y-88051597D01*
X129105146Y-88047982D01*
X129057158Y-88045253D01*
X129001027Y-88043423D01*
X128940549Y-88042502D01*
X128879524Y-88042502D01*
X128821747Y-88043435D01*
X128771017Y-88045313D01*
X128731130Y-88048146D01*
X128714076Y-88050295D01*
X128643351Y-88062204D01*
X128586763Y-88072455D01*
X128545113Y-88080893D01*
X128519203Y-88087362D01*
X128514413Y-88088973D01*
X128499055Y-88093739D01*
X128493493Y-88093600D01*
X128486041Y-88094940D01*
X128465742Y-88101038D01*
X128435679Y-88110915D01*
X128398937Y-88123593D01*
X128398243Y-88123838D01*
X128360356Y-88137153D01*
X128328112Y-88148418D01*
X128304983Y-88156425D01*
X128294526Y-88159940D01*
X128259547Y-88173011D01*
X128213961Y-88193864D01*
X128161089Y-88220651D01*
X128104249Y-88251523D01*
X128046764Y-88284630D01*
X127991953Y-88318126D01*
X127943137Y-88350160D01*
X127909707Y-88374195D01*
X127872020Y-88402888D01*
X127770007Y-88300512D01*
X127733005Y-88263223D01*
X127706645Y-88235977D01*
X127689538Y-88216900D01*
X127680299Y-88204117D01*
X127677539Y-88195751D01*
X127679872Y-88189929D01*
X127684926Y-88185501D01*
X127704976Y-88169713D01*
X127719698Y-88157382D01*
X127748874Y-88134745D01*
X127789953Y-88106584D01*
X127839662Y-88074884D01*
X127894728Y-88041633D01*
X127900915Y-88038080D01*
X126690093Y-88038080D01*
X125374432Y-88038080D01*
X125193448Y-88038055D01*
X125028730Y-88037977D01*
X124879609Y-88037841D01*
X124745419Y-88037642D01*
X124625492Y-88037373D01*
X124519159Y-88037030D01*
X124425754Y-88036607D01*
X124344608Y-88036099D01*
X124275054Y-88035500D01*
X124216424Y-88034806D01*
X124168051Y-88034010D01*
X124129267Y-88033108D01*
X124099404Y-88032094D01*
X124077794Y-88030963D01*
X124063770Y-88029709D01*
X124056665Y-88028327D01*
X124055459Y-88027497D01*
X124054360Y-88015711D01*
X124053513Y-87990190D01*
X124052976Y-87954130D01*
X124052808Y-87910728D01*
X124052888Y-87885680D01*
X124053630Y-87754447D01*
X125371861Y-87752303D01*
X126657490Y-87750213D01*
X123328826Y-87750213D01*
X123328826Y-91754947D01*
X123040959Y-91754947D01*
X123040959Y-90282038D01*
X120557005Y-90282038D01*
X120556983Y-90449051D01*
X120556934Y-90609384D01*
X120556859Y-90762297D01*
X120556757Y-90907048D01*
X120556631Y-91042894D01*
X120556481Y-91169094D01*
X120556308Y-91284907D01*
X120556113Y-91389591D01*
X120555898Y-91482402D01*
X120555662Y-91562601D01*
X120555407Y-91629445D01*
X120555135Y-91682193D01*
X120554845Y-91720102D01*
X120554540Y-91742431D01*
X120554276Y-91748597D01*
X120545057Y-91750719D01*
X120521795Y-91752540D01*
X120487382Y-91753932D01*
X120444706Y-91754765D01*
X120411560Y-91754947D01*
X120272359Y-91754947D01*
X120272359Y-87749804D01*
X120414176Y-87752125D01*
X120555993Y-87754447D01*
X120556893Y-89748346D01*
X120556960Y-89930944D01*
X120556997Y-90109089D01*
X120557005Y-90282038D01*
X123040959Y-90282038D01*
X123040959Y-89612880D01*
X122622366Y-89612880D01*
X122621114Y-89754696D01*
X122620637Y-89801593D01*
X122620106Y-89841989D01*
X122619567Y-89873104D01*
X122619067Y-89892161D01*
X122618744Y-89896868D01*
X122610308Y-89896918D01*
X122586093Y-89896966D01*
X122547251Y-89897010D01*
X122494936Y-89897051D01*
X122430302Y-89897087D01*
X122354503Y-89897119D01*
X122268691Y-89897146D01*
X122174020Y-89897168D01*
X122071644Y-89897184D01*
X121962717Y-89897194D01*
X121848391Y-89897196D01*
X121797074Y-89897195D01*
X120976522Y-89897167D01*
X120975486Y-89755023D01*
X120974450Y-89612880D01*
X122622366Y-89612880D01*
X123040959Y-89612880D01*
X123040959Y-87750213D01*
X123328826Y-87750213D01*
X126657490Y-87750213D01*
X126690093Y-87750160D01*
X126690093Y-88038080D01*
X127900915Y-88038080D01*
X127951876Y-88008819D01*
X128007836Y-87978427D01*
X128048993Y-87957466D01*
X128100456Y-87933434D01*
X128158223Y-87908518D01*
X128218861Y-87884008D01*
X128278935Y-87861197D01*
X128335013Y-87841375D01*
X128383662Y-87825833D01*
X128421447Y-87815863D01*
X128429993Y-87814179D01*
X128457309Y-87808395D01*
X128482910Y-87801741D01*
X128501299Y-87797271D01*
X128510257Y-87796830D01*
X128510426Y-87797161D01*
X128517121Y-87797217D01*
X128529604Y-87793303D01*
X128550042Y-87787579D01*
X128577769Y-87782150D01*
X128586754Y-87780798D01*
X128614236Y-87776799D01*
X128637103Y-87773094D01*
X128642226Y-87772151D01*
X128687696Y-87765569D01*
X128746286Y-87760616D01*
X128814257Y-87757297D01*
X128887874Y-87755622D01*
X128963400Y-87755596D01*
X129037098Y-87757229D01*
X129105231Y-87760526D01*
X129164062Y-87765497D01*
X129203800Y-87771014D01*
X129221693Y-87773997D01*
X129249178Y-87778381D01*
X129279105Y-87783045D01*
X129304320Y-87786871D01*
X129314759Y-87788374D01*
X129336007Y-87792569D01*
X129369456Y-87800671D01*
X129411128Y-87811585D01*
X129457049Y-87824218D01*
X129503239Y-87837474D01*
X129545723Y-87850259D01*
X129580525Y-87861479D01*
X129581241Y-87861722D01*
X129616390Y-87873831D01*
X129645474Y-87884323D01*
X129672130Y-87894741D01*
X129699994Y-87906627D01*
X129732704Y-87921523D01*
X129773896Y-87940971D01*
X129818526Y-87962344D01*
X129856519Y-87981861D01*
X129902109Y-88007277D01*
X129952194Y-88036656D01*
X130003671Y-88068061D01*
X130053440Y-88099558D01*
X130098398Y-88129211D01*
X130135444Y-88155084D01*
X130161476Y-88175241D01*
X130165747Y-88179020D01*
X130181946Y-88193219D01*
X130205117Y-88212693D01*
X130220781Y-88225536D01*
X130277765Y-88275232D01*
X130339898Y-88335479D01*
X130403496Y-88402380D01*
X130464876Y-88472037D01*
X130520353Y-88540555D01*
X130527735Y-88550225D01*
X130555005Y-88587412D01*
X130582874Y-88627417D01*
X130609576Y-88667469D01*
X130633346Y-88704800D01*
X130652421Y-88736640D01*
X130665034Y-88760219D01*
X130669426Y-88772568D01*
X130675127Y-88783606D01*
X130676939Y-88784558D01*
X130684667Y-88793797D01*
X130697377Y-88816053D01*
X130713856Y-88848584D01*
X130732891Y-88888648D01*
X130753270Y-88933501D01*
X130773782Y-88980401D01*
X130793215Y-89026605D01*
X130810355Y-89069371D01*
X130823991Y-89105956D01*
X130832911Y-89133618D01*
X130835029Y-89142255D01*
X130839601Y-89159918D01*
X130847300Y-89185613D01*
X130851041Y-89197289D01*
X130865622Y-89248089D01*
X130880427Y-89310766D01*
X130894493Y-89380306D01*
X130906855Y-89451693D01*
X130916550Y-89519914D01*
X130921141Y-89562080D01*
X130923910Y-89604689D01*
X130925756Y-89658965D01*
X130926684Y-89720305D01*
X130926701Y-89784108D01*
X132261159Y-89784108D01*
X132261159Y-86420947D01*
X118951560Y-86420947D01*
X118951560Y-93058813D01*
G37*
X118951560Y-93058813D02*
X132261159Y-93058813D01*
X132261159Y-91309899D01*
X130186715Y-91309899D01*
X130163487Y-91329171D01*
X130147310Y-91341592D01*
X130120892Y-91360790D01*
X130088016Y-91384053D01*
X130055593Y-91406526D01*
X130020031Y-91430650D01*
X129988789Y-91451037D01*
X129957898Y-91470069D01*
X129923392Y-91490126D01*
X129881302Y-91513588D01*
X129835459Y-91538606D01*
X129780200Y-91566071D01*
X129713945Y-91594962D01*
X129640911Y-91623773D01*
X129565315Y-91650996D01*
X129491375Y-91675124D01*
X129423308Y-91694649D01*
X129365330Y-91708066D01*
X129357093Y-91709576D01*
X129335479Y-91713889D01*
X129323226Y-91716875D01*
X129306415Y-91720622D01*
X129282747Y-91724859D01*
X129280893Y-91725155D01*
X129253821Y-91729582D01*
X129230187Y-91733675D01*
X129230093Y-91733692D01*
X129210071Y-91736701D01*
X129180726Y-91740401D01*
X129158126Y-91742941D01*
X129130762Y-91746226D01*
X129111146Y-91749294D01*
X129104301Y-91751138D01*
X129095060Y-91752057D01*
X129071727Y-91752527D01*
X129037139Y-91752599D01*
X128994131Y-91752322D01*
X128945536Y-91751744D01*
X128894192Y-91750916D01*
X128842932Y-91749887D01*
X128794592Y-91748706D01*
X128752007Y-91747423D01*
X128718013Y-91746086D01*
X128695444Y-91744746D01*
X128688226Y-91743893D01*
X128669525Y-91740379D01*
X128640169Y-91735391D01*
X128606250Y-91729959D01*
X128603560Y-91729542D01*
X128546599Y-91719234D01*
X128482688Y-91705157D01*
X128415554Y-91688361D01*
X128348924Y-91669897D01*
X128286527Y-91650814D01*
X128232090Y-91632163D01*
X128189340Y-91614994D01*
X128178110Y-91609670D01*
X128158682Y-91600635D01*
X128147459Y-91596800D01*
X128146360Y-91597133D01*
X128139409Y-91595917D01*
X128120374Y-91587889D01*
X128091980Y-91574449D01*
X128056952Y-91556995D01*
X128018015Y-91536927D01*
X127977895Y-91515644D01*
X127939315Y-91494545D01*
X127905002Y-91475030D01*
X127883718Y-91462281D01*
X127730555Y-91358428D01*
X127590405Y-91244261D01*
X127462917Y-91119347D01*
X127347736Y-90983254D01*
X127244510Y-90835550D01*
X127152886Y-90675802D01*
X127072510Y-90503577D01*
X127044603Y-90434146D01*
X127037128Y-90413837D01*
X127033170Y-90401331D01*
X127032993Y-90400280D01*
X127030150Y-90390192D01*
X127023539Y-90371597D01*
X127023180Y-90370646D01*
X127009438Y-90329322D01*
X126994560Y-90276176D01*
X126979721Y-90216162D01*
X126966097Y-90154233D01*
X126954861Y-90095343D01*
X126948879Y-90057380D01*
X126945088Y-90030265D01*
X126940157Y-89995207D01*
X126936383Y-89968480D01*
X126934359Y-89944924D01*
X126932848Y-89908606D01*
X126931834Y-89862569D01*
X126931300Y-89809853D01*
X126931229Y-89753501D01*
X126931603Y-89696554D01*
X126932405Y-89642054D01*
X126933618Y-89593043D01*
X126935225Y-89552562D01*
X126937209Y-89523653D01*
X126938961Y-89511280D01*
X126943257Y-89489450D01*
X126947742Y-89460826D01*
X126948924Y-89452013D01*
X126953961Y-89420717D01*
X126962228Y-89378033D01*
X126972620Y-89328941D01*
X126984028Y-89278422D01*
X126995348Y-89231455D01*
X127005473Y-89193022D01*
X127009481Y-89179397D01*
X127017368Y-89153977D01*
X127022981Y-89135860D01*
X127024702Y-89130280D01*
X127029321Y-89117196D01*
X127039090Y-89091622D01*
X127054509Y-89052265D01*
X127063832Y-89028680D01*
X127075864Y-88997926D01*
X127085340Y-88973001D01*
X127090599Y-88958294D01*
X127091064Y-88956713D01*
X127099697Y-88933311D01*
X127116269Y-88898538D01*
X127139206Y-88855028D01*
X127166934Y-88805416D01*
X127197877Y-88752339D01*
X127230460Y-88698432D01*
X127263108Y-88646330D01*
X127294247Y-88598668D01*
X127322302Y-88558083D01*
X127345698Y-88527209D01*
X127352585Y-88519082D01*
X127372738Y-88496317D01*
X127473854Y-88596036D01*
X127574969Y-88695756D01*
X127509602Y-88792368D01*
X127427133Y-88927388D01*
X127356654Y-89070129D01*
X127299271Y-89217722D01*
X127256092Y-89367302D01*
X127228224Y-89515999D01*
X127227172Y-89523980D01*
X127218975Y-89605823D01*
X127214323Y-89693425D01*
X127213200Y-89782149D01*
X127215590Y-89867359D01*
X127221475Y-89944419D01*
X127228869Y-89998113D01*
X127233364Y-90024593D01*
X127236584Y-90044680D01*
X127241100Y-90070873D01*
X127244260Y-90087013D01*
X127287916Y-90255397D01*
X127346646Y-90416482D01*
X127420032Y-90569606D01*
X127507660Y-90714108D01*
X127609115Y-90849325D01*
X127723983Y-90974596D01*
X127851846Y-91089258D01*
X127893407Y-91122048D01*
X127928516Y-91147566D01*
X127970616Y-91176070D01*
X128016293Y-91205463D01*
X128062131Y-91233651D01*
X128104715Y-91258537D01*
X128140631Y-91278028D01*
X128166464Y-91290027D01*
X128168260Y-91290698D01*
X128187219Y-91299224D01*
X128196855Y-91306824D01*
X128197160Y-91307914D01*
X128203923Y-91314137D01*
X128208269Y-91314680D01*
X128222132Y-91318167D01*
X128244347Y-91326982D01*
X128255463Y-91332114D01*
X128276982Y-91341275D01*
X128309867Y-91353835D01*
X128350028Y-91368382D01*
X128393372Y-91383504D01*
X128435808Y-91397790D01*
X128473245Y-91409829D01*
X128501591Y-91418208D01*
X128513194Y-91421023D01*
X128530327Y-91424306D01*
X128558348Y-91429682D01*
X128591517Y-91436049D01*
X128595093Y-91436735D01*
X128687061Y-91452672D01*
X128770097Y-91463038D01*
X128851002Y-91468524D01*
X128921060Y-91469867D01*
X128958125Y-91469236D01*
X129002275Y-91467495D01*
X129049029Y-91464934D01*
X129093908Y-91461840D01*
X129132434Y-91458501D01*
X129160127Y-91455204D01*
X129166593Y-91454081D01*
X129186022Y-91450690D01*
X129212226Y-91446739D01*
X129217393Y-91446021D01*
X129249960Y-91440259D01*
X129293567Y-91430724D01*
X129343089Y-91418679D01*
X129393398Y-91405385D01*
X129439366Y-91392104D01*
X129450226Y-91388729D01*
X129562520Y-91347704D01*
X129678463Y-91295255D01*
X129792486Y-91234161D01*
X129899019Y-91167203D01*
X129911435Y-91158626D01*
X129940816Y-91138471D01*
X129964924Y-91122616D01*
X129980481Y-91113179D01*
X129984352Y-91111480D01*
X129991827Y-91117192D01*
X130009065Y-91132998D01*
X130033974Y-91156898D01*
X130064462Y-91186896D01*
X130088238Y-91210690D01*
X130186715Y-91309899D01*
X132261159Y-91309899D01*
X132261159Y-89784108D01*
X130926701Y-89784108D01*
X130925813Y-89845772D01*
X130924023Y-89900694D01*
X130921340Y-89944274D01*
X130920664Y-89951546D01*
X130897231Y-90113633D01*
X130860075Y-90275723D01*
X130810306Y-90434294D01*
X130749035Y-90585825D01*
X130677369Y-90726794D01*
X130675266Y-90730480D01*
X130656624Y-90762187D01*
X130634384Y-90798678D01*
X130610470Y-90836954D01*
X130586807Y-90874014D01*
X130565321Y-90906858D01*
X130547935Y-90932485D01*
X130536574Y-90947896D01*
X130534047Y-90950613D01*
X130526276Y-90959741D01*
X130513390Y-90977124D01*
X130509692Y-90982363D01*
X130496144Y-90999826D01*
X130486159Y-91009311D01*
X130484567Y-91009880D01*
X130476915Y-91004177D01*
X130459485Y-90988392D01*
X130434375Y-90964514D01*
X130403686Y-90934528D01*
X130379186Y-90910145D01*
X130279711Y-90810410D01*
X130317996Y-90757795D01*
X130408444Y-90619241D01*
X130485372Y-90471184D01*
X130548233Y-90315004D01*
X130596480Y-90152080D01*
X130629567Y-89983791D01*
X130632363Y-89964246D01*
X130636053Y-89925284D01*
X130638423Y-89874364D01*
X130639538Y-89815117D01*
X130639463Y-89751170D01*
X130638264Y-89686153D01*
X130636007Y-89623695D01*
X130632757Y-89567423D01*
X130628581Y-89520967D01*
X130623780Y-89489069D01*
X130619700Y-89467884D01*
X130615239Y-89442503D01*
X130610536Y-89416488D01*
X130606079Y-89394863D01*
X130600983Y-89372592D01*
X130598347Y-89360964D01*
X130585996Y-89312273D01*
X130569518Y-89255748D01*
X130550977Y-89197902D01*
X130532437Y-89145248D01*
X130519885Y-89113347D01*
X130496742Y-89060284D01*
X130473037Y-89010304D01*
X130446864Y-88959852D01*
X130416319Y-88905370D01*
X130379495Y-88843302D01*
X130345346Y-88787590D01*
X130329845Y-88765223D01*
X130305843Y-88733710D01*
X130276170Y-88696490D01*
X130243655Y-88657002D01*
X130211129Y-88618684D01*
X130181422Y-88584973D01*
X130157953Y-88559907D01*
X130046683Y-88457081D01*
X125513226Y-88457081D01*
X125513226Y-91755356D01*
X125371410Y-91753035D01*
X125229593Y-91750713D01*
X125229109Y-90103669D01*
X125228625Y-88456624D01*
X125370926Y-88456853D01*
X125513226Y-88457081D01*
X130046683Y-88457081D01*
X130029660Y-88441350D01*
X129893178Y-88337607D01*
X129748410Y-88248619D01*
X129595260Y-88174326D01*
X129446819Y-88118884D01*
X129412626Y-88108107D01*
X129382135Y-88099024D01*
X129360895Y-88093274D01*
X129357919Y-88092600D01*
X129338184Y-88088278D01*
X129327459Y-88085692D01*
X129294713Y-88078019D01*
X129250103Y-88069266D01*
X129198578Y-88060341D01*
X129145092Y-88052149D01*
X129141193Y-88051597D01*
X129105146Y-88047982D01*
X129057158Y-88045253D01*
X129001027Y-88043423D01*
X128940549Y-88042502D01*
X128879524Y-88042502D01*
X128821747Y-88043435D01*
X128771017Y-88045313D01*
X128731130Y-88048146D01*
X128714076Y-88050295D01*
X128643351Y-88062204D01*
X128586763Y-88072455D01*
X128545113Y-88080893D01*
X128519203Y-88087362D01*
X128514413Y-88088973D01*
X128499055Y-88093739D01*
X128493493Y-88093600D01*
X128486041Y-88094940D01*
X128465742Y-88101038D01*
X128435679Y-88110915D01*
X128398937Y-88123593D01*
X128398243Y-88123838D01*
X128360356Y-88137153D01*
X128328112Y-88148418D01*
X128304983Y-88156425D01*
X128294526Y-88159940D01*
X128259547Y-88173011D01*
X128213961Y-88193864D01*
X128161089Y-88220651D01*
X128104249Y-88251523D01*
X128046764Y-88284630D01*
X127991953Y-88318126D01*
X127943137Y-88350160D01*
X127909707Y-88374195D01*
X127872020Y-88402888D01*
X127770007Y-88300512D01*
X127733005Y-88263223D01*
X127706645Y-88235977D01*
X127689538Y-88216900D01*
X127680299Y-88204117D01*
X127677539Y-88195751D01*
X127679872Y-88189929D01*
X127684926Y-88185501D01*
X127704976Y-88169713D01*
X127719698Y-88157382D01*
X127748874Y-88134745D01*
X127789953Y-88106584D01*
X127839662Y-88074884D01*
X127894728Y-88041633D01*
X127900915Y-88038080D01*
X126690093Y-88038080D01*
X125374432Y-88038080D01*
X125193448Y-88038055D01*
X125028730Y-88037977D01*
X124879609Y-88037841D01*
X124745419Y-88037642D01*
X124625492Y-88037373D01*
X124519159Y-88037030D01*
X124425754Y-88036607D01*
X124344608Y-88036099D01*
X124275054Y-88035500D01*
X124216424Y-88034806D01*
X124168051Y-88034010D01*
X124129267Y-88033108D01*
X124099404Y-88032094D01*
X124077794Y-88030963D01*
X124063770Y-88029709D01*
X124056665Y-88028327D01*
X124055459Y-88027497D01*
X124054360Y-88015711D01*
X124053513Y-87990190D01*
X124052976Y-87954130D01*
X124052808Y-87910728D01*
X124052888Y-87885680D01*
X124053630Y-87754447D01*
X125371861Y-87752303D01*
X126657490Y-87750213D01*
X123328826Y-87750213D01*
X123328826Y-91754947D01*
X123040959Y-91754947D01*
X123040959Y-90282038D01*
X120557005Y-90282038D01*
X120556983Y-90449051D01*
X120556934Y-90609384D01*
X120556859Y-90762297D01*
X120556757Y-90907048D01*
X120556631Y-91042894D01*
X120556481Y-91169094D01*
X120556308Y-91284907D01*
X120556113Y-91389591D01*
X120555898Y-91482402D01*
X120555662Y-91562601D01*
X120555407Y-91629445D01*
X120555135Y-91682193D01*
X120554845Y-91720102D01*
X120554540Y-91742431D01*
X120554276Y-91748597D01*
X120545057Y-91750719D01*
X120521795Y-91752540D01*
X120487382Y-91753932D01*
X120444706Y-91754765D01*
X120411560Y-91754947D01*
X120272359Y-91754947D01*
X120272359Y-87749804D01*
X120414176Y-87752125D01*
X120555993Y-87754447D01*
X120556893Y-89748346D01*
X120556960Y-89930944D01*
X120556997Y-90109089D01*
X120557005Y-90282038D01*
X123040959Y-90282038D01*
X123040959Y-89612880D01*
X122622366Y-89612880D01*
X122621114Y-89754696D01*
X122620637Y-89801593D01*
X122620106Y-89841989D01*
X122619567Y-89873104D01*
X122619067Y-89892161D01*
X122618744Y-89896868D01*
X122610308Y-89896918D01*
X122586093Y-89896966D01*
X122547251Y-89897010D01*
X122494936Y-89897051D01*
X122430302Y-89897087D01*
X122354503Y-89897119D01*
X122268691Y-89897146D01*
X122174020Y-89897168D01*
X122071644Y-89897184D01*
X121962717Y-89897194D01*
X121848391Y-89897196D01*
X121797074Y-89897195D01*
X120976522Y-89897167D01*
X120975486Y-89755023D01*
X120974450Y-89612880D01*
X122622366Y-89612880D01*
X123040959Y-89612880D01*
X123040959Y-87750213D01*
X123328826Y-87750213D01*
X126657490Y-87750213D01*
X126690093Y-87750160D01*
X126690093Y-88038080D01*
X127900915Y-88038080D01*
X127951876Y-88008819D01*
X128007836Y-87978427D01*
X128048993Y-87957466D01*
X128100456Y-87933434D01*
X128158223Y-87908518D01*
X128218861Y-87884008D01*
X128278935Y-87861197D01*
X128335013Y-87841375D01*
X128383662Y-87825833D01*
X128421447Y-87815863D01*
X128429993Y-87814179D01*
X128457309Y-87808395D01*
X128482910Y-87801741D01*
X128501299Y-87797271D01*
X128510257Y-87796830D01*
X128510426Y-87797161D01*
X128517121Y-87797217D01*
X128529604Y-87793303D01*
X128550042Y-87787579D01*
X128577769Y-87782150D01*
X128586754Y-87780798D01*
X128614236Y-87776799D01*
X128637103Y-87773094D01*
X128642226Y-87772151D01*
X128687696Y-87765569D01*
X128746286Y-87760616D01*
X128814257Y-87757297D01*
X128887874Y-87755622D01*
X128963400Y-87755596D01*
X129037098Y-87757229D01*
X129105231Y-87760526D01*
X129164062Y-87765497D01*
X129203800Y-87771014D01*
X129221693Y-87773997D01*
X129249178Y-87778381D01*
X129279105Y-87783045D01*
X129304320Y-87786871D01*
X129314759Y-87788374D01*
X129336007Y-87792569D01*
X129369456Y-87800671D01*
X129411128Y-87811585D01*
X129457049Y-87824218D01*
X129503239Y-87837474D01*
X129545723Y-87850259D01*
X129580525Y-87861479D01*
X129581241Y-87861722D01*
X129616390Y-87873831D01*
X129645474Y-87884323D01*
X129672130Y-87894741D01*
X129699994Y-87906627D01*
X129732704Y-87921523D01*
X129773896Y-87940971D01*
X129818526Y-87962344D01*
X129856519Y-87981861D01*
X129902109Y-88007277D01*
X129952194Y-88036656D01*
X130003671Y-88068061D01*
X130053440Y-88099558D01*
X130098398Y-88129211D01*
X130135444Y-88155084D01*
X130161476Y-88175241D01*
X130165747Y-88179020D01*
X130181946Y-88193219D01*
X130205117Y-88212693D01*
X130220781Y-88225536D01*
X130277765Y-88275232D01*
X130339898Y-88335479D01*
X130403496Y-88402380D01*
X130464876Y-88472037D01*
X130520353Y-88540555D01*
X130527735Y-88550225D01*
X130555005Y-88587412D01*
X130582874Y-88627417D01*
X130609576Y-88667469D01*
X130633346Y-88704800D01*
X130652421Y-88736640D01*
X130665034Y-88760219D01*
X130669426Y-88772568D01*
X130675127Y-88783606D01*
X130676939Y-88784558D01*
X130684667Y-88793797D01*
X130697377Y-88816053D01*
X130713856Y-88848584D01*
X130732891Y-88888648D01*
X130753270Y-88933501D01*
X130773782Y-88980401D01*
X130793215Y-89026605D01*
X130810355Y-89069371D01*
X130823991Y-89105956D01*
X130832911Y-89133618D01*
X130835029Y-89142255D01*
X130839601Y-89159918D01*
X130847300Y-89185613D01*
X130851041Y-89197289D01*
X130865622Y-89248089D01*
X130880427Y-89310766D01*
X130894493Y-89380306D01*
X130906855Y-89451693D01*
X130916550Y-89519914D01*
X130921141Y-89562080D01*
X130923910Y-89604689D01*
X130925756Y-89658965D01*
X130926684Y-89720305D01*
X130926701Y-89784108D01*
X132261159Y-89784108D01*
X132261159Y-86420947D01*
X118951560Y-86420947D01*
X118951560Y-93058813D01*
D13*
%TO.C,J1*%
X90897360Y-127314880D02*
X90897360Y-126714880D01*
X92497360Y-127314880D02*
X90897360Y-127314880D01*
X92497360Y-126714880D02*
X92497360Y-127314880D01*
X93437360Y-127314880D02*
X93437360Y-126714880D01*
X95037360Y-127314880D02*
X93437360Y-127314880D01*
X95037360Y-126714880D02*
X95037360Y-127314880D01*
X91947360Y-132734880D02*
X91947360Y-131734880D01*
X93987360Y-132734880D02*
X93987360Y-131734880D01*
X91947360Y-131204880D02*
X91697360Y-131734880D01*
X93987360Y-131204880D02*
X91947360Y-131204880D01*
X94237360Y-131734880D02*
X93987360Y-131204880D01*
X91697360Y-131734880D02*
X91697360Y-132734880D01*
X94237360Y-131734880D02*
X91697360Y-131734880D01*
X94237360Y-132734880D02*
X94237360Y-131734880D01*
X95907360Y-127744880D02*
X95907360Y-131744880D01*
X90317360Y-126714880D02*
X95617360Y-126714880D01*
X90317360Y-132734880D02*
X90317360Y-126714880D01*
X95617360Y-132734880D02*
X90317360Y-132734880D01*
X95617360Y-126714880D02*
X95617360Y-132734880D01*
%TO.C,J3*%
X66666360Y-101972880D02*
X68786360Y-101972880D01*
X66666360Y-69852880D02*
X68786360Y-69852880D01*
X68786360Y-101972880D02*
X68786360Y-99597880D01*
X66666360Y-101597880D02*
X65436360Y-101597880D01*
X66666360Y-101972880D02*
X66666360Y-101597880D01*
X68786360Y-70227880D02*
X68786360Y-69852880D01*
X68786360Y-98227880D02*
X68786360Y-95597880D01*
X68786360Y-94227880D02*
X68786360Y-91597880D01*
X68786360Y-90227880D02*
X68786360Y-87597880D01*
X68786360Y-86227880D02*
X68786360Y-83597880D01*
X68786360Y-82227880D02*
X68786360Y-79597880D01*
X68786360Y-78227880D02*
X68786360Y-75597880D01*
X68786360Y-74227880D02*
X68786360Y-71597880D01*
X66666360Y-100227880D02*
X66666360Y-97597880D01*
X66666360Y-96227880D02*
X66666360Y-93597880D01*
X66666360Y-92227880D02*
X66666360Y-89597880D01*
X66666360Y-88227880D02*
X66666360Y-85597880D01*
X66666360Y-84227880D02*
X66666360Y-81597880D01*
X66666360Y-80227880D02*
X66666360Y-77597880D01*
X66666360Y-76227880D02*
X66666360Y-73597880D01*
X66666360Y-72227880D02*
X66666360Y-69852880D01*
%TO.C,J1*%
D14*
X93300693Y-125077260D02*
X93300693Y-125791546D01*
X93348312Y-125934403D01*
X93443550Y-126029641D01*
X93586407Y-126077260D01*
X93681645Y-126077260D01*
X92300693Y-126077260D02*
X92872121Y-126077260D01*
X92586407Y-126077260D02*
X92586407Y-125077260D01*
X92681645Y-125220118D01*
X92776883Y-125315356D01*
X92872121Y-125362975D01*
%TO.C,J3*%
X68059693Y-102425260D02*
X68059693Y-103139546D01*
X68107312Y-103282403D01*
X68202550Y-103377641D01*
X68345407Y-103425260D01*
X68440645Y-103425260D01*
X67678740Y-102425260D02*
X67059693Y-102425260D01*
X67393026Y-102806213D01*
X67250169Y-102806213D01*
X67154931Y-102853832D01*
X67107312Y-102901451D01*
X67059693Y-102996689D01*
X67059693Y-103234784D01*
X67107312Y-103330022D01*
X67154931Y-103377641D01*
X67250169Y-103425260D01*
X67535883Y-103425260D01*
X67631121Y-103377641D01*
X67678740Y-103330022D01*
%TD*%
M02*
