%TF.GenerationSoftware,KiCad,Pcbnew,(5.1.7)-1*%
%TF.CreationDate,2021-01-04T12:01:46+01:00*%
%TF.ProjectId,EZ-PY32,455a2d50-5933-4322-9e6b-696361645f70,rev?*%
%TF.SameCoordinates,Original*%
%TF.FileFunction,Legend,Top*%
%TF.FilePolarity,Positive*%
%FSLAX46Y46*%
G04 Gerber Fmt 4.6, Leading zero omitted, Abs format (unit mm)*
G04 Created by KiCad (PCBNEW (5.1.7)-1) date 2021-01-04 12:01:46*
%MOMM*%
%LPD*%
G01*
G04 APERTURE LIST*
%ADD10C,0.150000*%
%ADD11C,0.120000*%
%ADD12C,0.203200*%
%ADD13C,0.015000*%
%ADD14C,0.254000*%
G04 APERTURE END LIST*
D10*
X50704690Y-89683880D02*
X50704690Y-88683880D01*
X50942785Y-88683880D01*
X51085642Y-88731500D01*
X51180880Y-88826738D01*
X51228500Y-88921976D01*
X51276119Y-89112452D01*
X51276119Y-89255309D01*
X51228500Y-89445785D01*
X51180880Y-89541023D01*
X51085642Y-89636261D01*
X50942785Y-89683880D01*
X50704690Y-89683880D01*
X51561833Y-88683880D02*
X52133261Y-88683880D01*
X51847547Y-89683880D02*
X51847547Y-88683880D01*
X53038023Y-89683880D02*
X52704690Y-89207690D01*
X52466595Y-89683880D02*
X52466595Y-88683880D01*
X52847547Y-88683880D01*
X52942785Y-88731500D01*
X52990404Y-88779119D01*
X53038023Y-88874357D01*
X53038023Y-89017214D01*
X52990404Y-89112452D01*
X52942785Y-89160071D01*
X52847547Y-89207690D01*
X52466595Y-89207690D01*
X50966595Y-75731500D02*
X50871357Y-75683880D01*
X50728500Y-75683880D01*
X50585642Y-75731500D01*
X50490404Y-75826738D01*
X50442785Y-75921976D01*
X50395166Y-76112452D01*
X50395166Y-76255309D01*
X50442785Y-76445785D01*
X50490404Y-76541023D01*
X50585642Y-76636261D01*
X50728500Y-76683880D01*
X50823738Y-76683880D01*
X50966595Y-76636261D01*
X51014214Y-76588642D01*
X51014214Y-76255309D01*
X50823738Y-76255309D01*
X51442785Y-76683880D02*
X51442785Y-75683880D01*
X52014214Y-76683880D01*
X52014214Y-75683880D01*
X52490404Y-76683880D02*
X52490404Y-75683880D01*
X52728500Y-75683880D01*
X52871357Y-75731500D01*
X52966595Y-75826738D01*
X53014214Y-75921976D01*
X53061833Y-76112452D01*
X53061833Y-76255309D01*
X53014214Y-76445785D01*
X52966595Y-76541023D01*
X52871357Y-76636261D01*
X52728500Y-76683880D01*
X52490404Y-76683880D01*
X51180880Y-79183880D02*
X50847547Y-78707690D01*
X50609452Y-79183880D02*
X50609452Y-78183880D01*
X50990404Y-78183880D01*
X51085642Y-78231500D01*
X51133261Y-78279119D01*
X51180880Y-78374357D01*
X51180880Y-78517214D01*
X51133261Y-78612452D01*
X51085642Y-78660071D01*
X50990404Y-78707690D01*
X50609452Y-78707690D01*
X51466595Y-78183880D02*
X52038023Y-78183880D01*
X51752309Y-79183880D02*
X51752309Y-78183880D01*
X52323738Y-79136261D02*
X52466595Y-79183880D01*
X52704690Y-79183880D01*
X52799928Y-79136261D01*
X52847547Y-79088642D01*
X52895166Y-78993404D01*
X52895166Y-78898166D01*
X52847547Y-78802928D01*
X52799928Y-78755309D01*
X52704690Y-78707690D01*
X52514214Y-78660071D01*
X52418976Y-78612452D01*
X52371357Y-78564833D01*
X52323738Y-78469595D01*
X52323738Y-78374357D01*
X52371357Y-78279119D01*
X52418976Y-78231500D01*
X52514214Y-78183880D01*
X52752309Y-78183880D01*
X52895166Y-78231500D01*
X50490404Y-80683880D02*
X51109452Y-80683880D01*
X50776119Y-81064833D01*
X50918976Y-81064833D01*
X51014214Y-81112452D01*
X51061833Y-81160071D01*
X51109452Y-81255309D01*
X51109452Y-81493404D01*
X51061833Y-81588642D01*
X51014214Y-81636261D01*
X50918976Y-81683880D01*
X50633261Y-81683880D01*
X50538023Y-81636261D01*
X50490404Y-81588642D01*
X51395166Y-80683880D02*
X51728500Y-81683880D01*
X52061833Y-80683880D01*
X52299928Y-80683880D02*
X52918976Y-80683880D01*
X52585642Y-81064833D01*
X52728500Y-81064833D01*
X52823738Y-81112452D01*
X52871357Y-81160071D01*
X52918976Y-81255309D01*
X52918976Y-81493404D01*
X52871357Y-81588642D01*
X52823738Y-81636261D01*
X52728500Y-81683880D01*
X52442785Y-81683880D01*
X52347547Y-81636261D01*
X52299928Y-81588642D01*
X51133261Y-84183880D02*
X50799928Y-83707690D01*
X50561833Y-84183880D02*
X50561833Y-83183880D01*
X50942785Y-83183880D01*
X51038023Y-83231500D01*
X51085642Y-83279119D01*
X51133261Y-83374357D01*
X51133261Y-83517214D01*
X51085642Y-83612452D01*
X51038023Y-83660071D01*
X50942785Y-83707690D01*
X50561833Y-83707690D01*
X51466595Y-84183880D02*
X51990404Y-83517214D01*
X51466595Y-83517214D02*
X51990404Y-84183880D01*
X50538023Y-85683880D02*
X51109452Y-85683880D01*
X50823738Y-86683880D02*
X50823738Y-85683880D01*
X51347547Y-86683880D02*
X51871357Y-86017214D01*
X51347547Y-86017214D02*
X51871357Y-86683880D01*
X51379428Y-96239295D02*
X51331809Y-96382152D01*
X51284190Y-96429771D01*
X51188952Y-96477390D01*
X51046095Y-96477390D01*
X50950857Y-96429771D01*
X50903238Y-96382152D01*
X50855619Y-96286914D01*
X50855619Y-95905961D01*
X51855619Y-95905961D01*
X51855619Y-96239295D01*
X51808000Y-96334533D01*
X51760380Y-96382152D01*
X51665142Y-96429771D01*
X51569904Y-96429771D01*
X51474666Y-96382152D01*
X51427047Y-96334533D01*
X51379428Y-96239295D01*
X51379428Y-95905961D01*
X50855619Y-97048819D02*
X50903238Y-96953580D01*
X50950857Y-96905961D01*
X51046095Y-96858342D01*
X51331809Y-96858342D01*
X51427047Y-96905961D01*
X51474666Y-96953580D01*
X51522285Y-97048819D01*
X51522285Y-97191676D01*
X51474666Y-97286914D01*
X51427047Y-97334533D01*
X51331809Y-97382152D01*
X51046095Y-97382152D01*
X50950857Y-97334533D01*
X50903238Y-97286914D01*
X50855619Y-97191676D01*
X50855619Y-97048819D01*
X50855619Y-97953580D02*
X50903238Y-97858342D01*
X50950857Y-97810723D01*
X51046095Y-97763104D01*
X51331809Y-97763104D01*
X51427047Y-97810723D01*
X51474666Y-97858342D01*
X51522285Y-97953580D01*
X51522285Y-98096438D01*
X51474666Y-98191676D01*
X51427047Y-98239295D01*
X51331809Y-98286914D01*
X51046095Y-98286914D01*
X50950857Y-98239295D01*
X50903238Y-98191676D01*
X50855619Y-98096438D01*
X50855619Y-97953580D01*
X51522285Y-98572628D02*
X51522285Y-98953580D01*
X51855619Y-98715485D02*
X50998476Y-98715485D01*
X50903238Y-98763104D01*
X50855619Y-98858342D01*
X50855619Y-98953580D01*
X50855619Y-99286914D02*
X51522285Y-99286914D01*
X51855619Y-99286914D02*
X51808000Y-99239295D01*
X51760380Y-99286914D01*
X51808000Y-99334533D01*
X51855619Y-99286914D01*
X51760380Y-99286914D01*
X51522285Y-99763104D02*
X50855619Y-99763104D01*
X51427047Y-99763104D02*
X51474666Y-99810723D01*
X51522285Y-99905961D01*
X51522285Y-100048819D01*
X51474666Y-100144057D01*
X51379428Y-100191676D01*
X50855619Y-100191676D01*
X51522285Y-101096438D02*
X50712761Y-101096438D01*
X50617523Y-101048819D01*
X50569904Y-101001200D01*
X50522285Y-100905961D01*
X50522285Y-100763104D01*
X50569904Y-100667866D01*
X50903238Y-101096438D02*
X50855619Y-101001200D01*
X50855619Y-100810723D01*
X50903238Y-100715485D01*
X50950857Y-100667866D01*
X51046095Y-100620247D01*
X51331809Y-100620247D01*
X51427047Y-100667866D01*
X51474666Y-100715485D01*
X51522285Y-100810723D01*
X51522285Y-101001200D01*
X51474666Y-101096438D01*
X50804819Y-93025980D02*
X51281009Y-92692647D01*
X50804819Y-92454552D02*
X51804819Y-92454552D01*
X51804819Y-92835504D01*
X51757200Y-92930742D01*
X51709580Y-92978361D01*
X51614342Y-93025980D01*
X51471485Y-93025980D01*
X51376247Y-92978361D01*
X51328628Y-92930742D01*
X51281009Y-92835504D01*
X51281009Y-92454552D01*
X50852438Y-93406933D02*
X50804819Y-93549790D01*
X50804819Y-93787885D01*
X50852438Y-93883123D01*
X50900057Y-93930742D01*
X50995295Y-93978361D01*
X51090533Y-93978361D01*
X51185771Y-93930742D01*
X51233390Y-93883123D01*
X51281009Y-93787885D01*
X51328628Y-93597409D01*
X51376247Y-93502171D01*
X51423866Y-93454552D01*
X51519104Y-93406933D01*
X51614342Y-93406933D01*
X51709580Y-93454552D01*
X51757200Y-93502171D01*
X51804819Y-93597409D01*
X51804819Y-93835504D01*
X51757200Y-93978361D01*
X51804819Y-94264076D02*
X51804819Y-94835504D01*
X50804819Y-94549790D02*
X51804819Y-94549790D01*
D11*
%TO.C,U4*%
X145354860Y-116028880D02*
X59756860Y-116028880D01*
X145354860Y-60402880D02*
X145354860Y-116028880D01*
X59756860Y-60402880D02*
X145354860Y-60402880D01*
X59756860Y-116028880D02*
X59756860Y-60402880D01*
%TO.C,C9*%
X87487093Y-114570380D02*
X87779627Y-114570380D01*
X87487093Y-113550380D02*
X87779627Y-113550380D01*
D12*
%TO.C,S1*%
X132420500Y-123014000D02*
X132420500Y-118820200D01*
X133226700Y-118014000D02*
X134720500Y-118014000D01*
X144014300Y-118014000D02*
X142520500Y-118014000D01*
X144820500Y-123014000D02*
X144820500Y-118820200D01*
X144820500Y-126414000D02*
X144820500Y-130607800D01*
X144014300Y-131414000D02*
X142020500Y-131414000D01*
X133226700Y-131414000D02*
X135220500Y-131414000D01*
X132420500Y-126414000D02*
X132420500Y-130607800D01*
X141620500Y-124714000D02*
G75*
G03*
X141620500Y-124714000I-3000000J0D01*
G01*
X132420500Y-118820200D02*
G75*
G02*
X133226700Y-118014000I806200J0D01*
G01*
X144820500Y-118820200D02*
G75*
G03*
X144014300Y-118014000I-806200J0D01*
G01*
X144820500Y-130607800D02*
G75*
G02*
X144014300Y-131414000I-806200J0D01*
G01*
X132420500Y-130607800D02*
G75*
G03*
X133226700Y-131414000I806200J0D01*
G01*
D11*
%TO.C,C4*%
X111551627Y-120341880D02*
X111259093Y-120341880D01*
X111551627Y-119321880D02*
X111259093Y-119321880D01*
%TO.C,U1*%
X95959500Y-129902500D02*
X95959500Y-130902500D01*
X95959500Y-130902500D02*
X96959500Y-130902500D01*
D10*
X107269500Y-120000500D02*
X109149500Y-120000500D01*
X109149500Y-120000500D02*
X109149500Y-130650500D01*
X109149500Y-130650500D02*
X107269500Y-130650500D01*
X105709500Y-130650500D02*
X102189500Y-130650500D01*
X100629500Y-130650500D02*
X99649500Y-130650500D01*
X98089500Y-130650500D02*
X96209500Y-130650500D01*
X96209500Y-120000500D02*
X98089500Y-120000500D01*
X99649500Y-120000500D02*
X105709500Y-120000500D01*
X96209500Y-130650500D02*
X96209500Y-120000500D01*
D11*
%TO.C,R10*%
X76719976Y-94323000D02*
X77229424Y-94323000D01*
X76719976Y-95368000D02*
X77229424Y-95368000D01*
%TO.C,R6*%
X137111000Y-114148776D02*
X137111000Y-114658224D01*
X136066000Y-114148776D02*
X136066000Y-114658224D01*
%TO.C,R5*%
X135079000Y-114045276D02*
X135079000Y-114554724D01*
X134034000Y-114045276D02*
X134034000Y-114554724D01*
%TO.C,U3*%
X80176500Y-99802500D02*
X80176500Y-99022500D01*
X80176500Y-99022500D02*
X79176500Y-99022500D01*
X61936500Y-99802500D02*
X61936500Y-99022500D01*
X61936500Y-99022500D02*
X62936500Y-99022500D01*
X80176500Y-124767500D02*
X61936500Y-124767500D01*
X61936500Y-124767500D02*
X61936500Y-118347500D01*
X80176500Y-124767500D02*
X80176500Y-118347500D01*
X80176500Y-118347500D02*
X80556500Y-118347500D01*
%TO.C,SW1*%
X56133000Y-92943500D02*
X56133000Y-92643500D01*
X56133000Y-92643500D02*
X52833000Y-92643500D01*
X52833000Y-92643500D02*
X52833000Y-92943500D01*
X56133000Y-95143500D02*
X56133000Y-95443500D01*
X56133000Y-95443500D02*
X52833000Y-95443500D01*
X52833000Y-95443500D02*
X52833000Y-95143500D01*
%TO.C,R14*%
X62980024Y-93717000D02*
X62470576Y-93717000D01*
X62980024Y-92672000D02*
X62470576Y-92672000D01*
%TO.C,C3*%
X138728233Y-107035500D02*
X139020767Y-107035500D01*
X138728233Y-108055500D02*
X139020767Y-108055500D01*
%TO.C,C8*%
X62871567Y-95355500D02*
X62579033Y-95355500D01*
X62871567Y-94335500D02*
X62579033Y-94335500D01*
%TO.C,R11*%
X77229424Y-93717000D02*
X76719976Y-93717000D01*
X77229424Y-92672000D02*
X76719976Y-92672000D01*
%TO.C,R15*%
X62929224Y-98111200D02*
X62419776Y-98111200D01*
X62929224Y-97066200D02*
X62419776Y-97066200D01*
%TO.C,C1*%
X123323567Y-126445100D02*
X123031033Y-126445100D01*
X123323567Y-125425100D02*
X123031033Y-125425100D01*
%TO.C,C2*%
X128098767Y-123803500D02*
X127806233Y-123803500D01*
X128098767Y-122783500D02*
X127806233Y-122783500D01*
%TO.C,C5*%
X111376627Y-123116880D02*
X111084093Y-123116880D01*
X111376627Y-122096880D02*
X111084093Y-122096880D01*
%TO.C,C6*%
X114909093Y-122021880D02*
X115201627Y-122021880D01*
X114909093Y-123041880D02*
X115201627Y-123041880D01*
%TO.C,C7*%
X77826627Y-96991880D02*
X77534093Y-96991880D01*
X77826627Y-95971880D02*
X77534093Y-95971880D01*
%TO.C,C10*%
X83665360Y-116360613D02*
X83665360Y-116653147D01*
X82645360Y-116360613D02*
X82645360Y-116653147D01*
%TO.C,C11*%
X82065360Y-116360613D02*
X82065360Y-116653147D01*
X81045360Y-116360613D02*
X81045360Y-116653147D01*
%TO.C,R1*%
X124598976Y-127393800D02*
X125108424Y-127393800D01*
X124598976Y-128438800D02*
X125108424Y-128438800D01*
%TO.C,R2*%
X129526576Y-119672200D02*
X130036024Y-119672200D01*
X129526576Y-120717200D02*
X130036024Y-120717200D01*
%TO.C,R3*%
X122820976Y-129679800D02*
X123330424Y-129679800D01*
X122820976Y-130724800D02*
X123330424Y-130724800D01*
%TO.C,R4*%
X128207224Y-118482000D02*
X127697776Y-118482000D01*
X128207224Y-117437000D02*
X127697776Y-117437000D01*
%TO.C,R8*%
X139143000Y-114148776D02*
X139143000Y-114658224D01*
X138098000Y-114148776D02*
X138098000Y-114658224D01*
%TO.C,R9*%
X138619776Y-109817000D02*
X139129224Y-109817000D01*
X138619776Y-110862000D02*
X139129224Y-110862000D01*
%TO.C,R7*%
X141175000Y-114148776D02*
X141175000Y-114658224D01*
X140130000Y-114148776D02*
X140130000Y-114658224D01*
%TO.C,U2*%
X110114500Y-130192500D02*
X111374500Y-130192500D01*
X116934500Y-130192500D02*
X115674500Y-130192500D01*
X110114500Y-126432500D02*
X110114500Y-130192500D01*
X116934500Y-124182500D02*
X116934500Y-130192500D01*
%TO.C,Q4*%
X76283700Y-91414500D02*
X77213700Y-91414500D01*
X79443700Y-91414500D02*
X78513700Y-91414500D01*
X79443700Y-91414500D02*
X79443700Y-89254500D01*
X76283700Y-91414500D02*
X76283700Y-89954500D01*
%TO.C,Q5*%
X73680700Y-91257500D02*
X73020700Y-91257500D01*
X75340700Y-91257500D02*
X74680700Y-91257500D01*
X75340700Y-91257500D02*
X75340700Y-89227500D01*
X73020700Y-89847500D02*
X73020700Y-91257500D01*
%TO.C,R12*%
X71731400Y-91999976D02*
X71731400Y-92509424D01*
X70686400Y-91999976D02*
X70686400Y-92509424D01*
%TO.C,R13*%
X76188024Y-87058600D02*
X75678576Y-87058600D01*
X76188024Y-88103600D02*
X75678576Y-88103600D01*
%TO.C,J2*%
X60790000Y-91563500D02*
X60790000Y-76203500D01*
X60790000Y-76203500D02*
X58130000Y-76203500D01*
X58130000Y-76203500D02*
X58130000Y-91563500D01*
X58130000Y-91563500D02*
X60790000Y-91563500D01*
X58130000Y-90613500D02*
X52130000Y-90613500D01*
X52130000Y-90613500D02*
X52130000Y-89853500D01*
X52130000Y-89853500D02*
X58130000Y-89853500D01*
X58130000Y-90553500D02*
X52130000Y-90553500D01*
X58130000Y-90433500D02*
X52130000Y-90433500D01*
X58130000Y-90313500D02*
X52130000Y-90313500D01*
X58130000Y-90193500D02*
X52130000Y-90193500D01*
X58130000Y-90073500D02*
X52130000Y-90073500D01*
X58130000Y-89953500D02*
X52130000Y-89953500D01*
X61120000Y-90613500D02*
X60790000Y-90613500D01*
X61120000Y-89853500D02*
X60790000Y-89853500D01*
X60790000Y-88963500D02*
X58130000Y-88963500D01*
X58130000Y-88073500D02*
X52130000Y-88073500D01*
X52130000Y-88073500D02*
X52130000Y-87313500D01*
X52130000Y-87313500D02*
X58130000Y-87313500D01*
X61187071Y-88073500D02*
X60790000Y-88073500D01*
X61187071Y-87313500D02*
X60790000Y-87313500D01*
X60790000Y-86423500D02*
X58130000Y-86423500D01*
X58130000Y-85533500D02*
X52130000Y-85533500D01*
X52130000Y-85533500D02*
X52130000Y-84773500D01*
X52130000Y-84773500D02*
X58130000Y-84773500D01*
X61187071Y-85533500D02*
X60790000Y-85533500D01*
X61187071Y-84773500D02*
X60790000Y-84773500D01*
X60790000Y-83883500D02*
X58130000Y-83883500D01*
X58130000Y-82993500D02*
X52130000Y-82993500D01*
X52130000Y-82993500D02*
X52130000Y-82233500D01*
X52130000Y-82233500D02*
X58130000Y-82233500D01*
X61187071Y-82993500D02*
X60790000Y-82993500D01*
X61187071Y-82233500D02*
X60790000Y-82233500D01*
X60790000Y-81343500D02*
X58130000Y-81343500D01*
X58130000Y-80453500D02*
X52130000Y-80453500D01*
X52130000Y-80453500D02*
X52130000Y-79693500D01*
X52130000Y-79693500D02*
X58130000Y-79693500D01*
X61187071Y-80453500D02*
X60790000Y-80453500D01*
X61187071Y-79693500D02*
X60790000Y-79693500D01*
X60790000Y-78803500D02*
X58130000Y-78803500D01*
X58130000Y-77913500D02*
X52130000Y-77913500D01*
X52130000Y-77913500D02*
X52130000Y-77153500D01*
X52130000Y-77153500D02*
X58130000Y-77153500D01*
X61187071Y-77913500D02*
X60790000Y-77913500D01*
X61187071Y-77153500D02*
X60790000Y-77153500D01*
X63500000Y-90233500D02*
X63500000Y-91503500D01*
X63500000Y-91503500D02*
X62230000Y-91503500D01*
%TO.C,Q1*%
X140393300Y-105375100D02*
X141323300Y-105375100D01*
X143553300Y-105375100D02*
X142623300Y-105375100D01*
X143553300Y-105375100D02*
X143553300Y-103215100D01*
X140393300Y-105375100D02*
X140393300Y-103915100D01*
%TO.C,Q2*%
X135008500Y-105511500D02*
X135008500Y-104051500D01*
X138168500Y-105511500D02*
X138168500Y-103351500D01*
X138168500Y-105511500D02*
X137238500Y-105511500D01*
X135008500Y-105511500D02*
X135938500Y-105511500D01*
%TO.C,Q3*%
X132976500Y-109321500D02*
X133906500Y-109321500D01*
X136136500Y-109321500D02*
X135206500Y-109321500D01*
X136136500Y-109321500D02*
X136136500Y-107161500D01*
X132976500Y-109321500D02*
X132976500Y-107861500D01*
%TO.C,R17*%
X71899860Y-85548156D02*
X71899860Y-86057604D01*
X70854860Y-85548156D02*
X70854860Y-86057604D01*
%TO.C,SW2*%
X52833000Y-98936000D02*
X52833000Y-98636000D01*
X56133000Y-98936000D02*
X52833000Y-98936000D01*
X56133000Y-98636000D02*
X56133000Y-98936000D01*
X52833000Y-96136000D02*
X52833000Y-96436000D01*
X56133000Y-96136000D02*
X52833000Y-96136000D01*
X56133000Y-96436000D02*
X56133000Y-96136000D01*
%TO.C,R16*%
X84316860Y-115267604D02*
X84316860Y-114758156D01*
X85361860Y-115267604D02*
X85361860Y-114758156D01*
%TO.C,U4*%
D10*
X75465240Y-105106784D02*
X76274764Y-105106784D01*
X76370002Y-105059165D01*
X76417621Y-105011546D01*
X76465240Y-104916308D01*
X76465240Y-104725832D01*
X76417621Y-104630594D01*
X76370002Y-104582975D01*
X76274764Y-104535356D01*
X75465240Y-104535356D01*
X75798574Y-103630594D02*
X76465240Y-103630594D01*
X75417621Y-103868689D02*
X76131907Y-104106784D01*
X76131907Y-103487737D01*
%TO.C,C9*%
X90265693Y-114503522D02*
X90218074Y-114551141D01*
X90075217Y-114598760D01*
X89979979Y-114598760D01*
X89837121Y-114551141D01*
X89741883Y-114455903D01*
X89694264Y-114360665D01*
X89646645Y-114170189D01*
X89646645Y-114027332D01*
X89694264Y-113836856D01*
X89741883Y-113741618D01*
X89837121Y-113646380D01*
X89979979Y-113598760D01*
X90075217Y-113598760D01*
X90218074Y-113646380D01*
X90265693Y-113693999D01*
X90741883Y-114598760D02*
X90932360Y-114598760D01*
X91027598Y-114551141D01*
X91075217Y-114503522D01*
X91170455Y-114360665D01*
X91218074Y-114170189D01*
X91218074Y-113789237D01*
X91170455Y-113693999D01*
X91122836Y-113646380D01*
X91027598Y-113598760D01*
X90837121Y-113598760D01*
X90741883Y-113646380D01*
X90694264Y-113693999D01*
X90646645Y-113789237D01*
X90646645Y-114027332D01*
X90694264Y-114122570D01*
X90741883Y-114170189D01*
X90837121Y-114217808D01*
X91027598Y-114217808D01*
X91122836Y-114170189D01*
X91170455Y-114122570D01*
X91218074Y-114027332D01*
%TO.C,S1*%
D13*
X131599985Y-121098285D02*
X131668557Y-121121142D01*
X131782842Y-121121142D01*
X131828557Y-121098285D01*
X131851414Y-121075428D01*
X131874271Y-121029714D01*
X131874271Y-120984000D01*
X131851414Y-120938285D01*
X131828557Y-120915428D01*
X131782842Y-120892571D01*
X131691414Y-120869714D01*
X131645700Y-120846857D01*
X131622842Y-120824000D01*
X131599985Y-120778285D01*
X131599985Y-120732571D01*
X131622842Y-120686857D01*
X131645700Y-120664000D01*
X131691414Y-120641142D01*
X131805700Y-120641142D01*
X131874271Y-120664000D01*
X132331414Y-121121142D02*
X132057128Y-121121142D01*
X132194271Y-121121142D02*
X132194271Y-120641142D01*
X132148557Y-120709714D01*
X132102842Y-120755428D01*
X132057128Y-120778285D01*
%TO.C,C4*%
D10*
X114163693Y-120414022D02*
X114116074Y-120461641D01*
X113973217Y-120509260D01*
X113877979Y-120509260D01*
X113735121Y-120461641D01*
X113639883Y-120366403D01*
X113592264Y-120271165D01*
X113544645Y-120080689D01*
X113544645Y-119937832D01*
X113592264Y-119747356D01*
X113639883Y-119652118D01*
X113735121Y-119556880D01*
X113877979Y-119509260D01*
X113973217Y-119509260D01*
X114116074Y-119556880D01*
X114163693Y-119604499D01*
X115020836Y-119842594D02*
X115020836Y-120509260D01*
X114782740Y-119461641D02*
X114544645Y-120175927D01*
X115163693Y-120175927D01*
%TO.C,U1*%
X94131880Y-130087404D02*
X94941404Y-130087404D01*
X95036642Y-130039785D01*
X95084261Y-129992166D01*
X95131880Y-129896928D01*
X95131880Y-129706452D01*
X95084261Y-129611214D01*
X95036642Y-129563595D01*
X94941404Y-129515976D01*
X94131880Y-129515976D01*
X95131880Y-128515976D02*
X95131880Y-129087404D01*
X95131880Y-128801690D02*
X94131880Y-128801690D01*
X94274738Y-128896928D01*
X94369976Y-128992166D01*
X94417595Y-129087404D01*
%TO.C,R10*%
X79862442Y-95297880D02*
X79529109Y-94821690D01*
X79291014Y-95297880D02*
X79291014Y-94297880D01*
X79671966Y-94297880D01*
X79767204Y-94345500D01*
X79814823Y-94393119D01*
X79862442Y-94488357D01*
X79862442Y-94631214D01*
X79814823Y-94726452D01*
X79767204Y-94774071D01*
X79671966Y-94821690D01*
X79291014Y-94821690D01*
X80814823Y-95297880D02*
X80243395Y-95297880D01*
X80529109Y-95297880D02*
X80529109Y-94297880D01*
X80433871Y-94440738D01*
X80338633Y-94535976D01*
X80243395Y-94583595D01*
X81433871Y-94297880D02*
X81529109Y-94297880D01*
X81624347Y-94345500D01*
X81671966Y-94393119D01*
X81719585Y-94488357D01*
X81767204Y-94678833D01*
X81767204Y-94916928D01*
X81719585Y-95107404D01*
X81671966Y-95202642D01*
X81624347Y-95250261D01*
X81529109Y-95297880D01*
X81433871Y-95297880D01*
X81338633Y-95250261D01*
X81291014Y-95202642D01*
X81243395Y-95107404D01*
X81195776Y-94916928D01*
X81195776Y-94678833D01*
X81243395Y-94488357D01*
X81291014Y-94393119D01*
X81338633Y-94345500D01*
X81433871Y-94297880D01*
%TO.C,R6*%
X136977380Y-111752666D02*
X136501190Y-112086000D01*
X136977380Y-112324095D02*
X135977380Y-112324095D01*
X135977380Y-111943142D01*
X136025000Y-111847904D01*
X136072619Y-111800285D01*
X136167857Y-111752666D01*
X136310714Y-111752666D01*
X136405952Y-111800285D01*
X136453571Y-111847904D01*
X136501190Y-111943142D01*
X136501190Y-112324095D01*
X135977380Y-110895523D02*
X135977380Y-111086000D01*
X136025000Y-111181238D01*
X136072619Y-111228857D01*
X136215476Y-111324095D01*
X136405952Y-111371714D01*
X136786904Y-111371714D01*
X136882142Y-111324095D01*
X136929761Y-111276476D01*
X136977380Y-111181238D01*
X136977380Y-110990761D01*
X136929761Y-110895523D01*
X136882142Y-110847904D01*
X136786904Y-110800285D01*
X136548809Y-110800285D01*
X136453571Y-110847904D01*
X136405952Y-110895523D01*
X136358333Y-110990761D01*
X136358333Y-111181238D01*
X136405952Y-111276476D01*
X136453571Y-111324095D01*
X136548809Y-111371714D01*
%TO.C,R5*%
X135072380Y-111649166D02*
X134596190Y-111982500D01*
X135072380Y-112220595D02*
X134072380Y-112220595D01*
X134072380Y-111839642D01*
X134120000Y-111744404D01*
X134167619Y-111696785D01*
X134262857Y-111649166D01*
X134405714Y-111649166D01*
X134500952Y-111696785D01*
X134548571Y-111744404D01*
X134596190Y-111839642D01*
X134596190Y-112220595D01*
X134072380Y-110744404D02*
X134072380Y-111220595D01*
X134548571Y-111268214D01*
X134500952Y-111220595D01*
X134453333Y-111125357D01*
X134453333Y-110887261D01*
X134500952Y-110792023D01*
X134548571Y-110744404D01*
X134643809Y-110696785D01*
X134881904Y-110696785D01*
X134977142Y-110744404D01*
X135024761Y-110792023D01*
X135072380Y-110887261D01*
X135072380Y-111125357D01*
X135024761Y-111220595D01*
X134977142Y-111268214D01*
%TO.C,U3*%
X81118880Y-101234404D02*
X81928404Y-101234404D01*
X82023642Y-101186785D01*
X82071261Y-101139166D01*
X82118880Y-101043928D01*
X82118880Y-100853452D01*
X82071261Y-100758214D01*
X82023642Y-100710595D01*
X81928404Y-100662976D01*
X81118880Y-100662976D01*
X81118880Y-100282023D02*
X81118880Y-99662976D01*
X81499833Y-99996309D01*
X81499833Y-99853452D01*
X81547452Y-99758214D01*
X81595071Y-99710595D01*
X81690309Y-99662976D01*
X81928404Y-99662976D01*
X82023642Y-99710595D01*
X82071261Y-99758214D01*
X82118880Y-99853452D01*
X82118880Y-100139166D01*
X82071261Y-100234404D01*
X82023642Y-100282023D01*
%TO.C,SW1*%
X57340666Y-94511761D02*
X57483523Y-94559380D01*
X57721619Y-94559380D01*
X57816857Y-94511761D01*
X57864476Y-94464142D01*
X57912095Y-94368904D01*
X57912095Y-94273666D01*
X57864476Y-94178428D01*
X57816857Y-94130809D01*
X57721619Y-94083190D01*
X57531142Y-94035571D01*
X57435904Y-93987952D01*
X57388285Y-93940333D01*
X57340666Y-93845095D01*
X57340666Y-93749857D01*
X57388285Y-93654619D01*
X57435904Y-93607000D01*
X57531142Y-93559380D01*
X57769238Y-93559380D01*
X57912095Y-93607000D01*
X58245428Y-93559380D02*
X58483523Y-94559380D01*
X58674000Y-93845095D01*
X58864476Y-94559380D01*
X59102571Y-93559380D01*
X60007333Y-94559380D02*
X59435904Y-94559380D01*
X59721619Y-94559380D02*
X59721619Y-93559380D01*
X59626380Y-93702238D01*
X59531142Y-93797476D01*
X59435904Y-93845095D01*
%TO.C,R14*%
X65282842Y-93621480D02*
X64949509Y-93145290D01*
X64711414Y-93621480D02*
X64711414Y-92621480D01*
X65092366Y-92621480D01*
X65187604Y-92669100D01*
X65235223Y-92716719D01*
X65282842Y-92811957D01*
X65282842Y-92954814D01*
X65235223Y-93050052D01*
X65187604Y-93097671D01*
X65092366Y-93145290D01*
X64711414Y-93145290D01*
X66235223Y-93621480D02*
X65663795Y-93621480D01*
X65949509Y-93621480D02*
X65949509Y-92621480D01*
X65854271Y-92764338D01*
X65759033Y-92859576D01*
X65663795Y-92907195D01*
X67092366Y-92954814D02*
X67092366Y-93621480D01*
X66854271Y-92573861D02*
X66616176Y-93288147D01*
X67235223Y-93288147D01*
%TO.C,C3*%
X141603433Y-107953442D02*
X141555814Y-108001061D01*
X141412957Y-108048680D01*
X141317719Y-108048680D01*
X141174861Y-108001061D01*
X141079623Y-107905823D01*
X141032004Y-107810585D01*
X140984385Y-107620109D01*
X140984385Y-107477252D01*
X141032004Y-107286776D01*
X141079623Y-107191538D01*
X141174861Y-107096300D01*
X141317719Y-107048680D01*
X141412957Y-107048680D01*
X141555814Y-107096300D01*
X141603433Y-107143919D01*
X141936766Y-107048680D02*
X142555814Y-107048680D01*
X142222480Y-107429633D01*
X142365338Y-107429633D01*
X142460576Y-107477252D01*
X142508195Y-107524871D01*
X142555814Y-107620109D01*
X142555814Y-107858204D01*
X142508195Y-107953442D01*
X142460576Y-108001061D01*
X142365338Y-108048680D01*
X142079623Y-108048680D01*
X141984385Y-108001061D01*
X141936766Y-107953442D01*
%TO.C,C8*%
X65403433Y-95253442D02*
X65355814Y-95301061D01*
X65212957Y-95348680D01*
X65117719Y-95348680D01*
X64974861Y-95301061D01*
X64879623Y-95205823D01*
X64832004Y-95110585D01*
X64784385Y-94920109D01*
X64784385Y-94777252D01*
X64832004Y-94586776D01*
X64879623Y-94491538D01*
X64974861Y-94396300D01*
X65117719Y-94348680D01*
X65212957Y-94348680D01*
X65355814Y-94396300D01*
X65403433Y-94443919D01*
X65974861Y-94777252D02*
X65879623Y-94729633D01*
X65832004Y-94682014D01*
X65784385Y-94586776D01*
X65784385Y-94539157D01*
X65832004Y-94443919D01*
X65879623Y-94396300D01*
X65974861Y-94348680D01*
X66165338Y-94348680D01*
X66260576Y-94396300D01*
X66308195Y-94443919D01*
X66355814Y-94539157D01*
X66355814Y-94586776D01*
X66308195Y-94682014D01*
X66260576Y-94729633D01*
X66165338Y-94777252D01*
X65974861Y-94777252D01*
X65879623Y-94824871D01*
X65832004Y-94872490D01*
X65784385Y-94967728D01*
X65784385Y-95158204D01*
X65832004Y-95253442D01*
X65879623Y-95301061D01*
X65974861Y-95348680D01*
X66165338Y-95348680D01*
X66260576Y-95301061D01*
X66308195Y-95253442D01*
X66355814Y-95158204D01*
X66355814Y-94967728D01*
X66308195Y-94872490D01*
X66260576Y-94824871D01*
X66165338Y-94777252D01*
%TO.C,R11*%
X79811642Y-93824680D02*
X79478309Y-93348490D01*
X79240214Y-93824680D02*
X79240214Y-92824680D01*
X79621166Y-92824680D01*
X79716404Y-92872300D01*
X79764023Y-92919919D01*
X79811642Y-93015157D01*
X79811642Y-93158014D01*
X79764023Y-93253252D01*
X79716404Y-93300871D01*
X79621166Y-93348490D01*
X79240214Y-93348490D01*
X80764023Y-93824680D02*
X80192595Y-93824680D01*
X80478309Y-93824680D02*
X80478309Y-92824680D01*
X80383071Y-92967538D01*
X80287833Y-93062776D01*
X80192595Y-93110395D01*
X81716404Y-93824680D02*
X81144976Y-93824680D01*
X81430690Y-93824680D02*
X81430690Y-92824680D01*
X81335452Y-92967538D01*
X81240214Y-93062776D01*
X81144976Y-93110395D01*
%TO.C,R15*%
X65130442Y-98091880D02*
X64797109Y-97615690D01*
X64559014Y-98091880D02*
X64559014Y-97091880D01*
X64939966Y-97091880D01*
X65035204Y-97139500D01*
X65082823Y-97187119D01*
X65130442Y-97282357D01*
X65130442Y-97425214D01*
X65082823Y-97520452D01*
X65035204Y-97568071D01*
X64939966Y-97615690D01*
X64559014Y-97615690D01*
X66082823Y-98091880D02*
X65511395Y-98091880D01*
X65797109Y-98091880D02*
X65797109Y-97091880D01*
X65701871Y-97234738D01*
X65606633Y-97329976D01*
X65511395Y-97377595D01*
X66987585Y-97091880D02*
X66511395Y-97091880D01*
X66463776Y-97568071D01*
X66511395Y-97520452D01*
X66606633Y-97472833D01*
X66844728Y-97472833D01*
X66939966Y-97520452D01*
X66987585Y-97568071D01*
X67035204Y-97663309D01*
X67035204Y-97901404D01*
X66987585Y-97996642D01*
X66939966Y-98044261D01*
X66844728Y-98091880D01*
X66606633Y-98091880D01*
X66511395Y-98044261D01*
X66463776Y-97996642D01*
%TO.C,C1*%
X125804633Y-126343042D02*
X125757014Y-126390661D01*
X125614157Y-126438280D01*
X125518919Y-126438280D01*
X125376061Y-126390661D01*
X125280823Y-126295423D01*
X125233204Y-126200185D01*
X125185585Y-126009709D01*
X125185585Y-125866852D01*
X125233204Y-125676376D01*
X125280823Y-125581138D01*
X125376061Y-125485900D01*
X125518919Y-125438280D01*
X125614157Y-125438280D01*
X125757014Y-125485900D01*
X125804633Y-125533519D01*
X126757014Y-126438280D02*
X126185585Y-126438280D01*
X126471300Y-126438280D02*
X126471300Y-125438280D01*
X126376061Y-125581138D01*
X126280823Y-125676376D01*
X126185585Y-125723995D01*
%TO.C,C2*%
X124991833Y-123650642D02*
X124944214Y-123698261D01*
X124801357Y-123745880D01*
X124706119Y-123745880D01*
X124563261Y-123698261D01*
X124468023Y-123603023D01*
X124420404Y-123507785D01*
X124372785Y-123317309D01*
X124372785Y-123174452D01*
X124420404Y-122983976D01*
X124468023Y-122888738D01*
X124563261Y-122793500D01*
X124706119Y-122745880D01*
X124801357Y-122745880D01*
X124944214Y-122793500D01*
X124991833Y-122841119D01*
X125372785Y-122841119D02*
X125420404Y-122793500D01*
X125515642Y-122745880D01*
X125753738Y-122745880D01*
X125848976Y-122793500D01*
X125896595Y-122841119D01*
X125944214Y-122936357D01*
X125944214Y-123031595D01*
X125896595Y-123174452D01*
X125325166Y-123745880D01*
X125944214Y-123745880D01*
%TO.C,C5*%
X111088693Y-121720022D02*
X111041074Y-121767641D01*
X110898217Y-121815260D01*
X110802979Y-121815260D01*
X110660121Y-121767641D01*
X110564883Y-121672403D01*
X110517264Y-121577165D01*
X110469645Y-121386689D01*
X110469645Y-121243832D01*
X110517264Y-121053356D01*
X110564883Y-120958118D01*
X110660121Y-120862880D01*
X110802979Y-120815260D01*
X110898217Y-120815260D01*
X111041074Y-120862880D01*
X111088693Y-120910499D01*
X111993455Y-120815260D02*
X111517264Y-120815260D01*
X111469645Y-121291451D01*
X111517264Y-121243832D01*
X111612502Y-121196213D01*
X111850598Y-121196213D01*
X111945836Y-121243832D01*
X111993455Y-121291451D01*
X112041074Y-121386689D01*
X112041074Y-121624784D01*
X111993455Y-121720022D01*
X111945836Y-121767641D01*
X111850598Y-121815260D01*
X111612502Y-121815260D01*
X111517264Y-121767641D01*
X111469645Y-121720022D01*
%TO.C,C6*%
X117708093Y-122990622D02*
X117660474Y-123038241D01*
X117517617Y-123085860D01*
X117422379Y-123085860D01*
X117279521Y-123038241D01*
X117184283Y-122943003D01*
X117136664Y-122847765D01*
X117089045Y-122657289D01*
X117089045Y-122514432D01*
X117136664Y-122323956D01*
X117184283Y-122228718D01*
X117279521Y-122133480D01*
X117422379Y-122085860D01*
X117517617Y-122085860D01*
X117660474Y-122133480D01*
X117708093Y-122181099D01*
X118565236Y-122085860D02*
X118374760Y-122085860D01*
X118279521Y-122133480D01*
X118231902Y-122181099D01*
X118136664Y-122323956D01*
X118089045Y-122514432D01*
X118089045Y-122895384D01*
X118136664Y-122990622D01*
X118184283Y-123038241D01*
X118279521Y-123085860D01*
X118469998Y-123085860D01*
X118565236Y-123038241D01*
X118612855Y-122990622D01*
X118660474Y-122895384D01*
X118660474Y-122657289D01*
X118612855Y-122562051D01*
X118565236Y-122514432D01*
X118469998Y-122466813D01*
X118279521Y-122466813D01*
X118184283Y-122514432D01*
X118136664Y-122562051D01*
X118089045Y-122657289D01*
%TO.C,C7*%
X80485493Y-96915222D02*
X80437874Y-96962841D01*
X80295017Y-97010460D01*
X80199779Y-97010460D01*
X80056921Y-96962841D01*
X79961683Y-96867603D01*
X79914064Y-96772365D01*
X79866445Y-96581889D01*
X79866445Y-96439032D01*
X79914064Y-96248556D01*
X79961683Y-96153318D01*
X80056921Y-96058080D01*
X80199779Y-96010460D01*
X80295017Y-96010460D01*
X80437874Y-96058080D01*
X80485493Y-96105699D01*
X80818826Y-96010460D02*
X81485493Y-96010460D01*
X81056921Y-97010460D01*
%TO.C,C10*%
X83364102Y-120838037D02*
X83411721Y-120885656D01*
X83459340Y-121028513D01*
X83459340Y-121123751D01*
X83411721Y-121266608D01*
X83316483Y-121361846D01*
X83221245Y-121409465D01*
X83030769Y-121457084D01*
X82887912Y-121457084D01*
X82697436Y-121409465D01*
X82602198Y-121361846D01*
X82506960Y-121266608D01*
X82459340Y-121123751D01*
X82459340Y-121028513D01*
X82506960Y-120885656D01*
X82554579Y-120838037D01*
X83459340Y-119885656D02*
X83459340Y-120457084D01*
X83459340Y-120171370D02*
X82459340Y-120171370D01*
X82602198Y-120266608D01*
X82697436Y-120361846D01*
X82745055Y-120457084D01*
X82459340Y-119266608D02*
X82459340Y-119171370D01*
X82506960Y-119076132D01*
X82554579Y-119028513D01*
X82649817Y-118980894D01*
X82840293Y-118933275D01*
X83078388Y-118933275D01*
X83268864Y-118980894D01*
X83364102Y-119028513D01*
X83411721Y-119076132D01*
X83459340Y-119171370D01*
X83459340Y-119266608D01*
X83411721Y-119361846D01*
X83364102Y-119409465D01*
X83268864Y-119457084D01*
X83078388Y-119504703D01*
X82840293Y-119504703D01*
X82649817Y-119457084D01*
X82554579Y-119409465D01*
X82506960Y-119361846D01*
X82459340Y-119266608D01*
%TO.C,C11*%
X81986102Y-120864537D02*
X82033721Y-120912156D01*
X82081340Y-121055013D01*
X82081340Y-121150251D01*
X82033721Y-121293108D01*
X81938483Y-121388346D01*
X81843245Y-121435965D01*
X81652769Y-121483584D01*
X81509912Y-121483584D01*
X81319436Y-121435965D01*
X81224198Y-121388346D01*
X81128960Y-121293108D01*
X81081340Y-121150251D01*
X81081340Y-121055013D01*
X81128960Y-120912156D01*
X81176579Y-120864537D01*
X82081340Y-119912156D02*
X82081340Y-120483584D01*
X82081340Y-120197870D02*
X81081340Y-120197870D01*
X81224198Y-120293108D01*
X81319436Y-120388346D01*
X81367055Y-120483584D01*
X82081340Y-118959775D02*
X82081340Y-119531203D01*
X82081340Y-119245489D02*
X81081340Y-119245489D01*
X81224198Y-119340727D01*
X81319436Y-119435965D01*
X81367055Y-119531203D01*
%TO.C,R1*%
X127430233Y-128368680D02*
X127096900Y-127892490D01*
X126858804Y-128368680D02*
X126858804Y-127368680D01*
X127239757Y-127368680D01*
X127334995Y-127416300D01*
X127382614Y-127463919D01*
X127430233Y-127559157D01*
X127430233Y-127702014D01*
X127382614Y-127797252D01*
X127334995Y-127844871D01*
X127239757Y-127892490D01*
X126858804Y-127892490D01*
X128382614Y-128368680D02*
X127811185Y-128368680D01*
X128096900Y-128368680D02*
X128096900Y-127368680D01*
X128001661Y-127511538D01*
X127906423Y-127606776D01*
X127811185Y-127654395D01*
%TO.C,R2*%
X126820633Y-120647080D02*
X126487300Y-120170890D01*
X126249204Y-120647080D02*
X126249204Y-119647080D01*
X126630157Y-119647080D01*
X126725395Y-119694700D01*
X126773014Y-119742319D01*
X126820633Y-119837557D01*
X126820633Y-119980414D01*
X126773014Y-120075652D01*
X126725395Y-120123271D01*
X126630157Y-120170890D01*
X126249204Y-120170890D01*
X127201585Y-119742319D02*
X127249204Y-119694700D01*
X127344442Y-119647080D01*
X127582538Y-119647080D01*
X127677776Y-119694700D01*
X127725395Y-119742319D01*
X127773014Y-119837557D01*
X127773014Y-119932795D01*
X127725395Y-120075652D01*
X127153966Y-120647080D01*
X127773014Y-120647080D01*
%TO.C,R3*%
X125753833Y-130654680D02*
X125420500Y-130178490D01*
X125182404Y-130654680D02*
X125182404Y-129654680D01*
X125563357Y-129654680D01*
X125658595Y-129702300D01*
X125706214Y-129749919D01*
X125753833Y-129845157D01*
X125753833Y-129988014D01*
X125706214Y-130083252D01*
X125658595Y-130130871D01*
X125563357Y-130178490D01*
X125182404Y-130178490D01*
X126087166Y-129654680D02*
X126706214Y-129654680D01*
X126372880Y-130035633D01*
X126515738Y-130035633D01*
X126610976Y-130083252D01*
X126658595Y-130130871D01*
X126706214Y-130226109D01*
X126706214Y-130464204D01*
X126658595Y-130559442D01*
X126610976Y-130607061D01*
X126515738Y-130654680D01*
X126230023Y-130654680D01*
X126134785Y-130607061D01*
X126087166Y-130559442D01*
%TO.C,R4*%
X124991833Y-118411880D02*
X124658500Y-117935690D01*
X124420404Y-118411880D02*
X124420404Y-117411880D01*
X124801357Y-117411880D01*
X124896595Y-117459500D01*
X124944214Y-117507119D01*
X124991833Y-117602357D01*
X124991833Y-117745214D01*
X124944214Y-117840452D01*
X124896595Y-117888071D01*
X124801357Y-117935690D01*
X124420404Y-117935690D01*
X125848976Y-117745214D02*
X125848976Y-118411880D01*
X125610880Y-117364261D02*
X125372785Y-118078547D01*
X125991833Y-118078547D01*
%TO.C,R8*%
X139199880Y-111943166D02*
X138723690Y-112276500D01*
X139199880Y-112514595D02*
X138199880Y-112514595D01*
X138199880Y-112133642D01*
X138247500Y-112038404D01*
X138295119Y-111990785D01*
X138390357Y-111943166D01*
X138533214Y-111943166D01*
X138628452Y-111990785D01*
X138676071Y-112038404D01*
X138723690Y-112133642D01*
X138723690Y-112514595D01*
X138628452Y-111371738D02*
X138580833Y-111466976D01*
X138533214Y-111514595D01*
X138437976Y-111562214D01*
X138390357Y-111562214D01*
X138295119Y-111514595D01*
X138247500Y-111466976D01*
X138199880Y-111371738D01*
X138199880Y-111181261D01*
X138247500Y-111086023D01*
X138295119Y-111038404D01*
X138390357Y-110990785D01*
X138437976Y-110990785D01*
X138533214Y-111038404D01*
X138580833Y-111086023D01*
X138628452Y-111181261D01*
X138628452Y-111371738D01*
X138676071Y-111466976D01*
X138723690Y-111514595D01*
X138818928Y-111562214D01*
X139009404Y-111562214D01*
X139104642Y-111514595D01*
X139152261Y-111466976D01*
X139199880Y-111371738D01*
X139199880Y-111181261D01*
X139152261Y-111086023D01*
X139104642Y-111038404D01*
X139009404Y-110990785D01*
X138818928Y-110990785D01*
X138723690Y-111038404D01*
X138676071Y-111086023D01*
X138628452Y-111181261D01*
%TO.C,R9*%
X141451033Y-110741080D02*
X141117700Y-110264890D01*
X140879604Y-110741080D02*
X140879604Y-109741080D01*
X141260557Y-109741080D01*
X141355795Y-109788700D01*
X141403414Y-109836319D01*
X141451033Y-109931557D01*
X141451033Y-110074414D01*
X141403414Y-110169652D01*
X141355795Y-110217271D01*
X141260557Y-110264890D01*
X140879604Y-110264890D01*
X141927223Y-110741080D02*
X142117700Y-110741080D01*
X142212938Y-110693461D01*
X142260557Y-110645842D01*
X142355795Y-110502985D01*
X142403414Y-110312509D01*
X142403414Y-109931557D01*
X142355795Y-109836319D01*
X142308176Y-109788700D01*
X142212938Y-109741080D01*
X142022461Y-109741080D01*
X141927223Y-109788700D01*
X141879604Y-109836319D01*
X141831985Y-109931557D01*
X141831985Y-110169652D01*
X141879604Y-110264890D01*
X141927223Y-110312509D01*
X142022461Y-110360128D01*
X142212938Y-110360128D01*
X142308176Y-110312509D01*
X142355795Y-110264890D01*
X142403414Y-110169652D01*
%TO.C,R7*%
X142534880Y-114570166D02*
X142058690Y-114903500D01*
X142534880Y-115141595D02*
X141534880Y-115141595D01*
X141534880Y-114760642D01*
X141582500Y-114665404D01*
X141630119Y-114617785D01*
X141725357Y-114570166D01*
X141868214Y-114570166D01*
X141963452Y-114617785D01*
X142011071Y-114665404D01*
X142058690Y-114760642D01*
X142058690Y-115141595D01*
X141534880Y-114236833D02*
X141534880Y-113570166D01*
X142534880Y-113998738D01*
%TO.C,U2*%
X117476880Y-129044404D02*
X118286404Y-129044404D01*
X118381642Y-128996785D01*
X118429261Y-128949166D01*
X118476880Y-128853928D01*
X118476880Y-128663452D01*
X118429261Y-128568214D01*
X118381642Y-128520595D01*
X118286404Y-128472976D01*
X117476880Y-128472976D01*
X117572119Y-128044404D02*
X117524500Y-127996785D01*
X117476880Y-127901547D01*
X117476880Y-127663452D01*
X117524500Y-127568214D01*
X117572119Y-127520595D01*
X117667357Y-127472976D01*
X117762595Y-127472976D01*
X117905452Y-127520595D01*
X118476880Y-128092023D01*
X118476880Y-127472976D01*
%TO.C,Q4*%
X80664061Y-91278319D02*
X80568823Y-91230700D01*
X80473585Y-91135461D01*
X80330728Y-90992604D01*
X80235490Y-90944985D01*
X80140252Y-90944985D01*
X80187871Y-91183080D02*
X80092633Y-91135461D01*
X79997395Y-91040223D01*
X79949776Y-90849747D01*
X79949776Y-90516414D01*
X79997395Y-90325938D01*
X80092633Y-90230700D01*
X80187871Y-90183080D01*
X80378347Y-90183080D01*
X80473585Y-90230700D01*
X80568823Y-90325938D01*
X80616442Y-90516414D01*
X80616442Y-90849747D01*
X80568823Y-91040223D01*
X80473585Y-91135461D01*
X80378347Y-91183080D01*
X80187871Y-91183080D01*
X81473585Y-90516414D02*
X81473585Y-91183080D01*
X81235490Y-90135461D02*
X80997395Y-90849747D01*
X81616442Y-90849747D01*
%TO.C,Q5*%
X73907661Y-93767519D02*
X73812423Y-93719900D01*
X73717185Y-93624661D01*
X73574328Y-93481804D01*
X73479090Y-93434185D01*
X73383852Y-93434185D01*
X73431471Y-93672280D02*
X73336233Y-93624661D01*
X73240995Y-93529423D01*
X73193376Y-93338947D01*
X73193376Y-93005614D01*
X73240995Y-92815138D01*
X73336233Y-92719900D01*
X73431471Y-92672280D01*
X73621947Y-92672280D01*
X73717185Y-92719900D01*
X73812423Y-92815138D01*
X73860042Y-93005614D01*
X73860042Y-93338947D01*
X73812423Y-93529423D01*
X73717185Y-93624661D01*
X73621947Y-93672280D01*
X73431471Y-93672280D01*
X74764804Y-92672280D02*
X74288614Y-92672280D01*
X74240995Y-93148471D01*
X74288614Y-93100852D01*
X74383852Y-93053233D01*
X74621947Y-93053233D01*
X74717185Y-93100852D01*
X74764804Y-93148471D01*
X74812423Y-93243709D01*
X74812423Y-93481804D01*
X74764804Y-93577042D01*
X74717185Y-93624661D01*
X74621947Y-93672280D01*
X74383852Y-93672280D01*
X74288614Y-93624661D01*
X74240995Y-93577042D01*
%TO.C,R12*%
X71762880Y-89747957D02*
X71286690Y-90081290D01*
X71762880Y-90319385D02*
X70762880Y-90319385D01*
X70762880Y-89938433D01*
X70810500Y-89843195D01*
X70858119Y-89795576D01*
X70953357Y-89747957D01*
X71096214Y-89747957D01*
X71191452Y-89795576D01*
X71239071Y-89843195D01*
X71286690Y-89938433D01*
X71286690Y-90319385D01*
X71762880Y-88795576D02*
X71762880Y-89367004D01*
X71762880Y-89081290D02*
X70762880Y-89081290D01*
X70905738Y-89176528D01*
X71000976Y-89271766D01*
X71048595Y-89367004D01*
X70858119Y-88414623D02*
X70810500Y-88367004D01*
X70762880Y-88271766D01*
X70762880Y-88033671D01*
X70810500Y-87938433D01*
X70858119Y-87890814D01*
X70953357Y-87843195D01*
X71048595Y-87843195D01*
X71191452Y-87890814D01*
X71762880Y-88462242D01*
X71762880Y-87843195D01*
%TO.C,R13*%
X78490842Y-88033480D02*
X78157509Y-87557290D01*
X77919414Y-88033480D02*
X77919414Y-87033480D01*
X78300366Y-87033480D01*
X78395604Y-87081100D01*
X78443223Y-87128719D01*
X78490842Y-87223957D01*
X78490842Y-87366814D01*
X78443223Y-87462052D01*
X78395604Y-87509671D01*
X78300366Y-87557290D01*
X77919414Y-87557290D01*
X79443223Y-88033480D02*
X78871795Y-88033480D01*
X79157509Y-88033480D02*
X79157509Y-87033480D01*
X79062271Y-87176338D01*
X78967033Y-87271576D01*
X78871795Y-87319195D01*
X79776557Y-87033480D02*
X80395604Y-87033480D01*
X80062271Y-87414433D01*
X80205128Y-87414433D01*
X80300366Y-87462052D01*
X80347985Y-87509671D01*
X80395604Y-87604909D01*
X80395604Y-87843004D01*
X80347985Y-87938242D01*
X80300366Y-87985861D01*
X80205128Y-88033480D01*
X79919414Y-88033480D01*
X79824176Y-87985861D01*
X79776557Y-87938242D01*
%TO.C,J2*%
X64463680Y-84307633D02*
X65177966Y-84307633D01*
X65320823Y-84355252D01*
X65416061Y-84450490D01*
X65463680Y-84593347D01*
X65463680Y-84688585D01*
X64558919Y-83879061D02*
X64511300Y-83831442D01*
X64463680Y-83736204D01*
X64463680Y-83498109D01*
X64511300Y-83402871D01*
X64558919Y-83355252D01*
X64654157Y-83307633D01*
X64749395Y-83307633D01*
X64892252Y-83355252D01*
X65463680Y-83926680D01*
X65463680Y-83307633D01*
%TO.C,Q1*%
X145020919Y-104710338D02*
X144973300Y-104805576D01*
X144878061Y-104900814D01*
X144735204Y-105043671D01*
X144687585Y-105138909D01*
X144687585Y-105234147D01*
X144925680Y-105186528D02*
X144878061Y-105281766D01*
X144782823Y-105377004D01*
X144592347Y-105424623D01*
X144259014Y-105424623D01*
X144068538Y-105377004D01*
X143973300Y-105281766D01*
X143925680Y-105186528D01*
X143925680Y-104996052D01*
X143973300Y-104900814D01*
X144068538Y-104805576D01*
X144259014Y-104757957D01*
X144592347Y-104757957D01*
X144782823Y-104805576D01*
X144878061Y-104900814D01*
X144925680Y-104996052D01*
X144925680Y-105186528D01*
X144925680Y-103805576D02*
X144925680Y-104377004D01*
X144925680Y-104091290D02*
X143925680Y-104091290D01*
X144068538Y-104186528D01*
X144163776Y-104281766D01*
X144211395Y-104377004D01*
%TO.C,Q2*%
X139636119Y-104846738D02*
X139588500Y-104941976D01*
X139493261Y-105037214D01*
X139350404Y-105180071D01*
X139302785Y-105275309D01*
X139302785Y-105370547D01*
X139540880Y-105322928D02*
X139493261Y-105418166D01*
X139398023Y-105513404D01*
X139207547Y-105561023D01*
X138874214Y-105561023D01*
X138683738Y-105513404D01*
X138588500Y-105418166D01*
X138540880Y-105322928D01*
X138540880Y-105132452D01*
X138588500Y-105037214D01*
X138683738Y-104941976D01*
X138874214Y-104894357D01*
X139207547Y-104894357D01*
X139398023Y-104941976D01*
X139493261Y-105037214D01*
X139540880Y-105132452D01*
X139540880Y-105322928D01*
X138636119Y-104513404D02*
X138588500Y-104465785D01*
X138540880Y-104370547D01*
X138540880Y-104132452D01*
X138588500Y-104037214D01*
X138636119Y-103989595D01*
X138731357Y-103941976D01*
X138826595Y-103941976D01*
X138969452Y-103989595D01*
X139540880Y-104561023D01*
X139540880Y-103941976D01*
%TO.C,Q3*%
X137604119Y-108656738D02*
X137556500Y-108751976D01*
X137461261Y-108847214D01*
X137318404Y-108990071D01*
X137270785Y-109085309D01*
X137270785Y-109180547D01*
X137508880Y-109132928D02*
X137461261Y-109228166D01*
X137366023Y-109323404D01*
X137175547Y-109371023D01*
X136842214Y-109371023D01*
X136651738Y-109323404D01*
X136556500Y-109228166D01*
X136508880Y-109132928D01*
X136508880Y-108942452D01*
X136556500Y-108847214D01*
X136651738Y-108751976D01*
X136842214Y-108704357D01*
X137175547Y-108704357D01*
X137366023Y-108751976D01*
X137461261Y-108847214D01*
X137508880Y-108942452D01*
X137508880Y-109132928D01*
X136508880Y-108371023D02*
X136508880Y-107751976D01*
X136889833Y-108085309D01*
X136889833Y-107942452D01*
X136937452Y-107847214D01*
X136985071Y-107799595D01*
X137080309Y-107751976D01*
X137318404Y-107751976D01*
X137413642Y-107799595D01*
X137461261Y-107847214D01*
X137508880Y-107942452D01*
X137508880Y-108228166D01*
X137461261Y-108323404D01*
X137413642Y-108371023D01*
%TO.C,R17*%
X71829740Y-83397737D02*
X71353550Y-83731070D01*
X71829740Y-83969165D02*
X70829740Y-83969165D01*
X70829740Y-83588213D01*
X70877360Y-83492975D01*
X70924979Y-83445356D01*
X71020217Y-83397737D01*
X71163074Y-83397737D01*
X71258312Y-83445356D01*
X71305931Y-83492975D01*
X71353550Y-83588213D01*
X71353550Y-83969165D01*
X71829740Y-82445356D02*
X71829740Y-83016784D01*
X71829740Y-82731070D02*
X70829740Y-82731070D01*
X70972598Y-82826308D01*
X71067836Y-82921546D01*
X71115455Y-83016784D01*
X70829740Y-82112022D02*
X70829740Y-81445356D01*
X71829740Y-81873927D01*
%TO.C,SW2*%
X57277166Y-97877261D02*
X57420023Y-97924880D01*
X57658119Y-97924880D01*
X57753357Y-97877261D01*
X57800976Y-97829642D01*
X57848595Y-97734404D01*
X57848595Y-97639166D01*
X57800976Y-97543928D01*
X57753357Y-97496309D01*
X57658119Y-97448690D01*
X57467642Y-97401071D01*
X57372404Y-97353452D01*
X57324785Y-97305833D01*
X57277166Y-97210595D01*
X57277166Y-97115357D01*
X57324785Y-97020119D01*
X57372404Y-96972500D01*
X57467642Y-96924880D01*
X57705738Y-96924880D01*
X57848595Y-96972500D01*
X58181928Y-96924880D02*
X58420023Y-97924880D01*
X58610500Y-97210595D01*
X58800976Y-97924880D01*
X59039071Y-96924880D01*
X59372404Y-97020119D02*
X59420023Y-96972500D01*
X59515261Y-96924880D01*
X59753357Y-96924880D01*
X59848595Y-96972500D01*
X59896214Y-97020119D01*
X59943833Y-97115357D01*
X59943833Y-97210595D01*
X59896214Y-97353452D01*
X59324785Y-97924880D01*
X59943833Y-97924880D01*
%TO.C,R16*%
X85393340Y-118906937D02*
X84917150Y-119240270D01*
X85393340Y-119478365D02*
X84393340Y-119478365D01*
X84393340Y-119097413D01*
X84440960Y-119002175D01*
X84488579Y-118954556D01*
X84583817Y-118906937D01*
X84726674Y-118906937D01*
X84821912Y-118954556D01*
X84869531Y-119002175D01*
X84917150Y-119097413D01*
X84917150Y-119478365D01*
X85393340Y-117954556D02*
X85393340Y-118525984D01*
X85393340Y-118240270D02*
X84393340Y-118240270D01*
X84536198Y-118335508D01*
X84631436Y-118430746D01*
X84679055Y-118525984D01*
X84393340Y-117097413D02*
X84393340Y-117287889D01*
X84440960Y-117383127D01*
X84488579Y-117430746D01*
X84631436Y-117525984D01*
X84821912Y-117573603D01*
X85202864Y-117573603D01*
X85298102Y-117525984D01*
X85345721Y-117478365D01*
X85393340Y-117383127D01*
X85393340Y-117192651D01*
X85345721Y-117097413D01*
X85298102Y-117049794D01*
X85202864Y-117002175D01*
X84964769Y-117002175D01*
X84869531Y-117049794D01*
X84821912Y-117097413D01*
X84774293Y-117192651D01*
X84774293Y-117383127D01*
X84821912Y-117478365D01*
X84869531Y-117525984D01*
X84964769Y-117573603D01*
%TO.C,L1*%
D14*
X113946553Y-117394783D02*
X113341791Y-117394783D01*
X113341791Y-116124783D01*
X115035124Y-117394783D02*
X114309410Y-117394783D01*
X114672267Y-117394783D02*
X114672267Y-116124783D01*
X114551315Y-116306212D01*
X114430362Y-116427164D01*
X114309410Y-116487640D01*
%TO.C,H1*%
D10*
X55618455Y-130134260D02*
X55618455Y-129134260D01*
X55618455Y-129610451D02*
X56189883Y-129610451D01*
X56189883Y-130134260D02*
X56189883Y-129134260D01*
X57189883Y-130134260D02*
X56618455Y-130134260D01*
X56904169Y-130134260D02*
X56904169Y-129134260D01*
X56808931Y-129277118D01*
X56713693Y-129372356D01*
X56618455Y-129419975D01*
%TO.C,H2*%
X55883455Y-62379260D02*
X55883455Y-61379260D01*
X55883455Y-61855451D02*
X56454883Y-61855451D01*
X56454883Y-62379260D02*
X56454883Y-61379260D01*
X56883455Y-61474499D02*
X56931074Y-61426880D01*
X57026312Y-61379260D01*
X57264407Y-61379260D01*
X57359645Y-61426880D01*
X57407264Y-61474499D01*
X57454883Y-61569737D01*
X57454883Y-61664975D01*
X57407264Y-61807832D01*
X56835836Y-62379260D01*
X57454883Y-62379260D01*
%TO.C,H3*%
X148468455Y-130184260D02*
X148468455Y-129184260D01*
X148468455Y-129660451D02*
X149039883Y-129660451D01*
X149039883Y-130184260D02*
X149039883Y-129184260D01*
X149420836Y-129184260D02*
X150039883Y-129184260D01*
X149706550Y-129565213D01*
X149849407Y-129565213D01*
X149944645Y-129612832D01*
X149992264Y-129660451D01*
X150039883Y-129755689D01*
X150039883Y-129993784D01*
X149992264Y-130089022D01*
X149944645Y-130136641D01*
X149849407Y-130184260D01*
X149563693Y-130184260D01*
X149468455Y-130136641D01*
X149420836Y-130089022D01*
%TO.C,H4*%
X148593455Y-62633260D02*
X148593455Y-61633260D01*
X148593455Y-62109451D02*
X149164883Y-62109451D01*
X149164883Y-62633260D02*
X149164883Y-61633260D01*
X150069645Y-61966594D02*
X150069645Y-62633260D01*
X149831550Y-61585641D02*
X149593455Y-62299927D01*
X150212502Y-62299927D01*
%TD*%
M02*
