%TF.GenerationSoftware,KiCad,Pcbnew,(5.1.7)-1*%
%TF.CreationDate,2020-12-15T16:08:46+01:00*%
%TF.ProjectId,EZ-PY32,455a2d50-5933-4322-9e6b-696361645f70,rev?*%
%TF.SameCoordinates,Original*%
%TF.FileFunction,Soldermask,Bot*%
%TF.FilePolarity,Negative*%
%FSLAX46Y46*%
G04 Gerber Fmt 4.6, Leading zero omitted, Abs format (unit mm)*
G04 Created by KiCad (PCBNEW (5.1.7)-1) date 2020-12-15 16:08:46*
%MOMM*%
%LPD*%
G01*
G04 APERTURE LIST*
%ADD10C,1.800000*%
%ADD11C,1.778000*%
%ADD12C,3.116000*%
%ADD13O,1.600000X1.600000*%
%ADD14O,1.740000X2.190000*%
%ADD15R,1.700000X1.700000*%
%ADD16O,1.700000X1.700000*%
%ADD17R,2.350000X0.850000*%
G04 APERTURE END LIST*
D10*
%TO.C,S1*%
X113260500Y-116974000D03*
X115760500Y-116974000D03*
X118260500Y-116974000D03*
D11*
X115760500Y-102474000D03*
X113760500Y-102474000D03*
D12*
X110210500Y-109474000D03*
X121310500Y-109474000D03*
D11*
X117760500Y-102474000D03*
X111760500Y-102474000D03*
X119760500Y-102474000D03*
%TD*%
D13*
%TO.C,U4*%
X67513200Y-95504000D03*
X92913200Y-47244000D03*
X82753200Y-47244000D03*
X58373200Y-47244000D03*
X60913200Y-47244000D03*
X65993200Y-47244000D03*
X62433200Y-95504000D03*
X72593200Y-95504000D03*
X75133200Y-95504000D03*
X82753200Y-95504000D03*
X90373200Y-95504000D03*
X68533200Y-47244000D03*
X92913200Y-95504000D03*
X53293200Y-47244000D03*
X71073200Y-47244000D03*
X85293200Y-47244000D03*
X80213200Y-95504000D03*
X87833200Y-47244000D03*
X64973200Y-95504000D03*
X70053200Y-95504000D03*
X55833200Y-47244000D03*
X63453200Y-47244000D03*
X80213200Y-47244000D03*
X77673200Y-47244000D03*
X85293200Y-95504000D03*
X90373200Y-47244000D03*
X75133200Y-47244000D03*
X87833200Y-95504000D03*
%TD*%
%TO.C,J1*%
G36*
G01*
X79292500Y-116860499D02*
X79292500Y-118550501D01*
G75*
G02*
X79042501Y-118800500I-249999J0D01*
G01*
X77802499Y-118800500D01*
G75*
G02*
X77552500Y-118550501I0J249999D01*
G01*
X77552500Y-116860499D01*
G75*
G02*
X77802499Y-116610500I249999J0D01*
G01*
X79042501Y-116610500D01*
G75*
G02*
X79292500Y-116860499I0J-249999D01*
G01*
G37*
D14*
X75882500Y-117705500D03*
%TD*%
D15*
%TO.C,J2*%
X39370000Y-74993500D03*
D16*
X39370000Y-72453500D03*
X39370000Y-69913500D03*
X39370000Y-67373500D03*
X39370000Y-64833500D03*
X39370000Y-62293500D03*
%TD*%
%TO.C,R16*%
G36*
G01*
X36597600Y-70947100D02*
X36122600Y-70947100D01*
G75*
G02*
X35885100Y-70709600I0J237500D01*
G01*
X35885100Y-70209600D01*
G75*
G02*
X36122600Y-69972100I237500J0D01*
G01*
X36597600Y-69972100D01*
G75*
G02*
X36835100Y-70209600I0J-237500D01*
G01*
X36835100Y-70709600D01*
G75*
G02*
X36597600Y-70947100I-237500J0D01*
G01*
G37*
G36*
G01*
X36597600Y-69122100D02*
X36122600Y-69122100D01*
G75*
G02*
X35885100Y-68884600I0J237500D01*
G01*
X35885100Y-68384600D01*
G75*
G02*
X36122600Y-68147100I237500J0D01*
G01*
X36597600Y-68147100D01*
G75*
G02*
X36835100Y-68384600I0J-237500D01*
G01*
X36835100Y-68884600D01*
G75*
G02*
X36597600Y-69122100I-237500J0D01*
G01*
G37*
%TD*%
D17*
%TO.C,J3*%
X31419300Y-86606300D03*
X31419300Y-82606300D03*
X31419300Y-78606300D03*
X31419300Y-74606300D03*
X31419300Y-70606300D03*
X31419300Y-66606300D03*
X31419300Y-62606300D03*
X31419300Y-58606300D03*
X33769300Y-84606300D03*
X33769300Y-80606300D03*
X33769300Y-76606300D03*
X33769300Y-72606300D03*
X33769300Y-68606300D03*
X33769300Y-64606300D03*
X33769300Y-60606300D03*
X33769300Y-56606300D03*
%TD*%
M02*
