%TF.GenerationSoftware,KiCad,Pcbnew,(5.1.7)-1*%
%TF.CreationDate,2021-01-21T08:43:37+01:00*%
%TF.ProjectId,EZ-PY32,455a2d50-5933-4322-9e6b-696361645f70,rev?*%
%TF.SameCoordinates,Original*%
%TF.FileFunction,Legend,Bot*%
%TF.FilePolarity,Positive*%
%FSLAX46Y46*%
G04 Gerber Fmt 4.6, Leading zero omitted, Abs format (unit mm)*
G04 Created by KiCad (PCBNEW (5.1.7)-1) date 2021-01-21 08:43:37*
%MOMM*%
%LPD*%
G01*
G04 APERTURE LIST*
%ADD10C,0.300000*%
%ADD11C,0.127000*%
%ADD12C,0.200000*%
%ADD13C,0.100000*%
%ADD14C,0.120000*%
%ADD15C,0.010000*%
%ADD16C,0.254000*%
%ADD17C,0.150000*%
G04 APERTURE END LIST*
D10*
X133105217Y-98094022D02*
X132890931Y-98165451D01*
X132533788Y-98165451D01*
X132390931Y-98094022D01*
X132319502Y-98022594D01*
X132248074Y-97879737D01*
X132248074Y-97736880D01*
X132319502Y-97594022D01*
X132390931Y-97522594D01*
X132533788Y-97451165D01*
X132819502Y-97379737D01*
X132962360Y-97308308D01*
X133033788Y-97236880D01*
X133105217Y-97094022D01*
X133105217Y-96951165D01*
X133033788Y-96808308D01*
X132962360Y-96736880D01*
X132819502Y-96665451D01*
X132462360Y-96665451D01*
X132248074Y-96736880D01*
X131605217Y-98022594D02*
X131533788Y-98094022D01*
X131605217Y-98165451D01*
X131676645Y-98094022D01*
X131605217Y-98022594D01*
X131605217Y-98165451D01*
X129748074Y-98165451D02*
X129748074Y-96665451D01*
X129390931Y-96665451D01*
X129176645Y-96736880D01*
X129033788Y-96879737D01*
X128962360Y-97022594D01*
X128890931Y-97308308D01*
X128890931Y-97522594D01*
X128962360Y-97808308D01*
X129033788Y-97951165D01*
X129176645Y-98094022D01*
X129390931Y-98165451D01*
X129748074Y-98165451D01*
X127676645Y-98094022D02*
X127819502Y-98165451D01*
X128105217Y-98165451D01*
X128248074Y-98094022D01*
X128319502Y-97951165D01*
X128319502Y-97379737D01*
X128248074Y-97236880D01*
X128105217Y-97165451D01*
X127819502Y-97165451D01*
X127676645Y-97236880D01*
X127605217Y-97379737D01*
X127605217Y-97522594D01*
X128319502Y-97665451D01*
X126962360Y-97165451D02*
X126962360Y-98165451D01*
X126962360Y-97308308D02*
X126890931Y-97236880D01*
X126748074Y-97165451D01*
X126533788Y-97165451D01*
X126390931Y-97236880D01*
X126319502Y-97379737D01*
X126319502Y-98165451D01*
X124962360Y-98165451D02*
X124962360Y-96665451D01*
X124962360Y-98094022D02*
X125105217Y-98165451D01*
X125390931Y-98165451D01*
X125533788Y-98094022D01*
X125605217Y-98022594D01*
X125676645Y-97879737D01*
X125676645Y-97451165D01*
X125605217Y-97308308D01*
X125533788Y-97236880D01*
X125390931Y-97165451D01*
X125105217Y-97165451D01*
X124962360Y-97236880D01*
X124033788Y-98165451D02*
X124176645Y-98094022D01*
X124248074Y-98022594D01*
X124319502Y-97879737D01*
X124319502Y-97451165D01*
X124248074Y-97308308D01*
X124176645Y-97236880D01*
X124033788Y-97165451D01*
X123819502Y-97165451D01*
X123676645Y-97236880D01*
X123605217Y-97308308D01*
X123533788Y-97451165D01*
X123533788Y-97879737D01*
X123605217Y-98022594D01*
X123676645Y-98094022D01*
X123819502Y-98165451D01*
X124033788Y-98165451D01*
X122890931Y-98165451D02*
X122890931Y-97165451D01*
X122890931Y-97451165D02*
X122819502Y-97308308D01*
X122748074Y-97236880D01*
X122605217Y-97165451D01*
X122462360Y-97165451D01*
X122176645Y-97165451D02*
X121605217Y-97165451D01*
X121962360Y-98165451D02*
X121962360Y-96879737D01*
X121890931Y-96736880D01*
X121748074Y-96665451D01*
X121605217Y-96665451D01*
X120533788Y-98094022D02*
X120676645Y-98165451D01*
X120962360Y-98165451D01*
X121105217Y-98094022D01*
X121176645Y-97951165D01*
X121176645Y-97379737D01*
X121105217Y-97236880D01*
X120962360Y-97165451D01*
X120676645Y-97165451D01*
X120533788Y-97236880D01*
X120462360Y-97379737D01*
X120462360Y-97522594D01*
X121176645Y-97665451D01*
X119819502Y-98165451D02*
X119819502Y-97165451D01*
X119819502Y-97451165D02*
X119748074Y-97308308D01*
X119676645Y-97236880D01*
X119533788Y-97165451D01*
X119390931Y-97165451D01*
X116533788Y-98165451D02*
X116605217Y-98165451D01*
X116748074Y-98094022D01*
X116962360Y-97879737D01*
X117319502Y-97451165D01*
X117462360Y-97236880D01*
X117533788Y-97022594D01*
X117533788Y-96879737D01*
X117462360Y-96736880D01*
X117319502Y-96665451D01*
X117248074Y-96665451D01*
X117105217Y-96736880D01*
X117033788Y-96879737D01*
X117033788Y-96951165D01*
X117105217Y-97094022D01*
X117176645Y-97165451D01*
X117605217Y-97451165D01*
X117676645Y-97522594D01*
X117748074Y-97665451D01*
X117748074Y-97879737D01*
X117676645Y-98022594D01*
X117605217Y-98094022D01*
X117462360Y-98165451D01*
X117248074Y-98165451D01*
X117105217Y-98094022D01*
X117033788Y-98022594D01*
X116819502Y-97736880D01*
X116748074Y-97522594D01*
X116748074Y-97379737D01*
X114748074Y-98165451D02*
X114748074Y-96665451D01*
X114248074Y-97736880D01*
X113748074Y-96665451D01*
X113748074Y-98165451D01*
X113033788Y-98022594D02*
X112962359Y-98094022D01*
X113033788Y-98165451D01*
X113105217Y-98094022D01*
X113033788Y-98022594D01*
X113033788Y-98165451D01*
X111176645Y-98165451D02*
X111176645Y-96665451D01*
X110319502Y-98165451D02*
X110962360Y-97308308D01*
X110319502Y-96665451D02*
X111176645Y-97522594D01*
X109462360Y-98165451D02*
X109605217Y-98094022D01*
X109676645Y-98022594D01*
X109748074Y-97879737D01*
X109748074Y-97451165D01*
X109676645Y-97308308D01*
X109605217Y-97236880D01*
X109462360Y-97165451D01*
X109248074Y-97165451D01*
X109105217Y-97236880D01*
X109033788Y-97308308D01*
X108962360Y-97451165D01*
X108962360Y-97879737D01*
X109033788Y-98022594D01*
X109105217Y-98094022D01*
X109248074Y-98165451D01*
X109462360Y-98165451D01*
X108105217Y-98165451D02*
X108248074Y-98094022D01*
X108319502Y-97951165D01*
X108319502Y-96665451D01*
X107533788Y-98165451D02*
X107533788Y-96665451D01*
X107533788Y-97236880D02*
X107390931Y-97165451D01*
X107105217Y-97165451D01*
X106962360Y-97236880D01*
X106890931Y-97308308D01*
X106819502Y-97451165D01*
X106819502Y-97879737D01*
X106890931Y-98022594D01*
X106962360Y-98094022D01*
X107105217Y-98165451D01*
X107390931Y-98165451D01*
X107533788Y-98094022D01*
X104033788Y-97165451D02*
X103676645Y-98165451D01*
X103319502Y-97165451D01*
X101962360Y-98165451D02*
X102819502Y-98165451D01*
X102390931Y-98165451D02*
X102390931Y-96665451D01*
X102533788Y-96879737D01*
X102676645Y-97022594D01*
X102819502Y-97094022D01*
X101319502Y-98022594D02*
X101248074Y-98094022D01*
X101319502Y-98165451D01*
X101390931Y-98094022D01*
X101319502Y-98022594D01*
X101319502Y-98165451D01*
X100319502Y-96665451D02*
X100176645Y-96665451D01*
X100033788Y-96736880D01*
X99962360Y-96808308D01*
X99890931Y-96951165D01*
X99819502Y-97236880D01*
X99819502Y-97594022D01*
X99890931Y-97879737D01*
X99962360Y-98022594D01*
X100033788Y-98094022D01*
X100176645Y-98165451D01*
X100319502Y-98165451D01*
X100462360Y-98094022D01*
X100533788Y-98022594D01*
X100605217Y-97879737D01*
X100676645Y-97594022D01*
X100676645Y-97236880D01*
X100605217Y-96951165D01*
X100533788Y-96808308D01*
X100462360Y-96736880D01*
X100319502Y-96665451D01*
D11*
X80158502Y-87302689D02*
X80158502Y-86794689D01*
X79868217Y-87302689D01*
X79868217Y-86794689D01*
X79336026Y-87254308D02*
X79360217Y-87278499D01*
X79432788Y-87302689D01*
X79481169Y-87302689D01*
X79553740Y-87278499D01*
X79602121Y-87230118D01*
X79626312Y-87181737D01*
X79650502Y-87084975D01*
X79650502Y-87012403D01*
X79626312Y-86915641D01*
X79602121Y-86867260D01*
X79553740Y-86818880D01*
X79481169Y-86794689D01*
X79432788Y-86794689D01*
X79360217Y-86818880D01*
X79336026Y-86843070D01*
X80364121Y-72038499D02*
X80291550Y-72062689D01*
X80170598Y-72062689D01*
X80122217Y-72038499D01*
X80098026Y-72014308D01*
X80073836Y-71965927D01*
X80073836Y-71917546D01*
X80098026Y-71869165D01*
X80122217Y-71844975D01*
X80170598Y-71820784D01*
X80267360Y-71796594D01*
X80315740Y-71772403D01*
X80339931Y-71748213D01*
X80364121Y-71699832D01*
X80364121Y-71651451D01*
X80339931Y-71603070D01*
X80315740Y-71578880D01*
X80267360Y-71554689D01*
X80146407Y-71554689D01*
X80073836Y-71578880D01*
X79565836Y-72014308D02*
X79590026Y-72038499D01*
X79662598Y-72062689D01*
X79710979Y-72062689D01*
X79783550Y-72038499D01*
X79831931Y-71990118D01*
X79856121Y-71941737D01*
X79880312Y-71844975D01*
X79880312Y-71772403D01*
X79856121Y-71675641D01*
X79831931Y-71627260D01*
X79783550Y-71578880D01*
X79710979Y-71554689D01*
X79662598Y-71554689D01*
X79590026Y-71578880D01*
X79565836Y-71603070D01*
X79106217Y-72062689D02*
X79348121Y-72062689D01*
X79348121Y-71554689D01*
X82904121Y-86794689D02*
X83146026Y-86794689D01*
X83170217Y-87036594D01*
X83146026Y-87012403D01*
X83097645Y-86988213D01*
X82976693Y-86988213D01*
X82928312Y-87012403D01*
X82904121Y-87036594D01*
X82879931Y-87084975D01*
X82879931Y-87205927D01*
X82904121Y-87254308D01*
X82928312Y-87278499D01*
X82976693Y-87302689D01*
X83097645Y-87302689D01*
X83146026Y-87278499D01*
X83170217Y-87254308D01*
X82734788Y-86794689D02*
X82565455Y-87302689D01*
X82396121Y-86794689D01*
X84911931Y-74578499D02*
X84839360Y-74602689D01*
X84718407Y-74602689D01*
X84670026Y-74578499D01*
X84645836Y-74554308D01*
X84621645Y-74505927D01*
X84621645Y-74457546D01*
X84645836Y-74409165D01*
X84670026Y-74384975D01*
X84718407Y-74360784D01*
X84815169Y-74336594D01*
X84863550Y-74312403D01*
X84887740Y-74288213D01*
X84911931Y-74239832D01*
X84911931Y-74191451D01*
X84887740Y-74143070D01*
X84863550Y-74118880D01*
X84815169Y-74094689D01*
X84694217Y-74094689D01*
X84621645Y-74118880D01*
X84403931Y-74602689D02*
X84403931Y-74094689D01*
X84282979Y-74094689D01*
X84210407Y-74118880D01*
X84162026Y-74167260D01*
X84137836Y-74215641D01*
X84113645Y-74312403D01*
X84113645Y-74384975D01*
X84137836Y-74481737D01*
X84162026Y-74530118D01*
X84210407Y-74578499D01*
X84282979Y-74602689D01*
X84403931Y-74602689D01*
X84016883Y-74651070D02*
X83629836Y-74651070D01*
X83508883Y-74602689D02*
X83508883Y-74094689D01*
X83387931Y-74094689D01*
X83315360Y-74118880D01*
X83266979Y-74167260D01*
X83242788Y-74215641D01*
X83218598Y-74312403D01*
X83218598Y-74384975D01*
X83242788Y-74481737D01*
X83266979Y-74530118D01*
X83315360Y-74578499D01*
X83387931Y-74602689D01*
X83508883Y-74602689D01*
X82904121Y-74094689D02*
X82855740Y-74094689D01*
X82807360Y-74118880D01*
X82783169Y-74143070D01*
X82758979Y-74191451D01*
X82734788Y-74288213D01*
X82734788Y-74409165D01*
X82758979Y-74505927D01*
X82783169Y-74554308D01*
X82807360Y-74578499D01*
X82855740Y-74602689D01*
X82904121Y-74602689D01*
X82952502Y-74578499D01*
X82976693Y-74554308D01*
X83000883Y-74505927D01*
X83025074Y-74409165D01*
X83025074Y-74288213D01*
X83000883Y-74191451D01*
X82976693Y-74143070D01*
X82952502Y-74118880D01*
X82904121Y-74094689D01*
X84899836Y-69498499D02*
X84827264Y-69522689D01*
X84706312Y-69522689D01*
X84657931Y-69498499D01*
X84633740Y-69474308D01*
X84609550Y-69425927D01*
X84609550Y-69377546D01*
X84633740Y-69329165D01*
X84657931Y-69304975D01*
X84706312Y-69280784D01*
X84803074Y-69256594D01*
X84851455Y-69232403D01*
X84875645Y-69208213D01*
X84899836Y-69159832D01*
X84899836Y-69111451D01*
X84875645Y-69063070D01*
X84851455Y-69038880D01*
X84803074Y-69014689D01*
X84682121Y-69014689D01*
X84609550Y-69038880D01*
X84391836Y-69522689D02*
X84391836Y-69014689D01*
X84270883Y-69014689D01*
X84198312Y-69038880D01*
X84149931Y-69087260D01*
X84125740Y-69135641D01*
X84101550Y-69232403D01*
X84101550Y-69304975D01*
X84125740Y-69401737D01*
X84149931Y-69450118D01*
X84198312Y-69498499D01*
X84270883Y-69522689D01*
X84391836Y-69522689D01*
X84004788Y-69571070D02*
X83617740Y-69571070D01*
X83520979Y-69498499D02*
X83448407Y-69522689D01*
X83327455Y-69522689D01*
X83279074Y-69498499D01*
X83254883Y-69474308D01*
X83230693Y-69425927D01*
X83230693Y-69377546D01*
X83254883Y-69329165D01*
X83279074Y-69304975D01*
X83327455Y-69280784D01*
X83424217Y-69256594D01*
X83472598Y-69232403D01*
X83496788Y-69208213D01*
X83520979Y-69159832D01*
X83520979Y-69111451D01*
X83496788Y-69063070D01*
X83472598Y-69038880D01*
X83424217Y-69014689D01*
X83303264Y-69014689D01*
X83230693Y-69038880D01*
X83037169Y-69498499D02*
X82964598Y-69522689D01*
X82843645Y-69522689D01*
X82795264Y-69498499D01*
X82771074Y-69474308D01*
X82746883Y-69425927D01*
X82746883Y-69377546D01*
X82771074Y-69329165D01*
X82795264Y-69304975D01*
X82843645Y-69280784D01*
X82940407Y-69256594D01*
X82988788Y-69232403D01*
X83012979Y-69208213D01*
X83037169Y-69159832D01*
X83037169Y-69111451D01*
X83012979Y-69063070D01*
X82988788Y-69038880D01*
X82940407Y-69014689D01*
X82819455Y-69014689D01*
X82746883Y-69038880D01*
X80110121Y-84254689D02*
X79819836Y-84254689D01*
X79964979Y-84762689D02*
X79964979Y-84254689D01*
X79698883Y-84762689D02*
X79432788Y-84424022D01*
X79698883Y-84424022D02*
X79432788Y-84762689D01*
X86399645Y-84738499D02*
X86327074Y-84762689D01*
X86206121Y-84762689D01*
X86157740Y-84738499D01*
X86133550Y-84714308D01*
X86109360Y-84665927D01*
X86109360Y-84617546D01*
X86133550Y-84569165D01*
X86157740Y-84544975D01*
X86206121Y-84520784D01*
X86302883Y-84496594D01*
X86351264Y-84472403D01*
X86375455Y-84448213D01*
X86399645Y-84399832D01*
X86399645Y-84351451D01*
X86375455Y-84303070D01*
X86351264Y-84278880D01*
X86302883Y-84254689D01*
X86181931Y-84254689D01*
X86109360Y-84278880D01*
X85891645Y-84496594D02*
X85722312Y-84496594D01*
X85649740Y-84762689D02*
X85891645Y-84762689D01*
X85891645Y-84254689D01*
X85649740Y-84254689D01*
X85432026Y-84762689D02*
X85432026Y-84254689D01*
X85141740Y-84762689D01*
X85141740Y-84254689D01*
X84924026Y-84738499D02*
X84851455Y-84762689D01*
X84730502Y-84762689D01*
X84682121Y-84738499D01*
X84657931Y-84714308D01*
X84633740Y-84665927D01*
X84633740Y-84617546D01*
X84657931Y-84569165D01*
X84682121Y-84544975D01*
X84730502Y-84520784D01*
X84827264Y-84496594D01*
X84875645Y-84472403D01*
X84899836Y-84448213D01*
X84924026Y-84399832D01*
X84924026Y-84351451D01*
X84899836Y-84303070D01*
X84875645Y-84278880D01*
X84827264Y-84254689D01*
X84706312Y-84254689D01*
X84633740Y-84278880D01*
X84319264Y-84254689D02*
X84222502Y-84254689D01*
X84174121Y-84278880D01*
X84125740Y-84327260D01*
X84101550Y-84424022D01*
X84101550Y-84593356D01*
X84125740Y-84690118D01*
X84174121Y-84738499D01*
X84222502Y-84762689D01*
X84319264Y-84762689D01*
X84367645Y-84738499D01*
X84416026Y-84690118D01*
X84440217Y-84593356D01*
X84440217Y-84424022D01*
X84416026Y-84327260D01*
X84367645Y-84278880D01*
X84319264Y-84254689D01*
X83593550Y-84762689D02*
X83762883Y-84520784D01*
X83883836Y-84762689D02*
X83883836Y-84254689D01*
X83690312Y-84254689D01*
X83641931Y-84278880D01*
X83617740Y-84303070D01*
X83593550Y-84351451D01*
X83593550Y-84424022D01*
X83617740Y-84472403D01*
X83641931Y-84496594D01*
X83690312Y-84520784D01*
X83883836Y-84520784D01*
X83496788Y-84811070D02*
X83109740Y-84811070D01*
X83061360Y-84254689D02*
X82892026Y-84762689D01*
X82722693Y-84254689D01*
X82553360Y-84762689D02*
X82553360Y-84254689D01*
X82359836Y-84254689D01*
X82311455Y-84278880D01*
X82287264Y-84303070D01*
X82263074Y-84351451D01*
X82263074Y-84424022D01*
X82287264Y-84472403D01*
X82311455Y-84496594D01*
X82359836Y-84520784D01*
X82553360Y-84520784D01*
X80388312Y-79174689D02*
X80073836Y-79174689D01*
X80243169Y-79368213D01*
X80170598Y-79368213D01*
X80122217Y-79392403D01*
X80098026Y-79416594D01*
X80073836Y-79464975D01*
X80073836Y-79585927D01*
X80098026Y-79634308D01*
X80122217Y-79658499D01*
X80170598Y-79682689D01*
X80315740Y-79682689D01*
X80364121Y-79658499D01*
X80388312Y-79634308D01*
X79928693Y-79174689D02*
X79759360Y-79682689D01*
X79590026Y-79174689D01*
X79469074Y-79174689D02*
X79154598Y-79174689D01*
X79323931Y-79368213D01*
X79251360Y-79368213D01*
X79202979Y-79392403D01*
X79178788Y-79416594D01*
X79154598Y-79464975D01*
X79154598Y-79585927D01*
X79178788Y-79634308D01*
X79202979Y-79658499D01*
X79251360Y-79682689D01*
X79396502Y-79682689D01*
X79444883Y-79658499D01*
X79469074Y-79634308D01*
X80146407Y-74118880D02*
X80194788Y-74094689D01*
X80267360Y-74094689D01*
X80339931Y-74118880D01*
X80388312Y-74167260D01*
X80412502Y-74215641D01*
X80436693Y-74312403D01*
X80436693Y-74384975D01*
X80412502Y-74481737D01*
X80388312Y-74530118D01*
X80339931Y-74578499D01*
X80267360Y-74602689D01*
X80218979Y-74602689D01*
X80146407Y-74578499D01*
X80122217Y-74554308D01*
X80122217Y-74384975D01*
X80218979Y-74384975D01*
X79904502Y-74602689D02*
X79904502Y-74094689D01*
X79614217Y-74602689D01*
X79614217Y-74094689D01*
X79372312Y-74602689D02*
X79372312Y-74094689D01*
X79251360Y-74094689D01*
X79178788Y-74118880D01*
X79130407Y-74167260D01*
X79106217Y-74215641D01*
X79082026Y-74312403D01*
X79082026Y-74384975D01*
X79106217Y-74481737D01*
X79130407Y-74530118D01*
X79178788Y-74578499D01*
X79251360Y-74602689D01*
X79372312Y-74602689D01*
X80158502Y-77142689D02*
X80158502Y-76634689D01*
X79868217Y-77142689D01*
X79868217Y-76634689D01*
X79336026Y-77094308D02*
X79360217Y-77118499D01*
X79432788Y-77142689D01*
X79481169Y-77142689D01*
X79553740Y-77118499D01*
X79602121Y-77070118D01*
X79626312Y-77021737D01*
X79650502Y-76924975D01*
X79650502Y-76852403D01*
X79626312Y-76755641D01*
X79602121Y-76707260D01*
X79553740Y-76658880D01*
X79481169Y-76634689D01*
X79432788Y-76634689D01*
X79360217Y-76658880D01*
X79336026Y-76683070D01*
X86411740Y-82198499D02*
X86339169Y-82222689D01*
X86218217Y-82222689D01*
X86169836Y-82198499D01*
X86145645Y-82174308D01*
X86121455Y-82125927D01*
X86121455Y-82077546D01*
X86145645Y-82029165D01*
X86169836Y-82004975D01*
X86218217Y-81980784D01*
X86314979Y-81956594D01*
X86363360Y-81932403D01*
X86387550Y-81908213D01*
X86411740Y-81859832D01*
X86411740Y-81811451D01*
X86387550Y-81763070D01*
X86363360Y-81738880D01*
X86314979Y-81714689D01*
X86194026Y-81714689D01*
X86121455Y-81738880D01*
X85903740Y-81956594D02*
X85734407Y-81956594D01*
X85661836Y-82222689D02*
X85903740Y-82222689D01*
X85903740Y-81714689D01*
X85661836Y-81714689D01*
X85444121Y-82222689D02*
X85444121Y-81714689D01*
X85153836Y-82222689D01*
X85153836Y-81714689D01*
X84936121Y-82198499D02*
X84863550Y-82222689D01*
X84742598Y-82222689D01*
X84694217Y-82198499D01*
X84670026Y-82174308D01*
X84645836Y-82125927D01*
X84645836Y-82077546D01*
X84670026Y-82029165D01*
X84694217Y-82004975D01*
X84742598Y-81980784D01*
X84839360Y-81956594D01*
X84887740Y-81932403D01*
X84911931Y-81908213D01*
X84936121Y-81859832D01*
X84936121Y-81811451D01*
X84911931Y-81763070D01*
X84887740Y-81738880D01*
X84839360Y-81714689D01*
X84718407Y-81714689D01*
X84645836Y-81738880D01*
X84331360Y-81714689D02*
X84234598Y-81714689D01*
X84186217Y-81738880D01*
X84137836Y-81787260D01*
X84113645Y-81884022D01*
X84113645Y-82053356D01*
X84137836Y-82150118D01*
X84186217Y-82198499D01*
X84234598Y-82222689D01*
X84331360Y-82222689D01*
X84379740Y-82198499D01*
X84428121Y-82150118D01*
X84452312Y-82053356D01*
X84452312Y-81884022D01*
X84428121Y-81787260D01*
X84379740Y-81738880D01*
X84331360Y-81714689D01*
X83605645Y-82222689D02*
X83774979Y-81980784D01*
X83895931Y-82222689D02*
X83895931Y-81714689D01*
X83702407Y-81714689D01*
X83654026Y-81738880D01*
X83629836Y-81763070D01*
X83605645Y-81811451D01*
X83605645Y-81884022D01*
X83629836Y-81932403D01*
X83654026Y-81956594D01*
X83702407Y-81980784D01*
X83895931Y-81980784D01*
X83508883Y-82271070D02*
X83121836Y-82271070D01*
X83073455Y-81714689D02*
X82904121Y-82222689D01*
X82734788Y-81714689D01*
X82565455Y-82222689D02*
X82565455Y-81714689D01*
X82275169Y-82222689D01*
X82275169Y-81714689D01*
X80376217Y-69498499D02*
X80303645Y-69522689D01*
X80182693Y-69522689D01*
X80134312Y-69498499D01*
X80110121Y-69474308D01*
X80085931Y-69425927D01*
X80085931Y-69377546D01*
X80110121Y-69329165D01*
X80134312Y-69304975D01*
X80182693Y-69280784D01*
X80279455Y-69256594D01*
X80327836Y-69232403D01*
X80352026Y-69208213D01*
X80376217Y-69159832D01*
X80376217Y-69111451D01*
X80352026Y-69063070D01*
X80327836Y-69038880D01*
X80279455Y-69014689D01*
X80158502Y-69014689D01*
X80085931Y-69038880D01*
X79868217Y-69522689D02*
X79868217Y-69014689D01*
X79747264Y-69014689D01*
X79674693Y-69038880D01*
X79626312Y-69087260D01*
X79602121Y-69135641D01*
X79577931Y-69232403D01*
X79577931Y-69304975D01*
X79602121Y-69401737D01*
X79626312Y-69450118D01*
X79674693Y-69498499D01*
X79747264Y-69522689D01*
X79868217Y-69522689D01*
X79384407Y-69377546D02*
X79142502Y-69377546D01*
X79432788Y-69522689D02*
X79263455Y-69014689D01*
X79094121Y-69522689D01*
X79744240Y-82222689D02*
X79913574Y-81980784D01*
X80034526Y-82222689D02*
X80034526Y-81714689D01*
X79841002Y-81714689D01*
X79792621Y-81738880D01*
X79768431Y-81763070D01*
X79744240Y-81811451D01*
X79744240Y-81884022D01*
X79768431Y-81932403D01*
X79792621Y-81956594D01*
X79841002Y-81980784D01*
X80034526Y-81980784D01*
X79574907Y-82222689D02*
X79308812Y-81884022D01*
X79574907Y-81884022D02*
X79308812Y-82222689D01*
X84663979Y-72038499D02*
X84591407Y-72062689D01*
X84470455Y-72062689D01*
X84422074Y-72038499D01*
X84397883Y-72014308D01*
X84373693Y-71965927D01*
X84373693Y-71917546D01*
X84397883Y-71869165D01*
X84422074Y-71844975D01*
X84470455Y-71820784D01*
X84567217Y-71796594D01*
X84615598Y-71772403D01*
X84639788Y-71748213D01*
X84663979Y-71699832D01*
X84663979Y-71651451D01*
X84639788Y-71603070D01*
X84615598Y-71578880D01*
X84567217Y-71554689D01*
X84446264Y-71554689D01*
X84373693Y-71578880D01*
X84155979Y-72062689D02*
X84155979Y-71554689D01*
X84035026Y-71554689D01*
X83962455Y-71578880D01*
X83914074Y-71627260D01*
X83889883Y-71675641D01*
X83865693Y-71772403D01*
X83865693Y-71844975D01*
X83889883Y-71941737D01*
X83914074Y-71990118D01*
X83962455Y-72038499D01*
X84035026Y-72062689D01*
X84155979Y-72062689D01*
X83768931Y-72111070D02*
X83381883Y-72111070D01*
X83260931Y-72062689D02*
X83260931Y-71554689D01*
X83139979Y-71554689D01*
X83067407Y-71578880D01*
X83019026Y-71627260D01*
X82994836Y-71675641D01*
X82970645Y-71772403D01*
X82970645Y-71844975D01*
X82994836Y-71941737D01*
X83019026Y-71990118D01*
X83067407Y-72038499D01*
X83139979Y-72062689D01*
X83260931Y-72062689D01*
X82752931Y-72062689D02*
X82752931Y-71554689D01*
X85165931Y-77118499D02*
X85093360Y-77142689D01*
X84972407Y-77142689D01*
X84924026Y-77118499D01*
X84899836Y-77094308D01*
X84875645Y-77045927D01*
X84875645Y-76997546D01*
X84899836Y-76949165D01*
X84924026Y-76924975D01*
X84972407Y-76900784D01*
X85069169Y-76876594D01*
X85117550Y-76852403D01*
X85141740Y-76828213D01*
X85165931Y-76779832D01*
X85165931Y-76731451D01*
X85141740Y-76683070D01*
X85117550Y-76658880D01*
X85069169Y-76634689D01*
X84948217Y-76634689D01*
X84875645Y-76658880D01*
X84657931Y-77142689D02*
X84657931Y-76634689D01*
X84536979Y-76634689D01*
X84464407Y-76658880D01*
X84416026Y-76707260D01*
X84391836Y-76755641D01*
X84367645Y-76852403D01*
X84367645Y-76924975D01*
X84391836Y-77021737D01*
X84416026Y-77070118D01*
X84464407Y-77118499D01*
X84536979Y-77142689D01*
X84657931Y-77142689D01*
X84270883Y-77191070D02*
X83883836Y-77191070D01*
X83787074Y-77118499D02*
X83714502Y-77142689D01*
X83593550Y-77142689D01*
X83545169Y-77118499D01*
X83520979Y-77094308D01*
X83496788Y-77045927D01*
X83496788Y-76997546D01*
X83520979Y-76949165D01*
X83545169Y-76924975D01*
X83593550Y-76900784D01*
X83690312Y-76876594D01*
X83738693Y-76852403D01*
X83762883Y-76828213D01*
X83787074Y-76779832D01*
X83787074Y-76731451D01*
X83762883Y-76683070D01*
X83738693Y-76658880D01*
X83690312Y-76634689D01*
X83569360Y-76634689D01*
X83496788Y-76658880D01*
X82988788Y-77094308D02*
X83012979Y-77118499D01*
X83085550Y-77142689D01*
X83133931Y-77142689D01*
X83206502Y-77118499D01*
X83254883Y-77070118D01*
X83279074Y-77021737D01*
X83303264Y-76924975D01*
X83303264Y-76852403D01*
X83279074Y-76755641D01*
X83254883Y-76707260D01*
X83206502Y-76658880D01*
X83133931Y-76634689D01*
X83085550Y-76634689D01*
X83012979Y-76658880D01*
X82988788Y-76683070D01*
X82771074Y-77142689D02*
X82771074Y-76634689D01*
X82480788Y-77142689D02*
X82698502Y-76852403D01*
X82480788Y-76634689D02*
X82771074Y-76924975D01*
X83629836Y-79682689D02*
X83920121Y-79682689D01*
X83774979Y-79682689D02*
X83774979Y-79174689D01*
X83823360Y-79247260D01*
X83871740Y-79295641D01*
X83920121Y-79319832D01*
X83436312Y-79223070D02*
X83412121Y-79198880D01*
X83363740Y-79174689D01*
X83242788Y-79174689D01*
X83194407Y-79198880D01*
X83170217Y-79223070D01*
X83146026Y-79271451D01*
X83146026Y-79319832D01*
X83170217Y-79392403D01*
X83460502Y-79682689D01*
X83146026Y-79682689D01*
X83000883Y-79174689D02*
X82831550Y-79682689D01*
X82662217Y-79174689D01*
D10*
X97309860Y-125597451D02*
X98167002Y-125597451D01*
X97738431Y-125597451D02*
X97550931Y-124097451D01*
X97720574Y-124311737D01*
X97881288Y-124454594D01*
X98033074Y-124526022D01*
X96568788Y-124240308D02*
X96488431Y-124168880D01*
X96336645Y-124097451D01*
X95979502Y-124097451D01*
X95845574Y-124168880D01*
X95783074Y-124240308D01*
X95729502Y-124383165D01*
X95747360Y-124526022D01*
X95845574Y-124740308D01*
X96809860Y-125597451D01*
X95881288Y-125597451D01*
X95265217Y-124097451D02*
X94952717Y-125597451D01*
X94265217Y-124097451D01*
X92809860Y-125597451D02*
X92622360Y-124097451D01*
X92050931Y-124097451D01*
X91917002Y-124168880D01*
X91854502Y-124240308D01*
X91800931Y-124383165D01*
X91827717Y-124597451D01*
X91917002Y-124740308D01*
X91997360Y-124811737D01*
X92149145Y-124883165D01*
X92720574Y-124883165D01*
X91095574Y-125597451D02*
X91229502Y-125526022D01*
X91292002Y-125454594D01*
X91345574Y-125311737D01*
X91292002Y-124883165D01*
X91202717Y-124740308D01*
X91122360Y-124668880D01*
X90970574Y-124597451D01*
X90756288Y-124597451D01*
X90622360Y-124668880D01*
X90559860Y-124740308D01*
X90506288Y-124883165D01*
X90559860Y-125311737D01*
X90649145Y-125454594D01*
X90729502Y-125526022D01*
X90881288Y-125597451D01*
X91095574Y-125597451D01*
X89970574Y-124597451D02*
X89809860Y-125597451D01*
X89434860Y-124883165D01*
X89238431Y-125597451D01*
X88827717Y-124597451D01*
X87800931Y-125526022D02*
X87952717Y-125597451D01*
X88238431Y-125597451D01*
X88372360Y-125526022D01*
X88425931Y-125383165D01*
X88354502Y-124811737D01*
X88265217Y-124668880D01*
X88113431Y-124597451D01*
X87827717Y-124597451D01*
X87693788Y-124668880D01*
X87640217Y-124811737D01*
X87658074Y-124954594D01*
X88390217Y-125097451D01*
X87095574Y-125597451D02*
X86970574Y-124597451D01*
X87006288Y-124883165D02*
X86917002Y-124740308D01*
X86836645Y-124668880D01*
X86684860Y-124597451D01*
X86542002Y-124597451D01*
D12*
%TO.C,J3*%
X77475360Y-69356380D02*
G75*
G03*
X77475360Y-69356380I-50000J0D01*
G01*
D13*
X75630360Y-66181380D02*
X66360360Y-66181380D01*
X66360360Y-90311380D02*
X75630360Y-90311380D01*
D14*
%TO.C,J1*%
X90897360Y-127314880D02*
X90897360Y-126714880D01*
X92497360Y-127314880D02*
X90897360Y-127314880D01*
X92497360Y-126714880D02*
X92497360Y-127314880D01*
X93437360Y-127314880D02*
X93437360Y-126714880D01*
X95037360Y-127314880D02*
X93437360Y-127314880D01*
X95037360Y-126714880D02*
X95037360Y-127314880D01*
X91947360Y-132734880D02*
X91947360Y-131734880D01*
X93987360Y-132734880D02*
X93987360Y-131734880D01*
X91947360Y-131204880D02*
X91697360Y-131734880D01*
X93987360Y-131204880D02*
X91947360Y-131204880D01*
X94237360Y-131734880D02*
X93987360Y-131204880D01*
X91697360Y-131734880D02*
X91697360Y-132734880D01*
X94237360Y-131734880D02*
X91697360Y-131734880D01*
X94237360Y-132734880D02*
X94237360Y-131734880D01*
X95907360Y-127744880D02*
X95907360Y-131744880D01*
X90317360Y-126714880D02*
X95617360Y-126714880D01*
X90317360Y-132734880D02*
X90317360Y-126714880D01*
X95617360Y-132734880D02*
X90317360Y-132734880D01*
X95617360Y-126714880D02*
X95617360Y-132734880D01*
D15*
%TO.C,U1*%
G36*
X101417860Y-94039247D02*
G01*
X114727459Y-94039247D01*
X114727459Y-92290333D01*
X112653015Y-92290333D01*
X112629787Y-92309605D01*
X112613610Y-92322026D01*
X112587192Y-92341224D01*
X112554316Y-92364487D01*
X112521893Y-92386960D01*
X112486331Y-92411084D01*
X112455089Y-92431471D01*
X112424198Y-92450503D01*
X112389692Y-92470560D01*
X112347602Y-92494022D01*
X112301759Y-92519040D01*
X112246500Y-92546505D01*
X112180245Y-92575396D01*
X112107211Y-92604207D01*
X112031615Y-92631430D01*
X111957675Y-92655558D01*
X111889608Y-92675083D01*
X111831630Y-92688500D01*
X111823393Y-92690010D01*
X111801779Y-92694323D01*
X111789526Y-92697309D01*
X111772715Y-92701056D01*
X111749047Y-92705293D01*
X111747193Y-92705589D01*
X111720121Y-92710016D01*
X111696487Y-92714109D01*
X111696393Y-92714126D01*
X111676371Y-92717135D01*
X111647026Y-92720835D01*
X111624426Y-92723375D01*
X111597062Y-92726660D01*
X111577446Y-92729728D01*
X111570601Y-92731572D01*
X111561360Y-92732491D01*
X111538027Y-92732961D01*
X111503439Y-92733033D01*
X111460431Y-92732756D01*
X111411836Y-92732178D01*
X111360492Y-92731350D01*
X111309232Y-92730321D01*
X111260892Y-92729140D01*
X111218307Y-92727857D01*
X111184313Y-92726520D01*
X111161744Y-92725180D01*
X111154526Y-92724327D01*
X111135825Y-92720813D01*
X111106469Y-92715825D01*
X111072550Y-92710393D01*
X111069860Y-92709976D01*
X111012899Y-92699668D01*
X110948988Y-92685591D01*
X110881854Y-92668795D01*
X110815224Y-92650331D01*
X110752827Y-92631248D01*
X110698390Y-92612597D01*
X110655640Y-92595428D01*
X110644410Y-92590104D01*
X110624982Y-92581069D01*
X110613759Y-92577234D01*
X110612660Y-92577567D01*
X110605709Y-92576351D01*
X110586674Y-92568323D01*
X110558280Y-92554883D01*
X110523252Y-92537429D01*
X110484315Y-92517361D01*
X110444195Y-92496078D01*
X110405615Y-92474979D01*
X110371302Y-92455464D01*
X110350018Y-92442715D01*
X110196855Y-92338862D01*
X110056705Y-92224695D01*
X109929217Y-92099781D01*
X109814036Y-91963688D01*
X109710810Y-91815984D01*
X109619186Y-91656236D01*
X109538810Y-91484011D01*
X109510903Y-91414580D01*
X109503428Y-91394271D01*
X109499470Y-91381765D01*
X109499293Y-91380714D01*
X109496450Y-91370626D01*
X109489839Y-91352031D01*
X109489480Y-91351080D01*
X109475738Y-91309756D01*
X109460860Y-91256610D01*
X109446021Y-91196596D01*
X109432397Y-91134667D01*
X109421161Y-91075777D01*
X109415179Y-91037814D01*
X109411388Y-91010699D01*
X109406457Y-90975641D01*
X109402683Y-90948914D01*
X109400659Y-90925358D01*
X109399148Y-90889040D01*
X109398134Y-90843003D01*
X109397600Y-90790287D01*
X109397529Y-90733935D01*
X109397903Y-90676988D01*
X109398705Y-90622488D01*
X109399918Y-90573477D01*
X109401525Y-90532996D01*
X109403509Y-90504087D01*
X109405261Y-90491714D01*
X109409557Y-90469884D01*
X109414042Y-90441260D01*
X109415224Y-90432447D01*
X109420261Y-90401151D01*
X109428528Y-90358467D01*
X109438920Y-90309375D01*
X109450328Y-90258856D01*
X109461648Y-90211889D01*
X109471773Y-90173456D01*
X109475781Y-90159831D01*
X109483668Y-90134411D01*
X109489281Y-90116294D01*
X109491002Y-90110714D01*
X109495621Y-90097630D01*
X109505390Y-90072056D01*
X109520809Y-90032699D01*
X109530132Y-90009114D01*
X109542164Y-89978360D01*
X109551640Y-89953435D01*
X109556899Y-89938728D01*
X109557364Y-89937147D01*
X109565997Y-89913745D01*
X109582569Y-89878972D01*
X109605506Y-89835462D01*
X109633234Y-89785850D01*
X109664177Y-89732773D01*
X109696760Y-89678866D01*
X109729408Y-89626764D01*
X109760547Y-89579102D01*
X109788602Y-89538517D01*
X109811998Y-89507643D01*
X109818885Y-89499516D01*
X109839038Y-89476751D01*
X109940154Y-89576470D01*
X110041269Y-89676190D01*
X109975902Y-89772802D01*
X109893433Y-89907822D01*
X109822954Y-90050563D01*
X109765571Y-90198156D01*
X109722392Y-90347736D01*
X109694524Y-90496433D01*
X109693472Y-90504414D01*
X109685275Y-90586257D01*
X109680623Y-90673859D01*
X109679500Y-90762583D01*
X109681890Y-90847793D01*
X109687775Y-90924853D01*
X109695169Y-90978547D01*
X109699664Y-91005027D01*
X109702884Y-91025114D01*
X109707400Y-91051307D01*
X109710560Y-91067447D01*
X109754216Y-91235831D01*
X109812946Y-91396916D01*
X109886332Y-91550040D01*
X109973960Y-91694542D01*
X110075415Y-91829759D01*
X110190283Y-91955030D01*
X110318146Y-92069692D01*
X110359707Y-92102482D01*
X110394816Y-92128000D01*
X110436916Y-92156504D01*
X110482593Y-92185897D01*
X110528431Y-92214085D01*
X110571015Y-92238971D01*
X110606931Y-92258462D01*
X110632764Y-92270461D01*
X110634560Y-92271132D01*
X110653519Y-92279658D01*
X110663155Y-92287258D01*
X110663460Y-92288348D01*
X110670223Y-92294571D01*
X110674569Y-92295114D01*
X110688432Y-92298601D01*
X110710647Y-92307416D01*
X110721763Y-92312548D01*
X110743282Y-92321709D01*
X110776167Y-92334269D01*
X110816328Y-92348816D01*
X110859672Y-92363938D01*
X110902108Y-92378224D01*
X110939545Y-92390263D01*
X110967891Y-92398642D01*
X110979494Y-92401457D01*
X110996627Y-92404740D01*
X111024648Y-92410116D01*
X111057817Y-92416483D01*
X111061393Y-92417169D01*
X111153361Y-92433106D01*
X111236397Y-92443472D01*
X111317302Y-92448958D01*
X111387360Y-92450301D01*
X111424425Y-92449670D01*
X111468575Y-92447929D01*
X111515329Y-92445368D01*
X111560208Y-92442274D01*
X111598734Y-92438935D01*
X111626427Y-92435638D01*
X111632893Y-92434515D01*
X111652322Y-92431124D01*
X111678526Y-92427173D01*
X111683693Y-92426455D01*
X111716260Y-92420693D01*
X111759867Y-92411158D01*
X111809389Y-92399113D01*
X111859698Y-92385819D01*
X111905666Y-92372538D01*
X111916526Y-92369163D01*
X112028820Y-92328138D01*
X112144763Y-92275689D01*
X112258786Y-92214595D01*
X112365319Y-92147637D01*
X112377735Y-92139060D01*
X112407116Y-92118905D01*
X112431224Y-92103050D01*
X112446781Y-92093613D01*
X112450652Y-92091914D01*
X112458127Y-92097626D01*
X112475365Y-92113432D01*
X112500274Y-92137332D01*
X112530762Y-92167330D01*
X112554538Y-92191124D01*
X112653015Y-92290333D01*
X114727459Y-92290333D01*
X114727459Y-90764542D01*
X113393001Y-90764542D01*
X113392113Y-90826206D01*
X113390323Y-90881128D01*
X113387640Y-90924708D01*
X113386964Y-90931980D01*
X113363531Y-91094067D01*
X113326375Y-91256157D01*
X113276606Y-91414728D01*
X113215335Y-91566259D01*
X113143669Y-91707228D01*
X113141566Y-91710914D01*
X113122924Y-91742621D01*
X113100684Y-91779112D01*
X113076770Y-91817388D01*
X113053107Y-91854448D01*
X113031621Y-91887292D01*
X113014235Y-91912919D01*
X113002874Y-91928330D01*
X113000347Y-91931047D01*
X112992576Y-91940175D01*
X112979690Y-91957558D01*
X112975992Y-91962797D01*
X112962444Y-91980260D01*
X112952459Y-91989745D01*
X112950867Y-91990314D01*
X112943215Y-91984611D01*
X112925785Y-91968826D01*
X112900675Y-91944948D01*
X112869986Y-91914962D01*
X112845486Y-91890579D01*
X112746011Y-91790844D01*
X112784296Y-91738229D01*
X112874744Y-91599675D01*
X112951672Y-91451618D01*
X113014533Y-91295438D01*
X113062780Y-91132514D01*
X113095867Y-90964225D01*
X113098663Y-90944680D01*
X113102353Y-90905718D01*
X113104723Y-90854798D01*
X113105838Y-90795551D01*
X113105763Y-90731604D01*
X113104564Y-90666587D01*
X113102307Y-90604129D01*
X113099057Y-90547857D01*
X113094881Y-90501401D01*
X113090080Y-90469503D01*
X113086000Y-90448318D01*
X113081539Y-90422937D01*
X113076836Y-90396922D01*
X113072379Y-90375297D01*
X113067283Y-90353026D01*
X113064647Y-90341398D01*
X113052296Y-90292707D01*
X113035818Y-90236182D01*
X113017277Y-90178336D01*
X112998737Y-90125682D01*
X112986185Y-90093781D01*
X112963042Y-90040718D01*
X112939337Y-89990738D01*
X112913164Y-89940286D01*
X112882619Y-89885804D01*
X112845795Y-89823736D01*
X112811646Y-89768024D01*
X112796145Y-89745657D01*
X112772143Y-89714144D01*
X112742470Y-89676924D01*
X112709955Y-89637436D01*
X112677429Y-89599118D01*
X112647722Y-89565407D01*
X112624253Y-89540341D01*
X112512983Y-89437515D01*
X107979526Y-89437515D01*
X107979526Y-92735790D01*
X107837710Y-92733469D01*
X107695893Y-92731147D01*
X107695409Y-91084103D01*
X107694925Y-89437058D01*
X107837226Y-89437287D01*
X107979526Y-89437515D01*
X112512983Y-89437515D01*
X112495960Y-89421784D01*
X112359478Y-89318041D01*
X112214710Y-89229053D01*
X112061560Y-89154760D01*
X111913119Y-89099318D01*
X111878926Y-89088541D01*
X111848435Y-89079458D01*
X111827195Y-89073708D01*
X111824219Y-89073034D01*
X111804484Y-89068712D01*
X111793759Y-89066126D01*
X111761013Y-89058453D01*
X111716403Y-89049700D01*
X111664878Y-89040775D01*
X111611392Y-89032583D01*
X111607493Y-89032031D01*
X111571446Y-89028416D01*
X111523458Y-89025687D01*
X111467327Y-89023857D01*
X111406849Y-89022936D01*
X111345824Y-89022936D01*
X111288047Y-89023869D01*
X111237317Y-89025747D01*
X111197430Y-89028580D01*
X111180376Y-89030729D01*
X111109651Y-89042638D01*
X111053063Y-89052889D01*
X111011413Y-89061327D01*
X110985503Y-89067796D01*
X110980713Y-89069407D01*
X110965355Y-89074173D01*
X110959793Y-89074034D01*
X110952341Y-89075374D01*
X110932042Y-89081472D01*
X110901979Y-89091349D01*
X110865237Y-89104027D01*
X110864543Y-89104272D01*
X110826656Y-89117587D01*
X110794412Y-89128852D01*
X110771283Y-89136859D01*
X110760826Y-89140374D01*
X110725847Y-89153445D01*
X110680261Y-89174298D01*
X110627389Y-89201085D01*
X110570549Y-89231957D01*
X110513064Y-89265064D01*
X110458253Y-89298560D01*
X110409437Y-89330594D01*
X110376007Y-89354629D01*
X110338320Y-89383322D01*
X110236307Y-89280946D01*
X110199305Y-89243657D01*
X110172945Y-89216411D01*
X110155838Y-89197334D01*
X110146599Y-89184551D01*
X110143839Y-89176185D01*
X110146172Y-89170363D01*
X110151226Y-89165935D01*
X110171276Y-89150147D01*
X110185998Y-89137816D01*
X110215174Y-89115179D01*
X110256253Y-89087018D01*
X110305962Y-89055318D01*
X110361028Y-89022067D01*
X110367215Y-89018514D01*
X109156393Y-89018514D01*
X107840732Y-89018514D01*
X107659748Y-89018489D01*
X107495030Y-89018411D01*
X107345909Y-89018275D01*
X107211719Y-89018076D01*
X107091792Y-89017807D01*
X106985459Y-89017464D01*
X106892054Y-89017041D01*
X106810908Y-89016533D01*
X106741354Y-89015934D01*
X106682724Y-89015240D01*
X106634351Y-89014444D01*
X106595567Y-89013542D01*
X106565704Y-89012528D01*
X106544094Y-89011397D01*
X106530070Y-89010143D01*
X106522965Y-89008761D01*
X106521759Y-89007931D01*
X106520660Y-88996145D01*
X106519813Y-88970624D01*
X106519276Y-88934564D01*
X106519108Y-88891162D01*
X106519188Y-88866114D01*
X106519930Y-88734881D01*
X107838161Y-88732737D01*
X109123790Y-88730647D01*
X105795126Y-88730647D01*
X105795126Y-92735381D01*
X105507259Y-92735381D01*
X105507259Y-91262472D01*
X103023305Y-91262472D01*
X103023283Y-91429485D01*
X103023234Y-91589818D01*
X103023159Y-91742731D01*
X103023057Y-91887482D01*
X103022931Y-92023328D01*
X103022781Y-92149528D01*
X103022608Y-92265341D01*
X103022413Y-92370025D01*
X103022198Y-92462836D01*
X103021962Y-92543035D01*
X103021707Y-92609879D01*
X103021435Y-92662627D01*
X103021145Y-92700536D01*
X103020840Y-92722865D01*
X103020576Y-92729031D01*
X103011357Y-92731153D01*
X102988095Y-92732974D01*
X102953682Y-92734366D01*
X102911006Y-92735199D01*
X102877860Y-92735381D01*
X102738659Y-92735381D01*
X102738659Y-88730238D01*
X102880476Y-88732559D01*
X103022293Y-88734881D01*
X103023193Y-90728780D01*
X103023260Y-90911378D01*
X103023297Y-91089523D01*
X103023305Y-91262472D01*
X105507259Y-91262472D01*
X105507259Y-90593314D01*
X105088666Y-90593314D01*
X105087414Y-90735130D01*
X105086937Y-90782027D01*
X105086406Y-90822423D01*
X105085867Y-90853538D01*
X105085367Y-90872595D01*
X105085044Y-90877302D01*
X105076608Y-90877352D01*
X105052393Y-90877400D01*
X105013551Y-90877444D01*
X104961236Y-90877485D01*
X104896602Y-90877521D01*
X104820803Y-90877553D01*
X104734991Y-90877580D01*
X104640320Y-90877602D01*
X104537944Y-90877618D01*
X104429017Y-90877628D01*
X104314691Y-90877630D01*
X104263374Y-90877629D01*
X103442822Y-90877601D01*
X103441786Y-90735457D01*
X103440750Y-90593314D01*
X105088666Y-90593314D01*
X105507259Y-90593314D01*
X105507259Y-88730647D01*
X105795126Y-88730647D01*
X109123790Y-88730647D01*
X109156393Y-88730594D01*
X109156393Y-89018514D01*
X110367215Y-89018514D01*
X110418176Y-88989253D01*
X110474136Y-88958861D01*
X110515293Y-88937900D01*
X110566756Y-88913868D01*
X110624523Y-88888952D01*
X110685161Y-88864442D01*
X110745235Y-88841631D01*
X110801313Y-88821809D01*
X110849962Y-88806267D01*
X110887747Y-88796297D01*
X110896293Y-88794613D01*
X110923609Y-88788829D01*
X110949210Y-88782175D01*
X110967599Y-88777705D01*
X110976557Y-88777264D01*
X110976726Y-88777595D01*
X110983421Y-88777651D01*
X110995904Y-88773737D01*
X111016342Y-88768013D01*
X111044069Y-88762584D01*
X111053054Y-88761232D01*
X111080536Y-88757233D01*
X111103403Y-88753528D01*
X111108526Y-88752585D01*
X111153996Y-88746003D01*
X111212586Y-88741050D01*
X111280557Y-88737731D01*
X111354174Y-88736056D01*
X111429700Y-88736030D01*
X111503398Y-88737663D01*
X111571531Y-88740960D01*
X111630362Y-88745931D01*
X111670100Y-88751448D01*
X111687993Y-88754431D01*
X111715478Y-88758815D01*
X111745405Y-88763479D01*
X111770620Y-88767305D01*
X111781059Y-88768808D01*
X111802307Y-88773003D01*
X111835756Y-88781105D01*
X111877428Y-88792019D01*
X111923349Y-88804652D01*
X111969539Y-88817908D01*
X112012023Y-88830693D01*
X112046825Y-88841913D01*
X112047541Y-88842156D01*
X112082690Y-88854265D01*
X112111774Y-88864757D01*
X112138430Y-88875175D01*
X112166294Y-88887061D01*
X112199004Y-88901957D01*
X112240196Y-88921405D01*
X112284826Y-88942778D01*
X112322819Y-88962295D01*
X112368409Y-88987711D01*
X112418494Y-89017090D01*
X112469971Y-89048495D01*
X112519740Y-89079992D01*
X112564698Y-89109645D01*
X112601744Y-89135518D01*
X112627776Y-89155675D01*
X112632047Y-89159454D01*
X112648246Y-89173653D01*
X112671417Y-89193127D01*
X112687081Y-89205970D01*
X112744065Y-89255666D01*
X112806198Y-89315913D01*
X112869796Y-89382814D01*
X112931176Y-89452471D01*
X112986653Y-89520989D01*
X112994035Y-89530659D01*
X113021305Y-89567846D01*
X113049174Y-89607851D01*
X113075876Y-89647903D01*
X113099646Y-89685234D01*
X113118721Y-89717074D01*
X113131334Y-89740653D01*
X113135726Y-89753002D01*
X113141427Y-89764040D01*
X113143239Y-89764992D01*
X113150967Y-89774231D01*
X113163677Y-89796487D01*
X113180156Y-89829018D01*
X113199191Y-89869082D01*
X113219570Y-89913935D01*
X113240082Y-89960835D01*
X113259515Y-90007039D01*
X113276655Y-90049805D01*
X113290291Y-90086390D01*
X113299211Y-90114052D01*
X113301329Y-90122689D01*
X113305901Y-90140352D01*
X113313600Y-90166047D01*
X113317341Y-90177723D01*
X113331922Y-90228523D01*
X113346727Y-90291200D01*
X113360793Y-90360740D01*
X113373155Y-90432127D01*
X113382850Y-90500348D01*
X113387441Y-90542514D01*
X113390210Y-90585123D01*
X113392056Y-90639399D01*
X113392984Y-90700739D01*
X113393001Y-90764542D01*
X114727459Y-90764542D01*
X114727459Y-87401381D01*
X101417860Y-87401381D01*
X101417860Y-94039247D01*
G37*
X101417860Y-94039247D02*
X114727459Y-94039247D01*
X114727459Y-92290333D01*
X112653015Y-92290333D01*
X112629787Y-92309605D01*
X112613610Y-92322026D01*
X112587192Y-92341224D01*
X112554316Y-92364487D01*
X112521893Y-92386960D01*
X112486331Y-92411084D01*
X112455089Y-92431471D01*
X112424198Y-92450503D01*
X112389692Y-92470560D01*
X112347602Y-92494022D01*
X112301759Y-92519040D01*
X112246500Y-92546505D01*
X112180245Y-92575396D01*
X112107211Y-92604207D01*
X112031615Y-92631430D01*
X111957675Y-92655558D01*
X111889608Y-92675083D01*
X111831630Y-92688500D01*
X111823393Y-92690010D01*
X111801779Y-92694323D01*
X111789526Y-92697309D01*
X111772715Y-92701056D01*
X111749047Y-92705293D01*
X111747193Y-92705589D01*
X111720121Y-92710016D01*
X111696487Y-92714109D01*
X111696393Y-92714126D01*
X111676371Y-92717135D01*
X111647026Y-92720835D01*
X111624426Y-92723375D01*
X111597062Y-92726660D01*
X111577446Y-92729728D01*
X111570601Y-92731572D01*
X111561360Y-92732491D01*
X111538027Y-92732961D01*
X111503439Y-92733033D01*
X111460431Y-92732756D01*
X111411836Y-92732178D01*
X111360492Y-92731350D01*
X111309232Y-92730321D01*
X111260892Y-92729140D01*
X111218307Y-92727857D01*
X111184313Y-92726520D01*
X111161744Y-92725180D01*
X111154526Y-92724327D01*
X111135825Y-92720813D01*
X111106469Y-92715825D01*
X111072550Y-92710393D01*
X111069860Y-92709976D01*
X111012899Y-92699668D01*
X110948988Y-92685591D01*
X110881854Y-92668795D01*
X110815224Y-92650331D01*
X110752827Y-92631248D01*
X110698390Y-92612597D01*
X110655640Y-92595428D01*
X110644410Y-92590104D01*
X110624982Y-92581069D01*
X110613759Y-92577234D01*
X110612660Y-92577567D01*
X110605709Y-92576351D01*
X110586674Y-92568323D01*
X110558280Y-92554883D01*
X110523252Y-92537429D01*
X110484315Y-92517361D01*
X110444195Y-92496078D01*
X110405615Y-92474979D01*
X110371302Y-92455464D01*
X110350018Y-92442715D01*
X110196855Y-92338862D01*
X110056705Y-92224695D01*
X109929217Y-92099781D01*
X109814036Y-91963688D01*
X109710810Y-91815984D01*
X109619186Y-91656236D01*
X109538810Y-91484011D01*
X109510903Y-91414580D01*
X109503428Y-91394271D01*
X109499470Y-91381765D01*
X109499293Y-91380714D01*
X109496450Y-91370626D01*
X109489839Y-91352031D01*
X109489480Y-91351080D01*
X109475738Y-91309756D01*
X109460860Y-91256610D01*
X109446021Y-91196596D01*
X109432397Y-91134667D01*
X109421161Y-91075777D01*
X109415179Y-91037814D01*
X109411388Y-91010699D01*
X109406457Y-90975641D01*
X109402683Y-90948914D01*
X109400659Y-90925358D01*
X109399148Y-90889040D01*
X109398134Y-90843003D01*
X109397600Y-90790287D01*
X109397529Y-90733935D01*
X109397903Y-90676988D01*
X109398705Y-90622488D01*
X109399918Y-90573477D01*
X109401525Y-90532996D01*
X109403509Y-90504087D01*
X109405261Y-90491714D01*
X109409557Y-90469884D01*
X109414042Y-90441260D01*
X109415224Y-90432447D01*
X109420261Y-90401151D01*
X109428528Y-90358467D01*
X109438920Y-90309375D01*
X109450328Y-90258856D01*
X109461648Y-90211889D01*
X109471773Y-90173456D01*
X109475781Y-90159831D01*
X109483668Y-90134411D01*
X109489281Y-90116294D01*
X109491002Y-90110714D01*
X109495621Y-90097630D01*
X109505390Y-90072056D01*
X109520809Y-90032699D01*
X109530132Y-90009114D01*
X109542164Y-89978360D01*
X109551640Y-89953435D01*
X109556899Y-89938728D01*
X109557364Y-89937147D01*
X109565997Y-89913745D01*
X109582569Y-89878972D01*
X109605506Y-89835462D01*
X109633234Y-89785850D01*
X109664177Y-89732773D01*
X109696760Y-89678866D01*
X109729408Y-89626764D01*
X109760547Y-89579102D01*
X109788602Y-89538517D01*
X109811998Y-89507643D01*
X109818885Y-89499516D01*
X109839038Y-89476751D01*
X109940154Y-89576470D01*
X110041269Y-89676190D01*
X109975902Y-89772802D01*
X109893433Y-89907822D01*
X109822954Y-90050563D01*
X109765571Y-90198156D01*
X109722392Y-90347736D01*
X109694524Y-90496433D01*
X109693472Y-90504414D01*
X109685275Y-90586257D01*
X109680623Y-90673859D01*
X109679500Y-90762583D01*
X109681890Y-90847793D01*
X109687775Y-90924853D01*
X109695169Y-90978547D01*
X109699664Y-91005027D01*
X109702884Y-91025114D01*
X109707400Y-91051307D01*
X109710560Y-91067447D01*
X109754216Y-91235831D01*
X109812946Y-91396916D01*
X109886332Y-91550040D01*
X109973960Y-91694542D01*
X110075415Y-91829759D01*
X110190283Y-91955030D01*
X110318146Y-92069692D01*
X110359707Y-92102482D01*
X110394816Y-92128000D01*
X110436916Y-92156504D01*
X110482593Y-92185897D01*
X110528431Y-92214085D01*
X110571015Y-92238971D01*
X110606931Y-92258462D01*
X110632764Y-92270461D01*
X110634560Y-92271132D01*
X110653519Y-92279658D01*
X110663155Y-92287258D01*
X110663460Y-92288348D01*
X110670223Y-92294571D01*
X110674569Y-92295114D01*
X110688432Y-92298601D01*
X110710647Y-92307416D01*
X110721763Y-92312548D01*
X110743282Y-92321709D01*
X110776167Y-92334269D01*
X110816328Y-92348816D01*
X110859672Y-92363938D01*
X110902108Y-92378224D01*
X110939545Y-92390263D01*
X110967891Y-92398642D01*
X110979494Y-92401457D01*
X110996627Y-92404740D01*
X111024648Y-92410116D01*
X111057817Y-92416483D01*
X111061393Y-92417169D01*
X111153361Y-92433106D01*
X111236397Y-92443472D01*
X111317302Y-92448958D01*
X111387360Y-92450301D01*
X111424425Y-92449670D01*
X111468575Y-92447929D01*
X111515329Y-92445368D01*
X111560208Y-92442274D01*
X111598734Y-92438935D01*
X111626427Y-92435638D01*
X111632893Y-92434515D01*
X111652322Y-92431124D01*
X111678526Y-92427173D01*
X111683693Y-92426455D01*
X111716260Y-92420693D01*
X111759867Y-92411158D01*
X111809389Y-92399113D01*
X111859698Y-92385819D01*
X111905666Y-92372538D01*
X111916526Y-92369163D01*
X112028820Y-92328138D01*
X112144763Y-92275689D01*
X112258786Y-92214595D01*
X112365319Y-92147637D01*
X112377735Y-92139060D01*
X112407116Y-92118905D01*
X112431224Y-92103050D01*
X112446781Y-92093613D01*
X112450652Y-92091914D01*
X112458127Y-92097626D01*
X112475365Y-92113432D01*
X112500274Y-92137332D01*
X112530762Y-92167330D01*
X112554538Y-92191124D01*
X112653015Y-92290333D01*
X114727459Y-92290333D01*
X114727459Y-90764542D01*
X113393001Y-90764542D01*
X113392113Y-90826206D01*
X113390323Y-90881128D01*
X113387640Y-90924708D01*
X113386964Y-90931980D01*
X113363531Y-91094067D01*
X113326375Y-91256157D01*
X113276606Y-91414728D01*
X113215335Y-91566259D01*
X113143669Y-91707228D01*
X113141566Y-91710914D01*
X113122924Y-91742621D01*
X113100684Y-91779112D01*
X113076770Y-91817388D01*
X113053107Y-91854448D01*
X113031621Y-91887292D01*
X113014235Y-91912919D01*
X113002874Y-91928330D01*
X113000347Y-91931047D01*
X112992576Y-91940175D01*
X112979690Y-91957558D01*
X112975992Y-91962797D01*
X112962444Y-91980260D01*
X112952459Y-91989745D01*
X112950867Y-91990314D01*
X112943215Y-91984611D01*
X112925785Y-91968826D01*
X112900675Y-91944948D01*
X112869986Y-91914962D01*
X112845486Y-91890579D01*
X112746011Y-91790844D01*
X112784296Y-91738229D01*
X112874744Y-91599675D01*
X112951672Y-91451618D01*
X113014533Y-91295438D01*
X113062780Y-91132514D01*
X113095867Y-90964225D01*
X113098663Y-90944680D01*
X113102353Y-90905718D01*
X113104723Y-90854798D01*
X113105838Y-90795551D01*
X113105763Y-90731604D01*
X113104564Y-90666587D01*
X113102307Y-90604129D01*
X113099057Y-90547857D01*
X113094881Y-90501401D01*
X113090080Y-90469503D01*
X113086000Y-90448318D01*
X113081539Y-90422937D01*
X113076836Y-90396922D01*
X113072379Y-90375297D01*
X113067283Y-90353026D01*
X113064647Y-90341398D01*
X113052296Y-90292707D01*
X113035818Y-90236182D01*
X113017277Y-90178336D01*
X112998737Y-90125682D01*
X112986185Y-90093781D01*
X112963042Y-90040718D01*
X112939337Y-89990738D01*
X112913164Y-89940286D01*
X112882619Y-89885804D01*
X112845795Y-89823736D01*
X112811646Y-89768024D01*
X112796145Y-89745657D01*
X112772143Y-89714144D01*
X112742470Y-89676924D01*
X112709955Y-89637436D01*
X112677429Y-89599118D01*
X112647722Y-89565407D01*
X112624253Y-89540341D01*
X112512983Y-89437515D01*
X107979526Y-89437515D01*
X107979526Y-92735790D01*
X107837710Y-92733469D01*
X107695893Y-92731147D01*
X107695409Y-91084103D01*
X107694925Y-89437058D01*
X107837226Y-89437287D01*
X107979526Y-89437515D01*
X112512983Y-89437515D01*
X112495960Y-89421784D01*
X112359478Y-89318041D01*
X112214710Y-89229053D01*
X112061560Y-89154760D01*
X111913119Y-89099318D01*
X111878926Y-89088541D01*
X111848435Y-89079458D01*
X111827195Y-89073708D01*
X111824219Y-89073034D01*
X111804484Y-89068712D01*
X111793759Y-89066126D01*
X111761013Y-89058453D01*
X111716403Y-89049700D01*
X111664878Y-89040775D01*
X111611392Y-89032583D01*
X111607493Y-89032031D01*
X111571446Y-89028416D01*
X111523458Y-89025687D01*
X111467327Y-89023857D01*
X111406849Y-89022936D01*
X111345824Y-89022936D01*
X111288047Y-89023869D01*
X111237317Y-89025747D01*
X111197430Y-89028580D01*
X111180376Y-89030729D01*
X111109651Y-89042638D01*
X111053063Y-89052889D01*
X111011413Y-89061327D01*
X110985503Y-89067796D01*
X110980713Y-89069407D01*
X110965355Y-89074173D01*
X110959793Y-89074034D01*
X110952341Y-89075374D01*
X110932042Y-89081472D01*
X110901979Y-89091349D01*
X110865237Y-89104027D01*
X110864543Y-89104272D01*
X110826656Y-89117587D01*
X110794412Y-89128852D01*
X110771283Y-89136859D01*
X110760826Y-89140374D01*
X110725847Y-89153445D01*
X110680261Y-89174298D01*
X110627389Y-89201085D01*
X110570549Y-89231957D01*
X110513064Y-89265064D01*
X110458253Y-89298560D01*
X110409437Y-89330594D01*
X110376007Y-89354629D01*
X110338320Y-89383322D01*
X110236307Y-89280946D01*
X110199305Y-89243657D01*
X110172945Y-89216411D01*
X110155838Y-89197334D01*
X110146599Y-89184551D01*
X110143839Y-89176185D01*
X110146172Y-89170363D01*
X110151226Y-89165935D01*
X110171276Y-89150147D01*
X110185998Y-89137816D01*
X110215174Y-89115179D01*
X110256253Y-89087018D01*
X110305962Y-89055318D01*
X110361028Y-89022067D01*
X110367215Y-89018514D01*
X109156393Y-89018514D01*
X107840732Y-89018514D01*
X107659748Y-89018489D01*
X107495030Y-89018411D01*
X107345909Y-89018275D01*
X107211719Y-89018076D01*
X107091792Y-89017807D01*
X106985459Y-89017464D01*
X106892054Y-89017041D01*
X106810908Y-89016533D01*
X106741354Y-89015934D01*
X106682724Y-89015240D01*
X106634351Y-89014444D01*
X106595567Y-89013542D01*
X106565704Y-89012528D01*
X106544094Y-89011397D01*
X106530070Y-89010143D01*
X106522965Y-89008761D01*
X106521759Y-89007931D01*
X106520660Y-88996145D01*
X106519813Y-88970624D01*
X106519276Y-88934564D01*
X106519108Y-88891162D01*
X106519188Y-88866114D01*
X106519930Y-88734881D01*
X107838161Y-88732737D01*
X109123790Y-88730647D01*
X105795126Y-88730647D01*
X105795126Y-92735381D01*
X105507259Y-92735381D01*
X105507259Y-91262472D01*
X103023305Y-91262472D01*
X103023283Y-91429485D01*
X103023234Y-91589818D01*
X103023159Y-91742731D01*
X103023057Y-91887482D01*
X103022931Y-92023328D01*
X103022781Y-92149528D01*
X103022608Y-92265341D01*
X103022413Y-92370025D01*
X103022198Y-92462836D01*
X103021962Y-92543035D01*
X103021707Y-92609879D01*
X103021435Y-92662627D01*
X103021145Y-92700536D01*
X103020840Y-92722865D01*
X103020576Y-92729031D01*
X103011357Y-92731153D01*
X102988095Y-92732974D01*
X102953682Y-92734366D01*
X102911006Y-92735199D01*
X102877860Y-92735381D01*
X102738659Y-92735381D01*
X102738659Y-88730238D01*
X102880476Y-88732559D01*
X103022293Y-88734881D01*
X103023193Y-90728780D01*
X103023260Y-90911378D01*
X103023297Y-91089523D01*
X103023305Y-91262472D01*
X105507259Y-91262472D01*
X105507259Y-90593314D01*
X105088666Y-90593314D01*
X105087414Y-90735130D01*
X105086937Y-90782027D01*
X105086406Y-90822423D01*
X105085867Y-90853538D01*
X105085367Y-90872595D01*
X105085044Y-90877302D01*
X105076608Y-90877352D01*
X105052393Y-90877400D01*
X105013551Y-90877444D01*
X104961236Y-90877485D01*
X104896602Y-90877521D01*
X104820803Y-90877553D01*
X104734991Y-90877580D01*
X104640320Y-90877602D01*
X104537944Y-90877618D01*
X104429017Y-90877628D01*
X104314691Y-90877630D01*
X104263374Y-90877629D01*
X103442822Y-90877601D01*
X103441786Y-90735457D01*
X103440750Y-90593314D01*
X105088666Y-90593314D01*
X105507259Y-90593314D01*
X105507259Y-88730647D01*
X105795126Y-88730647D01*
X109123790Y-88730647D01*
X109156393Y-88730594D01*
X109156393Y-89018514D01*
X110367215Y-89018514D01*
X110418176Y-88989253D01*
X110474136Y-88958861D01*
X110515293Y-88937900D01*
X110566756Y-88913868D01*
X110624523Y-88888952D01*
X110685161Y-88864442D01*
X110745235Y-88841631D01*
X110801313Y-88821809D01*
X110849962Y-88806267D01*
X110887747Y-88796297D01*
X110896293Y-88794613D01*
X110923609Y-88788829D01*
X110949210Y-88782175D01*
X110967599Y-88777705D01*
X110976557Y-88777264D01*
X110976726Y-88777595D01*
X110983421Y-88777651D01*
X110995904Y-88773737D01*
X111016342Y-88768013D01*
X111044069Y-88762584D01*
X111053054Y-88761232D01*
X111080536Y-88757233D01*
X111103403Y-88753528D01*
X111108526Y-88752585D01*
X111153996Y-88746003D01*
X111212586Y-88741050D01*
X111280557Y-88737731D01*
X111354174Y-88736056D01*
X111429700Y-88736030D01*
X111503398Y-88737663D01*
X111571531Y-88740960D01*
X111630362Y-88745931D01*
X111670100Y-88751448D01*
X111687993Y-88754431D01*
X111715478Y-88758815D01*
X111745405Y-88763479D01*
X111770620Y-88767305D01*
X111781059Y-88768808D01*
X111802307Y-88773003D01*
X111835756Y-88781105D01*
X111877428Y-88792019D01*
X111923349Y-88804652D01*
X111969539Y-88817908D01*
X112012023Y-88830693D01*
X112046825Y-88841913D01*
X112047541Y-88842156D01*
X112082690Y-88854265D01*
X112111774Y-88864757D01*
X112138430Y-88875175D01*
X112166294Y-88887061D01*
X112199004Y-88901957D01*
X112240196Y-88921405D01*
X112284826Y-88942778D01*
X112322819Y-88962295D01*
X112368409Y-88987711D01*
X112418494Y-89017090D01*
X112469971Y-89048495D01*
X112519740Y-89079992D01*
X112564698Y-89109645D01*
X112601744Y-89135518D01*
X112627776Y-89155675D01*
X112632047Y-89159454D01*
X112648246Y-89173653D01*
X112671417Y-89193127D01*
X112687081Y-89205970D01*
X112744065Y-89255666D01*
X112806198Y-89315913D01*
X112869796Y-89382814D01*
X112931176Y-89452471D01*
X112986653Y-89520989D01*
X112994035Y-89530659D01*
X113021305Y-89567846D01*
X113049174Y-89607851D01*
X113075876Y-89647903D01*
X113099646Y-89685234D01*
X113118721Y-89717074D01*
X113131334Y-89740653D01*
X113135726Y-89753002D01*
X113141427Y-89764040D01*
X113143239Y-89764992D01*
X113150967Y-89774231D01*
X113163677Y-89796487D01*
X113180156Y-89829018D01*
X113199191Y-89869082D01*
X113219570Y-89913935D01*
X113240082Y-89960835D01*
X113259515Y-90007039D01*
X113276655Y-90049805D01*
X113290291Y-90086390D01*
X113299211Y-90114052D01*
X113301329Y-90122689D01*
X113305901Y-90140352D01*
X113313600Y-90166047D01*
X113317341Y-90177723D01*
X113331922Y-90228523D01*
X113346727Y-90291200D01*
X113360793Y-90360740D01*
X113373155Y-90432127D01*
X113382850Y-90500348D01*
X113387441Y-90542514D01*
X113390210Y-90585123D01*
X113392056Y-90639399D01*
X113392984Y-90700739D01*
X113393001Y-90764542D01*
X114727459Y-90764542D01*
X114727459Y-87401381D01*
X101417860Y-87401381D01*
X101417860Y-94039247D01*
%TO.C,U2*%
G36*
X116157560Y-89041380D02*
G01*
X133099360Y-93257809D01*
X116335360Y-93257839D01*
X120625304Y-93257922D01*
X120991663Y-93258056D01*
X121376970Y-93258239D01*
X121779077Y-93258470D01*
X122195832Y-93258744D01*
X122625085Y-93259062D01*
X123064686Y-93259420D01*
X123512485Y-93259816D01*
X123966331Y-93260248D01*
X124424074Y-93260715D01*
X124883563Y-93261213D01*
X125342650Y-93261741D01*
X125799182Y-93262297D01*
X126251010Y-93262878D01*
X126695984Y-93263483D01*
X127131953Y-93264109D01*
X127556768Y-93264754D01*
X127968276Y-93265415D01*
X128364330Y-93266092D01*
X128460685Y-93266263D01*
X133162860Y-93274688D01*
X133162860Y-90057380D01*
X132134160Y-90057380D01*
X132134160Y-92152880D01*
X131559485Y-92152769D01*
X131438589Y-92152578D01*
X131323516Y-92152077D01*
X131217178Y-92151301D01*
X131122491Y-92150285D01*
X131042367Y-92149065D01*
X130979720Y-92147676D01*
X130937464Y-92146155D01*
X130921310Y-92144997D01*
X130875580Y-92135675D01*
X130845765Y-92118550D01*
X130832483Y-92103833D01*
X130815681Y-92066698D01*
X130203760Y-92066698D01*
X130202188Y-92106835D01*
X130198148Y-92136016D01*
X130194545Y-92145162D01*
X130180386Y-92146909D01*
X130143304Y-92148390D01*
X130085777Y-92149585D01*
X130010280Y-92150474D01*
X129919289Y-92151036D01*
X129815282Y-92151249D01*
X129700733Y-92151093D01*
X129578121Y-92150548D01*
X129562720Y-92150454D01*
X129420741Y-92149524D01*
X129301949Y-92148613D01*
X129204129Y-92147624D01*
X129125067Y-92146456D01*
X129062550Y-92145012D01*
X129014365Y-92143193D01*
X128978296Y-92140899D01*
X128952132Y-92138032D01*
X128933657Y-92134494D01*
X128920658Y-92130186D01*
X128910922Y-92125008D01*
X128905294Y-92121130D01*
X128870085Y-92082843D01*
X128852185Y-92036383D01*
X128851344Y-91988163D01*
X128867312Y-91944598D01*
X128899838Y-91912103D01*
X128913723Y-91905082D01*
X128936924Y-91899810D01*
X128980267Y-91895044D01*
X129044794Y-91890725D01*
X129131550Y-91886798D01*
X129241579Y-91883206D01*
X129375924Y-91879893D01*
X129381435Y-91879774D01*
X129482893Y-91877386D01*
X129575780Y-91874811D01*
X129657172Y-91872160D01*
X129724143Y-91869545D01*
X129773765Y-91867077D01*
X129803114Y-91864868D01*
X129810060Y-91863447D01*
X129803922Y-91850723D01*
X129786896Y-91819826D01*
X129761062Y-91774422D01*
X129728505Y-91718177D01*
X129697282Y-91664892D01*
X129661365Y-91603894D01*
X129615394Y-91525790D01*
X129562189Y-91435370D01*
X129504566Y-91337423D01*
X129445345Y-91236740D01*
X129387344Y-91138112D01*
X129375418Y-91117830D01*
X129367889Y-91105130D01*
X128057460Y-91105130D01*
X128051990Y-91150528D01*
X128037940Y-91195970D01*
X128018851Y-91231969D01*
X128004781Y-91246228D01*
X127984674Y-91254628D01*
X127952403Y-91261260D01*
X127905777Y-91266243D01*
X127842609Y-91269694D01*
X127760707Y-91271733D01*
X127657882Y-91272477D01*
X127531945Y-91272045D01*
X127527150Y-91272010D01*
X127193690Y-91269570D01*
X127154734Y-91230614D01*
X127119473Y-91178434D01*
X127106780Y-91116446D01*
X127117057Y-91047245D01*
X127123430Y-91028681D01*
X127141173Y-90991983D01*
X127160826Y-90965202D01*
X127168731Y-90958935D01*
X127188021Y-90955360D01*
X127228823Y-90952384D01*
X127287258Y-90950007D01*
X127359444Y-90948229D01*
X127441502Y-90947049D01*
X127529550Y-90946467D01*
X127619710Y-90946483D01*
X127708099Y-90947096D01*
X127790839Y-90948307D01*
X127864048Y-90950114D01*
X127923846Y-90952518D01*
X127966353Y-90955518D01*
X127987398Y-90958999D01*
X128018411Y-90983082D01*
X128042336Y-91025169D01*
X128055755Y-91078129D01*
X128057460Y-91105130D01*
X129367889Y-91105130D01*
X129315454Y-91016686D01*
X129251017Y-90909464D01*
X129185479Y-90801674D01*
X129122210Y-90698827D01*
X129064582Y-90606433D01*
X129015967Y-90530000D01*
X129011947Y-90523780D01*
X128857560Y-90285330D01*
X128857560Y-90073999D01*
X129019485Y-90065741D01*
X129082199Y-90063263D01*
X129160907Y-90061287D01*
X129252135Y-90059799D01*
X129352410Y-90058790D01*
X129458257Y-90058249D01*
X129566203Y-90058164D01*
X129672772Y-90058524D01*
X129774492Y-90059317D01*
X129867887Y-90060534D01*
X129949484Y-90062163D01*
X130015808Y-90064192D01*
X130063386Y-90066611D01*
X130087529Y-90069155D01*
X130137380Y-90084106D01*
X130167631Y-90109061D01*
X130183443Y-90149748D01*
X130187807Y-90180390D01*
X130188943Y-90224646D01*
X130180383Y-90255243D01*
X130168625Y-90272772D01*
X130158179Y-90284310D01*
X130145659Y-90292797D01*
X130126987Y-90298934D01*
X130098086Y-90303423D01*
X130054881Y-90306966D01*
X129993294Y-90310262D01*
X129935526Y-90312866D01*
X129849940Y-90316033D01*
X129748706Y-90318857D01*
X129641574Y-90321121D01*
X129538296Y-90322604D01*
X129481677Y-90323031D01*
X129396929Y-90323536D01*
X129334405Y-90324429D01*
X129290932Y-90326024D01*
X129263333Y-90328630D01*
X129248434Y-90332560D01*
X129243059Y-90338125D01*
X129244034Y-90345635D01*
X129244282Y-90346305D01*
X129251920Y-90360645D01*
X129271364Y-90395143D01*
X129301594Y-90448034D01*
X129341587Y-90517554D01*
X129390324Y-90601936D01*
X129446784Y-90699417D01*
X129509944Y-90808231D01*
X129578786Y-90926613D01*
X129652287Y-91052798D01*
X129728241Y-91182990D01*
X129817613Y-91336102D01*
X129895025Y-91468883D01*
X129961334Y-91582929D01*
X130017400Y-91679838D01*
X130064081Y-91761206D01*
X130102238Y-91828628D01*
X130132728Y-91883702D01*
X130156411Y-91928023D01*
X130174147Y-91963189D01*
X130186793Y-91990795D01*
X130195209Y-92012439D01*
X130200254Y-92029716D01*
X130202787Y-92044223D01*
X130203668Y-92057556D01*
X130203760Y-92066698D01*
X130815681Y-92066698D01*
X130810442Y-92055121D01*
X130808444Y-91999831D01*
X130826180Y-91946584D01*
X130838760Y-91927752D01*
X130870510Y-91887790D01*
X131861110Y-91879830D01*
X131864504Y-91559155D01*
X131867897Y-91238480D01*
X131693054Y-91237722D01*
X131589359Y-91236197D01*
X131508185Y-91231902D01*
X131446709Y-91223750D01*
X131402108Y-91210655D01*
X131371559Y-91191531D01*
X131352238Y-91165292D01*
X131341323Y-91130853D01*
X131337123Y-91100787D01*
X131335115Y-91060022D01*
X131340929Y-91033582D01*
X131357491Y-91010869D01*
X131363708Y-91004477D01*
X131396406Y-90971779D01*
X131631933Y-90971780D01*
X131867460Y-90971780D01*
X131867460Y-90324080D01*
X131426135Y-90323322D01*
X131291558Y-90322885D01*
X131180029Y-90321943D01*
X131089198Y-90320298D01*
X131016716Y-90317753D01*
X130960232Y-90314108D01*
X130917397Y-90309166D01*
X130885862Y-90302727D01*
X130863275Y-90294594D01*
X130847287Y-90284568D01*
X130836409Y-90273529D01*
X130817217Y-90232537D01*
X130812058Y-90181576D01*
X130820476Y-90131010D01*
X130842016Y-90091203D01*
X130844533Y-90088552D01*
X130875706Y-90057380D01*
X126305732Y-90057380D01*
X126302121Y-91063855D01*
X126301446Y-91251591D01*
X126300790Y-91415576D01*
X126300054Y-91557455D01*
X126299140Y-91678876D01*
X126297947Y-91781486D01*
X126296378Y-91866932D01*
X126294332Y-91936862D01*
X126291711Y-91992922D01*
X126288415Y-92036761D01*
X126284346Y-92070024D01*
X126279404Y-92094360D01*
X126273490Y-92111416D01*
X126266505Y-92122838D01*
X126258351Y-92130275D01*
X126248926Y-92135372D01*
X126238134Y-92139778D01*
X126237355Y-92140091D01*
X126175782Y-92153001D01*
X126175085Y-92152880D01*
X118532460Y-92152880D01*
X117926035Y-92152809D01*
X117773395Y-92152503D01*
X117638449Y-92151639D01*
X117522461Y-92150243D01*
X117426693Y-92148341D01*
X117352410Y-92145959D01*
X117300874Y-92143122D01*
X117273350Y-92139856D01*
X117272006Y-92139517D01*
X117228423Y-92115655D01*
X117199189Y-92076311D01*
X117186011Y-92028032D01*
X117190596Y-91977365D01*
X117214651Y-91930860D01*
X117216907Y-91928163D01*
X117247553Y-91892530D01*
X117461382Y-91884228D01*
X117542376Y-91881582D01*
X117640649Y-91879156D01*
X117748077Y-91877103D01*
X117856541Y-91875576D01*
X117957917Y-91874731D01*
X117964135Y-91874703D01*
X118253060Y-91873480D01*
X118253060Y-91562330D01*
X118252937Y-91476365D01*
X118252588Y-91399396D01*
X118252051Y-91334879D01*
X118251359Y-91286267D01*
X118250549Y-91257015D01*
X118249885Y-91249859D01*
X118236905Y-91249287D01*
X118201474Y-91248261D01*
X118146535Y-91246852D01*
X118075033Y-91245132D01*
X117989911Y-91243171D01*
X117894113Y-91241042D01*
X117814910Y-91239332D01*
X117689802Y-91236564D01*
X117587381Y-91233777D01*
X117504940Y-91230457D01*
X117439772Y-91226092D01*
X117389167Y-91220168D01*
X117350420Y-91212173D01*
X117320822Y-91201593D01*
X117297665Y-91187916D01*
X117278243Y-91170628D01*
X117259846Y-91149218D01*
X117246197Y-91131590D01*
X117225794Y-91103474D01*
X117212242Y-91078679D01*
X117203614Y-91050395D01*
X117197984Y-91011811D01*
X117193425Y-90956115D01*
X117192411Y-90941433D01*
X117189913Y-90888117D01*
X117188137Y-90815591D01*
X117187150Y-90730037D01*
X117187015Y-90637636D01*
X117187797Y-90544572D01*
X117188080Y-90525756D01*
X117189786Y-90432181D01*
X117191684Y-90360411D01*
X117194101Y-90306851D01*
X117197368Y-90267905D01*
X117201814Y-90239979D01*
X117207767Y-90219477D01*
X117215558Y-90202806D01*
X117218059Y-90198426D01*
X117259306Y-90146019D01*
X117313182Y-90102003D01*
X117370638Y-90073379D01*
X117384772Y-90069386D01*
X117408110Y-90066868D01*
X117453804Y-90064527D01*
X117518812Y-90062428D01*
X117600090Y-90060634D01*
X117694595Y-90059210D01*
X117799285Y-90058218D01*
X117911116Y-90057723D01*
X117942709Y-90057682D01*
X118451508Y-90057380D01*
X118485634Y-90092999D01*
X118513565Y-90139155D01*
X118521534Y-90193377D01*
X118509491Y-90247965D01*
X118486882Y-90285005D01*
X118454003Y-90324079D01*
X117959832Y-90324080D01*
X117465660Y-90324080D01*
X117465660Y-90970280D01*
X117906985Y-90974205D01*
X118031762Y-90975365D01*
X118133835Y-90976756D01*
X118215901Y-90978897D01*
X118280655Y-90982306D01*
X118330792Y-90987502D01*
X118369009Y-90995005D01*
X118397999Y-91005334D01*
X118420460Y-91019008D01*
X118439085Y-91036546D01*
X118456572Y-91058466D01*
X118474332Y-91083466D01*
X118491486Y-91110118D01*
X118503171Y-91136307D01*
X118511007Y-91168589D01*
X118516619Y-91213518D01*
X118521330Y-91273357D01*
X118523874Y-91322664D01*
X118526221Y-91392485D01*
X118528272Y-91477934D01*
X118529927Y-91574125D01*
X118531087Y-91676172D01*
X118531652Y-91779188D01*
X118531657Y-91781405D01*
X118532460Y-92152880D01*
X126175085Y-92152880D01*
X126117367Y-92142873D01*
X126073286Y-92115839D01*
X126031810Y-92078798D01*
X126028080Y-91724185D01*
X126024349Y-91369571D01*
X125634380Y-91357584D01*
X125523653Y-91354080D01*
X125435299Y-91350946D01*
X125366300Y-91347913D01*
X125313637Y-91344710D01*
X125274291Y-91341071D01*
X125245244Y-91336724D01*
X125223477Y-91331401D01*
X125205971Y-91324833D01*
X125192381Y-91318173D01*
X125148457Y-91288363D01*
X125101252Y-91245786D01*
X125056635Y-91196952D01*
X125020473Y-91148372D01*
X124998636Y-91106556D01*
X124997003Y-91101424D01*
X124982740Y-91033217D01*
X124972126Y-90945678D01*
X124965257Y-90844628D01*
X124962230Y-90735884D01*
X124963141Y-90625266D01*
X124968085Y-90518594D01*
X124977158Y-90421686D01*
X124984903Y-90369045D01*
X125004553Y-90294097D01*
X125023028Y-90259873D01*
X124355550Y-90259873D01*
X124353183Y-90353978D01*
X124353016Y-90356903D01*
X124345591Y-90484976D01*
X124087932Y-90819769D01*
X123830273Y-91154563D01*
X123826142Y-91612446D01*
X123824895Y-91738839D01*
X123823457Y-91842276D01*
X123821524Y-91925203D01*
X123818794Y-91990065D01*
X123814965Y-92039304D01*
X123809734Y-92075368D01*
X123802799Y-92100699D01*
X123793857Y-92117743D01*
X123782605Y-92128944D01*
X123768742Y-92136747D01*
X123760855Y-92140091D01*
X123711007Y-92150753D01*
X123655112Y-92149324D01*
X123621196Y-92141086D01*
X123606243Y-92133763D01*
X123593885Y-92122648D01*
X123583823Y-92105377D01*
X123575762Y-92079584D01*
X123569402Y-92042905D01*
X123567357Y-92022292D01*
X120468638Y-92022292D01*
X120462537Y-92058610D01*
X120442908Y-92099872D01*
X120413168Y-92125008D01*
X120366420Y-92139404D01*
X120356986Y-92141057D01*
X120319045Y-92144811D01*
X120259420Y-92147618D01*
X120181811Y-92149480D01*
X120089917Y-92150402D01*
X119987437Y-92150384D01*
X119878069Y-92149432D01*
X119765513Y-92147546D01*
X119653468Y-92144731D01*
X119545633Y-92140989D01*
X119531732Y-92140418D01*
X119433125Y-92136543D01*
X119352061Y-92132403D01*
X119286827Y-92125673D01*
X119235710Y-92114024D01*
X119196997Y-92095132D01*
X119168975Y-92066670D01*
X119149930Y-92026310D01*
X119138149Y-91971728D01*
X119131920Y-91900595D01*
X119129528Y-91810587D01*
X119129262Y-91699375D01*
X119129428Y-91594080D01*
X119129532Y-91481844D01*
X119129930Y-91392136D01*
X119130780Y-91322082D01*
X119132237Y-91268810D01*
X119134457Y-91229447D01*
X119137597Y-91201121D01*
X119141812Y-91180959D01*
X119147259Y-91166088D01*
X119153306Y-91154917D01*
X119181569Y-91122734D01*
X119216576Y-91099482D01*
X119217279Y-91099186D01*
X119257401Y-91082567D01*
X119210656Y-91054356D01*
X119188678Y-91040633D01*
X119171121Y-91026953D01*
X119157488Y-91010449D01*
X119147281Y-90988255D01*
X119140001Y-90957504D01*
X119135151Y-90915332D01*
X119132232Y-90858871D01*
X119130746Y-90785256D01*
X119130196Y-90691619D01*
X119130089Y-90590780D01*
X119130165Y-90481807D01*
X119130617Y-90395142D01*
X119131615Y-90327693D01*
X119133330Y-90276369D01*
X119135931Y-90238079D01*
X119139590Y-90209730D01*
X119144476Y-90188232D01*
X119150759Y-90170493D01*
X119153599Y-90163985D01*
X119168296Y-90137119D01*
X119187358Y-90114356D01*
X119212754Y-90095436D01*
X119246453Y-90080101D01*
X119290425Y-90068091D01*
X119346639Y-90059147D01*
X119417064Y-90053011D01*
X119503670Y-90049424D01*
X119608426Y-90048125D01*
X119733300Y-90048858D01*
X119880264Y-90051362D01*
X119990935Y-90053874D01*
X120401659Y-90063845D01*
X120432260Y-90099421D01*
X120454065Y-90134314D01*
X120462284Y-90177484D01*
X120462666Y-90194613D01*
X120462322Y-90223588D01*
X120459994Y-90247463D01*
X120453428Y-90266763D01*
X120440371Y-90282013D01*
X120418570Y-90293738D01*
X120385771Y-90302462D01*
X120339720Y-90308712D01*
X120278164Y-90313011D01*
X120198849Y-90315884D01*
X120099523Y-90317857D01*
X119977931Y-90319455D01*
X119924013Y-90320089D01*
X119817435Y-90321501D01*
X119717981Y-90323124D01*
X119628733Y-90324884D01*
X119552776Y-90326708D01*
X119493192Y-90328522D01*
X119453064Y-90330254D01*
X119435927Y-90331721D01*
X119405944Y-90337970D01*
X119410628Y-90607962D01*
X119412803Y-90708069D01*
X119415921Y-90785796D01*
X119420714Y-90844162D01*
X119427911Y-90886187D01*
X119438246Y-90914890D01*
X119452448Y-90933291D01*
X119471251Y-90944408D01*
X119493711Y-90950901D01*
X119516546Y-90953496D01*
X119560570Y-90956425D01*
X119621578Y-90959485D01*
X119695366Y-90962478D01*
X119777729Y-90965201D01*
X119815160Y-90966251D01*
X119899931Y-90969042D01*
X119977942Y-90972635D01*
X120044991Y-90976755D01*
X120096877Y-90981127D01*
X120129397Y-90985475D01*
X120136434Y-90987290D01*
X120173939Y-91013864D01*
X120198568Y-91055490D01*
X120208027Y-91104125D01*
X120200021Y-91151730D01*
X120189159Y-91172055D01*
X120175355Y-91189793D01*
X120159608Y-91203691D01*
X120138716Y-91214311D01*
X120109481Y-91222216D01*
X120068701Y-91227965D01*
X120013176Y-91232121D01*
X119939706Y-91235244D01*
X119845090Y-91237895D01*
X119808810Y-91238760D01*
X119704874Y-91241447D01*
X119623323Y-91244496D01*
X119561142Y-91248493D01*
X119515319Y-91254024D01*
X119482838Y-91261677D01*
X119460687Y-91272040D01*
X119445850Y-91285698D01*
X119435315Y-91303238D01*
X119431291Y-91312277D01*
X119426235Y-91336571D01*
X119421483Y-91382646D01*
X119417273Y-91446887D01*
X119413849Y-91525673D01*
X119411598Y-91607897D01*
X119406259Y-91869365D01*
X119892430Y-91878191D01*
X120033695Y-91881061D01*
X120150735Y-91884123D01*
X120244722Y-91887433D01*
X120316830Y-91891047D01*
X120368234Y-91895019D01*
X120400106Y-91899405D01*
X120411206Y-91902645D01*
X120442123Y-91930183D01*
X120462238Y-91973015D01*
X120468638Y-92022292D01*
X123567357Y-92022292D01*
X123564446Y-91992974D01*
X123560597Y-91927425D01*
X123557558Y-91843895D01*
X123555030Y-91740017D01*
X123552716Y-91613427D01*
X123552400Y-91594294D01*
X123545046Y-91143659D01*
X123285721Y-90809768D01*
X123026397Y-90475878D01*
X123030504Y-90290877D01*
X123032312Y-90218530D01*
X123034471Y-90167208D01*
X123037690Y-90132540D01*
X123042683Y-90110151D01*
X123050163Y-90095672D01*
X123060840Y-90084729D01*
X123064592Y-90081628D01*
X123106980Y-90061773D01*
X123159475Y-90056927D01*
X123211894Y-90066819D01*
X123248668Y-90086520D01*
X123264933Y-90100957D01*
X123275958Y-90116904D01*
X123283296Y-90139891D01*
X123288499Y-90175446D01*
X123293118Y-90229100D01*
X123294689Y-90250477D01*
X123304452Y-90385420D01*
X123478764Y-90608239D01*
X123530308Y-90673779D01*
X123577424Y-90733034D01*
X123617600Y-90782898D01*
X123648324Y-90820262D01*
X123667081Y-90842018D01*
X123670869Y-90845824D01*
X123679394Y-90851634D01*
X123688521Y-90852944D01*
X123700232Y-90847698D01*
X123716508Y-90833840D01*
X123739331Y-90809313D01*
X123770684Y-90772061D01*
X123812547Y-90720028D01*
X123866903Y-90651157D01*
X123903762Y-90604184D01*
X124078555Y-90381230D01*
X124085834Y-90256661D01*
X124092172Y-90182932D01*
X124102390Y-90130633D01*
X124118327Y-90095879D01*
X124141823Y-90074781D01*
X124174718Y-90063455D01*
X124177514Y-90062910D01*
X124228647Y-90059307D01*
X124277203Y-90065924D01*
X124314156Y-90081087D01*
X124324500Y-90090141D01*
X124340934Y-90125390D01*
X124351376Y-90182822D01*
X124355550Y-90259873D01*
X125023028Y-90259873D01*
X125036812Y-90234339D01*
X125085631Y-90184799D01*
X125154959Y-90140505D01*
X125174560Y-90130366D01*
X125212218Y-90112893D01*
X125250843Y-90098411D01*
X125293179Y-90086649D01*
X125341973Y-90077334D01*
X125399967Y-90070194D01*
X125469906Y-90064956D01*
X125554535Y-90061350D01*
X125656598Y-90059102D01*
X125778839Y-90057941D01*
X125908421Y-90057600D01*
X126305732Y-90057380D01*
X130875706Y-90057380D01*
X132134160Y-90057380D01*
X133162860Y-90057380D01*
X133162860Y-88939780D01*
X116157560Y-88939780D01*
X116157560Y-93257780D01*
X116157560Y-89041380D01*
G37*
X116157560Y-89041380D02*
X133099360Y-93257809D01*
X116335360Y-93257839D01*
X120625304Y-93257922D01*
X120991663Y-93258056D01*
X121376970Y-93258239D01*
X121779077Y-93258470D01*
X122195832Y-93258744D01*
X122625085Y-93259062D01*
X123064686Y-93259420D01*
X123512485Y-93259816D01*
X123966331Y-93260248D01*
X124424074Y-93260715D01*
X124883563Y-93261213D01*
X125342650Y-93261741D01*
X125799182Y-93262297D01*
X126251010Y-93262878D01*
X126695984Y-93263483D01*
X127131953Y-93264109D01*
X127556768Y-93264754D01*
X127968276Y-93265415D01*
X128364330Y-93266092D01*
X128460685Y-93266263D01*
X133162860Y-93274688D01*
X133162860Y-90057380D01*
X132134160Y-90057380D01*
X132134160Y-92152880D01*
X131559485Y-92152769D01*
X131438589Y-92152578D01*
X131323516Y-92152077D01*
X131217178Y-92151301D01*
X131122491Y-92150285D01*
X131042367Y-92149065D01*
X130979720Y-92147676D01*
X130937464Y-92146155D01*
X130921310Y-92144997D01*
X130875580Y-92135675D01*
X130845765Y-92118550D01*
X130832483Y-92103833D01*
X130815681Y-92066698D01*
X130203760Y-92066698D01*
X130202188Y-92106835D01*
X130198148Y-92136016D01*
X130194545Y-92145162D01*
X130180386Y-92146909D01*
X130143304Y-92148390D01*
X130085777Y-92149585D01*
X130010280Y-92150474D01*
X129919289Y-92151036D01*
X129815282Y-92151249D01*
X129700733Y-92151093D01*
X129578121Y-92150548D01*
X129562720Y-92150454D01*
X129420741Y-92149524D01*
X129301949Y-92148613D01*
X129204129Y-92147624D01*
X129125067Y-92146456D01*
X129062550Y-92145012D01*
X129014365Y-92143193D01*
X128978296Y-92140899D01*
X128952132Y-92138032D01*
X128933657Y-92134494D01*
X128920658Y-92130186D01*
X128910922Y-92125008D01*
X128905294Y-92121130D01*
X128870085Y-92082843D01*
X128852185Y-92036383D01*
X128851344Y-91988163D01*
X128867312Y-91944598D01*
X128899838Y-91912103D01*
X128913723Y-91905082D01*
X128936924Y-91899810D01*
X128980267Y-91895044D01*
X129044794Y-91890725D01*
X129131550Y-91886798D01*
X129241579Y-91883206D01*
X129375924Y-91879893D01*
X129381435Y-91879774D01*
X129482893Y-91877386D01*
X129575780Y-91874811D01*
X129657172Y-91872160D01*
X129724143Y-91869545D01*
X129773765Y-91867077D01*
X129803114Y-91864868D01*
X129810060Y-91863447D01*
X129803922Y-91850723D01*
X129786896Y-91819826D01*
X129761062Y-91774422D01*
X129728505Y-91718177D01*
X129697282Y-91664892D01*
X129661365Y-91603894D01*
X129615394Y-91525790D01*
X129562189Y-91435370D01*
X129504566Y-91337423D01*
X129445345Y-91236740D01*
X129387344Y-91138112D01*
X129375418Y-91117830D01*
X129367889Y-91105130D01*
X128057460Y-91105130D01*
X128051990Y-91150528D01*
X128037940Y-91195970D01*
X128018851Y-91231969D01*
X128004781Y-91246228D01*
X127984674Y-91254628D01*
X127952403Y-91261260D01*
X127905777Y-91266243D01*
X127842609Y-91269694D01*
X127760707Y-91271733D01*
X127657882Y-91272477D01*
X127531945Y-91272045D01*
X127527150Y-91272010D01*
X127193690Y-91269570D01*
X127154734Y-91230614D01*
X127119473Y-91178434D01*
X127106780Y-91116446D01*
X127117057Y-91047245D01*
X127123430Y-91028681D01*
X127141173Y-90991983D01*
X127160826Y-90965202D01*
X127168731Y-90958935D01*
X127188021Y-90955360D01*
X127228823Y-90952384D01*
X127287258Y-90950007D01*
X127359444Y-90948229D01*
X127441502Y-90947049D01*
X127529550Y-90946467D01*
X127619710Y-90946483D01*
X127708099Y-90947096D01*
X127790839Y-90948307D01*
X127864048Y-90950114D01*
X127923846Y-90952518D01*
X127966353Y-90955518D01*
X127987398Y-90958999D01*
X128018411Y-90983082D01*
X128042336Y-91025169D01*
X128055755Y-91078129D01*
X128057460Y-91105130D01*
X129367889Y-91105130D01*
X129315454Y-91016686D01*
X129251017Y-90909464D01*
X129185479Y-90801674D01*
X129122210Y-90698827D01*
X129064582Y-90606433D01*
X129015967Y-90530000D01*
X129011947Y-90523780D01*
X128857560Y-90285330D01*
X128857560Y-90073999D01*
X129019485Y-90065741D01*
X129082199Y-90063263D01*
X129160907Y-90061287D01*
X129252135Y-90059799D01*
X129352410Y-90058790D01*
X129458257Y-90058249D01*
X129566203Y-90058164D01*
X129672772Y-90058524D01*
X129774492Y-90059317D01*
X129867887Y-90060534D01*
X129949484Y-90062163D01*
X130015808Y-90064192D01*
X130063386Y-90066611D01*
X130087529Y-90069155D01*
X130137380Y-90084106D01*
X130167631Y-90109061D01*
X130183443Y-90149748D01*
X130187807Y-90180390D01*
X130188943Y-90224646D01*
X130180383Y-90255243D01*
X130168625Y-90272772D01*
X130158179Y-90284310D01*
X130145659Y-90292797D01*
X130126987Y-90298934D01*
X130098086Y-90303423D01*
X130054881Y-90306966D01*
X129993294Y-90310262D01*
X129935526Y-90312866D01*
X129849940Y-90316033D01*
X129748706Y-90318857D01*
X129641574Y-90321121D01*
X129538296Y-90322604D01*
X129481677Y-90323031D01*
X129396929Y-90323536D01*
X129334405Y-90324429D01*
X129290932Y-90326024D01*
X129263333Y-90328630D01*
X129248434Y-90332560D01*
X129243059Y-90338125D01*
X129244034Y-90345635D01*
X129244282Y-90346305D01*
X129251920Y-90360645D01*
X129271364Y-90395143D01*
X129301594Y-90448034D01*
X129341587Y-90517554D01*
X129390324Y-90601936D01*
X129446784Y-90699417D01*
X129509944Y-90808231D01*
X129578786Y-90926613D01*
X129652287Y-91052798D01*
X129728241Y-91182990D01*
X129817613Y-91336102D01*
X129895025Y-91468883D01*
X129961334Y-91582929D01*
X130017400Y-91679838D01*
X130064081Y-91761206D01*
X130102238Y-91828628D01*
X130132728Y-91883702D01*
X130156411Y-91928023D01*
X130174147Y-91963189D01*
X130186793Y-91990795D01*
X130195209Y-92012439D01*
X130200254Y-92029716D01*
X130202787Y-92044223D01*
X130203668Y-92057556D01*
X130203760Y-92066698D01*
X130815681Y-92066698D01*
X130810442Y-92055121D01*
X130808444Y-91999831D01*
X130826180Y-91946584D01*
X130838760Y-91927752D01*
X130870510Y-91887790D01*
X131861110Y-91879830D01*
X131864504Y-91559155D01*
X131867897Y-91238480D01*
X131693054Y-91237722D01*
X131589359Y-91236197D01*
X131508185Y-91231902D01*
X131446709Y-91223750D01*
X131402108Y-91210655D01*
X131371559Y-91191531D01*
X131352238Y-91165292D01*
X131341323Y-91130853D01*
X131337123Y-91100787D01*
X131335115Y-91060022D01*
X131340929Y-91033582D01*
X131357491Y-91010869D01*
X131363708Y-91004477D01*
X131396406Y-90971779D01*
X131631933Y-90971780D01*
X131867460Y-90971780D01*
X131867460Y-90324080D01*
X131426135Y-90323322D01*
X131291558Y-90322885D01*
X131180029Y-90321943D01*
X131089198Y-90320298D01*
X131016716Y-90317753D01*
X130960232Y-90314108D01*
X130917397Y-90309166D01*
X130885862Y-90302727D01*
X130863275Y-90294594D01*
X130847287Y-90284568D01*
X130836409Y-90273529D01*
X130817217Y-90232537D01*
X130812058Y-90181576D01*
X130820476Y-90131010D01*
X130842016Y-90091203D01*
X130844533Y-90088552D01*
X130875706Y-90057380D01*
X126305732Y-90057380D01*
X126302121Y-91063855D01*
X126301446Y-91251591D01*
X126300790Y-91415576D01*
X126300054Y-91557455D01*
X126299140Y-91678876D01*
X126297947Y-91781486D01*
X126296378Y-91866932D01*
X126294332Y-91936862D01*
X126291711Y-91992922D01*
X126288415Y-92036761D01*
X126284346Y-92070024D01*
X126279404Y-92094360D01*
X126273490Y-92111416D01*
X126266505Y-92122838D01*
X126258351Y-92130275D01*
X126248926Y-92135372D01*
X126238134Y-92139778D01*
X126237355Y-92140091D01*
X126175782Y-92153001D01*
X126175085Y-92152880D01*
X118532460Y-92152880D01*
X117926035Y-92152809D01*
X117773395Y-92152503D01*
X117638449Y-92151639D01*
X117522461Y-92150243D01*
X117426693Y-92148341D01*
X117352410Y-92145959D01*
X117300874Y-92143122D01*
X117273350Y-92139856D01*
X117272006Y-92139517D01*
X117228423Y-92115655D01*
X117199189Y-92076311D01*
X117186011Y-92028032D01*
X117190596Y-91977365D01*
X117214651Y-91930860D01*
X117216907Y-91928163D01*
X117247553Y-91892530D01*
X117461382Y-91884228D01*
X117542376Y-91881582D01*
X117640649Y-91879156D01*
X117748077Y-91877103D01*
X117856541Y-91875576D01*
X117957917Y-91874731D01*
X117964135Y-91874703D01*
X118253060Y-91873480D01*
X118253060Y-91562330D01*
X118252937Y-91476365D01*
X118252588Y-91399396D01*
X118252051Y-91334879D01*
X118251359Y-91286267D01*
X118250549Y-91257015D01*
X118249885Y-91249859D01*
X118236905Y-91249287D01*
X118201474Y-91248261D01*
X118146535Y-91246852D01*
X118075033Y-91245132D01*
X117989911Y-91243171D01*
X117894113Y-91241042D01*
X117814910Y-91239332D01*
X117689802Y-91236564D01*
X117587381Y-91233777D01*
X117504940Y-91230457D01*
X117439772Y-91226092D01*
X117389167Y-91220168D01*
X117350420Y-91212173D01*
X117320822Y-91201593D01*
X117297665Y-91187916D01*
X117278243Y-91170628D01*
X117259846Y-91149218D01*
X117246197Y-91131590D01*
X117225794Y-91103474D01*
X117212242Y-91078679D01*
X117203614Y-91050395D01*
X117197984Y-91011811D01*
X117193425Y-90956115D01*
X117192411Y-90941433D01*
X117189913Y-90888117D01*
X117188137Y-90815591D01*
X117187150Y-90730037D01*
X117187015Y-90637636D01*
X117187797Y-90544572D01*
X117188080Y-90525756D01*
X117189786Y-90432181D01*
X117191684Y-90360411D01*
X117194101Y-90306851D01*
X117197368Y-90267905D01*
X117201814Y-90239979D01*
X117207767Y-90219477D01*
X117215558Y-90202806D01*
X117218059Y-90198426D01*
X117259306Y-90146019D01*
X117313182Y-90102003D01*
X117370638Y-90073379D01*
X117384772Y-90069386D01*
X117408110Y-90066868D01*
X117453804Y-90064527D01*
X117518812Y-90062428D01*
X117600090Y-90060634D01*
X117694595Y-90059210D01*
X117799285Y-90058218D01*
X117911116Y-90057723D01*
X117942709Y-90057682D01*
X118451508Y-90057380D01*
X118485634Y-90092999D01*
X118513565Y-90139155D01*
X118521534Y-90193377D01*
X118509491Y-90247965D01*
X118486882Y-90285005D01*
X118454003Y-90324079D01*
X117959832Y-90324080D01*
X117465660Y-90324080D01*
X117465660Y-90970280D01*
X117906985Y-90974205D01*
X118031762Y-90975365D01*
X118133835Y-90976756D01*
X118215901Y-90978897D01*
X118280655Y-90982306D01*
X118330792Y-90987502D01*
X118369009Y-90995005D01*
X118397999Y-91005334D01*
X118420460Y-91019008D01*
X118439085Y-91036546D01*
X118456572Y-91058466D01*
X118474332Y-91083466D01*
X118491486Y-91110118D01*
X118503171Y-91136307D01*
X118511007Y-91168589D01*
X118516619Y-91213518D01*
X118521330Y-91273357D01*
X118523874Y-91322664D01*
X118526221Y-91392485D01*
X118528272Y-91477934D01*
X118529927Y-91574125D01*
X118531087Y-91676172D01*
X118531652Y-91779188D01*
X118531657Y-91781405D01*
X118532460Y-92152880D01*
X126175085Y-92152880D01*
X126117367Y-92142873D01*
X126073286Y-92115839D01*
X126031810Y-92078798D01*
X126028080Y-91724185D01*
X126024349Y-91369571D01*
X125634380Y-91357584D01*
X125523653Y-91354080D01*
X125435299Y-91350946D01*
X125366300Y-91347913D01*
X125313637Y-91344710D01*
X125274291Y-91341071D01*
X125245244Y-91336724D01*
X125223477Y-91331401D01*
X125205971Y-91324833D01*
X125192381Y-91318173D01*
X125148457Y-91288363D01*
X125101252Y-91245786D01*
X125056635Y-91196952D01*
X125020473Y-91148372D01*
X124998636Y-91106556D01*
X124997003Y-91101424D01*
X124982740Y-91033217D01*
X124972126Y-90945678D01*
X124965257Y-90844628D01*
X124962230Y-90735884D01*
X124963141Y-90625266D01*
X124968085Y-90518594D01*
X124977158Y-90421686D01*
X124984903Y-90369045D01*
X125004553Y-90294097D01*
X125023028Y-90259873D01*
X124355550Y-90259873D01*
X124353183Y-90353978D01*
X124353016Y-90356903D01*
X124345591Y-90484976D01*
X124087932Y-90819769D01*
X123830273Y-91154563D01*
X123826142Y-91612446D01*
X123824895Y-91738839D01*
X123823457Y-91842276D01*
X123821524Y-91925203D01*
X123818794Y-91990065D01*
X123814965Y-92039304D01*
X123809734Y-92075368D01*
X123802799Y-92100699D01*
X123793857Y-92117743D01*
X123782605Y-92128944D01*
X123768742Y-92136747D01*
X123760855Y-92140091D01*
X123711007Y-92150753D01*
X123655112Y-92149324D01*
X123621196Y-92141086D01*
X123606243Y-92133763D01*
X123593885Y-92122648D01*
X123583823Y-92105377D01*
X123575762Y-92079584D01*
X123569402Y-92042905D01*
X123567357Y-92022292D01*
X120468638Y-92022292D01*
X120462537Y-92058610D01*
X120442908Y-92099872D01*
X120413168Y-92125008D01*
X120366420Y-92139404D01*
X120356986Y-92141057D01*
X120319045Y-92144811D01*
X120259420Y-92147618D01*
X120181811Y-92149480D01*
X120089917Y-92150402D01*
X119987437Y-92150384D01*
X119878069Y-92149432D01*
X119765513Y-92147546D01*
X119653468Y-92144731D01*
X119545633Y-92140989D01*
X119531732Y-92140418D01*
X119433125Y-92136543D01*
X119352061Y-92132403D01*
X119286827Y-92125673D01*
X119235710Y-92114024D01*
X119196997Y-92095132D01*
X119168975Y-92066670D01*
X119149930Y-92026310D01*
X119138149Y-91971728D01*
X119131920Y-91900595D01*
X119129528Y-91810587D01*
X119129262Y-91699375D01*
X119129428Y-91594080D01*
X119129532Y-91481844D01*
X119129930Y-91392136D01*
X119130780Y-91322082D01*
X119132237Y-91268810D01*
X119134457Y-91229447D01*
X119137597Y-91201121D01*
X119141812Y-91180959D01*
X119147259Y-91166088D01*
X119153306Y-91154917D01*
X119181569Y-91122734D01*
X119216576Y-91099482D01*
X119217279Y-91099186D01*
X119257401Y-91082567D01*
X119210656Y-91054356D01*
X119188678Y-91040633D01*
X119171121Y-91026953D01*
X119157488Y-91010449D01*
X119147281Y-90988255D01*
X119140001Y-90957504D01*
X119135151Y-90915332D01*
X119132232Y-90858871D01*
X119130746Y-90785256D01*
X119130196Y-90691619D01*
X119130089Y-90590780D01*
X119130165Y-90481807D01*
X119130617Y-90395142D01*
X119131615Y-90327693D01*
X119133330Y-90276369D01*
X119135931Y-90238079D01*
X119139590Y-90209730D01*
X119144476Y-90188232D01*
X119150759Y-90170493D01*
X119153599Y-90163985D01*
X119168296Y-90137119D01*
X119187358Y-90114356D01*
X119212754Y-90095436D01*
X119246453Y-90080101D01*
X119290425Y-90068091D01*
X119346639Y-90059147D01*
X119417064Y-90053011D01*
X119503670Y-90049424D01*
X119608426Y-90048125D01*
X119733300Y-90048858D01*
X119880264Y-90051362D01*
X119990935Y-90053874D01*
X120401659Y-90063845D01*
X120432260Y-90099421D01*
X120454065Y-90134314D01*
X120462284Y-90177484D01*
X120462666Y-90194613D01*
X120462322Y-90223588D01*
X120459994Y-90247463D01*
X120453428Y-90266763D01*
X120440371Y-90282013D01*
X120418570Y-90293738D01*
X120385771Y-90302462D01*
X120339720Y-90308712D01*
X120278164Y-90313011D01*
X120198849Y-90315884D01*
X120099523Y-90317857D01*
X119977931Y-90319455D01*
X119924013Y-90320089D01*
X119817435Y-90321501D01*
X119717981Y-90323124D01*
X119628733Y-90324884D01*
X119552776Y-90326708D01*
X119493192Y-90328522D01*
X119453064Y-90330254D01*
X119435927Y-90331721D01*
X119405944Y-90337970D01*
X119410628Y-90607962D01*
X119412803Y-90708069D01*
X119415921Y-90785796D01*
X119420714Y-90844162D01*
X119427911Y-90886187D01*
X119438246Y-90914890D01*
X119452448Y-90933291D01*
X119471251Y-90944408D01*
X119493711Y-90950901D01*
X119516546Y-90953496D01*
X119560570Y-90956425D01*
X119621578Y-90959485D01*
X119695366Y-90962478D01*
X119777729Y-90965201D01*
X119815160Y-90966251D01*
X119899931Y-90969042D01*
X119977942Y-90972635D01*
X120044991Y-90976755D01*
X120096877Y-90981127D01*
X120129397Y-90985475D01*
X120136434Y-90987290D01*
X120173939Y-91013864D01*
X120198568Y-91055490D01*
X120208027Y-91104125D01*
X120200021Y-91151730D01*
X120189159Y-91172055D01*
X120175355Y-91189793D01*
X120159608Y-91203691D01*
X120138716Y-91214311D01*
X120109481Y-91222216D01*
X120068701Y-91227965D01*
X120013176Y-91232121D01*
X119939706Y-91235244D01*
X119845090Y-91237895D01*
X119808810Y-91238760D01*
X119704874Y-91241447D01*
X119623323Y-91244496D01*
X119561142Y-91248493D01*
X119515319Y-91254024D01*
X119482838Y-91261677D01*
X119460687Y-91272040D01*
X119445850Y-91285698D01*
X119435315Y-91303238D01*
X119431291Y-91312277D01*
X119426235Y-91336571D01*
X119421483Y-91382646D01*
X119417273Y-91446887D01*
X119413849Y-91525673D01*
X119411598Y-91607897D01*
X119406259Y-91869365D01*
X119892430Y-91878191D01*
X120033695Y-91881061D01*
X120150735Y-91884123D01*
X120244722Y-91887433D01*
X120316830Y-91891047D01*
X120368234Y-91895019D01*
X120400106Y-91899405D01*
X120411206Y-91902645D01*
X120442123Y-91930183D01*
X120462238Y-91973015D01*
X120468638Y-92022292D01*
X123567357Y-92022292D01*
X123564446Y-91992974D01*
X123560597Y-91927425D01*
X123557558Y-91843895D01*
X123555030Y-91740017D01*
X123552716Y-91613427D01*
X123552400Y-91594294D01*
X123545046Y-91143659D01*
X123285721Y-90809768D01*
X123026397Y-90475878D01*
X123030504Y-90290877D01*
X123032312Y-90218530D01*
X123034471Y-90167208D01*
X123037690Y-90132540D01*
X123042683Y-90110151D01*
X123050163Y-90095672D01*
X123060840Y-90084729D01*
X123064592Y-90081628D01*
X123106980Y-90061773D01*
X123159475Y-90056927D01*
X123211894Y-90066819D01*
X123248668Y-90086520D01*
X123264933Y-90100957D01*
X123275958Y-90116904D01*
X123283296Y-90139891D01*
X123288499Y-90175446D01*
X123293118Y-90229100D01*
X123294689Y-90250477D01*
X123304452Y-90385420D01*
X123478764Y-90608239D01*
X123530308Y-90673779D01*
X123577424Y-90733034D01*
X123617600Y-90782898D01*
X123648324Y-90820262D01*
X123667081Y-90842018D01*
X123670869Y-90845824D01*
X123679394Y-90851634D01*
X123688521Y-90852944D01*
X123700232Y-90847698D01*
X123716508Y-90833840D01*
X123739331Y-90809313D01*
X123770684Y-90772061D01*
X123812547Y-90720028D01*
X123866903Y-90651157D01*
X123903762Y-90604184D01*
X124078555Y-90381230D01*
X124085834Y-90256661D01*
X124092172Y-90182932D01*
X124102390Y-90130633D01*
X124118327Y-90095879D01*
X124141823Y-90074781D01*
X124174718Y-90063455D01*
X124177514Y-90062910D01*
X124228647Y-90059307D01*
X124277203Y-90065924D01*
X124314156Y-90081087D01*
X124324500Y-90090141D01*
X124340934Y-90125390D01*
X124351376Y-90182822D01*
X124355550Y-90259873D01*
X125023028Y-90259873D01*
X125036812Y-90234339D01*
X125085631Y-90184799D01*
X125154959Y-90140505D01*
X125174560Y-90130366D01*
X125212218Y-90112893D01*
X125250843Y-90098411D01*
X125293179Y-90086649D01*
X125341973Y-90077334D01*
X125399967Y-90070194D01*
X125469906Y-90064956D01*
X125554535Y-90061350D01*
X125656598Y-90059102D01*
X125778839Y-90057941D01*
X125908421Y-90057600D01*
X126305732Y-90057380D01*
X130875706Y-90057380D01*
X132134160Y-90057380D01*
X133162860Y-90057380D01*
X133162860Y-88939780D01*
X116157560Y-88939780D01*
X116157560Y-93257780D01*
X116157560Y-89041380D01*
G36*
X125679385Y-90326352D02*
G01*
X125569681Y-90328195D01*
X125482499Y-90330370D01*
X125414963Y-90333316D01*
X125364194Y-90337474D01*
X125327317Y-90343285D01*
X125301452Y-90351190D01*
X125283725Y-90361629D01*
X125271256Y-90375043D01*
X125262015Y-90390281D01*
X125256977Y-90412512D01*
X125252906Y-90455503D01*
X125249811Y-90514629D01*
X125247704Y-90585268D01*
X125246593Y-90662798D01*
X125246488Y-90742594D01*
X125247400Y-90820034D01*
X125249338Y-90890496D01*
X125252312Y-90949355D01*
X125256332Y-90991989D01*
X125260686Y-91012282D01*
X125269535Y-91030969D01*
X125280636Y-91045865D01*
X125296792Y-91057439D01*
X125320807Y-91066163D01*
X125355486Y-91072505D01*
X125403632Y-91076935D01*
X125468050Y-91079924D01*
X125551542Y-91081940D01*
X125656915Y-91083453D01*
X125687688Y-91083816D01*
X126042066Y-91087903D01*
X126033839Y-90982216D01*
X126031336Y-90936925D01*
X126029132Y-90871966D01*
X126027352Y-90793070D01*
X126026119Y-90705971D01*
X126025557Y-90616398D01*
X126025537Y-90598850D01*
X126025460Y-90321171D01*
X125679385Y-90326352D01*
G37*
X125679385Y-90326352D02*
X125569681Y-90328195D01*
X125482499Y-90330370D01*
X125414963Y-90333316D01*
X125364194Y-90337474D01*
X125327317Y-90343285D01*
X125301452Y-90351190D01*
X125283725Y-90361629D01*
X125271256Y-90375043D01*
X125262015Y-90390281D01*
X125256977Y-90412512D01*
X125252906Y-90455503D01*
X125249811Y-90514629D01*
X125247704Y-90585268D01*
X125246593Y-90662798D01*
X125246488Y-90742594D01*
X125247400Y-90820034D01*
X125249338Y-90890496D01*
X125252312Y-90949355D01*
X125256332Y-90991989D01*
X125260686Y-91012282D01*
X125269535Y-91030969D01*
X125280636Y-91045865D01*
X125296792Y-91057439D01*
X125320807Y-91066163D01*
X125355486Y-91072505D01*
X125403632Y-91076935D01*
X125468050Y-91079924D01*
X125551542Y-91081940D01*
X125656915Y-91083453D01*
X125687688Y-91083816D01*
X126042066Y-91087903D01*
X126033839Y-90982216D01*
X126031336Y-90936925D01*
X126029132Y-90871966D01*
X126027352Y-90793070D01*
X126026119Y-90705971D01*
X126025557Y-90616398D01*
X126025537Y-90598850D01*
X126025460Y-90321171D01*
X125679385Y-90326352D01*
%TO.C,J3*%
D16*
X70299883Y-77823046D02*
X71207026Y-77823046D01*
X71388455Y-77762570D01*
X71509407Y-77641618D01*
X71569883Y-77460189D01*
X71569883Y-77339237D01*
X70299883Y-78306856D02*
X70299883Y-79093046D01*
X70783693Y-78669713D01*
X70783693Y-78851141D01*
X70844169Y-78972094D01*
X70904645Y-79032570D01*
X71025598Y-79093046D01*
X71327979Y-79093046D01*
X71448931Y-79032570D01*
X71509407Y-78972094D01*
X71569883Y-78851141D01*
X71569883Y-78488284D01*
X71509407Y-78367332D01*
X71448931Y-78306856D01*
%TO.C,J1*%
D17*
X93300693Y-125077260D02*
X93300693Y-125791546D01*
X93348312Y-125934403D01*
X93443550Y-126029641D01*
X93586407Y-126077260D01*
X93681645Y-126077260D01*
X92300693Y-126077260D02*
X92872121Y-126077260D01*
X92586407Y-126077260D02*
X92586407Y-125077260D01*
X92681645Y-125220118D01*
X92776883Y-125315356D01*
X92872121Y-125362975D01*
%TD*%
M02*
