%TF.GenerationSoftware,KiCad,Pcbnew,(5.1.7)-1*%
%TF.CreationDate,2021-01-21T08:43:37+01:00*%
%TF.ProjectId,EZ-PY32,455a2d50-5933-4322-9e6b-696361645f70,rev?*%
%TF.SameCoordinates,Original*%
%TF.FileFunction,Soldermask,Bot*%
%TF.FilePolarity,Negative*%
%FSLAX46Y46*%
G04 Gerber Fmt 4.6, Leading zero omitted, Abs format (unit mm)*
G04 Created by KiCad (PCBNEW (5.1.7)-1) date 2021-01-21 08:43:37*
%MOMM*%
%LPD*%
G01*
G04 APERTURE LIST*
%ADD10R,5.080000X1.270000*%
%ADD11O,1.600000X1.600000*%
%ADD12C,1.800000*%
%ADD13C,1.778000*%
%ADD14C,3.116000*%
%ADD15O,1.740000X2.190000*%
%ADD16R,1.700000X1.700000*%
%ADD17O,1.700000X1.700000*%
%ADD18C,3.500000*%
G04 APERTURE END LIST*
D10*
%TO.C,J3*%
X67565360Y-87136380D03*
X74425360Y-87136380D03*
X67565360Y-84596380D03*
X74425360Y-84596380D03*
X67565360Y-82056380D03*
X74425360Y-82056380D03*
X67565360Y-79516380D03*
X74425360Y-79516380D03*
X67565360Y-76976380D03*
X74425360Y-76976380D03*
X67565360Y-74436380D03*
X74425360Y-74436380D03*
X67565360Y-71896380D03*
X74425360Y-71896380D03*
X67565360Y-69356380D03*
X74425360Y-69356380D03*
%TD*%
D11*
%TO.C,U6*%
X90490860Y-112218880D03*
X115890860Y-63958880D03*
X105730860Y-63958880D03*
X81350860Y-63958880D03*
X83890860Y-63958880D03*
X88970860Y-63958880D03*
X85410860Y-112218880D03*
X95570860Y-112218880D03*
X98110860Y-112218880D03*
X105730860Y-112218880D03*
X113350860Y-112218880D03*
X91510860Y-63958880D03*
X115890860Y-112218880D03*
X76270860Y-63958880D03*
X94050860Y-63958880D03*
X108270860Y-63958880D03*
X103190860Y-112218880D03*
X110810860Y-63958880D03*
X87950860Y-112218880D03*
X93030860Y-112218880D03*
X78810860Y-63958880D03*
X86430860Y-63958880D03*
X103190860Y-63958880D03*
X100650860Y-63958880D03*
X108270860Y-112218880D03*
X113350860Y-63958880D03*
X98110860Y-63958880D03*
X110810860Y-112218880D03*
%TD*%
D12*
%TO.C,S1*%
X136120500Y-132214000D03*
X138620500Y-132214000D03*
X141120500Y-132214000D03*
D13*
X138620500Y-117714000D03*
X136620500Y-117714000D03*
D14*
X133070500Y-124714000D03*
X144170500Y-124714000D03*
D13*
X140620500Y-117714000D03*
X134620500Y-117714000D03*
X142620500Y-117714000D03*
%TD*%
%TO.C,J1*%
G36*
G01*
X95107360Y-128899879D02*
X95107360Y-130589881D01*
G75*
G02*
X94857361Y-130839880I-249999J0D01*
G01*
X93617359Y-130839880D01*
G75*
G02*
X93367360Y-130589881I0J249999D01*
G01*
X93367360Y-128899879D01*
G75*
G02*
X93617359Y-128649880I249999J0D01*
G01*
X94857361Y-128649880D01*
G75*
G02*
X95107360Y-128899879I0J-249999D01*
G01*
G37*
D15*
X91697360Y-129744880D03*
%TD*%
D16*
%TO.C,J2*%
X62230000Y-90233500D03*
D17*
X62230000Y-87693500D03*
X62230000Y-85153500D03*
X62230000Y-82613500D03*
X62230000Y-80073500D03*
X62230000Y-77533500D03*
%TD*%
D18*
%TO.C,H1*%
X56380360Y-134181880D03*
%TD*%
%TO.C,H2*%
X56305360Y-56506880D03*
%TD*%
%TO.C,H3*%
X149230360Y-134231880D03*
%TD*%
%TO.C,H4*%
X149155360Y-56656880D03*
%TD*%
M02*
