%TF.GenerationSoftware,KiCad,Pcbnew,(5.1.7)-1*%
%TF.CreationDate,2020-12-15T16:08:46+01:00*%
%TF.ProjectId,EZ-PY32,455a2d50-5933-4322-9e6b-696361645f70,rev?*%
%TF.SameCoordinates,Original*%
%TF.FileFunction,Legend,Top*%
%TF.FilePolarity,Positive*%
%FSLAX46Y46*%
G04 Gerber Fmt 4.6, Leading zero omitted, Abs format (unit mm)*
G04 Created by KiCad (PCBNEW (5.1.7)-1) date 2020-12-15 16:08:46*
%MOMM*%
%LPD*%
G01*
G04 APERTURE LIST*
%ADD10C,0.150000*%
%ADD11C,0.203200*%
%ADD12C,0.120000*%
%ADD13C,0.015000*%
%ADD14C,0.254000*%
G04 APERTURE END LIST*
D10*
X27844690Y-74443880D02*
X27844690Y-73443880D01*
X28082785Y-73443880D01*
X28225642Y-73491500D01*
X28320880Y-73586738D01*
X28368500Y-73681976D01*
X28416119Y-73872452D01*
X28416119Y-74015309D01*
X28368500Y-74205785D01*
X28320880Y-74301023D01*
X28225642Y-74396261D01*
X28082785Y-74443880D01*
X27844690Y-74443880D01*
X28701833Y-73443880D02*
X29273261Y-73443880D01*
X28987547Y-74443880D02*
X28987547Y-73443880D01*
X30178023Y-74443880D02*
X29844690Y-73967690D01*
X29606595Y-74443880D02*
X29606595Y-73443880D01*
X29987547Y-73443880D01*
X30082785Y-73491500D01*
X30130404Y-73539119D01*
X30178023Y-73634357D01*
X30178023Y-73777214D01*
X30130404Y-73872452D01*
X30082785Y-73920071D01*
X29987547Y-73967690D01*
X29606595Y-73967690D01*
X28106595Y-60491500D02*
X28011357Y-60443880D01*
X27868500Y-60443880D01*
X27725642Y-60491500D01*
X27630404Y-60586738D01*
X27582785Y-60681976D01*
X27535166Y-60872452D01*
X27535166Y-61015309D01*
X27582785Y-61205785D01*
X27630404Y-61301023D01*
X27725642Y-61396261D01*
X27868500Y-61443880D01*
X27963738Y-61443880D01*
X28106595Y-61396261D01*
X28154214Y-61348642D01*
X28154214Y-61015309D01*
X27963738Y-61015309D01*
X28582785Y-61443880D02*
X28582785Y-60443880D01*
X29154214Y-61443880D01*
X29154214Y-60443880D01*
X29630404Y-61443880D02*
X29630404Y-60443880D01*
X29868500Y-60443880D01*
X30011357Y-60491500D01*
X30106595Y-60586738D01*
X30154214Y-60681976D01*
X30201833Y-60872452D01*
X30201833Y-61015309D01*
X30154214Y-61205785D01*
X30106595Y-61301023D01*
X30011357Y-61396261D01*
X29868500Y-61443880D01*
X29630404Y-61443880D01*
X28320880Y-63943880D02*
X27987547Y-63467690D01*
X27749452Y-63943880D02*
X27749452Y-62943880D01*
X28130404Y-62943880D01*
X28225642Y-62991500D01*
X28273261Y-63039119D01*
X28320880Y-63134357D01*
X28320880Y-63277214D01*
X28273261Y-63372452D01*
X28225642Y-63420071D01*
X28130404Y-63467690D01*
X27749452Y-63467690D01*
X28606595Y-62943880D02*
X29178023Y-62943880D01*
X28892309Y-63943880D02*
X28892309Y-62943880D01*
X29463738Y-63896261D02*
X29606595Y-63943880D01*
X29844690Y-63943880D01*
X29939928Y-63896261D01*
X29987547Y-63848642D01*
X30035166Y-63753404D01*
X30035166Y-63658166D01*
X29987547Y-63562928D01*
X29939928Y-63515309D01*
X29844690Y-63467690D01*
X29654214Y-63420071D01*
X29558976Y-63372452D01*
X29511357Y-63324833D01*
X29463738Y-63229595D01*
X29463738Y-63134357D01*
X29511357Y-63039119D01*
X29558976Y-62991500D01*
X29654214Y-62943880D01*
X29892309Y-62943880D01*
X30035166Y-62991500D01*
X27630404Y-65443880D02*
X28249452Y-65443880D01*
X27916119Y-65824833D01*
X28058976Y-65824833D01*
X28154214Y-65872452D01*
X28201833Y-65920071D01*
X28249452Y-66015309D01*
X28249452Y-66253404D01*
X28201833Y-66348642D01*
X28154214Y-66396261D01*
X28058976Y-66443880D01*
X27773261Y-66443880D01*
X27678023Y-66396261D01*
X27630404Y-66348642D01*
X28535166Y-65443880D02*
X28868500Y-66443880D01*
X29201833Y-65443880D01*
X29439928Y-65443880D02*
X30058976Y-65443880D01*
X29725642Y-65824833D01*
X29868500Y-65824833D01*
X29963738Y-65872452D01*
X30011357Y-65920071D01*
X30058976Y-66015309D01*
X30058976Y-66253404D01*
X30011357Y-66348642D01*
X29963738Y-66396261D01*
X29868500Y-66443880D01*
X29582785Y-66443880D01*
X29487547Y-66396261D01*
X29439928Y-66348642D01*
X28273261Y-68943880D02*
X27939928Y-68467690D01*
X27701833Y-68943880D02*
X27701833Y-67943880D01*
X28082785Y-67943880D01*
X28178023Y-67991500D01*
X28225642Y-68039119D01*
X28273261Y-68134357D01*
X28273261Y-68277214D01*
X28225642Y-68372452D01*
X28178023Y-68420071D01*
X28082785Y-68467690D01*
X27701833Y-68467690D01*
X28606595Y-68943880D02*
X29130404Y-68277214D01*
X28606595Y-68277214D02*
X29130404Y-68943880D01*
X27678023Y-70443880D02*
X28249452Y-70443880D01*
X27963738Y-71443880D02*
X27963738Y-70443880D01*
X28487547Y-71443880D02*
X29011357Y-70777214D01*
X28487547Y-70777214D02*
X29011357Y-71443880D01*
X28519428Y-80999295D02*
X28471809Y-81142152D01*
X28424190Y-81189771D01*
X28328952Y-81237390D01*
X28186095Y-81237390D01*
X28090857Y-81189771D01*
X28043238Y-81142152D01*
X27995619Y-81046914D01*
X27995619Y-80665961D01*
X28995619Y-80665961D01*
X28995619Y-80999295D01*
X28948000Y-81094533D01*
X28900380Y-81142152D01*
X28805142Y-81189771D01*
X28709904Y-81189771D01*
X28614666Y-81142152D01*
X28567047Y-81094533D01*
X28519428Y-80999295D01*
X28519428Y-80665961D01*
X27995619Y-81808819D02*
X28043238Y-81713580D01*
X28090857Y-81665961D01*
X28186095Y-81618342D01*
X28471809Y-81618342D01*
X28567047Y-81665961D01*
X28614666Y-81713580D01*
X28662285Y-81808819D01*
X28662285Y-81951676D01*
X28614666Y-82046914D01*
X28567047Y-82094533D01*
X28471809Y-82142152D01*
X28186095Y-82142152D01*
X28090857Y-82094533D01*
X28043238Y-82046914D01*
X27995619Y-81951676D01*
X27995619Y-81808819D01*
X27995619Y-82713580D02*
X28043238Y-82618342D01*
X28090857Y-82570723D01*
X28186095Y-82523104D01*
X28471809Y-82523104D01*
X28567047Y-82570723D01*
X28614666Y-82618342D01*
X28662285Y-82713580D01*
X28662285Y-82856438D01*
X28614666Y-82951676D01*
X28567047Y-82999295D01*
X28471809Y-83046914D01*
X28186095Y-83046914D01*
X28090857Y-82999295D01*
X28043238Y-82951676D01*
X27995619Y-82856438D01*
X27995619Y-82713580D01*
X28662285Y-83332628D02*
X28662285Y-83713580D01*
X28995619Y-83475485D02*
X28138476Y-83475485D01*
X28043238Y-83523104D01*
X27995619Y-83618342D01*
X27995619Y-83713580D01*
X27995619Y-84046914D02*
X28662285Y-84046914D01*
X28995619Y-84046914D02*
X28948000Y-83999295D01*
X28900380Y-84046914D01*
X28948000Y-84094533D01*
X28995619Y-84046914D01*
X28900380Y-84046914D01*
X28662285Y-84523104D02*
X27995619Y-84523104D01*
X28567047Y-84523104D02*
X28614666Y-84570723D01*
X28662285Y-84665961D01*
X28662285Y-84808819D01*
X28614666Y-84904057D01*
X28519428Y-84951676D01*
X27995619Y-84951676D01*
X28662285Y-85856438D02*
X27852761Y-85856438D01*
X27757523Y-85808819D01*
X27709904Y-85761200D01*
X27662285Y-85665961D01*
X27662285Y-85523104D01*
X27709904Y-85427866D01*
X28043238Y-85856438D02*
X27995619Y-85761200D01*
X27995619Y-85570723D01*
X28043238Y-85475485D01*
X28090857Y-85427866D01*
X28186095Y-85380247D01*
X28471809Y-85380247D01*
X28567047Y-85427866D01*
X28614666Y-85475485D01*
X28662285Y-85570723D01*
X28662285Y-85761200D01*
X28614666Y-85856438D01*
X27944819Y-77785980D02*
X28421009Y-77452647D01*
X27944819Y-77214552D02*
X28944819Y-77214552D01*
X28944819Y-77595504D01*
X28897200Y-77690742D01*
X28849580Y-77738361D01*
X28754342Y-77785980D01*
X28611485Y-77785980D01*
X28516247Y-77738361D01*
X28468628Y-77690742D01*
X28421009Y-77595504D01*
X28421009Y-77214552D01*
X27992438Y-78166933D02*
X27944819Y-78309790D01*
X27944819Y-78547885D01*
X27992438Y-78643123D01*
X28040057Y-78690742D01*
X28135295Y-78738361D01*
X28230533Y-78738361D01*
X28325771Y-78690742D01*
X28373390Y-78643123D01*
X28421009Y-78547885D01*
X28468628Y-78357409D01*
X28516247Y-78262171D01*
X28563866Y-78214552D01*
X28659104Y-78166933D01*
X28754342Y-78166933D01*
X28849580Y-78214552D01*
X28897200Y-78262171D01*
X28944819Y-78357409D01*
X28944819Y-78595504D01*
X28897200Y-78738361D01*
X28944819Y-79024076D02*
X28944819Y-79595504D01*
X27944819Y-79309790D02*
X28944819Y-79309790D01*
D11*
%TO.C,S1*%
X118760500Y-109474000D02*
G75*
G03*
X118760500Y-109474000I-3000000J0D01*
G01*
X109560500Y-111174000D02*
X109560500Y-115367800D01*
X110366700Y-116174000D02*
X112360500Y-116174000D01*
X121154300Y-116174000D02*
X119160500Y-116174000D01*
X121960500Y-111174000D02*
X121960500Y-115367800D01*
X121960500Y-107774000D02*
X121960500Y-103580200D01*
X121154300Y-102774000D02*
X119660500Y-102774000D01*
X110366700Y-102774000D02*
X111860500Y-102774000D01*
X109560500Y-107774000D02*
X109560500Y-103580200D01*
X109560500Y-103580200D02*
G75*
G02*
X110366700Y-102774000I806200J0D01*
G01*
X121960500Y-103580200D02*
G75*
G03*
X121154300Y-102774000I-806200J0D01*
G01*
X121960500Y-115367800D02*
G75*
G02*
X121154300Y-116174000I-806200J0D01*
G01*
X109560500Y-115367800D02*
G75*
G03*
X110366700Y-116174000I806200J0D01*
G01*
D12*
%TO.C,C4*%
X88691627Y-104081880D02*
X88399093Y-104081880D01*
X88691627Y-105101880D02*
X88399093Y-105101880D01*
%TO.C,U4*%
X36779200Y-99314000D02*
X36779200Y-43688000D01*
X36779200Y-43688000D02*
X122377200Y-43688000D01*
X122377200Y-43688000D02*
X122377200Y-99314000D01*
X122377200Y-99314000D02*
X36779200Y-99314000D01*
D10*
%TO.C,U1*%
X73349500Y-115410500D02*
X73349500Y-104760500D01*
X76789500Y-104760500D02*
X82849500Y-104760500D01*
X73349500Y-104760500D02*
X75229500Y-104760500D01*
X75229500Y-115410500D02*
X73349500Y-115410500D01*
X77769500Y-115410500D02*
X76789500Y-115410500D01*
X82849500Y-115410500D02*
X79329500Y-115410500D01*
X86289500Y-115410500D02*
X84409500Y-115410500D01*
X86289500Y-104760500D02*
X86289500Y-115410500D01*
X84409500Y-104760500D02*
X86289500Y-104760500D01*
D12*
X73099500Y-115662500D02*
X74099500Y-115662500D01*
X73099500Y-114662500D02*
X73099500Y-115662500D01*
%TO.C,R10*%
X53859976Y-80128000D02*
X54369424Y-80128000D01*
X53859976Y-79083000D02*
X54369424Y-79083000D01*
%TO.C,R6*%
X113206000Y-98908776D02*
X113206000Y-99418224D01*
X114251000Y-98908776D02*
X114251000Y-99418224D01*
%TO.C,R5*%
X111174000Y-98805276D02*
X111174000Y-99314724D01*
X112219000Y-98805276D02*
X112219000Y-99314724D01*
%TO.C,U3*%
X57316500Y-103107500D02*
X57696500Y-103107500D01*
X57316500Y-109527500D02*
X57316500Y-103107500D01*
X39076500Y-109527500D02*
X39076500Y-103107500D01*
X57316500Y-109527500D02*
X39076500Y-109527500D01*
X39076500Y-83782500D02*
X40076500Y-83782500D01*
X39076500Y-84562500D02*
X39076500Y-83782500D01*
X57316500Y-83782500D02*
X56316500Y-83782500D01*
X57316500Y-84562500D02*
X57316500Y-83782500D01*
%TO.C,SW1*%
X29973000Y-80203500D02*
X29973000Y-79903500D01*
X33273000Y-80203500D02*
X29973000Y-80203500D01*
X33273000Y-79903500D02*
X33273000Y-80203500D01*
X29973000Y-77403500D02*
X29973000Y-77703500D01*
X33273000Y-77403500D02*
X29973000Y-77403500D01*
X33273000Y-77703500D02*
X33273000Y-77403500D01*
%TO.C,R14*%
X40120024Y-77432000D02*
X39610576Y-77432000D01*
X40120024Y-78477000D02*
X39610576Y-78477000D01*
%TO.C,C3*%
X115868233Y-92815500D02*
X116160767Y-92815500D01*
X115868233Y-91795500D02*
X116160767Y-91795500D01*
%TO.C,C9*%
X40011567Y-79095500D02*
X39719033Y-79095500D01*
X40011567Y-80115500D02*
X39719033Y-80115500D01*
%TO.C,R11*%
X54369424Y-77432000D02*
X53859976Y-77432000D01*
X54369424Y-78477000D02*
X53859976Y-78477000D01*
%TO.C,R15*%
X40069224Y-81826200D02*
X39559776Y-81826200D01*
X40069224Y-82871200D02*
X39559776Y-82871200D01*
%TO.C,C1*%
X100463567Y-110185100D02*
X100171033Y-110185100D01*
X100463567Y-111205100D02*
X100171033Y-111205100D01*
%TO.C,C2*%
X105238767Y-107543500D02*
X104946233Y-107543500D01*
X105238767Y-108563500D02*
X104946233Y-108563500D01*
%TO.C,C6*%
X88516627Y-106856880D02*
X88224093Y-106856880D01*
X88516627Y-107876880D02*
X88224093Y-107876880D01*
%TO.C,C7*%
X92049093Y-107801880D02*
X92341627Y-107801880D01*
X92049093Y-106781880D02*
X92341627Y-106781880D01*
%TO.C,C8*%
X54966627Y-80731880D02*
X54674093Y-80731880D01*
X54966627Y-81751880D02*
X54674093Y-81751880D01*
%TO.C,C10*%
X59785360Y-101120613D02*
X59785360Y-101413147D01*
X60805360Y-101120613D02*
X60805360Y-101413147D01*
%TO.C,C12*%
X58185360Y-101120613D02*
X58185360Y-101413147D01*
X59205360Y-101120613D02*
X59205360Y-101413147D01*
%TO.C,R1*%
X101738976Y-113198800D02*
X102248424Y-113198800D01*
X101738976Y-112153800D02*
X102248424Y-112153800D01*
%TO.C,R2*%
X106666576Y-105477200D02*
X107176024Y-105477200D01*
X106666576Y-104432200D02*
X107176024Y-104432200D01*
%TO.C,R3*%
X99960976Y-115484800D02*
X100470424Y-115484800D01*
X99960976Y-114439800D02*
X100470424Y-114439800D01*
%TO.C,R4*%
X105347224Y-102197000D02*
X104837776Y-102197000D01*
X105347224Y-103242000D02*
X104837776Y-103242000D01*
%TO.C,R8*%
X115238000Y-98908776D02*
X115238000Y-99418224D01*
X116283000Y-98908776D02*
X116283000Y-99418224D01*
%TO.C,R9*%
X115759776Y-95622000D02*
X116269224Y-95622000D01*
X115759776Y-94577000D02*
X116269224Y-94577000D01*
%TO.C,R7*%
X117270000Y-98908776D02*
X117270000Y-99418224D01*
X118315000Y-98908776D02*
X118315000Y-99418224D01*
%TO.C,U2*%
X94074500Y-108942500D02*
X94074500Y-114952500D01*
X87254500Y-111192500D02*
X87254500Y-114952500D01*
X94074500Y-114952500D02*
X92814500Y-114952500D01*
X87254500Y-114952500D02*
X88514500Y-114952500D01*
%TO.C,Q4*%
X53423700Y-76174500D02*
X53423700Y-74714500D01*
X56583700Y-76174500D02*
X56583700Y-74014500D01*
X56583700Y-76174500D02*
X55653700Y-76174500D01*
X53423700Y-76174500D02*
X54353700Y-76174500D01*
%TO.C,Q5*%
X50160700Y-74607500D02*
X50160700Y-76017500D01*
X52480700Y-76017500D02*
X52480700Y-73987500D01*
X52480700Y-76017500D02*
X51820700Y-76017500D01*
X50820700Y-76017500D02*
X50160700Y-76017500D01*
%TO.C,R12*%
X47826400Y-76759976D02*
X47826400Y-77269424D01*
X48871400Y-76759976D02*
X48871400Y-77269424D01*
%TO.C,R13*%
X53328024Y-72863600D02*
X52818576Y-72863600D01*
X53328024Y-71818600D02*
X52818576Y-71818600D01*
%TO.C,J2*%
X40640000Y-76263500D02*
X39370000Y-76263500D01*
X40640000Y-74993500D02*
X40640000Y-76263500D01*
X38327071Y-61913500D02*
X37930000Y-61913500D01*
X38327071Y-62673500D02*
X37930000Y-62673500D01*
X29270000Y-61913500D02*
X35270000Y-61913500D01*
X29270000Y-62673500D02*
X29270000Y-61913500D01*
X35270000Y-62673500D02*
X29270000Y-62673500D01*
X37930000Y-63563500D02*
X35270000Y-63563500D01*
X38327071Y-64453500D02*
X37930000Y-64453500D01*
X38327071Y-65213500D02*
X37930000Y-65213500D01*
X29270000Y-64453500D02*
X35270000Y-64453500D01*
X29270000Y-65213500D02*
X29270000Y-64453500D01*
X35270000Y-65213500D02*
X29270000Y-65213500D01*
X37930000Y-66103500D02*
X35270000Y-66103500D01*
X38327071Y-66993500D02*
X37930000Y-66993500D01*
X38327071Y-67753500D02*
X37930000Y-67753500D01*
X29270000Y-66993500D02*
X35270000Y-66993500D01*
X29270000Y-67753500D02*
X29270000Y-66993500D01*
X35270000Y-67753500D02*
X29270000Y-67753500D01*
X37930000Y-68643500D02*
X35270000Y-68643500D01*
X38327071Y-69533500D02*
X37930000Y-69533500D01*
X38327071Y-70293500D02*
X37930000Y-70293500D01*
X29270000Y-69533500D02*
X35270000Y-69533500D01*
X29270000Y-70293500D02*
X29270000Y-69533500D01*
X35270000Y-70293500D02*
X29270000Y-70293500D01*
X37930000Y-71183500D02*
X35270000Y-71183500D01*
X38327071Y-72073500D02*
X37930000Y-72073500D01*
X38327071Y-72833500D02*
X37930000Y-72833500D01*
X29270000Y-72073500D02*
X35270000Y-72073500D01*
X29270000Y-72833500D02*
X29270000Y-72073500D01*
X35270000Y-72833500D02*
X29270000Y-72833500D01*
X37930000Y-73723500D02*
X35270000Y-73723500D01*
X38260000Y-74613500D02*
X37930000Y-74613500D01*
X38260000Y-75373500D02*
X37930000Y-75373500D01*
X35270000Y-74713500D02*
X29270000Y-74713500D01*
X35270000Y-74833500D02*
X29270000Y-74833500D01*
X35270000Y-74953500D02*
X29270000Y-74953500D01*
X35270000Y-75073500D02*
X29270000Y-75073500D01*
X35270000Y-75193500D02*
X29270000Y-75193500D01*
X35270000Y-75313500D02*
X29270000Y-75313500D01*
X29270000Y-74613500D02*
X35270000Y-74613500D01*
X29270000Y-75373500D02*
X29270000Y-74613500D01*
X35270000Y-75373500D02*
X29270000Y-75373500D01*
X35270000Y-76323500D02*
X37930000Y-76323500D01*
X35270000Y-60963500D02*
X35270000Y-76323500D01*
X37930000Y-60963500D02*
X35270000Y-60963500D01*
X37930000Y-76323500D02*
X37930000Y-60963500D01*
%TO.C,Q1*%
X117533300Y-90135100D02*
X117533300Y-88675100D01*
X120693300Y-90135100D02*
X120693300Y-87975100D01*
X120693300Y-90135100D02*
X119763300Y-90135100D01*
X117533300Y-90135100D02*
X118463300Y-90135100D01*
%TO.C,Q2*%
X112148500Y-90271500D02*
X113078500Y-90271500D01*
X115308500Y-90271500D02*
X114378500Y-90271500D01*
X115308500Y-90271500D02*
X115308500Y-88111500D01*
X112148500Y-90271500D02*
X112148500Y-88811500D01*
%TO.C,Q3*%
X110116500Y-94081500D02*
X110116500Y-92621500D01*
X113276500Y-94081500D02*
X113276500Y-91921500D01*
X113276500Y-94081500D02*
X112346500Y-94081500D01*
X110116500Y-94081500D02*
X111046500Y-94081500D01*
%TO.C,SW2*%
X33273000Y-81196000D02*
X33273000Y-80896000D01*
X33273000Y-80896000D02*
X29973000Y-80896000D01*
X29973000Y-80896000D02*
X29973000Y-81196000D01*
X33273000Y-83396000D02*
X33273000Y-83696000D01*
X33273000Y-83696000D02*
X29973000Y-83696000D01*
X29973000Y-83696000D02*
X29973000Y-83396000D01*
%TO.C,C5*%
X64749093Y-97906880D02*
X65041627Y-97906880D01*
X64749093Y-98926880D02*
X65041627Y-98926880D01*
%TO.C,R17*%
X62717860Y-99596604D02*
X62717860Y-99087156D01*
X61672860Y-99596604D02*
X61672860Y-99087156D01*
%TO.C,S1*%
D13*
X108739985Y-105858285D02*
X108808557Y-105881142D01*
X108922842Y-105881142D01*
X108968557Y-105858285D01*
X108991414Y-105835428D01*
X109014271Y-105789714D01*
X109014271Y-105744000D01*
X108991414Y-105698285D01*
X108968557Y-105675428D01*
X108922842Y-105652571D01*
X108831414Y-105629714D01*
X108785700Y-105606857D01*
X108762842Y-105584000D01*
X108739985Y-105538285D01*
X108739985Y-105492571D01*
X108762842Y-105446857D01*
X108785700Y-105424000D01*
X108831414Y-105401142D01*
X108945700Y-105401142D01*
X109014271Y-105424000D01*
X109471414Y-105881142D02*
X109197128Y-105881142D01*
X109334271Y-105881142D02*
X109334271Y-105401142D01*
X109288557Y-105469714D01*
X109242842Y-105515428D01*
X109197128Y-105538285D01*
%TO.C,C4*%
D10*
X91303693Y-105174022D02*
X91256074Y-105221641D01*
X91113217Y-105269260D01*
X91017979Y-105269260D01*
X90875121Y-105221641D01*
X90779883Y-105126403D01*
X90732264Y-105031165D01*
X90684645Y-104840689D01*
X90684645Y-104697832D01*
X90732264Y-104507356D01*
X90779883Y-104412118D01*
X90875121Y-104316880D01*
X91017979Y-104269260D01*
X91113217Y-104269260D01*
X91256074Y-104316880D01*
X91303693Y-104364499D01*
X92160836Y-104602594D02*
X92160836Y-105269260D01*
X91922740Y-104221641D02*
X91684645Y-104935927D01*
X92303693Y-104935927D01*
%TO.C,U4*%
X52487580Y-88391904D02*
X53297104Y-88391904D01*
X53392342Y-88344285D01*
X53439961Y-88296666D01*
X53487580Y-88201428D01*
X53487580Y-88010952D01*
X53439961Y-87915714D01*
X53392342Y-87868095D01*
X53297104Y-87820476D01*
X52487580Y-87820476D01*
X52820914Y-86915714D02*
X53487580Y-86915714D01*
X52439961Y-87153809D02*
X53154247Y-87391904D01*
X53154247Y-86772857D01*
%TO.C,U1*%
X71271880Y-114847404D02*
X72081404Y-114847404D01*
X72176642Y-114799785D01*
X72224261Y-114752166D01*
X72271880Y-114656928D01*
X72271880Y-114466452D01*
X72224261Y-114371214D01*
X72176642Y-114323595D01*
X72081404Y-114275976D01*
X71271880Y-114275976D01*
X72271880Y-113275976D02*
X72271880Y-113847404D01*
X72271880Y-113561690D02*
X71271880Y-113561690D01*
X71414738Y-113656928D01*
X71509976Y-113752166D01*
X71557595Y-113847404D01*
%TO.C,R10*%
X57002442Y-80057880D02*
X56669109Y-79581690D01*
X56431014Y-80057880D02*
X56431014Y-79057880D01*
X56811966Y-79057880D01*
X56907204Y-79105500D01*
X56954823Y-79153119D01*
X57002442Y-79248357D01*
X57002442Y-79391214D01*
X56954823Y-79486452D01*
X56907204Y-79534071D01*
X56811966Y-79581690D01*
X56431014Y-79581690D01*
X57954823Y-80057880D02*
X57383395Y-80057880D01*
X57669109Y-80057880D02*
X57669109Y-79057880D01*
X57573871Y-79200738D01*
X57478633Y-79295976D01*
X57383395Y-79343595D01*
X58573871Y-79057880D02*
X58669109Y-79057880D01*
X58764347Y-79105500D01*
X58811966Y-79153119D01*
X58859585Y-79248357D01*
X58907204Y-79438833D01*
X58907204Y-79676928D01*
X58859585Y-79867404D01*
X58811966Y-79962642D01*
X58764347Y-80010261D01*
X58669109Y-80057880D01*
X58573871Y-80057880D01*
X58478633Y-80010261D01*
X58431014Y-79962642D01*
X58383395Y-79867404D01*
X58335776Y-79676928D01*
X58335776Y-79438833D01*
X58383395Y-79248357D01*
X58431014Y-79153119D01*
X58478633Y-79105500D01*
X58573871Y-79057880D01*
%TO.C,R6*%
X114117380Y-96512666D02*
X113641190Y-96846000D01*
X114117380Y-97084095D02*
X113117380Y-97084095D01*
X113117380Y-96703142D01*
X113165000Y-96607904D01*
X113212619Y-96560285D01*
X113307857Y-96512666D01*
X113450714Y-96512666D01*
X113545952Y-96560285D01*
X113593571Y-96607904D01*
X113641190Y-96703142D01*
X113641190Y-97084095D01*
X113117380Y-95655523D02*
X113117380Y-95846000D01*
X113165000Y-95941238D01*
X113212619Y-95988857D01*
X113355476Y-96084095D01*
X113545952Y-96131714D01*
X113926904Y-96131714D01*
X114022142Y-96084095D01*
X114069761Y-96036476D01*
X114117380Y-95941238D01*
X114117380Y-95750761D01*
X114069761Y-95655523D01*
X114022142Y-95607904D01*
X113926904Y-95560285D01*
X113688809Y-95560285D01*
X113593571Y-95607904D01*
X113545952Y-95655523D01*
X113498333Y-95750761D01*
X113498333Y-95941238D01*
X113545952Y-96036476D01*
X113593571Y-96084095D01*
X113688809Y-96131714D01*
%TO.C,R5*%
X112212380Y-96409166D02*
X111736190Y-96742500D01*
X112212380Y-96980595D02*
X111212380Y-96980595D01*
X111212380Y-96599642D01*
X111260000Y-96504404D01*
X111307619Y-96456785D01*
X111402857Y-96409166D01*
X111545714Y-96409166D01*
X111640952Y-96456785D01*
X111688571Y-96504404D01*
X111736190Y-96599642D01*
X111736190Y-96980595D01*
X111212380Y-95504404D02*
X111212380Y-95980595D01*
X111688571Y-96028214D01*
X111640952Y-95980595D01*
X111593333Y-95885357D01*
X111593333Y-95647261D01*
X111640952Y-95552023D01*
X111688571Y-95504404D01*
X111783809Y-95456785D01*
X112021904Y-95456785D01*
X112117142Y-95504404D01*
X112164761Y-95552023D01*
X112212380Y-95647261D01*
X112212380Y-95885357D01*
X112164761Y-95980595D01*
X112117142Y-96028214D01*
%TO.C,U3*%
X58258880Y-85994404D02*
X59068404Y-85994404D01*
X59163642Y-85946785D01*
X59211261Y-85899166D01*
X59258880Y-85803928D01*
X59258880Y-85613452D01*
X59211261Y-85518214D01*
X59163642Y-85470595D01*
X59068404Y-85422976D01*
X58258880Y-85422976D01*
X58258880Y-85042023D02*
X58258880Y-84422976D01*
X58639833Y-84756309D01*
X58639833Y-84613452D01*
X58687452Y-84518214D01*
X58735071Y-84470595D01*
X58830309Y-84422976D01*
X59068404Y-84422976D01*
X59163642Y-84470595D01*
X59211261Y-84518214D01*
X59258880Y-84613452D01*
X59258880Y-84899166D01*
X59211261Y-84994404D01*
X59163642Y-85042023D01*
%TO.C,SW1*%
X34480666Y-79271761D02*
X34623523Y-79319380D01*
X34861619Y-79319380D01*
X34956857Y-79271761D01*
X35004476Y-79224142D01*
X35052095Y-79128904D01*
X35052095Y-79033666D01*
X35004476Y-78938428D01*
X34956857Y-78890809D01*
X34861619Y-78843190D01*
X34671142Y-78795571D01*
X34575904Y-78747952D01*
X34528285Y-78700333D01*
X34480666Y-78605095D01*
X34480666Y-78509857D01*
X34528285Y-78414619D01*
X34575904Y-78367000D01*
X34671142Y-78319380D01*
X34909238Y-78319380D01*
X35052095Y-78367000D01*
X35385428Y-78319380D02*
X35623523Y-79319380D01*
X35814000Y-78605095D01*
X36004476Y-79319380D01*
X36242571Y-78319380D01*
X37147333Y-79319380D02*
X36575904Y-79319380D01*
X36861619Y-79319380D02*
X36861619Y-78319380D01*
X36766380Y-78462238D01*
X36671142Y-78557476D01*
X36575904Y-78605095D01*
%TO.C,R14*%
X42422842Y-78381480D02*
X42089509Y-77905290D01*
X41851414Y-78381480D02*
X41851414Y-77381480D01*
X42232366Y-77381480D01*
X42327604Y-77429100D01*
X42375223Y-77476719D01*
X42422842Y-77571957D01*
X42422842Y-77714814D01*
X42375223Y-77810052D01*
X42327604Y-77857671D01*
X42232366Y-77905290D01*
X41851414Y-77905290D01*
X43375223Y-78381480D02*
X42803795Y-78381480D01*
X43089509Y-78381480D02*
X43089509Y-77381480D01*
X42994271Y-77524338D01*
X42899033Y-77619576D01*
X42803795Y-77667195D01*
X44232366Y-77714814D02*
X44232366Y-78381480D01*
X43994271Y-77333861D02*
X43756176Y-78048147D01*
X44375223Y-78048147D01*
%TO.C,C3*%
X118743433Y-92713442D02*
X118695814Y-92761061D01*
X118552957Y-92808680D01*
X118457719Y-92808680D01*
X118314861Y-92761061D01*
X118219623Y-92665823D01*
X118172004Y-92570585D01*
X118124385Y-92380109D01*
X118124385Y-92237252D01*
X118172004Y-92046776D01*
X118219623Y-91951538D01*
X118314861Y-91856300D01*
X118457719Y-91808680D01*
X118552957Y-91808680D01*
X118695814Y-91856300D01*
X118743433Y-91903919D01*
X119076766Y-91808680D02*
X119695814Y-91808680D01*
X119362480Y-92189633D01*
X119505338Y-92189633D01*
X119600576Y-92237252D01*
X119648195Y-92284871D01*
X119695814Y-92380109D01*
X119695814Y-92618204D01*
X119648195Y-92713442D01*
X119600576Y-92761061D01*
X119505338Y-92808680D01*
X119219623Y-92808680D01*
X119124385Y-92761061D01*
X119076766Y-92713442D01*
%TO.C,C9*%
X42543433Y-80013442D02*
X42495814Y-80061061D01*
X42352957Y-80108680D01*
X42257719Y-80108680D01*
X42114861Y-80061061D01*
X42019623Y-79965823D01*
X41972004Y-79870585D01*
X41924385Y-79680109D01*
X41924385Y-79537252D01*
X41972004Y-79346776D01*
X42019623Y-79251538D01*
X42114861Y-79156300D01*
X42257719Y-79108680D01*
X42352957Y-79108680D01*
X42495814Y-79156300D01*
X42543433Y-79203919D01*
X43019623Y-80108680D02*
X43210100Y-80108680D01*
X43305338Y-80061061D01*
X43352957Y-80013442D01*
X43448195Y-79870585D01*
X43495814Y-79680109D01*
X43495814Y-79299157D01*
X43448195Y-79203919D01*
X43400576Y-79156300D01*
X43305338Y-79108680D01*
X43114861Y-79108680D01*
X43019623Y-79156300D01*
X42972004Y-79203919D01*
X42924385Y-79299157D01*
X42924385Y-79537252D01*
X42972004Y-79632490D01*
X43019623Y-79680109D01*
X43114861Y-79727728D01*
X43305338Y-79727728D01*
X43400576Y-79680109D01*
X43448195Y-79632490D01*
X43495814Y-79537252D01*
%TO.C,R11*%
X56951642Y-78584680D02*
X56618309Y-78108490D01*
X56380214Y-78584680D02*
X56380214Y-77584680D01*
X56761166Y-77584680D01*
X56856404Y-77632300D01*
X56904023Y-77679919D01*
X56951642Y-77775157D01*
X56951642Y-77918014D01*
X56904023Y-78013252D01*
X56856404Y-78060871D01*
X56761166Y-78108490D01*
X56380214Y-78108490D01*
X57904023Y-78584680D02*
X57332595Y-78584680D01*
X57618309Y-78584680D02*
X57618309Y-77584680D01*
X57523071Y-77727538D01*
X57427833Y-77822776D01*
X57332595Y-77870395D01*
X58856404Y-78584680D02*
X58284976Y-78584680D01*
X58570690Y-78584680D02*
X58570690Y-77584680D01*
X58475452Y-77727538D01*
X58380214Y-77822776D01*
X58284976Y-77870395D01*
%TO.C,R15*%
X42270442Y-82851880D02*
X41937109Y-82375690D01*
X41699014Y-82851880D02*
X41699014Y-81851880D01*
X42079966Y-81851880D01*
X42175204Y-81899500D01*
X42222823Y-81947119D01*
X42270442Y-82042357D01*
X42270442Y-82185214D01*
X42222823Y-82280452D01*
X42175204Y-82328071D01*
X42079966Y-82375690D01*
X41699014Y-82375690D01*
X43222823Y-82851880D02*
X42651395Y-82851880D01*
X42937109Y-82851880D02*
X42937109Y-81851880D01*
X42841871Y-81994738D01*
X42746633Y-82089976D01*
X42651395Y-82137595D01*
X44127585Y-81851880D02*
X43651395Y-81851880D01*
X43603776Y-82328071D01*
X43651395Y-82280452D01*
X43746633Y-82232833D01*
X43984728Y-82232833D01*
X44079966Y-82280452D01*
X44127585Y-82328071D01*
X44175204Y-82423309D01*
X44175204Y-82661404D01*
X44127585Y-82756642D01*
X44079966Y-82804261D01*
X43984728Y-82851880D01*
X43746633Y-82851880D01*
X43651395Y-82804261D01*
X43603776Y-82756642D01*
%TO.C,C1*%
X102944633Y-111103042D02*
X102897014Y-111150661D01*
X102754157Y-111198280D01*
X102658919Y-111198280D01*
X102516061Y-111150661D01*
X102420823Y-111055423D01*
X102373204Y-110960185D01*
X102325585Y-110769709D01*
X102325585Y-110626852D01*
X102373204Y-110436376D01*
X102420823Y-110341138D01*
X102516061Y-110245900D01*
X102658919Y-110198280D01*
X102754157Y-110198280D01*
X102897014Y-110245900D01*
X102944633Y-110293519D01*
X103897014Y-111198280D02*
X103325585Y-111198280D01*
X103611300Y-111198280D02*
X103611300Y-110198280D01*
X103516061Y-110341138D01*
X103420823Y-110436376D01*
X103325585Y-110483995D01*
%TO.C,C2*%
X102131833Y-108410642D02*
X102084214Y-108458261D01*
X101941357Y-108505880D01*
X101846119Y-108505880D01*
X101703261Y-108458261D01*
X101608023Y-108363023D01*
X101560404Y-108267785D01*
X101512785Y-108077309D01*
X101512785Y-107934452D01*
X101560404Y-107743976D01*
X101608023Y-107648738D01*
X101703261Y-107553500D01*
X101846119Y-107505880D01*
X101941357Y-107505880D01*
X102084214Y-107553500D01*
X102131833Y-107601119D01*
X102512785Y-107601119D02*
X102560404Y-107553500D01*
X102655642Y-107505880D01*
X102893738Y-107505880D01*
X102988976Y-107553500D01*
X103036595Y-107601119D01*
X103084214Y-107696357D01*
X103084214Y-107791595D01*
X103036595Y-107934452D01*
X102465166Y-108505880D01*
X103084214Y-108505880D01*
%TO.C,C6*%
X91103693Y-107624022D02*
X91056074Y-107671641D01*
X90913217Y-107719260D01*
X90817979Y-107719260D01*
X90675121Y-107671641D01*
X90579883Y-107576403D01*
X90532264Y-107481165D01*
X90484645Y-107290689D01*
X90484645Y-107147832D01*
X90532264Y-106957356D01*
X90579883Y-106862118D01*
X90675121Y-106766880D01*
X90817979Y-106719260D01*
X90913217Y-106719260D01*
X91056074Y-106766880D01*
X91103693Y-106814499D01*
X91960836Y-106719260D02*
X91770360Y-106719260D01*
X91675121Y-106766880D01*
X91627502Y-106814499D01*
X91532264Y-106957356D01*
X91484645Y-107147832D01*
X91484645Y-107528784D01*
X91532264Y-107624022D01*
X91579883Y-107671641D01*
X91675121Y-107719260D01*
X91865598Y-107719260D01*
X91960836Y-107671641D01*
X92008455Y-107624022D01*
X92056074Y-107528784D01*
X92056074Y-107290689D01*
X92008455Y-107195451D01*
X91960836Y-107147832D01*
X91865598Y-107100213D01*
X91675121Y-107100213D01*
X91579883Y-107147832D01*
X91532264Y-107195451D01*
X91484645Y-107290689D01*
%TO.C,C7*%
X94848093Y-107750622D02*
X94800474Y-107798241D01*
X94657617Y-107845860D01*
X94562379Y-107845860D01*
X94419521Y-107798241D01*
X94324283Y-107703003D01*
X94276664Y-107607765D01*
X94229045Y-107417289D01*
X94229045Y-107274432D01*
X94276664Y-107083956D01*
X94324283Y-106988718D01*
X94419521Y-106893480D01*
X94562379Y-106845860D01*
X94657617Y-106845860D01*
X94800474Y-106893480D01*
X94848093Y-106941099D01*
X95181426Y-106845860D02*
X95848093Y-106845860D01*
X95419521Y-107845860D01*
%TO.C,C8*%
X57625493Y-81675222D02*
X57577874Y-81722841D01*
X57435017Y-81770460D01*
X57339779Y-81770460D01*
X57196921Y-81722841D01*
X57101683Y-81627603D01*
X57054064Y-81532365D01*
X57006445Y-81341889D01*
X57006445Y-81199032D01*
X57054064Y-81008556D01*
X57101683Y-80913318D01*
X57196921Y-80818080D01*
X57339779Y-80770460D01*
X57435017Y-80770460D01*
X57577874Y-80818080D01*
X57625493Y-80865699D01*
X58196921Y-81199032D02*
X58101683Y-81151413D01*
X58054064Y-81103794D01*
X58006445Y-81008556D01*
X58006445Y-80960937D01*
X58054064Y-80865699D01*
X58101683Y-80818080D01*
X58196921Y-80770460D01*
X58387398Y-80770460D01*
X58482636Y-80818080D01*
X58530255Y-80865699D01*
X58577874Y-80960937D01*
X58577874Y-81008556D01*
X58530255Y-81103794D01*
X58482636Y-81151413D01*
X58387398Y-81199032D01*
X58196921Y-81199032D01*
X58101683Y-81246651D01*
X58054064Y-81294270D01*
X58006445Y-81389508D01*
X58006445Y-81579984D01*
X58054064Y-81675222D01*
X58101683Y-81722841D01*
X58196921Y-81770460D01*
X58387398Y-81770460D01*
X58482636Y-81722841D01*
X58530255Y-81675222D01*
X58577874Y-81579984D01*
X58577874Y-81389508D01*
X58530255Y-81294270D01*
X58482636Y-81246651D01*
X58387398Y-81199032D01*
%TO.C,C10*%
X60504102Y-105598037D02*
X60551721Y-105645656D01*
X60599340Y-105788513D01*
X60599340Y-105883751D01*
X60551721Y-106026608D01*
X60456483Y-106121846D01*
X60361245Y-106169465D01*
X60170769Y-106217084D01*
X60027912Y-106217084D01*
X59837436Y-106169465D01*
X59742198Y-106121846D01*
X59646960Y-106026608D01*
X59599340Y-105883751D01*
X59599340Y-105788513D01*
X59646960Y-105645656D01*
X59694579Y-105598037D01*
X60599340Y-104645656D02*
X60599340Y-105217084D01*
X60599340Y-104931370D02*
X59599340Y-104931370D01*
X59742198Y-105026608D01*
X59837436Y-105121846D01*
X59885055Y-105217084D01*
X59599340Y-104026608D02*
X59599340Y-103931370D01*
X59646960Y-103836132D01*
X59694579Y-103788513D01*
X59789817Y-103740894D01*
X59980293Y-103693275D01*
X60218388Y-103693275D01*
X60408864Y-103740894D01*
X60504102Y-103788513D01*
X60551721Y-103836132D01*
X60599340Y-103931370D01*
X60599340Y-104026608D01*
X60551721Y-104121846D01*
X60504102Y-104169465D01*
X60408864Y-104217084D01*
X60218388Y-104264703D01*
X59980293Y-104264703D01*
X59789817Y-104217084D01*
X59694579Y-104169465D01*
X59646960Y-104121846D01*
X59599340Y-104026608D01*
%TO.C,C12*%
X59126102Y-105624537D02*
X59173721Y-105672156D01*
X59221340Y-105815013D01*
X59221340Y-105910251D01*
X59173721Y-106053108D01*
X59078483Y-106148346D01*
X58983245Y-106195965D01*
X58792769Y-106243584D01*
X58649912Y-106243584D01*
X58459436Y-106195965D01*
X58364198Y-106148346D01*
X58268960Y-106053108D01*
X58221340Y-105910251D01*
X58221340Y-105815013D01*
X58268960Y-105672156D01*
X58316579Y-105624537D01*
X59221340Y-104672156D02*
X59221340Y-105243584D01*
X59221340Y-104957870D02*
X58221340Y-104957870D01*
X58364198Y-105053108D01*
X58459436Y-105148346D01*
X58507055Y-105243584D01*
X58316579Y-104291203D02*
X58268960Y-104243584D01*
X58221340Y-104148346D01*
X58221340Y-103910251D01*
X58268960Y-103815013D01*
X58316579Y-103767394D01*
X58411817Y-103719775D01*
X58507055Y-103719775D01*
X58649912Y-103767394D01*
X59221340Y-104338822D01*
X59221340Y-103719775D01*
%TO.C,R1*%
X104570233Y-113128680D02*
X104236900Y-112652490D01*
X103998804Y-113128680D02*
X103998804Y-112128680D01*
X104379757Y-112128680D01*
X104474995Y-112176300D01*
X104522614Y-112223919D01*
X104570233Y-112319157D01*
X104570233Y-112462014D01*
X104522614Y-112557252D01*
X104474995Y-112604871D01*
X104379757Y-112652490D01*
X103998804Y-112652490D01*
X105522614Y-113128680D02*
X104951185Y-113128680D01*
X105236900Y-113128680D02*
X105236900Y-112128680D01*
X105141661Y-112271538D01*
X105046423Y-112366776D01*
X104951185Y-112414395D01*
%TO.C,R2*%
X103960633Y-105407080D02*
X103627300Y-104930890D01*
X103389204Y-105407080D02*
X103389204Y-104407080D01*
X103770157Y-104407080D01*
X103865395Y-104454700D01*
X103913014Y-104502319D01*
X103960633Y-104597557D01*
X103960633Y-104740414D01*
X103913014Y-104835652D01*
X103865395Y-104883271D01*
X103770157Y-104930890D01*
X103389204Y-104930890D01*
X104341585Y-104502319D02*
X104389204Y-104454700D01*
X104484442Y-104407080D01*
X104722538Y-104407080D01*
X104817776Y-104454700D01*
X104865395Y-104502319D01*
X104913014Y-104597557D01*
X104913014Y-104692795D01*
X104865395Y-104835652D01*
X104293966Y-105407080D01*
X104913014Y-105407080D01*
%TO.C,R3*%
X102893833Y-115414680D02*
X102560500Y-114938490D01*
X102322404Y-115414680D02*
X102322404Y-114414680D01*
X102703357Y-114414680D01*
X102798595Y-114462300D01*
X102846214Y-114509919D01*
X102893833Y-114605157D01*
X102893833Y-114748014D01*
X102846214Y-114843252D01*
X102798595Y-114890871D01*
X102703357Y-114938490D01*
X102322404Y-114938490D01*
X103227166Y-114414680D02*
X103846214Y-114414680D01*
X103512880Y-114795633D01*
X103655738Y-114795633D01*
X103750976Y-114843252D01*
X103798595Y-114890871D01*
X103846214Y-114986109D01*
X103846214Y-115224204D01*
X103798595Y-115319442D01*
X103750976Y-115367061D01*
X103655738Y-115414680D01*
X103370023Y-115414680D01*
X103274785Y-115367061D01*
X103227166Y-115319442D01*
%TO.C,R4*%
X102131833Y-103171880D02*
X101798500Y-102695690D01*
X101560404Y-103171880D02*
X101560404Y-102171880D01*
X101941357Y-102171880D01*
X102036595Y-102219500D01*
X102084214Y-102267119D01*
X102131833Y-102362357D01*
X102131833Y-102505214D01*
X102084214Y-102600452D01*
X102036595Y-102648071D01*
X101941357Y-102695690D01*
X101560404Y-102695690D01*
X102988976Y-102505214D02*
X102988976Y-103171880D01*
X102750880Y-102124261D02*
X102512785Y-102838547D01*
X103131833Y-102838547D01*
%TO.C,R8*%
X116339880Y-96703166D02*
X115863690Y-97036500D01*
X116339880Y-97274595D02*
X115339880Y-97274595D01*
X115339880Y-96893642D01*
X115387500Y-96798404D01*
X115435119Y-96750785D01*
X115530357Y-96703166D01*
X115673214Y-96703166D01*
X115768452Y-96750785D01*
X115816071Y-96798404D01*
X115863690Y-96893642D01*
X115863690Y-97274595D01*
X115768452Y-96131738D02*
X115720833Y-96226976D01*
X115673214Y-96274595D01*
X115577976Y-96322214D01*
X115530357Y-96322214D01*
X115435119Y-96274595D01*
X115387500Y-96226976D01*
X115339880Y-96131738D01*
X115339880Y-95941261D01*
X115387500Y-95846023D01*
X115435119Y-95798404D01*
X115530357Y-95750785D01*
X115577976Y-95750785D01*
X115673214Y-95798404D01*
X115720833Y-95846023D01*
X115768452Y-95941261D01*
X115768452Y-96131738D01*
X115816071Y-96226976D01*
X115863690Y-96274595D01*
X115958928Y-96322214D01*
X116149404Y-96322214D01*
X116244642Y-96274595D01*
X116292261Y-96226976D01*
X116339880Y-96131738D01*
X116339880Y-95941261D01*
X116292261Y-95846023D01*
X116244642Y-95798404D01*
X116149404Y-95750785D01*
X115958928Y-95750785D01*
X115863690Y-95798404D01*
X115816071Y-95846023D01*
X115768452Y-95941261D01*
%TO.C,R9*%
X118591033Y-95501080D02*
X118257700Y-95024890D01*
X118019604Y-95501080D02*
X118019604Y-94501080D01*
X118400557Y-94501080D01*
X118495795Y-94548700D01*
X118543414Y-94596319D01*
X118591033Y-94691557D01*
X118591033Y-94834414D01*
X118543414Y-94929652D01*
X118495795Y-94977271D01*
X118400557Y-95024890D01*
X118019604Y-95024890D01*
X119067223Y-95501080D02*
X119257700Y-95501080D01*
X119352938Y-95453461D01*
X119400557Y-95405842D01*
X119495795Y-95262985D01*
X119543414Y-95072509D01*
X119543414Y-94691557D01*
X119495795Y-94596319D01*
X119448176Y-94548700D01*
X119352938Y-94501080D01*
X119162461Y-94501080D01*
X119067223Y-94548700D01*
X119019604Y-94596319D01*
X118971985Y-94691557D01*
X118971985Y-94929652D01*
X119019604Y-95024890D01*
X119067223Y-95072509D01*
X119162461Y-95120128D01*
X119352938Y-95120128D01*
X119448176Y-95072509D01*
X119495795Y-95024890D01*
X119543414Y-94929652D01*
%TO.C,R7*%
X119674880Y-99330166D02*
X119198690Y-99663500D01*
X119674880Y-99901595D02*
X118674880Y-99901595D01*
X118674880Y-99520642D01*
X118722500Y-99425404D01*
X118770119Y-99377785D01*
X118865357Y-99330166D01*
X119008214Y-99330166D01*
X119103452Y-99377785D01*
X119151071Y-99425404D01*
X119198690Y-99520642D01*
X119198690Y-99901595D01*
X118674880Y-98996833D02*
X118674880Y-98330166D01*
X119674880Y-98758738D01*
%TO.C,U2*%
X94616880Y-113804404D02*
X95426404Y-113804404D01*
X95521642Y-113756785D01*
X95569261Y-113709166D01*
X95616880Y-113613928D01*
X95616880Y-113423452D01*
X95569261Y-113328214D01*
X95521642Y-113280595D01*
X95426404Y-113232976D01*
X94616880Y-113232976D01*
X94712119Y-112804404D02*
X94664500Y-112756785D01*
X94616880Y-112661547D01*
X94616880Y-112423452D01*
X94664500Y-112328214D01*
X94712119Y-112280595D01*
X94807357Y-112232976D01*
X94902595Y-112232976D01*
X95045452Y-112280595D01*
X95616880Y-112852023D01*
X95616880Y-112232976D01*
%TO.C,Q4*%
X57804061Y-76038319D02*
X57708823Y-75990700D01*
X57613585Y-75895461D01*
X57470728Y-75752604D01*
X57375490Y-75704985D01*
X57280252Y-75704985D01*
X57327871Y-75943080D02*
X57232633Y-75895461D01*
X57137395Y-75800223D01*
X57089776Y-75609747D01*
X57089776Y-75276414D01*
X57137395Y-75085938D01*
X57232633Y-74990700D01*
X57327871Y-74943080D01*
X57518347Y-74943080D01*
X57613585Y-74990700D01*
X57708823Y-75085938D01*
X57756442Y-75276414D01*
X57756442Y-75609747D01*
X57708823Y-75800223D01*
X57613585Y-75895461D01*
X57518347Y-75943080D01*
X57327871Y-75943080D01*
X58613585Y-75276414D02*
X58613585Y-75943080D01*
X58375490Y-74895461D02*
X58137395Y-75609747D01*
X58756442Y-75609747D01*
%TO.C,Q5*%
X51047661Y-78527519D02*
X50952423Y-78479900D01*
X50857185Y-78384661D01*
X50714328Y-78241804D01*
X50619090Y-78194185D01*
X50523852Y-78194185D01*
X50571471Y-78432280D02*
X50476233Y-78384661D01*
X50380995Y-78289423D01*
X50333376Y-78098947D01*
X50333376Y-77765614D01*
X50380995Y-77575138D01*
X50476233Y-77479900D01*
X50571471Y-77432280D01*
X50761947Y-77432280D01*
X50857185Y-77479900D01*
X50952423Y-77575138D01*
X51000042Y-77765614D01*
X51000042Y-78098947D01*
X50952423Y-78289423D01*
X50857185Y-78384661D01*
X50761947Y-78432280D01*
X50571471Y-78432280D01*
X51904804Y-77432280D02*
X51428614Y-77432280D01*
X51380995Y-77908471D01*
X51428614Y-77860852D01*
X51523852Y-77813233D01*
X51761947Y-77813233D01*
X51857185Y-77860852D01*
X51904804Y-77908471D01*
X51952423Y-78003709D01*
X51952423Y-78241804D01*
X51904804Y-78337042D01*
X51857185Y-78384661D01*
X51761947Y-78432280D01*
X51523852Y-78432280D01*
X51428614Y-78384661D01*
X51380995Y-78337042D01*
%TO.C,R12*%
X48902880Y-74507957D02*
X48426690Y-74841290D01*
X48902880Y-75079385D02*
X47902880Y-75079385D01*
X47902880Y-74698433D01*
X47950500Y-74603195D01*
X47998119Y-74555576D01*
X48093357Y-74507957D01*
X48236214Y-74507957D01*
X48331452Y-74555576D01*
X48379071Y-74603195D01*
X48426690Y-74698433D01*
X48426690Y-75079385D01*
X48902880Y-73555576D02*
X48902880Y-74127004D01*
X48902880Y-73841290D02*
X47902880Y-73841290D01*
X48045738Y-73936528D01*
X48140976Y-74031766D01*
X48188595Y-74127004D01*
X47998119Y-73174623D02*
X47950500Y-73127004D01*
X47902880Y-73031766D01*
X47902880Y-72793671D01*
X47950500Y-72698433D01*
X47998119Y-72650814D01*
X48093357Y-72603195D01*
X48188595Y-72603195D01*
X48331452Y-72650814D01*
X48902880Y-73222242D01*
X48902880Y-72603195D01*
%TO.C,R13*%
X55630842Y-72793480D02*
X55297509Y-72317290D01*
X55059414Y-72793480D02*
X55059414Y-71793480D01*
X55440366Y-71793480D01*
X55535604Y-71841100D01*
X55583223Y-71888719D01*
X55630842Y-71983957D01*
X55630842Y-72126814D01*
X55583223Y-72222052D01*
X55535604Y-72269671D01*
X55440366Y-72317290D01*
X55059414Y-72317290D01*
X56583223Y-72793480D02*
X56011795Y-72793480D01*
X56297509Y-72793480D02*
X56297509Y-71793480D01*
X56202271Y-71936338D01*
X56107033Y-72031576D01*
X56011795Y-72079195D01*
X56916557Y-71793480D02*
X57535604Y-71793480D01*
X57202271Y-72174433D01*
X57345128Y-72174433D01*
X57440366Y-72222052D01*
X57487985Y-72269671D01*
X57535604Y-72364909D01*
X57535604Y-72603004D01*
X57487985Y-72698242D01*
X57440366Y-72745861D01*
X57345128Y-72793480D01*
X57059414Y-72793480D01*
X56964176Y-72745861D01*
X56916557Y-72698242D01*
%TO.C,J2*%
X41603680Y-69067633D02*
X42317966Y-69067633D01*
X42460823Y-69115252D01*
X42556061Y-69210490D01*
X42603680Y-69353347D01*
X42603680Y-69448585D01*
X41698919Y-68639061D02*
X41651300Y-68591442D01*
X41603680Y-68496204D01*
X41603680Y-68258109D01*
X41651300Y-68162871D01*
X41698919Y-68115252D01*
X41794157Y-68067633D01*
X41889395Y-68067633D01*
X42032252Y-68115252D01*
X42603680Y-68686680D01*
X42603680Y-68067633D01*
%TO.C,Q1*%
X122160919Y-89470338D02*
X122113300Y-89565576D01*
X122018061Y-89660814D01*
X121875204Y-89803671D01*
X121827585Y-89898909D01*
X121827585Y-89994147D01*
X122065680Y-89946528D02*
X122018061Y-90041766D01*
X121922823Y-90137004D01*
X121732347Y-90184623D01*
X121399014Y-90184623D01*
X121208538Y-90137004D01*
X121113300Y-90041766D01*
X121065680Y-89946528D01*
X121065680Y-89756052D01*
X121113300Y-89660814D01*
X121208538Y-89565576D01*
X121399014Y-89517957D01*
X121732347Y-89517957D01*
X121922823Y-89565576D01*
X122018061Y-89660814D01*
X122065680Y-89756052D01*
X122065680Y-89946528D01*
X122065680Y-88565576D02*
X122065680Y-89137004D01*
X122065680Y-88851290D02*
X121065680Y-88851290D01*
X121208538Y-88946528D01*
X121303776Y-89041766D01*
X121351395Y-89137004D01*
%TO.C,Q2*%
X116776119Y-89606738D02*
X116728500Y-89701976D01*
X116633261Y-89797214D01*
X116490404Y-89940071D01*
X116442785Y-90035309D01*
X116442785Y-90130547D01*
X116680880Y-90082928D02*
X116633261Y-90178166D01*
X116538023Y-90273404D01*
X116347547Y-90321023D01*
X116014214Y-90321023D01*
X115823738Y-90273404D01*
X115728500Y-90178166D01*
X115680880Y-90082928D01*
X115680880Y-89892452D01*
X115728500Y-89797214D01*
X115823738Y-89701976D01*
X116014214Y-89654357D01*
X116347547Y-89654357D01*
X116538023Y-89701976D01*
X116633261Y-89797214D01*
X116680880Y-89892452D01*
X116680880Y-90082928D01*
X115776119Y-89273404D02*
X115728500Y-89225785D01*
X115680880Y-89130547D01*
X115680880Y-88892452D01*
X115728500Y-88797214D01*
X115776119Y-88749595D01*
X115871357Y-88701976D01*
X115966595Y-88701976D01*
X116109452Y-88749595D01*
X116680880Y-89321023D01*
X116680880Y-88701976D01*
%TO.C,Q3*%
X114744119Y-93416738D02*
X114696500Y-93511976D01*
X114601261Y-93607214D01*
X114458404Y-93750071D01*
X114410785Y-93845309D01*
X114410785Y-93940547D01*
X114648880Y-93892928D02*
X114601261Y-93988166D01*
X114506023Y-94083404D01*
X114315547Y-94131023D01*
X113982214Y-94131023D01*
X113791738Y-94083404D01*
X113696500Y-93988166D01*
X113648880Y-93892928D01*
X113648880Y-93702452D01*
X113696500Y-93607214D01*
X113791738Y-93511976D01*
X113982214Y-93464357D01*
X114315547Y-93464357D01*
X114506023Y-93511976D01*
X114601261Y-93607214D01*
X114648880Y-93702452D01*
X114648880Y-93892928D01*
X113648880Y-93131023D02*
X113648880Y-92511976D01*
X114029833Y-92845309D01*
X114029833Y-92702452D01*
X114077452Y-92607214D01*
X114125071Y-92559595D01*
X114220309Y-92511976D01*
X114458404Y-92511976D01*
X114553642Y-92559595D01*
X114601261Y-92607214D01*
X114648880Y-92702452D01*
X114648880Y-92988166D01*
X114601261Y-93083404D01*
X114553642Y-93131023D01*
%TO.C,SW2*%
X34417166Y-82637261D02*
X34560023Y-82684880D01*
X34798119Y-82684880D01*
X34893357Y-82637261D01*
X34940976Y-82589642D01*
X34988595Y-82494404D01*
X34988595Y-82399166D01*
X34940976Y-82303928D01*
X34893357Y-82256309D01*
X34798119Y-82208690D01*
X34607642Y-82161071D01*
X34512404Y-82113452D01*
X34464785Y-82065833D01*
X34417166Y-81970595D01*
X34417166Y-81875357D01*
X34464785Y-81780119D01*
X34512404Y-81732500D01*
X34607642Y-81684880D01*
X34845738Y-81684880D01*
X34988595Y-81732500D01*
X35321928Y-81684880D02*
X35560023Y-82684880D01*
X35750500Y-81970595D01*
X35940976Y-82684880D01*
X36179071Y-81684880D01*
X36512404Y-81780119D02*
X36560023Y-81732500D01*
X36655261Y-81684880D01*
X36893357Y-81684880D01*
X36988595Y-81732500D01*
X37036214Y-81780119D01*
X37083833Y-81875357D01*
X37083833Y-81970595D01*
X37036214Y-82113452D01*
X36464785Y-82684880D01*
X37083833Y-82684880D01*
%TO.C,C5*%
X67573493Y-98774022D02*
X67525874Y-98821641D01*
X67383017Y-98869260D01*
X67287779Y-98869260D01*
X67144921Y-98821641D01*
X67049683Y-98726403D01*
X67002064Y-98631165D01*
X66954445Y-98440689D01*
X66954445Y-98297832D01*
X67002064Y-98107356D01*
X67049683Y-98012118D01*
X67144921Y-97916880D01*
X67287779Y-97869260D01*
X67383017Y-97869260D01*
X67525874Y-97916880D01*
X67573493Y-97964499D01*
X68478255Y-97869260D02*
X68002064Y-97869260D01*
X67954445Y-98345451D01*
X68002064Y-98297832D01*
X68097302Y-98250213D01*
X68335398Y-98250213D01*
X68430636Y-98297832D01*
X68478255Y-98345451D01*
X68525874Y-98440689D01*
X68525874Y-98678784D01*
X68478255Y-98774022D01*
X68430636Y-98821641D01*
X68335398Y-98869260D01*
X68097302Y-98869260D01*
X68002064Y-98821641D01*
X67954445Y-98774022D01*
%TO.C,R17*%
X62749340Y-103235937D02*
X62273150Y-103569270D01*
X62749340Y-103807365D02*
X61749340Y-103807365D01*
X61749340Y-103426413D01*
X61796960Y-103331175D01*
X61844579Y-103283556D01*
X61939817Y-103235937D01*
X62082674Y-103235937D01*
X62177912Y-103283556D01*
X62225531Y-103331175D01*
X62273150Y-103426413D01*
X62273150Y-103807365D01*
X62749340Y-102283556D02*
X62749340Y-102854984D01*
X62749340Y-102569270D02*
X61749340Y-102569270D01*
X61892198Y-102664508D01*
X61987436Y-102759746D01*
X62035055Y-102854984D01*
X61749340Y-101950222D02*
X61749340Y-101283556D01*
X62749340Y-101712127D01*
%TO.C,L1*%
D14*
X91086553Y-102154783D02*
X90481791Y-102154783D01*
X90481791Y-100884783D01*
X92175124Y-102154783D02*
X91449410Y-102154783D01*
X91812267Y-102154783D02*
X91812267Y-100884783D01*
X91691315Y-101066212D01*
X91570362Y-101187164D01*
X91449410Y-101247640D01*
%TD*%
M02*
