%TF.GenerationSoftware,KiCad,Pcbnew,(5.1.7)-1*%
%TF.CreationDate,2020-12-15T16:08:46+01:00*%
%TF.ProjectId,EZ-PY32,455a2d50-5933-4322-9e6b-696361645f70,rev?*%
%TF.SameCoordinates,Original*%
%TF.FileFunction,Legend,Bot*%
%TF.FilePolarity,Positive*%
%FSLAX46Y46*%
G04 Gerber Fmt 4.6, Leading zero omitted, Abs format (unit mm)*
G04 Created by KiCad (PCBNEW (5.1.7)-1) date 2020-12-15 16:08:46*
%MOMM*%
%LPD*%
G01*
G04 APERTURE LIST*
%ADD10C,0.127000*%
%ADD11C,0.300000*%
%ADD12C,0.120000*%
%ADD13C,0.150000*%
%ADD14C,0.125000*%
G04 APERTURE END LIST*
D10*
X30764842Y-81867309D02*
X30764842Y-81359309D01*
X30474557Y-81867309D01*
X30474557Y-81359309D01*
X29942366Y-81818928D02*
X29966557Y-81843119D01*
X30039128Y-81867309D01*
X30087509Y-81867309D01*
X30160080Y-81843119D01*
X30208461Y-81794738D01*
X30232652Y-81746357D01*
X30256842Y-81649595D01*
X30256842Y-81577023D01*
X30232652Y-81480261D01*
X30208461Y-81431880D01*
X30160080Y-81383500D01*
X30087509Y-81359309D01*
X30039128Y-81359309D01*
X29966557Y-81383500D01*
X29942366Y-81407690D01*
X35542461Y-75899519D02*
X35469890Y-75923709D01*
X35348938Y-75923709D01*
X35300557Y-75899519D01*
X35276366Y-75875328D01*
X35252176Y-75826947D01*
X35252176Y-75778566D01*
X35276366Y-75730185D01*
X35300557Y-75705995D01*
X35348938Y-75681804D01*
X35445700Y-75657614D01*
X35494080Y-75633423D01*
X35518271Y-75609233D01*
X35542461Y-75560852D01*
X35542461Y-75512471D01*
X35518271Y-75464090D01*
X35494080Y-75439900D01*
X35445700Y-75415709D01*
X35324747Y-75415709D01*
X35252176Y-75439900D01*
X34744176Y-75875328D02*
X34768366Y-75899519D01*
X34840938Y-75923709D01*
X34889319Y-75923709D01*
X34961890Y-75899519D01*
X35010271Y-75851138D01*
X35034461Y-75802757D01*
X35058652Y-75705995D01*
X35058652Y-75633423D01*
X35034461Y-75536661D01*
X35010271Y-75488280D01*
X34961890Y-75439900D01*
X34889319Y-75415709D01*
X34840938Y-75415709D01*
X34768366Y-75439900D01*
X34744176Y-75464090D01*
X34284557Y-75923709D02*
X34526461Y-75923709D01*
X34526461Y-75415709D01*
X34831261Y-63274509D02*
X35073166Y-63274509D01*
X35097357Y-63516414D01*
X35073166Y-63492223D01*
X35024785Y-63468033D01*
X34903833Y-63468033D01*
X34855452Y-63492223D01*
X34831261Y-63516414D01*
X34807071Y-63564795D01*
X34807071Y-63685747D01*
X34831261Y-63734128D01*
X34855452Y-63758319D01*
X34903833Y-63782509D01*
X35024785Y-63782509D01*
X35073166Y-63758319D01*
X35097357Y-63734128D01*
X34661928Y-63274509D02*
X34492595Y-63782509D01*
X34323261Y-63274509D01*
X36331071Y-59846719D02*
X36258500Y-59870909D01*
X36137547Y-59870909D01*
X36089166Y-59846719D01*
X36064976Y-59822528D01*
X36040785Y-59774147D01*
X36040785Y-59725766D01*
X36064976Y-59677385D01*
X36089166Y-59653195D01*
X36137547Y-59629004D01*
X36234309Y-59604814D01*
X36282690Y-59580623D01*
X36306880Y-59556433D01*
X36331071Y-59508052D01*
X36331071Y-59459671D01*
X36306880Y-59411290D01*
X36282690Y-59387100D01*
X36234309Y-59362909D01*
X36113357Y-59362909D01*
X36040785Y-59387100D01*
X35823071Y-59870909D02*
X35823071Y-59362909D01*
X35702119Y-59362909D01*
X35629547Y-59387100D01*
X35581166Y-59435480D01*
X35556976Y-59483861D01*
X35532785Y-59580623D01*
X35532785Y-59653195D01*
X35556976Y-59749957D01*
X35581166Y-59798338D01*
X35629547Y-59846719D01*
X35702119Y-59870909D01*
X35823071Y-59870909D01*
X35436023Y-59919290D02*
X35048976Y-59919290D01*
X34928023Y-59870909D02*
X34928023Y-59362909D01*
X34807071Y-59362909D01*
X34734500Y-59387100D01*
X34686119Y-59435480D01*
X34661928Y-59483861D01*
X34637738Y-59580623D01*
X34637738Y-59653195D01*
X34661928Y-59749957D01*
X34686119Y-59798338D01*
X34734500Y-59846719D01*
X34807071Y-59870909D01*
X34928023Y-59870909D01*
X34323261Y-59362909D02*
X34274880Y-59362909D01*
X34226500Y-59387100D01*
X34202309Y-59411290D01*
X34178119Y-59459671D01*
X34153928Y-59556433D01*
X34153928Y-59677385D01*
X34178119Y-59774147D01*
X34202309Y-59822528D01*
X34226500Y-59846719D01*
X34274880Y-59870909D01*
X34323261Y-59870909D01*
X34371642Y-59846719D01*
X34395833Y-59822528D01*
X34420023Y-59774147D01*
X34444214Y-59677385D01*
X34444214Y-59556433D01*
X34420023Y-59459671D01*
X34395833Y-59411290D01*
X34371642Y-59387100D01*
X34323261Y-59362909D01*
X36572976Y-55884319D02*
X36500404Y-55908509D01*
X36379452Y-55908509D01*
X36331071Y-55884319D01*
X36306880Y-55860128D01*
X36282690Y-55811747D01*
X36282690Y-55763366D01*
X36306880Y-55714985D01*
X36331071Y-55690795D01*
X36379452Y-55666604D01*
X36476214Y-55642414D01*
X36524595Y-55618223D01*
X36548785Y-55594033D01*
X36572976Y-55545652D01*
X36572976Y-55497271D01*
X36548785Y-55448890D01*
X36524595Y-55424700D01*
X36476214Y-55400509D01*
X36355261Y-55400509D01*
X36282690Y-55424700D01*
X36064976Y-55908509D02*
X36064976Y-55400509D01*
X35944023Y-55400509D01*
X35871452Y-55424700D01*
X35823071Y-55473080D01*
X35798880Y-55521461D01*
X35774690Y-55618223D01*
X35774690Y-55690795D01*
X35798880Y-55787557D01*
X35823071Y-55835938D01*
X35871452Y-55884319D01*
X35944023Y-55908509D01*
X36064976Y-55908509D01*
X35677928Y-55956890D02*
X35290880Y-55956890D01*
X35194119Y-55884319D02*
X35121547Y-55908509D01*
X35000595Y-55908509D01*
X34952214Y-55884319D01*
X34928023Y-55860128D01*
X34903833Y-55811747D01*
X34903833Y-55763366D01*
X34928023Y-55714985D01*
X34952214Y-55690795D01*
X35000595Y-55666604D01*
X35097357Y-55642414D01*
X35145738Y-55618223D01*
X35169928Y-55594033D01*
X35194119Y-55545652D01*
X35194119Y-55497271D01*
X35169928Y-55448890D01*
X35145738Y-55424700D01*
X35097357Y-55400509D01*
X34976404Y-55400509D01*
X34903833Y-55424700D01*
X34710309Y-55884319D02*
X34637738Y-55908509D01*
X34516785Y-55908509D01*
X34468404Y-55884319D01*
X34444214Y-55860128D01*
X34420023Y-55811747D01*
X34420023Y-55763366D01*
X34444214Y-55714985D01*
X34468404Y-55690795D01*
X34516785Y-55666604D01*
X34613547Y-55642414D01*
X34661928Y-55618223D01*
X34686119Y-55594033D01*
X34710309Y-55545652D01*
X34710309Y-55497271D01*
X34686119Y-55448890D01*
X34661928Y-55424700D01*
X34613547Y-55400509D01*
X34492595Y-55400509D01*
X34420023Y-55424700D01*
X35237661Y-71300909D02*
X34947376Y-71300909D01*
X35092519Y-71808909D02*
X35092519Y-71300909D01*
X34826423Y-71808909D02*
X34560328Y-71470242D01*
X34826423Y-71470242D02*
X34560328Y-71808909D01*
X38326785Y-79861919D02*
X38254214Y-79886109D01*
X38133261Y-79886109D01*
X38084880Y-79861919D01*
X38060690Y-79837728D01*
X38036500Y-79789347D01*
X38036500Y-79740966D01*
X38060690Y-79692585D01*
X38084880Y-79668395D01*
X38133261Y-79644204D01*
X38230023Y-79620014D01*
X38278404Y-79595823D01*
X38302595Y-79571633D01*
X38326785Y-79523252D01*
X38326785Y-79474871D01*
X38302595Y-79426490D01*
X38278404Y-79402300D01*
X38230023Y-79378109D01*
X38109071Y-79378109D01*
X38036500Y-79402300D01*
X37818785Y-79620014D02*
X37649452Y-79620014D01*
X37576880Y-79886109D02*
X37818785Y-79886109D01*
X37818785Y-79378109D01*
X37576880Y-79378109D01*
X37359166Y-79886109D02*
X37359166Y-79378109D01*
X37068880Y-79886109D01*
X37068880Y-79378109D01*
X36851166Y-79861919D02*
X36778595Y-79886109D01*
X36657642Y-79886109D01*
X36609261Y-79861919D01*
X36585071Y-79837728D01*
X36560880Y-79789347D01*
X36560880Y-79740966D01*
X36585071Y-79692585D01*
X36609261Y-79668395D01*
X36657642Y-79644204D01*
X36754404Y-79620014D01*
X36802785Y-79595823D01*
X36826976Y-79571633D01*
X36851166Y-79523252D01*
X36851166Y-79474871D01*
X36826976Y-79426490D01*
X36802785Y-79402300D01*
X36754404Y-79378109D01*
X36633452Y-79378109D01*
X36560880Y-79402300D01*
X36246404Y-79378109D02*
X36149642Y-79378109D01*
X36101261Y-79402300D01*
X36052880Y-79450680D01*
X36028690Y-79547442D01*
X36028690Y-79716776D01*
X36052880Y-79813538D01*
X36101261Y-79861919D01*
X36149642Y-79886109D01*
X36246404Y-79886109D01*
X36294785Y-79861919D01*
X36343166Y-79813538D01*
X36367357Y-79716776D01*
X36367357Y-79547442D01*
X36343166Y-79450680D01*
X36294785Y-79402300D01*
X36246404Y-79378109D01*
X35520690Y-79886109D02*
X35690023Y-79644204D01*
X35810976Y-79886109D02*
X35810976Y-79378109D01*
X35617452Y-79378109D01*
X35569071Y-79402300D01*
X35544880Y-79426490D01*
X35520690Y-79474871D01*
X35520690Y-79547442D01*
X35544880Y-79595823D01*
X35569071Y-79620014D01*
X35617452Y-79644204D01*
X35810976Y-79644204D01*
X35423928Y-79934490D02*
X35036880Y-79934490D01*
X34988500Y-79378109D02*
X34819166Y-79886109D01*
X34649833Y-79378109D01*
X34480500Y-79886109D02*
X34480500Y-79378109D01*
X34286976Y-79378109D01*
X34238595Y-79402300D01*
X34214404Y-79426490D01*
X34190214Y-79474871D01*
X34190214Y-79547442D01*
X34214404Y-79595823D01*
X34238595Y-79620014D01*
X34286976Y-79644204D01*
X34480500Y-79644204D01*
X30639052Y-65306509D02*
X30324576Y-65306509D01*
X30493909Y-65500033D01*
X30421338Y-65500033D01*
X30372957Y-65524223D01*
X30348766Y-65548414D01*
X30324576Y-65596795D01*
X30324576Y-65717747D01*
X30348766Y-65766128D01*
X30372957Y-65790319D01*
X30421338Y-65814509D01*
X30566480Y-65814509D01*
X30614861Y-65790319D01*
X30639052Y-65766128D01*
X30179433Y-65306509D02*
X30010100Y-65814509D01*
X29840766Y-65306509D01*
X29719814Y-65306509D02*
X29405338Y-65306509D01*
X29574671Y-65500033D01*
X29502100Y-65500033D01*
X29453719Y-65524223D01*
X29429528Y-65548414D01*
X29405338Y-65596795D01*
X29405338Y-65717747D01*
X29429528Y-65766128D01*
X29453719Y-65790319D01*
X29502100Y-65814509D01*
X29647242Y-65814509D01*
X29695623Y-65790319D01*
X29719814Y-65766128D01*
X35273947Y-83161500D02*
X35322328Y-83137309D01*
X35394900Y-83137309D01*
X35467471Y-83161500D01*
X35515852Y-83209880D01*
X35540042Y-83258261D01*
X35564233Y-83355023D01*
X35564233Y-83427595D01*
X35540042Y-83524357D01*
X35515852Y-83572738D01*
X35467471Y-83621119D01*
X35394900Y-83645309D01*
X35346519Y-83645309D01*
X35273947Y-83621119D01*
X35249757Y-83596928D01*
X35249757Y-83427595D01*
X35346519Y-83427595D01*
X35032042Y-83645309D02*
X35032042Y-83137309D01*
X34741757Y-83645309D01*
X34741757Y-83137309D01*
X34499852Y-83645309D02*
X34499852Y-83137309D01*
X34378900Y-83137309D01*
X34306328Y-83161500D01*
X34257947Y-83209880D01*
X34233757Y-83258261D01*
X34209566Y-83355023D01*
X34209566Y-83427595D01*
X34233757Y-83524357D01*
X34257947Y-83572738D01*
X34306328Y-83621119D01*
X34378900Y-83645309D01*
X34499852Y-83645309D01*
X35286042Y-67846509D02*
X35286042Y-67338509D01*
X34995757Y-67846509D01*
X34995757Y-67338509D01*
X34463566Y-67798128D02*
X34487757Y-67822319D01*
X34560328Y-67846509D01*
X34608709Y-67846509D01*
X34681280Y-67822319D01*
X34729661Y-67773938D01*
X34753852Y-67725557D01*
X34778042Y-67628795D01*
X34778042Y-67556223D01*
X34753852Y-67459461D01*
X34729661Y-67411080D01*
X34681280Y-67362700D01*
X34608709Y-67338509D01*
X34560328Y-67338509D01*
X34487757Y-67362700D01*
X34463566Y-67386890D01*
X31633280Y-77829919D02*
X31560709Y-77854109D01*
X31439757Y-77854109D01*
X31391376Y-77829919D01*
X31367185Y-77805728D01*
X31342995Y-77757347D01*
X31342995Y-77708966D01*
X31367185Y-77660585D01*
X31391376Y-77636395D01*
X31439757Y-77612204D01*
X31536519Y-77588014D01*
X31584900Y-77563823D01*
X31609090Y-77539633D01*
X31633280Y-77491252D01*
X31633280Y-77442871D01*
X31609090Y-77394490D01*
X31584900Y-77370300D01*
X31536519Y-77346109D01*
X31415566Y-77346109D01*
X31342995Y-77370300D01*
X31125280Y-77588014D02*
X30955947Y-77588014D01*
X30883376Y-77854109D02*
X31125280Y-77854109D01*
X31125280Y-77346109D01*
X30883376Y-77346109D01*
X30665661Y-77854109D02*
X30665661Y-77346109D01*
X30375376Y-77854109D01*
X30375376Y-77346109D01*
X30157661Y-77829919D02*
X30085090Y-77854109D01*
X29964138Y-77854109D01*
X29915757Y-77829919D01*
X29891566Y-77805728D01*
X29867376Y-77757347D01*
X29867376Y-77708966D01*
X29891566Y-77660585D01*
X29915757Y-77636395D01*
X29964138Y-77612204D01*
X30060900Y-77588014D01*
X30109280Y-77563823D01*
X30133471Y-77539633D01*
X30157661Y-77491252D01*
X30157661Y-77442871D01*
X30133471Y-77394490D01*
X30109280Y-77370300D01*
X30060900Y-77346109D01*
X29939947Y-77346109D01*
X29867376Y-77370300D01*
X29552900Y-77346109D02*
X29456138Y-77346109D01*
X29407757Y-77370300D01*
X29359376Y-77418680D01*
X29335185Y-77515442D01*
X29335185Y-77684776D01*
X29359376Y-77781538D01*
X29407757Y-77829919D01*
X29456138Y-77854109D01*
X29552900Y-77854109D01*
X29601280Y-77829919D01*
X29649661Y-77781538D01*
X29673852Y-77684776D01*
X29673852Y-77515442D01*
X29649661Y-77418680D01*
X29601280Y-77370300D01*
X29552900Y-77346109D01*
X28827185Y-77854109D02*
X28996519Y-77612204D01*
X29117471Y-77854109D02*
X29117471Y-77346109D01*
X28923947Y-77346109D01*
X28875566Y-77370300D01*
X28851376Y-77394490D01*
X28827185Y-77442871D01*
X28827185Y-77515442D01*
X28851376Y-77563823D01*
X28875566Y-77588014D01*
X28923947Y-77612204D01*
X29117471Y-77612204D01*
X28730423Y-77902490D02*
X28343376Y-77902490D01*
X28294995Y-77346109D02*
X28125661Y-77854109D01*
X27956328Y-77346109D01*
X27786995Y-77854109D02*
X27786995Y-77346109D01*
X27496709Y-77854109D01*
X27496709Y-77346109D01*
X31033357Y-73765919D02*
X30960785Y-73790109D01*
X30839833Y-73790109D01*
X30791452Y-73765919D01*
X30767261Y-73741728D01*
X30743071Y-73693347D01*
X30743071Y-73644966D01*
X30767261Y-73596585D01*
X30791452Y-73572395D01*
X30839833Y-73548204D01*
X30936595Y-73524014D01*
X30984976Y-73499823D01*
X31009166Y-73475633D01*
X31033357Y-73427252D01*
X31033357Y-73378871D01*
X31009166Y-73330490D01*
X30984976Y-73306300D01*
X30936595Y-73282109D01*
X30815642Y-73282109D01*
X30743071Y-73306300D01*
X30525357Y-73790109D02*
X30525357Y-73282109D01*
X30404404Y-73282109D01*
X30331833Y-73306300D01*
X30283452Y-73354680D01*
X30259261Y-73403061D01*
X30235071Y-73499823D01*
X30235071Y-73572395D01*
X30259261Y-73669157D01*
X30283452Y-73717538D01*
X30331833Y-73765919D01*
X30404404Y-73790109D01*
X30525357Y-73790109D01*
X30041547Y-73644966D02*
X29799642Y-73644966D01*
X30089928Y-73790109D02*
X29920595Y-73282109D01*
X29751261Y-73790109D01*
X30617280Y-69624509D02*
X30786614Y-69382604D01*
X30907566Y-69624509D02*
X30907566Y-69116509D01*
X30714042Y-69116509D01*
X30665661Y-69140700D01*
X30641471Y-69164890D01*
X30617280Y-69213271D01*
X30617280Y-69285842D01*
X30641471Y-69334223D01*
X30665661Y-69358414D01*
X30714042Y-69382604D01*
X30907566Y-69382604D01*
X30447947Y-69624509D02*
X30181852Y-69285842D01*
X30447947Y-69285842D02*
X30181852Y-69624509D01*
X30926919Y-57865519D02*
X30854347Y-57889709D01*
X30733395Y-57889709D01*
X30685014Y-57865519D01*
X30660823Y-57841328D01*
X30636633Y-57792947D01*
X30636633Y-57744566D01*
X30660823Y-57696185D01*
X30685014Y-57671995D01*
X30733395Y-57647804D01*
X30830157Y-57623614D01*
X30878538Y-57599423D01*
X30902728Y-57575233D01*
X30926919Y-57526852D01*
X30926919Y-57478471D01*
X30902728Y-57430090D01*
X30878538Y-57405900D01*
X30830157Y-57381709D01*
X30709204Y-57381709D01*
X30636633Y-57405900D01*
X30418919Y-57889709D02*
X30418919Y-57381709D01*
X30297966Y-57381709D01*
X30225395Y-57405900D01*
X30177014Y-57454280D01*
X30152823Y-57502661D01*
X30128633Y-57599423D01*
X30128633Y-57671995D01*
X30152823Y-57768757D01*
X30177014Y-57817138D01*
X30225395Y-57865519D01*
X30297966Y-57889709D01*
X30418919Y-57889709D01*
X30031871Y-57938090D02*
X29644823Y-57938090D01*
X29523871Y-57889709D02*
X29523871Y-57381709D01*
X29402919Y-57381709D01*
X29330347Y-57405900D01*
X29281966Y-57454280D01*
X29257776Y-57502661D01*
X29233585Y-57599423D01*
X29233585Y-57671995D01*
X29257776Y-57768757D01*
X29281966Y-57817138D01*
X29330347Y-57865519D01*
X29402919Y-57889709D01*
X29523871Y-57889709D01*
X29015871Y-57889709D02*
X29015871Y-57381709D01*
X31149471Y-61777119D02*
X31076900Y-61801309D01*
X30955947Y-61801309D01*
X30907566Y-61777119D01*
X30883376Y-61752928D01*
X30859185Y-61704547D01*
X30859185Y-61656166D01*
X30883376Y-61607785D01*
X30907566Y-61583595D01*
X30955947Y-61559404D01*
X31052709Y-61535214D01*
X31101090Y-61511023D01*
X31125280Y-61486833D01*
X31149471Y-61438452D01*
X31149471Y-61390071D01*
X31125280Y-61341690D01*
X31101090Y-61317500D01*
X31052709Y-61293309D01*
X30931757Y-61293309D01*
X30859185Y-61317500D01*
X30641471Y-61801309D02*
X30641471Y-61293309D01*
X30520519Y-61293309D01*
X30447947Y-61317500D01*
X30399566Y-61365880D01*
X30375376Y-61414261D01*
X30351185Y-61511023D01*
X30351185Y-61583595D01*
X30375376Y-61680357D01*
X30399566Y-61728738D01*
X30447947Y-61777119D01*
X30520519Y-61801309D01*
X30641471Y-61801309D01*
X30254423Y-61849690D02*
X29867376Y-61849690D01*
X29770614Y-61777119D02*
X29698042Y-61801309D01*
X29577090Y-61801309D01*
X29528709Y-61777119D01*
X29504519Y-61752928D01*
X29480328Y-61704547D01*
X29480328Y-61656166D01*
X29504519Y-61607785D01*
X29528709Y-61583595D01*
X29577090Y-61559404D01*
X29673852Y-61535214D01*
X29722233Y-61511023D01*
X29746423Y-61486833D01*
X29770614Y-61438452D01*
X29770614Y-61390071D01*
X29746423Y-61341690D01*
X29722233Y-61317500D01*
X29673852Y-61293309D01*
X29552900Y-61293309D01*
X29480328Y-61317500D01*
X28972328Y-61752928D02*
X28996519Y-61777119D01*
X29069090Y-61801309D01*
X29117471Y-61801309D01*
X29190042Y-61777119D01*
X29238423Y-61728738D01*
X29262614Y-61680357D01*
X29286804Y-61583595D01*
X29286804Y-61511023D01*
X29262614Y-61414261D01*
X29238423Y-61365880D01*
X29190042Y-61317500D01*
X29117471Y-61293309D01*
X29069090Y-61293309D01*
X28996519Y-61317500D01*
X28972328Y-61341690D01*
X28754614Y-61801309D02*
X28754614Y-61293309D01*
X28464328Y-61801309D02*
X28682042Y-61511023D01*
X28464328Y-61293309D02*
X28754614Y-61583595D01*
X30680176Y-85626509D02*
X30970461Y-85626509D01*
X30825319Y-85626509D02*
X30825319Y-85118509D01*
X30873700Y-85191080D01*
X30922080Y-85239461D01*
X30970461Y-85263652D01*
X30486652Y-85166890D02*
X30462461Y-85142700D01*
X30414080Y-85118509D01*
X30293128Y-85118509D01*
X30244747Y-85142700D01*
X30220557Y-85166890D01*
X30196366Y-85215271D01*
X30196366Y-85263652D01*
X30220557Y-85336223D01*
X30510842Y-85626509D01*
X30196366Y-85626509D01*
X30051223Y-85118509D02*
X29881890Y-85626509D01*
X29712557Y-85118509D01*
D11*
X82231600Y-112491271D02*
X83088742Y-112491271D01*
X82660171Y-112491271D02*
X82472671Y-110991271D01*
X82642314Y-111205557D01*
X82803028Y-111348414D01*
X82954814Y-111419842D01*
X81490528Y-111134128D02*
X81410171Y-111062700D01*
X81258385Y-110991271D01*
X80901242Y-110991271D01*
X80767314Y-111062700D01*
X80704814Y-111134128D01*
X80651242Y-111276985D01*
X80669100Y-111419842D01*
X80767314Y-111634128D01*
X81731600Y-112491271D01*
X80803028Y-112491271D01*
X80186957Y-110991271D02*
X79874457Y-112491271D01*
X79186957Y-110991271D01*
X77731600Y-112491271D02*
X77544100Y-110991271D01*
X76972671Y-110991271D01*
X76838742Y-111062700D01*
X76776242Y-111134128D01*
X76722671Y-111276985D01*
X76749457Y-111491271D01*
X76838742Y-111634128D01*
X76919100Y-111705557D01*
X77070885Y-111776985D01*
X77642314Y-111776985D01*
X76017314Y-112491271D02*
X76151242Y-112419842D01*
X76213742Y-112348414D01*
X76267314Y-112205557D01*
X76213742Y-111776985D01*
X76124457Y-111634128D01*
X76044100Y-111562700D01*
X75892314Y-111491271D01*
X75678028Y-111491271D01*
X75544100Y-111562700D01*
X75481600Y-111634128D01*
X75428028Y-111776985D01*
X75481600Y-112205557D01*
X75570885Y-112348414D01*
X75651242Y-112419842D01*
X75803028Y-112491271D01*
X76017314Y-112491271D01*
X74892314Y-111491271D02*
X74731600Y-112491271D01*
X74356600Y-111776985D01*
X74160171Y-112491271D01*
X73749457Y-111491271D01*
X72722671Y-112419842D02*
X72874457Y-112491271D01*
X73160171Y-112491271D01*
X73294100Y-112419842D01*
X73347671Y-112276985D01*
X73276242Y-111705557D01*
X73186957Y-111562700D01*
X73035171Y-111491271D01*
X72749457Y-111491271D01*
X72615528Y-111562700D01*
X72561957Y-111705557D01*
X72579814Y-111848414D01*
X73311957Y-111991271D01*
X72017314Y-112491271D02*
X71892314Y-111491271D01*
X71928028Y-111776985D02*
X71838742Y-111634128D01*
X71758385Y-111562700D01*
X71606600Y-111491271D01*
X71463742Y-111491271D01*
D12*
%TO.C,J1*%
X79802500Y-114675500D02*
X79802500Y-120695500D01*
X79802500Y-120695500D02*
X74502500Y-120695500D01*
X74502500Y-120695500D02*
X74502500Y-114675500D01*
X74502500Y-114675500D02*
X79802500Y-114675500D01*
X80092500Y-115705500D02*
X80092500Y-119705500D01*
X78422500Y-120695500D02*
X78422500Y-119695500D01*
X78422500Y-119695500D02*
X75882500Y-119695500D01*
X75882500Y-119695500D02*
X75882500Y-120695500D01*
X78422500Y-119695500D02*
X78172500Y-119165500D01*
X78172500Y-119165500D02*
X76132500Y-119165500D01*
X76132500Y-119165500D02*
X75882500Y-119695500D01*
X78172500Y-120695500D02*
X78172500Y-119695500D01*
X76132500Y-120695500D02*
X76132500Y-119695500D01*
X79222500Y-114675500D02*
X79222500Y-115275500D01*
X79222500Y-115275500D02*
X77622500Y-115275500D01*
X77622500Y-115275500D02*
X77622500Y-114675500D01*
X76682500Y-114675500D02*
X76682500Y-115275500D01*
X76682500Y-115275500D02*
X75082500Y-115275500D01*
X75082500Y-115275500D02*
X75082500Y-114675500D01*
%TO.C,R16*%
X35837600Y-69801824D02*
X35837600Y-69292376D01*
X36882600Y-69801824D02*
X36882600Y-69292376D01*
%TO.C,J3*%
X31534300Y-57921300D02*
X31534300Y-55546300D01*
X31534300Y-61921300D02*
X31534300Y-59291300D01*
X31534300Y-65921300D02*
X31534300Y-63291300D01*
X31534300Y-69921300D02*
X31534300Y-67291300D01*
X31534300Y-73921300D02*
X31534300Y-71291300D01*
X31534300Y-77921300D02*
X31534300Y-75291300D01*
X31534300Y-81921300D02*
X31534300Y-79291300D01*
X31534300Y-85921300D02*
X31534300Y-83291300D01*
X33654300Y-59921300D02*
X33654300Y-57291300D01*
X33654300Y-63921300D02*
X33654300Y-61291300D01*
X33654300Y-67921300D02*
X33654300Y-65291300D01*
X33654300Y-71921300D02*
X33654300Y-69291300D01*
X33654300Y-75921300D02*
X33654300Y-73291300D01*
X33654300Y-79921300D02*
X33654300Y-77291300D01*
X33654300Y-83921300D02*
X33654300Y-81291300D01*
X33654300Y-55921300D02*
X33654300Y-55546300D01*
X31534300Y-87666300D02*
X31534300Y-87291300D01*
X31534300Y-87291300D02*
X30304300Y-87291300D01*
X33654300Y-87666300D02*
X33654300Y-85291300D01*
X31534300Y-55546300D02*
X33654300Y-55546300D01*
X31534300Y-87666300D02*
X33654300Y-87666300D01*
%TO.C,J1*%
D13*
X77485833Y-113037880D02*
X77485833Y-113752166D01*
X77533452Y-113895023D01*
X77628690Y-113990261D01*
X77771547Y-114037880D01*
X77866785Y-114037880D01*
X76485833Y-114037880D02*
X77057261Y-114037880D01*
X76771547Y-114037880D02*
X76771547Y-113037880D01*
X76866785Y-113180738D01*
X76962023Y-113275976D01*
X77057261Y-113323595D01*
%TO.C,R16*%
D14*
X36637090Y-66838071D02*
X36398995Y-66671404D01*
X36637090Y-66552357D02*
X36137090Y-66552357D01*
X36137090Y-66742833D01*
X36160900Y-66790452D01*
X36184709Y-66814261D01*
X36232328Y-66838071D01*
X36303757Y-66838071D01*
X36351376Y-66814261D01*
X36375185Y-66790452D01*
X36398995Y-66742833D01*
X36398995Y-66552357D01*
X36637090Y-67314261D02*
X36637090Y-67028547D01*
X36637090Y-67171404D02*
X36137090Y-67171404D01*
X36208519Y-67123785D01*
X36256138Y-67076166D01*
X36279947Y-67028547D01*
X36137090Y-67742833D02*
X36137090Y-67647595D01*
X36160900Y-67599976D01*
X36184709Y-67576166D01*
X36256138Y-67528547D01*
X36351376Y-67504738D01*
X36541852Y-67504738D01*
X36589471Y-67528547D01*
X36613280Y-67552357D01*
X36637090Y-67599976D01*
X36637090Y-67695214D01*
X36613280Y-67742833D01*
X36589471Y-67766642D01*
X36541852Y-67790452D01*
X36422804Y-67790452D01*
X36375185Y-67766642D01*
X36351376Y-67742833D01*
X36327566Y-67695214D01*
X36327566Y-67599976D01*
X36351376Y-67552357D01*
X36375185Y-67528547D01*
X36422804Y-67504738D01*
%TO.C,J3*%
D13*
X32927633Y-88118680D02*
X32927633Y-88832966D01*
X32975252Y-88975823D01*
X33070490Y-89071061D01*
X33213347Y-89118680D01*
X33308585Y-89118680D01*
X32546680Y-88118680D02*
X31927633Y-88118680D01*
X32260966Y-88499633D01*
X32118109Y-88499633D01*
X32022871Y-88547252D01*
X31975252Y-88594871D01*
X31927633Y-88690109D01*
X31927633Y-88928204D01*
X31975252Y-89023442D01*
X32022871Y-89071061D01*
X32118109Y-89118680D01*
X32403823Y-89118680D01*
X32499061Y-89071061D01*
X32546680Y-89023442D01*
%TD*%
M02*
