M48
; DRILL file {KiCad (5.1.7)-1} date 01/21/21 08:43:31
; FORMAT={-:-/ absolute / inch / decimal}
; #@! TF.CreationDate,2021-01-21T08:43:31+01:00
; #@! TF.GenerationSoftware,Kicad,Pcbnew,(5.1.7)-1
FMAT,2
INCH
T1C0.0118
T2C0.0394
T3C0.0433
T4C0.0469
T5C0.0827
T6C0.1378
%
G90
G05
T1
X2.265Y-3.8481
X2.2651Y-3.6806
X2.3026Y-3.2331
X2.3076Y-3.4506
X2.3301Y-3.3531
X2.4276Y-2.8256
X2.4295Y-3.8861
X2.4355Y-3.7761
X2.5151Y-2.7331
X2.5226Y-4.5706
X2.5251Y-4.3656
X2.5326Y-4.5231
X2.5575Y-3.6918
X2.5576Y-4.3631
X2.5615Y-3.7681
X2.6326Y-2.5631
X2.6576Y-2.5956
X2.6891Y-2.622
X2.7149Y-2.6528
X2.7414Y-2.6681
X2.765Y-4.2847
X2.765Y-4.3497
X2.7801Y-3.2806
X2.7801Y-3.8659
X2.7801Y-3.9881
X2.7926Y-3.2106
X2.8024Y-4.2444
X2.8024Y-4.3172
X2.8024Y-4.3891
X2.8158Y-3.5624
X2.8201Y-3.8636
X2.8305Y-3.9881
X2.8351Y-3.7381
X2.8368Y-4.2847
X2.8368Y-4.3497
X2.8401Y-3.6629
X2.8601Y-3.9881
X2.8698Y-3.8659
X2.8703Y-4.2453
X2.8703Y-4.3172
X2.8703Y-4.3881
X2.8895Y-3.7701
X2.8949Y-3.5627
X2.9087Y-4.2847
X2.9087Y-4.3497
X2.9515Y-3.7341
X2.9725Y-3.8511
X3.0001Y-3.6281
X3.0251Y-3.0831
X3.1201Y-3.6681
X3.1301Y-3.9131
X3.2035Y-3.8821
X3.2101Y-4.2631
X3.2101Y-4.3006
X3.2126Y-4.3331
X3.2399Y-4.0368
X3.2401Y-4.0072
X3.2407Y-4.1086
X3.2415Y-3.9141
X3.2419Y-4.0723
X3.2651Y-3.2306
X3.2893Y-3.3331
X3.3351Y-3.1731
X3.3351Y-4.2156
X3.3926Y-4.5425
X3.6651Y-4.5906
X3.6898Y-3.8424
X3.7626Y-4.5656
X3.7951Y-4.2181
X3.8551Y-3.8831
X3.8626Y-4.2631
X3.9551Y-3.9231
X4.1226Y-2.7181
X4.1701Y-2.7181
X4.2176Y-2.7206
X4.2609Y-2.7189
X4.3626Y-3.4381
X4.42Y-4.7695
X4.4574Y-4.5308
X4.458Y-3.7406
X4.4904Y-4.5308
X4.5593Y-5.0121
X4.5632Y-4.7719
X4.6223Y-4.8241
X4.638Y-4.9255
X4.639Y-4.9688
X4.8126Y-4.3006
X4.8795Y-5.2101
X4.9476Y-4.6931
X5.0001Y-4.3331
X5.0725Y-4.7861
X5.1481Y-4.6901
X5.2851Y-4.0956
X5.4146Y-4.0377
X5.4717Y-4.1641
X5.5041Y-4.2896
X5.5228Y-4.4068
X5.5525Y-4.7845
X5.6252Y-4.0081
T2
X3.0028Y-2.5181
X3.1028Y-2.5181
X3.2028Y-2.5181
X3.3028Y-2.5181
X3.3626Y-4.4181
X3.4028Y-2.5181
X3.4626Y-4.4181
X3.5028Y-2.5181
X3.5626Y-4.4181
X3.6028Y-2.5181
X3.6626Y-4.4181
X3.7028Y-2.5181
X3.7626Y-4.4181
X3.8626Y-2.5181
X3.8626Y-4.4181
X3.9626Y-2.5181
X4.0626Y-2.5181
X4.0626Y-4.4181
X4.1626Y-2.5181
X4.1626Y-4.4181
X4.2626Y-2.5181
X4.2626Y-4.4181
X4.3626Y-2.5181
X4.3626Y-4.4181
X4.4626Y-2.5181
X4.4626Y-4.4181
X4.5626Y-2.5181
X4.5626Y-4.4181
X2.45Y-3.0525
X2.45Y-3.1525
X2.45Y-3.2525
X2.45Y-3.3525
X2.45Y-3.4525
X2.45Y-3.5525
T3
X5.3Y-4.6344
X5.3591Y-5.2053
X5.3788Y-4.6344
X5.4575Y-4.6344
X5.4575Y-5.2053
X5.5362Y-4.6344
X5.5559Y-5.2053
X5.615Y-4.6344
T4
X3.6101Y-5.1081
X3.7101Y-5.1081
T5
X5.239Y-4.91
X5.676Y-4.91
T6
X5.8752Y-5.2847
X2.2197Y-5.2828
X2.2167Y-2.2247
X5.8723Y-2.2306
T0
M30
