M48
; DRILL file {KiCad (5.1.7)-1} date 12/15/20 16:08:40
; FORMAT={-:-/ absolute / inch / decimal}
; #@! TF.CreationDate,2020-12-15T16:08:40+01:00
; #@! TF.GenerationSoftware,Kicad,Pcbnew,(5.1.7)-1
; #@! TF.FileFunction,Plated,1,2,PTH
FMAT,2
INCH
T1C0.0118
T2C0.0394
T3C0.0433
T4C0.0469
T5C0.0827
%
G90
G05
T1
X1.1595Y-3.4341
X1.1595Y-4.3556
X1.2295Y-3.1401
X1.2375Y-3.8521
X1.2435Y-3.1741
X1.2598Y-3.8823
X1.3484Y-3.24
X1.3509Y-3.1025
X1.4335Y-2.8521
X1.4595Y-3.0201
X1.4771Y-2.7525
X1.4855Y-2.9501
X1.5295Y-3.2861
X1.5355Y-3.1761
X1.6295Y-3.8081
X1.6415Y-3.9641
X1.6471Y-3.9277
X1.6575Y-3.1361
X1.6615Y-3.1881
X1.6715Y-3.7901
X1.7161Y-1.8147
X1.7595Y-1.9161
X1.7935Y-3.2321
X1.7955Y-1.9461
X1.7971Y-3.4125
X1.8291Y-3.4625
X1.8315Y-1.9881
X1.8335Y-3.2321
X1.8551Y-2.0261
X1.8571Y-3.5125
X1.865Y-3.6847
X1.865Y-3.7497
X1.8715Y-3.2301
X1.8955Y-3.1121
X1.9015Y-2.9541
X1.9024Y-3.6444
X1.9024Y-3.7172
X1.9024Y-3.7891
X1.9368Y-3.6847
X1.9368Y-3.7497
X1.9703Y-3.6453
X1.9703Y-3.7172
X1.9703Y-3.7881
X1.9895Y-3.1701
X1.9949Y-2.9627
X2.0087Y-3.6847
X2.0087Y-3.7497
X2.0505Y-3.0691
X2.0515Y-3.1341
X2.0725Y-3.2511
X2.1254Y-2.7865
X2.2355Y-3.1061
X2.3035Y-3.2821
X2.304Y-3.8156
X2.3079Y-3.8589
X2.3415Y-3.3141
X2.3475Y-3.6761
X2.3522Y-3.8205
X2.3675Y-3.3501
X2.3915Y-3.3941
X2.3995Y-3.6841
X2.4095Y-3.4301
X2.4295Y-3.4761
X2.5333Y-3.9308
X2.7982Y-3.2507
X2.958Y-3.2796
X3.058Y-3.3126
X3.149Y-2.2286
X3.2575Y-2.2761
X3.3595Y-2.3241
X3.4525Y-2.7211
X3.4555Y-2.3941
X3.52Y-4.1695
X3.558Y-3.1406
X3.5904Y-3.9308
X3.6593Y-4.4121
X3.6632Y-4.1719
X3.7223Y-4.2241
X3.738Y-4.3255
X3.739Y-4.3688
X3.9171Y-4.0125
X3.9795Y-4.6101
X4.0323Y-4.1158
X4.0323Y-4.2516
X4.1016Y-3.9621
X4.1725Y-4.1861
X4.2434Y-4.2481
X4.2481Y-3.9817
X4.3709Y-3.5705
X4.5146Y-3.4377
X4.5717Y-3.5641
X4.6041Y-3.6896
X4.6228Y-3.8068
X4.6525Y-4.1845
X4.7252Y-3.4081
T2
X1.55Y-2.4525
X1.55Y-2.5525
X1.55Y-2.6525
X1.55Y-2.7525
X1.55Y-2.8525
X1.55Y-2.9525
X2.0982Y-1.86
X2.1982Y-1.86
X2.2982Y-1.86
X2.3982Y-1.86
X2.458Y-3.76
X2.4982Y-1.86
X2.558Y-3.76
X2.5982Y-1.86
X2.658Y-3.76
X2.6982Y-1.86
X2.758Y-3.76
X2.7982Y-1.86
X2.858Y-3.76
X2.958Y-1.86
X2.958Y-3.76
X3.058Y-1.86
X3.158Y-1.86
X3.158Y-3.76
X3.258Y-1.86
X3.258Y-3.76
X3.358Y-1.86
X3.358Y-3.76
X3.458Y-1.86
X3.458Y-3.76
X3.558Y-1.86
X3.558Y-3.76
X3.658Y-1.86
X3.658Y-3.76
T3
X4.4Y-4.0344
X4.4591Y-4.6053
X4.4788Y-4.0344
X4.5575Y-4.0344
X4.5575Y-4.6053
X4.6362Y-4.0344
X4.6559Y-4.6053
X4.715Y-4.0344
T4
X2.9875Y-4.6341
X3.0875Y-4.6341
T5
X4.339Y-4.31
X4.776Y-4.31
T0
M30
