%TF.GenerationSoftware,KiCad,Pcbnew,(5.1.7)-1*%
%TF.CreationDate,2021-01-21T08:43:37+01:00*%
%TF.ProjectId,EZ-PY32,455a2d50-5933-4322-9e6b-696361645f70,rev?*%
%TF.SameCoordinates,Original*%
%TF.FileFunction,Paste,Top*%
%TF.FilePolarity,Positive*%
%FSLAX46Y46*%
G04 Gerber Fmt 4.6, Leading zero omitted, Abs format (unit mm)*
G04 Created by KiCad (PCBNEW (5.1.7)-1) date 2021-01-21 08:43:37*
%MOMM*%
%LPD*%
G01*
G04 APERTURE LIST*
%ADD10R,5.000000X5.000000*%
%ADD11R,2.000000X0.900000*%
%ADD12R,0.900000X2.000000*%
%ADD13R,1.000000X2.300000*%
%ADD14R,0.900000X1.700000*%
%ADD15R,1.500000X2.000000*%
%ADD16R,3.800000X2.000000*%
%ADD17R,0.800000X0.900000*%
%ADD18R,0.450000X0.700000*%
%ADD19R,1.520000X3.050000*%
G04 APERTURE END LIST*
%TO.C,C2*%
G36*
G01*
X127627500Y-123056000D02*
X127627500Y-123531000D01*
G75*
G02*
X127390000Y-123768500I-237500J0D01*
G01*
X126790000Y-123768500D01*
G75*
G02*
X126552500Y-123531000I0J237500D01*
G01*
X126552500Y-123056000D01*
G75*
G02*
X126790000Y-122818500I237500J0D01*
G01*
X127390000Y-122818500D01*
G75*
G02*
X127627500Y-123056000I0J-237500D01*
G01*
G37*
G36*
G01*
X129352500Y-123056000D02*
X129352500Y-123531000D01*
G75*
G02*
X129115000Y-123768500I-237500J0D01*
G01*
X128515000Y-123768500D01*
G75*
G02*
X128277500Y-123531000I0J237500D01*
G01*
X128277500Y-123056000D01*
G75*
G02*
X128515000Y-122818500I237500J0D01*
G01*
X129115000Y-122818500D01*
G75*
G02*
X129352500Y-123056000I0J-237500D01*
G01*
G37*
%TD*%
D10*
%TO.C,U5*%
X72056500Y-109657500D03*
D11*
X79556500Y-117157500D03*
X79556500Y-115887500D03*
X79556500Y-114617500D03*
X79556500Y-113347500D03*
X79556500Y-112077500D03*
X79556500Y-110807500D03*
X79556500Y-109537500D03*
X79556500Y-108267500D03*
X79556500Y-106997500D03*
X79556500Y-105727500D03*
X79556500Y-104457500D03*
X79556500Y-103187500D03*
X79556500Y-101917500D03*
X79556500Y-100647500D03*
D12*
X76771500Y-99647500D03*
X75501500Y-99647500D03*
X74231500Y-99647500D03*
X72961500Y-99647500D03*
X71691500Y-99647500D03*
X70421500Y-99647500D03*
X69151500Y-99647500D03*
X67881500Y-99647500D03*
X66611500Y-99647500D03*
X65341500Y-99647500D03*
D11*
X62556500Y-100647500D03*
X62556500Y-101917500D03*
X62556500Y-103187500D03*
X62556500Y-104457500D03*
X62556500Y-105727500D03*
X62556500Y-106997500D03*
X62556500Y-108267500D03*
X62556500Y-109537500D03*
X62556500Y-110807500D03*
X62556500Y-112077500D03*
X62556500Y-113347500D03*
X62556500Y-114617500D03*
X62556500Y-115887500D03*
X62556500Y-117157500D03*
%TD*%
%TO.C,C9*%
G36*
G01*
X87958360Y-114297880D02*
X87958360Y-113822880D01*
G75*
G02*
X88195860Y-113585380I237500J0D01*
G01*
X88795860Y-113585380D01*
G75*
G02*
X89033360Y-113822880I0J-237500D01*
G01*
X89033360Y-114297880D01*
G75*
G02*
X88795860Y-114535380I-237500J0D01*
G01*
X88195860Y-114535380D01*
G75*
G02*
X87958360Y-114297880I0J237500D01*
G01*
G37*
G36*
G01*
X86233360Y-114297880D02*
X86233360Y-113822880D01*
G75*
G02*
X86470860Y-113585380I237500J0D01*
G01*
X87070860Y-113585380D01*
G75*
G02*
X87308360Y-113822880I0J-237500D01*
G01*
X87308360Y-114297880D01*
G75*
G02*
X87070860Y-114535380I-237500J0D01*
G01*
X86470860Y-114535380D01*
G75*
G02*
X86233360Y-114297880I0J237500D01*
G01*
G37*
%TD*%
%TO.C,C4*%
G36*
G01*
X112805360Y-119594380D02*
X112805360Y-120069380D01*
G75*
G02*
X112567860Y-120306880I-237500J0D01*
G01*
X111967860Y-120306880D01*
G75*
G02*
X111730360Y-120069380I0J237500D01*
G01*
X111730360Y-119594380D01*
G75*
G02*
X111967860Y-119356880I237500J0D01*
G01*
X112567860Y-119356880D01*
G75*
G02*
X112805360Y-119594380I0J-237500D01*
G01*
G37*
G36*
G01*
X111080360Y-119594380D02*
X111080360Y-120069380D01*
G75*
G02*
X110842860Y-120306880I-237500J0D01*
G01*
X110242860Y-120306880D01*
G75*
G02*
X110005360Y-120069380I0J237500D01*
G01*
X110005360Y-119594380D01*
G75*
G02*
X110242860Y-119356880I237500J0D01*
G01*
X110842860Y-119356880D01*
G75*
G02*
X111080360Y-119594380I0J-237500D01*
G01*
G37*
%TD*%
D13*
%TO.C,U3*%
X98869500Y-130025500D03*
X101409500Y-130025500D03*
X106489500Y-130025500D03*
X98869500Y-120625500D03*
X106489500Y-120625500D03*
%TD*%
%TO.C,R10*%
G36*
G01*
X77399700Y-95083000D02*
X77399700Y-94608000D01*
G75*
G02*
X77637200Y-94370500I237500J0D01*
G01*
X78137200Y-94370500D01*
G75*
G02*
X78374700Y-94608000I0J-237500D01*
G01*
X78374700Y-95083000D01*
G75*
G02*
X78137200Y-95320500I-237500J0D01*
G01*
X77637200Y-95320500D01*
G75*
G02*
X77399700Y-95083000I0J237500D01*
G01*
G37*
G36*
G01*
X75574700Y-95083000D02*
X75574700Y-94608000D01*
G75*
G02*
X75812200Y-94370500I237500J0D01*
G01*
X76312200Y-94370500D01*
G75*
G02*
X76549700Y-94608000I0J-237500D01*
G01*
X76549700Y-95083000D01*
G75*
G02*
X76312200Y-95320500I-237500J0D01*
G01*
X75812200Y-95320500D01*
G75*
G02*
X75574700Y-95083000I0J237500D01*
G01*
G37*
%TD*%
%TO.C,R6*%
G36*
G01*
X136351000Y-114828500D02*
X136826000Y-114828500D01*
G75*
G02*
X137063500Y-115066000I0J-237500D01*
G01*
X137063500Y-115566000D01*
G75*
G02*
X136826000Y-115803500I-237500J0D01*
G01*
X136351000Y-115803500D01*
G75*
G02*
X136113500Y-115566000I0J237500D01*
G01*
X136113500Y-115066000D01*
G75*
G02*
X136351000Y-114828500I237500J0D01*
G01*
G37*
G36*
G01*
X136351000Y-113003500D02*
X136826000Y-113003500D01*
G75*
G02*
X137063500Y-113241000I0J-237500D01*
G01*
X137063500Y-113741000D01*
G75*
G02*
X136826000Y-113978500I-237500J0D01*
G01*
X136351000Y-113978500D01*
G75*
G02*
X136113500Y-113741000I0J237500D01*
G01*
X136113500Y-113241000D01*
G75*
G02*
X136351000Y-113003500I237500J0D01*
G01*
G37*
%TD*%
%TO.C,R5*%
G36*
G01*
X134319000Y-114725000D02*
X134794000Y-114725000D01*
G75*
G02*
X135031500Y-114962500I0J-237500D01*
G01*
X135031500Y-115462500D01*
G75*
G02*
X134794000Y-115700000I-237500J0D01*
G01*
X134319000Y-115700000D01*
G75*
G02*
X134081500Y-115462500I0J237500D01*
G01*
X134081500Y-114962500D01*
G75*
G02*
X134319000Y-114725000I237500J0D01*
G01*
G37*
G36*
G01*
X134319000Y-112900000D02*
X134794000Y-112900000D01*
G75*
G02*
X135031500Y-113137500I0J-237500D01*
G01*
X135031500Y-113637500D01*
G75*
G02*
X134794000Y-113875000I-237500J0D01*
G01*
X134319000Y-113875000D01*
G75*
G02*
X134081500Y-113637500I0J237500D01*
G01*
X134081500Y-113137500D01*
G75*
G02*
X134319000Y-112900000I237500J0D01*
G01*
G37*
%TD*%
D14*
%TO.C,SW1*%
X56183000Y-94043500D03*
X52783000Y-94043500D03*
%TD*%
%TO.C,R14*%
G36*
G01*
X62300300Y-92957000D02*
X62300300Y-93432000D01*
G75*
G02*
X62062800Y-93669500I-237500J0D01*
G01*
X61562800Y-93669500D01*
G75*
G02*
X61325300Y-93432000I0J237500D01*
G01*
X61325300Y-92957000D01*
G75*
G02*
X61562800Y-92719500I237500J0D01*
G01*
X62062800Y-92719500D01*
G75*
G02*
X62300300Y-92957000I0J-237500D01*
G01*
G37*
G36*
G01*
X64125300Y-92957000D02*
X64125300Y-93432000D01*
G75*
G02*
X63887800Y-93669500I-237500J0D01*
G01*
X63387800Y-93669500D01*
G75*
G02*
X63150300Y-93432000I0J237500D01*
G01*
X63150300Y-92957000D01*
G75*
G02*
X63387800Y-92719500I237500J0D01*
G01*
X63887800Y-92719500D01*
G75*
G02*
X64125300Y-92957000I0J-237500D01*
G01*
G37*
%TD*%
%TO.C,C3*%
G36*
G01*
X139199500Y-107783000D02*
X139199500Y-107308000D01*
G75*
G02*
X139437000Y-107070500I237500J0D01*
G01*
X140037000Y-107070500D01*
G75*
G02*
X140274500Y-107308000I0J-237500D01*
G01*
X140274500Y-107783000D01*
G75*
G02*
X140037000Y-108020500I-237500J0D01*
G01*
X139437000Y-108020500D01*
G75*
G02*
X139199500Y-107783000I0J237500D01*
G01*
G37*
G36*
G01*
X137474500Y-107783000D02*
X137474500Y-107308000D01*
G75*
G02*
X137712000Y-107070500I237500J0D01*
G01*
X138312000Y-107070500D01*
G75*
G02*
X138549500Y-107308000I0J-237500D01*
G01*
X138549500Y-107783000D01*
G75*
G02*
X138312000Y-108020500I-237500J0D01*
G01*
X137712000Y-108020500D01*
G75*
G02*
X137474500Y-107783000I0J237500D01*
G01*
G37*
%TD*%
%TO.C,C8*%
G36*
G01*
X62400300Y-94608000D02*
X62400300Y-95083000D01*
G75*
G02*
X62162800Y-95320500I-237500J0D01*
G01*
X61562800Y-95320500D01*
G75*
G02*
X61325300Y-95083000I0J237500D01*
G01*
X61325300Y-94608000D01*
G75*
G02*
X61562800Y-94370500I237500J0D01*
G01*
X62162800Y-94370500D01*
G75*
G02*
X62400300Y-94608000I0J-237500D01*
G01*
G37*
G36*
G01*
X64125300Y-94608000D02*
X64125300Y-95083000D01*
G75*
G02*
X63887800Y-95320500I-237500J0D01*
G01*
X63287800Y-95320500D01*
G75*
G02*
X63050300Y-95083000I0J237500D01*
G01*
X63050300Y-94608000D01*
G75*
G02*
X63287800Y-94370500I237500J0D01*
G01*
X63887800Y-94370500D01*
G75*
G02*
X64125300Y-94608000I0J-237500D01*
G01*
G37*
%TD*%
%TO.C,R11*%
G36*
G01*
X76549700Y-92957000D02*
X76549700Y-93432000D01*
G75*
G02*
X76312200Y-93669500I-237500J0D01*
G01*
X75812200Y-93669500D01*
G75*
G02*
X75574700Y-93432000I0J237500D01*
G01*
X75574700Y-92957000D01*
G75*
G02*
X75812200Y-92719500I237500J0D01*
G01*
X76312200Y-92719500D01*
G75*
G02*
X76549700Y-92957000I0J-237500D01*
G01*
G37*
G36*
G01*
X78374700Y-92957000D02*
X78374700Y-93432000D01*
G75*
G02*
X78137200Y-93669500I-237500J0D01*
G01*
X77637200Y-93669500D01*
G75*
G02*
X77399700Y-93432000I0J237500D01*
G01*
X77399700Y-92957000D01*
G75*
G02*
X77637200Y-92719500I237500J0D01*
G01*
X78137200Y-92719500D01*
G75*
G02*
X78374700Y-92957000I0J-237500D01*
G01*
G37*
%TD*%
%TO.C,R15*%
G36*
G01*
X62249500Y-97351200D02*
X62249500Y-97826200D01*
G75*
G02*
X62012000Y-98063700I-237500J0D01*
G01*
X61512000Y-98063700D01*
G75*
G02*
X61274500Y-97826200I0J237500D01*
G01*
X61274500Y-97351200D01*
G75*
G02*
X61512000Y-97113700I237500J0D01*
G01*
X62012000Y-97113700D01*
G75*
G02*
X62249500Y-97351200I0J-237500D01*
G01*
G37*
G36*
G01*
X64074500Y-97351200D02*
X64074500Y-97826200D01*
G75*
G02*
X63837000Y-98063700I-237500J0D01*
G01*
X63337000Y-98063700D01*
G75*
G02*
X63099500Y-97826200I0J237500D01*
G01*
X63099500Y-97351200D01*
G75*
G02*
X63337000Y-97113700I237500J0D01*
G01*
X63837000Y-97113700D01*
G75*
G02*
X64074500Y-97351200I0J-237500D01*
G01*
G37*
%TD*%
%TO.C,C1*%
G36*
G01*
X122852300Y-125697600D02*
X122852300Y-126172600D01*
G75*
G02*
X122614800Y-126410100I-237500J0D01*
G01*
X122014800Y-126410100D01*
G75*
G02*
X121777300Y-126172600I0J237500D01*
G01*
X121777300Y-125697600D01*
G75*
G02*
X122014800Y-125460100I237500J0D01*
G01*
X122614800Y-125460100D01*
G75*
G02*
X122852300Y-125697600I0J-237500D01*
G01*
G37*
G36*
G01*
X124577300Y-125697600D02*
X124577300Y-126172600D01*
G75*
G02*
X124339800Y-126410100I-237500J0D01*
G01*
X123739800Y-126410100D01*
G75*
G02*
X123502300Y-126172600I0J237500D01*
G01*
X123502300Y-125697600D01*
G75*
G02*
X123739800Y-125460100I237500J0D01*
G01*
X124339800Y-125460100D01*
G75*
G02*
X124577300Y-125697600I0J-237500D01*
G01*
G37*
%TD*%
%TO.C,C5*%
G36*
G01*
X110905360Y-122369380D02*
X110905360Y-122844380D01*
G75*
G02*
X110667860Y-123081880I-237500J0D01*
G01*
X110067860Y-123081880D01*
G75*
G02*
X109830360Y-122844380I0J237500D01*
G01*
X109830360Y-122369380D01*
G75*
G02*
X110067860Y-122131880I237500J0D01*
G01*
X110667860Y-122131880D01*
G75*
G02*
X110905360Y-122369380I0J-237500D01*
G01*
G37*
G36*
G01*
X112630360Y-122369380D02*
X112630360Y-122844380D01*
G75*
G02*
X112392860Y-123081880I-237500J0D01*
G01*
X111792860Y-123081880D01*
G75*
G02*
X111555360Y-122844380I0J237500D01*
G01*
X111555360Y-122369380D01*
G75*
G02*
X111792860Y-122131880I237500J0D01*
G01*
X112392860Y-122131880D01*
G75*
G02*
X112630360Y-122369380I0J-237500D01*
G01*
G37*
%TD*%
%TO.C,C6*%
G36*
G01*
X115380360Y-122769380D02*
X115380360Y-122294380D01*
G75*
G02*
X115617860Y-122056880I237500J0D01*
G01*
X116217860Y-122056880D01*
G75*
G02*
X116455360Y-122294380I0J-237500D01*
G01*
X116455360Y-122769380D01*
G75*
G02*
X116217860Y-123006880I-237500J0D01*
G01*
X115617860Y-123006880D01*
G75*
G02*
X115380360Y-122769380I0J237500D01*
G01*
G37*
G36*
G01*
X113655360Y-122769380D02*
X113655360Y-122294380D01*
G75*
G02*
X113892860Y-122056880I237500J0D01*
G01*
X114492860Y-122056880D01*
G75*
G02*
X114730360Y-122294380I0J-237500D01*
G01*
X114730360Y-122769380D01*
G75*
G02*
X114492860Y-123006880I-237500J0D01*
G01*
X113892860Y-123006880D01*
G75*
G02*
X113655360Y-122769380I0J237500D01*
G01*
G37*
%TD*%
%TO.C,C7*%
G36*
G01*
X77355360Y-96244380D02*
X77355360Y-96719380D01*
G75*
G02*
X77117860Y-96956880I-237500J0D01*
G01*
X76517860Y-96956880D01*
G75*
G02*
X76280360Y-96719380I0J237500D01*
G01*
X76280360Y-96244380D01*
G75*
G02*
X76517860Y-96006880I237500J0D01*
G01*
X77117860Y-96006880D01*
G75*
G02*
X77355360Y-96244380I0J-237500D01*
G01*
G37*
G36*
G01*
X79080360Y-96244380D02*
X79080360Y-96719380D01*
G75*
G02*
X78842860Y-96956880I-237500J0D01*
G01*
X78242860Y-96956880D01*
G75*
G02*
X78005360Y-96719380I0J237500D01*
G01*
X78005360Y-96244380D01*
G75*
G02*
X78242860Y-96006880I237500J0D01*
G01*
X78842860Y-96006880D01*
G75*
G02*
X79080360Y-96244380I0J-237500D01*
G01*
G37*
%TD*%
%TO.C,C10*%
G36*
G01*
X82917860Y-116831880D02*
X83392860Y-116831880D01*
G75*
G02*
X83630360Y-117069380I0J-237500D01*
G01*
X83630360Y-117669380D01*
G75*
G02*
X83392860Y-117906880I-237500J0D01*
G01*
X82917860Y-117906880D01*
G75*
G02*
X82680360Y-117669380I0J237500D01*
G01*
X82680360Y-117069380D01*
G75*
G02*
X82917860Y-116831880I237500J0D01*
G01*
G37*
G36*
G01*
X82917860Y-115106880D02*
X83392860Y-115106880D01*
G75*
G02*
X83630360Y-115344380I0J-237500D01*
G01*
X83630360Y-115944380D01*
G75*
G02*
X83392860Y-116181880I-237500J0D01*
G01*
X82917860Y-116181880D01*
G75*
G02*
X82680360Y-115944380I0J237500D01*
G01*
X82680360Y-115344380D01*
G75*
G02*
X82917860Y-115106880I237500J0D01*
G01*
G37*
%TD*%
%TO.C,C11*%
G36*
G01*
X81317860Y-116831880D02*
X81792860Y-116831880D01*
G75*
G02*
X82030360Y-117069380I0J-237500D01*
G01*
X82030360Y-117669380D01*
G75*
G02*
X81792860Y-117906880I-237500J0D01*
G01*
X81317860Y-117906880D01*
G75*
G02*
X81080360Y-117669380I0J237500D01*
G01*
X81080360Y-117069380D01*
G75*
G02*
X81317860Y-116831880I237500J0D01*
G01*
G37*
G36*
G01*
X81317860Y-115106880D02*
X81792860Y-115106880D01*
G75*
G02*
X82030360Y-115344380I0J-237500D01*
G01*
X82030360Y-115944380D01*
G75*
G02*
X81792860Y-116181880I-237500J0D01*
G01*
X81317860Y-116181880D01*
G75*
G02*
X81080360Y-115944380I0J237500D01*
G01*
X81080360Y-115344380D01*
G75*
G02*
X81317860Y-115106880I237500J0D01*
G01*
G37*
%TD*%
%TO.C,R1*%
G36*
G01*
X125278700Y-128153800D02*
X125278700Y-127678800D01*
G75*
G02*
X125516200Y-127441300I237500J0D01*
G01*
X126016200Y-127441300D01*
G75*
G02*
X126253700Y-127678800I0J-237500D01*
G01*
X126253700Y-128153800D01*
G75*
G02*
X126016200Y-128391300I-237500J0D01*
G01*
X125516200Y-128391300D01*
G75*
G02*
X125278700Y-128153800I0J237500D01*
G01*
G37*
G36*
G01*
X123453700Y-128153800D02*
X123453700Y-127678800D01*
G75*
G02*
X123691200Y-127441300I237500J0D01*
G01*
X124191200Y-127441300D01*
G75*
G02*
X124428700Y-127678800I0J-237500D01*
G01*
X124428700Y-128153800D01*
G75*
G02*
X124191200Y-128391300I-237500J0D01*
G01*
X123691200Y-128391300D01*
G75*
G02*
X123453700Y-128153800I0J237500D01*
G01*
G37*
%TD*%
%TO.C,R2*%
G36*
G01*
X130206300Y-120432200D02*
X130206300Y-119957200D01*
G75*
G02*
X130443800Y-119719700I237500J0D01*
G01*
X130943800Y-119719700D01*
G75*
G02*
X131181300Y-119957200I0J-237500D01*
G01*
X131181300Y-120432200D01*
G75*
G02*
X130943800Y-120669700I-237500J0D01*
G01*
X130443800Y-120669700D01*
G75*
G02*
X130206300Y-120432200I0J237500D01*
G01*
G37*
G36*
G01*
X128381300Y-120432200D02*
X128381300Y-119957200D01*
G75*
G02*
X128618800Y-119719700I237500J0D01*
G01*
X129118800Y-119719700D01*
G75*
G02*
X129356300Y-119957200I0J-237500D01*
G01*
X129356300Y-120432200D01*
G75*
G02*
X129118800Y-120669700I-237500J0D01*
G01*
X128618800Y-120669700D01*
G75*
G02*
X128381300Y-120432200I0J237500D01*
G01*
G37*
%TD*%
%TO.C,R3*%
G36*
G01*
X123500700Y-130439800D02*
X123500700Y-129964800D01*
G75*
G02*
X123738200Y-129727300I237500J0D01*
G01*
X124238200Y-129727300D01*
G75*
G02*
X124475700Y-129964800I0J-237500D01*
G01*
X124475700Y-130439800D01*
G75*
G02*
X124238200Y-130677300I-237500J0D01*
G01*
X123738200Y-130677300D01*
G75*
G02*
X123500700Y-130439800I0J237500D01*
G01*
G37*
G36*
G01*
X121675700Y-130439800D02*
X121675700Y-129964800D01*
G75*
G02*
X121913200Y-129727300I237500J0D01*
G01*
X122413200Y-129727300D01*
G75*
G02*
X122650700Y-129964800I0J-237500D01*
G01*
X122650700Y-130439800D01*
G75*
G02*
X122413200Y-130677300I-237500J0D01*
G01*
X121913200Y-130677300D01*
G75*
G02*
X121675700Y-130439800I0J237500D01*
G01*
G37*
%TD*%
%TO.C,R4*%
G36*
G01*
X127527500Y-117722000D02*
X127527500Y-118197000D01*
G75*
G02*
X127290000Y-118434500I-237500J0D01*
G01*
X126790000Y-118434500D01*
G75*
G02*
X126552500Y-118197000I0J237500D01*
G01*
X126552500Y-117722000D01*
G75*
G02*
X126790000Y-117484500I237500J0D01*
G01*
X127290000Y-117484500D01*
G75*
G02*
X127527500Y-117722000I0J-237500D01*
G01*
G37*
G36*
G01*
X129352500Y-117722000D02*
X129352500Y-118197000D01*
G75*
G02*
X129115000Y-118434500I-237500J0D01*
G01*
X128615000Y-118434500D01*
G75*
G02*
X128377500Y-118197000I0J237500D01*
G01*
X128377500Y-117722000D01*
G75*
G02*
X128615000Y-117484500I237500J0D01*
G01*
X129115000Y-117484500D01*
G75*
G02*
X129352500Y-117722000I0J-237500D01*
G01*
G37*
%TD*%
%TO.C,R8*%
G36*
G01*
X138383000Y-114828500D02*
X138858000Y-114828500D01*
G75*
G02*
X139095500Y-115066000I0J-237500D01*
G01*
X139095500Y-115566000D01*
G75*
G02*
X138858000Y-115803500I-237500J0D01*
G01*
X138383000Y-115803500D01*
G75*
G02*
X138145500Y-115566000I0J237500D01*
G01*
X138145500Y-115066000D01*
G75*
G02*
X138383000Y-114828500I237500J0D01*
G01*
G37*
G36*
G01*
X138383000Y-113003500D02*
X138858000Y-113003500D01*
G75*
G02*
X139095500Y-113241000I0J-237500D01*
G01*
X139095500Y-113741000D01*
G75*
G02*
X138858000Y-113978500I-237500J0D01*
G01*
X138383000Y-113978500D01*
G75*
G02*
X138145500Y-113741000I0J237500D01*
G01*
X138145500Y-113241000D01*
G75*
G02*
X138383000Y-113003500I237500J0D01*
G01*
G37*
%TD*%
%TO.C,R9*%
G36*
G01*
X139299500Y-110577000D02*
X139299500Y-110102000D01*
G75*
G02*
X139537000Y-109864500I237500J0D01*
G01*
X140037000Y-109864500D01*
G75*
G02*
X140274500Y-110102000I0J-237500D01*
G01*
X140274500Y-110577000D01*
G75*
G02*
X140037000Y-110814500I-237500J0D01*
G01*
X139537000Y-110814500D01*
G75*
G02*
X139299500Y-110577000I0J237500D01*
G01*
G37*
G36*
G01*
X137474500Y-110577000D02*
X137474500Y-110102000D01*
G75*
G02*
X137712000Y-109864500I237500J0D01*
G01*
X138212000Y-109864500D01*
G75*
G02*
X138449500Y-110102000I0J-237500D01*
G01*
X138449500Y-110577000D01*
G75*
G02*
X138212000Y-110814500I-237500J0D01*
G01*
X137712000Y-110814500D01*
G75*
G02*
X137474500Y-110577000I0J237500D01*
G01*
G37*
%TD*%
%TO.C,R7*%
G36*
G01*
X140415000Y-114828500D02*
X140890000Y-114828500D01*
G75*
G02*
X141127500Y-115066000I0J-237500D01*
G01*
X141127500Y-115566000D01*
G75*
G02*
X140890000Y-115803500I-237500J0D01*
G01*
X140415000Y-115803500D01*
G75*
G02*
X140177500Y-115566000I0J237500D01*
G01*
X140177500Y-115066000D01*
G75*
G02*
X140415000Y-114828500I237500J0D01*
G01*
G37*
G36*
G01*
X140415000Y-113003500D02*
X140890000Y-113003500D01*
G75*
G02*
X141127500Y-113241000I0J-237500D01*
G01*
X141127500Y-113741000D01*
G75*
G02*
X140890000Y-113978500I-237500J0D01*
G01*
X140415000Y-113978500D01*
G75*
G02*
X140177500Y-113741000I0J237500D01*
G01*
X140177500Y-113241000D01*
G75*
G02*
X140415000Y-113003500I237500J0D01*
G01*
G37*
%TD*%
D15*
%TO.C,U4*%
X115824500Y-125132500D03*
X111224500Y-125132500D03*
X113524500Y-125132500D03*
D16*
X113524500Y-131432500D03*
%TD*%
D17*
%TO.C,Q4*%
X77863700Y-91654500D03*
X76913700Y-89654500D03*
X78813700Y-89654500D03*
%TD*%
D18*
%TO.C,Q5*%
X74180700Y-91527500D03*
X73530700Y-89527500D03*
X74830700Y-89527500D03*
%TD*%
%TO.C,R12*%
G36*
G01*
X70971400Y-92679700D02*
X71446400Y-92679700D01*
G75*
G02*
X71683900Y-92917200I0J-237500D01*
G01*
X71683900Y-93417200D01*
G75*
G02*
X71446400Y-93654700I-237500J0D01*
G01*
X70971400Y-93654700D01*
G75*
G02*
X70733900Y-93417200I0J237500D01*
G01*
X70733900Y-92917200D01*
G75*
G02*
X70971400Y-92679700I237500J0D01*
G01*
G37*
G36*
G01*
X70971400Y-90854700D02*
X71446400Y-90854700D01*
G75*
G02*
X71683900Y-91092200I0J-237500D01*
G01*
X71683900Y-91592200D01*
G75*
G02*
X71446400Y-91829700I-237500J0D01*
G01*
X70971400Y-91829700D01*
G75*
G02*
X70733900Y-91592200I0J237500D01*
G01*
X70733900Y-91092200D01*
G75*
G02*
X70971400Y-90854700I237500J0D01*
G01*
G37*
%TD*%
%TO.C,R13*%
G36*
G01*
X77333300Y-87343600D02*
X77333300Y-87818600D01*
G75*
G02*
X77095800Y-88056100I-237500J0D01*
G01*
X76595800Y-88056100D01*
G75*
G02*
X76358300Y-87818600I0J237500D01*
G01*
X76358300Y-87343600D01*
G75*
G02*
X76595800Y-87106100I237500J0D01*
G01*
X77095800Y-87106100D01*
G75*
G02*
X77333300Y-87343600I0J-237500D01*
G01*
G37*
G36*
G01*
X75508300Y-87343600D02*
X75508300Y-87818600D01*
G75*
G02*
X75270800Y-88056100I-237500J0D01*
G01*
X74770800Y-88056100D01*
G75*
G02*
X74533300Y-87818600I0J237500D01*
G01*
X74533300Y-87343600D01*
G75*
G02*
X74770800Y-87106100I237500J0D01*
G01*
X75270800Y-87106100D01*
G75*
G02*
X75508300Y-87343600I0J-237500D01*
G01*
G37*
%TD*%
D17*
%TO.C,Q1*%
X142923300Y-103615100D03*
X141023300Y-103615100D03*
X141973300Y-105615100D03*
%TD*%
%TO.C,Q2*%
X136588500Y-105751500D03*
X135638500Y-103751500D03*
X137538500Y-103751500D03*
%TD*%
%TO.C,Q3*%
X135506500Y-107561500D03*
X133606500Y-107561500D03*
X134556500Y-109561500D03*
%TD*%
%TO.C,R18*%
G36*
G01*
X72409860Y-81037380D02*
X72884860Y-81037380D01*
G75*
G02*
X73122360Y-81274880I0J-237500D01*
G01*
X73122360Y-81774880D01*
G75*
G02*
X72884860Y-82012380I-237500J0D01*
G01*
X72409860Y-82012380D01*
G75*
G02*
X72172360Y-81774880I0J237500D01*
G01*
X72172360Y-81274880D01*
G75*
G02*
X72409860Y-81037380I237500J0D01*
G01*
G37*
G36*
G01*
X72409860Y-82862380D02*
X72884860Y-82862380D01*
G75*
G02*
X73122360Y-83099880I0J-237500D01*
G01*
X73122360Y-83599880D01*
G75*
G02*
X72884860Y-83837380I-237500J0D01*
G01*
X72409860Y-83837380D01*
G75*
G02*
X72172360Y-83599880I0J237500D01*
G01*
X72172360Y-83099880D01*
G75*
G02*
X72409860Y-82862380I237500J0D01*
G01*
G37*
%TD*%
D14*
%TO.C,SW2*%
X52783000Y-97536000D03*
X56183000Y-97536000D03*
%TD*%
%TO.C,R16*%
G36*
G01*
X85076860Y-116412880D02*
X84601860Y-116412880D01*
G75*
G02*
X84364360Y-116175380I0J237500D01*
G01*
X84364360Y-115675380D01*
G75*
G02*
X84601860Y-115437880I237500J0D01*
G01*
X85076860Y-115437880D01*
G75*
G02*
X85314360Y-115675380I0J-237500D01*
G01*
X85314360Y-116175380D01*
G75*
G02*
X85076860Y-116412880I-237500J0D01*
G01*
G37*
G36*
G01*
X85076860Y-114587880D02*
X84601860Y-114587880D01*
G75*
G02*
X84364360Y-114350380I0J237500D01*
G01*
X84364360Y-113850380D01*
G75*
G02*
X84601860Y-113612880I237500J0D01*
G01*
X85076860Y-113612880D01*
G75*
G02*
X85314360Y-113850380I0J-237500D01*
G01*
X85314360Y-114350380D01*
G75*
G02*
X85076860Y-114587880I-237500J0D01*
G01*
G37*
%TD*%
D19*
%TO.C,L1*%
X111975360Y-116956880D03*
X109685360Y-116956880D03*
%TD*%
%TO.C,R17*%
G36*
G01*
X59800860Y-72006880D02*
X59800860Y-71531880D01*
G75*
G02*
X60038360Y-71294380I237500J0D01*
G01*
X60538360Y-71294380D01*
G75*
G02*
X60775860Y-71531880I0J-237500D01*
G01*
X60775860Y-72006880D01*
G75*
G02*
X60538360Y-72244380I-237500J0D01*
G01*
X60038360Y-72244380D01*
G75*
G02*
X59800860Y-72006880I0J237500D01*
G01*
G37*
G36*
G01*
X57975860Y-72006880D02*
X57975860Y-71531880D01*
G75*
G02*
X58213360Y-71294380I237500J0D01*
G01*
X58713360Y-71294380D01*
G75*
G02*
X58950860Y-71531880I0J-237500D01*
G01*
X58950860Y-72006880D01*
G75*
G02*
X58713360Y-72244380I-237500J0D01*
G01*
X58213360Y-72244380D01*
G75*
G02*
X57975860Y-72006880I0J237500D01*
G01*
G37*
%TD*%
%TO.C,R19*%
G36*
G01*
X60134860Y-69657380D02*
X60134860Y-69182380D01*
G75*
G02*
X60372360Y-68944880I237500J0D01*
G01*
X60872360Y-68944880D01*
G75*
G02*
X61109860Y-69182380I0J-237500D01*
G01*
X61109860Y-69657380D01*
G75*
G02*
X60872360Y-69894880I-237500J0D01*
G01*
X60372360Y-69894880D01*
G75*
G02*
X60134860Y-69657380I0J237500D01*
G01*
G37*
G36*
G01*
X61959860Y-69657380D02*
X61959860Y-69182380D01*
G75*
G02*
X62197360Y-68944880I237500J0D01*
G01*
X62697360Y-68944880D01*
G75*
G02*
X62934860Y-69182380I0J-237500D01*
G01*
X62934860Y-69657380D01*
G75*
G02*
X62697360Y-69894880I-237500J0D01*
G01*
X62197360Y-69894880D01*
G75*
G02*
X61959860Y-69657380I0J237500D01*
G01*
G37*
%TD*%
M02*
